<?xml version="1.0" encoding="utf-8"?>
<!-- Generator: Adobe Illustrator 16.0.0, SVG Export Plug-In . SVG Version: 6.00 Build 0)  -->
<!DOCTYPE svg PUBLIC "-//W3C//DTD SVG 1.1//EN" "http://www.w3.org/Graphics/SVG/1.1/DTD/svg11.dtd">
<svg version="1.1" id="Layer_1" xmlns="http://www.w3.org/2000/svg" xmlns:xlink="http://www.w3.org/1999/xlink" x="0px" y="0px"
	 width="612px" height="792px" viewBox="0 0 612 792" enable-background="new 0 0 612 792" xml:space="preserve">
<path fill="none" stroke="#000000" stroke-width="0.72" stroke-linecap="round" stroke-linejoin="round" stroke-miterlimit="10" d="
	M284.7,746.1h-28.08 M489.48,746.1H464.52"/>
<path fill="none" stroke="#000000" stroke-width="0.72" stroke-linecap="round" stroke-linejoin="round" stroke-miterlimit="10" d="
	M486.36,119.82V53.34h-20.04v-7.02 M466.32,46.32h-53.46 M283.14,197.88v21.06 M259.74,90.48v29.34 M259.74,49.62v31.44
	 M408.66,122.88H362.4 M412.32,121.32h70.739 M408.18,46.32H370.2v58.44 M334.8,119.58v-0.54 M299.94,121.38H333 M263.04,122.94
	v1.56 M263.04,121.38h8.46 M370.2,119.88v-0.48 M370.2,104.76v0.48 M334.8,103.98V49.62 M370.2,119.88v1.44h38.46 M334.8,49.62
	h-1.56 M368.64,46.32h-30.72 M483.06,121.32v-1.5 M466.32,122.88h-54 M486.36,128.7v-4.2 M483.06,725.52h3.301 M483.06,725.52v-6.42
	h3.301 M486.36,725.52v20.58 M464.52,725.52v20.58 M412.86,719.1v3.301 M412.86,719.1h-4.681v3.301 M412.86,722.4h51.659
	 M486.36,644.16h-3.301 M483.06,644.16v4.68h3.301 M486.36,648.84v70.26 M486.36,573.96h-3.301 M483.06,573.96v-4.68h3.301
	 M486.36,573.96v34.32 M486.36,499.02h-3.301 M483.06,499.02v-4.68h3.301 M486.36,499.02v70.261 M486.36,609.84v34.32 M337.92,722.4
	V719.1h-4.68 M333.24,719.1v3.301 M284.7,725.52v20.58 M263.04,725.64h-3.3 M263.04,725.64v-6.54h-3.3 M259.74,725.52v20.58
	 M284.7,722.4h48.54 M259.74,644.16h3.3v4.68 M259.74,719.1v-70.26h3.3 M259.74,569.28h3.3v4.68 M263.04,573.96h-3.3 M263.04,499.02
	h-3.3 M263.04,499.02v-4.68h-3.3 M259.74,499.02v70.261 M259.74,573.96v70.2 M284.7,725.52H464.52 M337.92,722.4h70.26
	 M486.36,419.46h-3.301v4.68 M486.36,424.14h-3.301 M486.36,349.26h-3.301 M483.06,349.26v-4.74h3.301 M486.36,349.26v70.2
	 M486.36,269.64h-3.301v4.68 M486.36,344.52v-70.2h-3.301 M486.36,194.76h-3.301 M483.06,194.76v4.68h3.301 M412.32,195.24v3.66
	 M412.32,198.9h-3.66v-3.66 M412.32,195.24h-3.66 M464.52,197.76H412.32 M467.64,196.2H412.32 M483.06,124.5h3.301v4.2
	 M486.36,119.82h-3.301 M483.06,124.5v-1.62 M466.32,122.88v7.14 M483.06,122.88h-15.42v5.82 M486.36,130.02h-20.04 M486.36,128.7
	H467.64 M412.32,120.36v3.6 M412.32,123.96h-3.66v-3.6 M412.32,120.36h-3.66 M483.06,121.32H412.32 M466.32,122.88h-54
	 M486.36,130.02v64.74V130.02z M486.36,199.44v70.2 M412.86,49.62v-3.3 M412.86,49.62h-4.681v-3.3 M263.04,424.14h-3.3
	 M263.04,424.14v-4.68h-3.3 M256.62,368.1v-1.44h3.12 M256.62,371.22h-19.38 M256.62,368.1h-19.38 M263.04,349.26h-3.3v6.48
	 M256.62,354.3v1.44h3.12 M263.04,349.26v-4.74h-3.3 M256.62,354.3h-19.38 M256.62,351.18h-19.38 M259.74,366.66v52.8
	 M259.74,269.64h3.3v4.68 M259.74,289.92v-15.6h3.3 M328.68,247.56h-45.54 M331.8,250.68h-47.1 M259.74,289.92v54.6 M337.44,195.24
	h-3.66 M333.78,195.24v3.66h3.66 M337.44,195.24v3.66 M333.78,197.88h-1.98 M337.44,196.2h23.399 M350.28,187.62h-2.101
	 M350.04,187.38h-1.56 M355.56,179.58h-5.279 M350.04,187.38v-10.56 M350.28,187.62v-10.68 M360.84,187.38h-10.56 M360.84,184.74
	h-10.56 M350.04,176.82l10.8,5.34h-10.56 M348.48,168.66h-0.301 M348.36,154.08v1.56 M348.36,155.64h-0.54v-1.56 M348.36,154.08
	h-0.54 M338.4,155.64v9.84 M348.36,154.08h12.479 M348.36,155.64h12.479 M348.48,187.38v-18.72 M348.18,187.62v-18.96 M337.44,159.3
	h-3.66 M337.44,155.64h-3.66 M337.44,155.64v-1.56h-1.08 M337.44,154.08h0.479v1.56 M337.92,155.64h-0.479 M333.78,155.64v3.66
	 M337.44,155.64v3.66 M337.92,155.64v9.9 M348.18,176.94H336.36 M348.18,179.58H336.36 M348.18,182.16H336.36 M348.18,184.74H336.36
	 M337.92,165.54c5.363,0.064,9.964-4.537,9.9-9.9 M337.92,155.64h0.48 M348.18,174.36H336.36 M348.18,171.78H336.36 M348.18,169.14
	H336.36 M360.84,196.2v-40.56 M334.8,159.3v35.94 M336.36,159.3v35.94 M283.14,229.86h-1.56 M281.58,229.86v-0.54h1.56
	 M283.14,229.86v-0.54 M283.14,218.94h-1.56 M283.14,218.94v0.48h-1.56 M281.58,219.42v-0.48 M283.14,219.42v0.48 M283.14,229.32
	c5.549-0.039,9.861-4.351,9.9-9.9 M283.14,219.42h9.9 M283.14,219.9h9.9 M281.58,196.32v22.62 M263.04,199.5h-3.3 M263.04,199.5
	v-4.68h-3.3 M333.78,196.32h-52.2 M328.68,197.88h-45.54 M362.4,141.06v0.54 M362.4,141.06h-1.561v0.54 M360.84,141.6h1.561
	 M360.84,130.68v-7.8 M362.4,130.68v-7.8 M360.84,130.68v0.48 M360.84,131.16h1.561v-0.48 M360.84,131.64v-0.96h1.561
	 M360.84,131.16h-9.899c0.038,5.549,4.351,9.861,9.899,9.9 M360.84,131.64h-9.899 M360.84,122.88h-10.02 M368.64,120.42h1.561
	 M368.64,120.42v-0.54h1.561 M370.2,119.88v0.54 M368.64,120.42v0.9 M370.2,120.42v0.9 M368.64,103.38v0.9 M370.2,104.76v-0.479
	 M370.2,104.76h-1.561v-0.479 M368.64,104.28h1.561 M350.4,103.38h-0.48 M349.92,103.38v-1.56h0.48 M350.4,103.38v-1.56
	 M341.04,101.82h1.02 M341.58,101.82v1.56h-0.54 M341.04,103.38v-1.56 M368.64,101.82H350.4 M368.64,103.38H350.4 M350.82,121.32
	h17.819 M338.22,124.74v-5.16 M350.82,122.88v-1.56 M334.8,119.58v-1.02 M334.8,119.04h1.561v0.54 M336.36,119.58H334.8
	 M334.8,118.56h-7.74 M334.8,119.04H327 M336.36,103.38v0.06 M334.8,103.98H327 M334.8,104.4h-7.74 M336.36,103.44H334.8
	 M336.36,103.44v0.54H334.8 M334.8,104.4v-0.96 M327,103.98c0.223,4.242,3.512,7.494,7.8,7.5 M334.8,111.48
	c-4.237,0.081-7.594,3.308-7.8,7.56 M338.22,119.58H333v5.16 M333,124.74h5.22 M341.04,103.38h-4.68 M341.04,101.82h-4.68
	 M341.58,101.82v-8.34 M342.06,101.82v-8.34 M349.92,101.82c-0.05-4.607-3.685-8.359-8.34-8.34 M287.22,143.76v1.56 M287.22,143.76
	h0.54v1.56 M287.76,145.32h-0.54 M287.76,143.76h0.42 M298.14,143.76v1.56 M298.14,145.32h-0.54v-1.56 M298.14,143.76h-0.54
	 M299.94,123.96h-3.6 M296.34,122.94h-0.54 M288.78,122.94c-0.015,3.875,3.168,7.005,7.02,7.02 M295.32,122.94v7.02 M295.32,122.94
	h0.48v7.02 M297.6,143.76c-0.015-5.49-4.355-9.865-9.84-9.9 M288.18,143.76v-9.9 M287.76,143.76v-9.9 M279.66,142.2v1.56
	 M279.66,142.2h1.56v1.56 M281.22,142.2v-0.54h-1.56 M279.66,141.66v0.54 M281.22,141.66v-0.42 M275.1,123.96h-3.6 M275.1,122.94
	h4.56v8.04 M281.76,122.94h-0.54 M279.66,130.98v0.54h1.56 M279.66,130.98h1.56v0.54 M281.76,129.96v-7.02h0.48 M282.24,122.94v7.02
	 M281.22,143.76h6 M281.22,141.24h10.14 M281.22,141.66h10.14 M291.36,141.66c0.039-5.596-4.577-10.176-10.14-10.14 M281.76,129.96
	c3.955-0.062,6.958-3.065,7.02-7.02 M296.34,120.36h3.6 M296.34,121.38h-0.54 M271.5,120.36h3.6 M281.76,121.38h-6.66
	 M299.94,120.36v3.6 M296.34,123.96v-3.6 M271.5,123.96v-3.6 M275.1,120.36v3.6 M281.22,122.94v8.04 M295.8,122.94v-1.56
	 M281.76,121.38v1.56 M296.34,122.94v-1.56 M259.74,143.76V124.5h3.3 M263.04,121.38v-1.56h-3.3 M259.74,143.76h19.92
	 M259.74,145.32h27.48 M263.04,121.38h8.46 M263.04,122.94h8.46 M256.62,92.04v-1.56h3.12 M259.74,81.06h-3.12 M256.62,95.16h-17.16
	 M256.62,92.04h-14.04 M259.74,90.48v29.34 M333,122.94h-33.06 M333,121.38h-33.06 M298.14,145.32h36.66 M298.14,143.76h38.22
	 M334.8,145.32v10.32 M336.36,143.76v10.32 M362.4,196.2v-54.6 M259.74,145.32v49.5 M360.84,154.08V141.6 M259.74,199.62v70.02
	 M283.14,229.86v17.7 M328.68,197.88v49.68 M331.8,197.88v52.8 M256.62,95.16v256.02 M337.92,49.62h-1.56 M333.24,49.62v-3.3
	 M337.92,49.62v-3.3 M333.54,29.16V43.2 M330.9,29.16V43.2 M328.32,29.16V43.2 M325.74,29.16V43.2 M323.1,29.16V43.2 M320.52,29.16
	V43.2 M317.94,29.16V43.2 M315.3,29.16V43.2 M312.72,29.16V43.2 M310.14,29.16V43.2 M307.5,29.16V43.2 M336.12,26.04V43.2
	 M289.02,29.16V43.2 M285.9,26.04V43.2 M259.74,49.62h3.3v-3.3 M285.9,43.2h-26.16V12.54 M263.04,46.32h70.2 M289.02,29.16h47.1
	 M285.9,26.04h50.22 M256.62,12.54v68.52 M336.36,49.62v52.2 M334.8,49.62v53.82 M368.64,46.32v55.5 M370.2,46.32v57.96
	 M242.58,12.54v79.5 M239.46,12.54v82.62 M333.24,46.32h-70.2 M337.44,197.76h71.22 M362.4,122.88h46.26 M370.2,121.32h38.46
	 M362.4,196.2h46.26 M370.2,104.76h7.8 M370.2,105.24h7.74 M370.2,119.88h7.8c-0.256-4.312-3.476-7.447-7.8-7.56
	c4.28-0.047,7.612-3.26,7.8-7.56 M370.2,119.4h7.74 M289.02,43.2h200.46 M483.06,122.88h-15.42 M259.74,424.14v70.2 M486.36,424.14
	v70.2 M284.7,250.68V722.4 M281.58,229.86V746.1 M256.62,371.22V746.1 M489.48,43.2V746.1 M467.64,196.2V746.1 M464.52,197.76V722.4
	"/>
</svg>
