<?xml version="1.0" encoding="utf-8"?>
<!-- Generator: Adobe Illustrator 16.0.0, SVG Export Plug-In . SVG Version: 6.00 Build 0)  -->
<!DOCTYPE svg PUBLIC "-//W3C//DTD SVG 1.1//EN" "http://www.w3.org/Graphics/SVG/1.1/DTD/svg11.dtd">
<svg version="1.1" id="Layer_1" xmlns="http://www.w3.org/2000/svg" xmlns:xlink="http://www.w3.org/1999/xlink" x="0px" y="0px"
	 width="612px" height="792px" viewBox="0 0 612 792" enable-background="new 0 0 612 792" xml:space="preserve">
<path fill="none" stroke="#000000" stroke-width="0.72" stroke-linecap="round" stroke-linejoin="round" stroke-miterlimit="10" d="
	M308.34,195.72h25.5 M321.42,181.62h12.42 M316.02,182.1h17.82 M321.42,174.66h12.42 M321.42,174.18h12.42 M320.94,181.38
	c3.228-0.03,5.986-2.666,5.939-5.94 M320.94,175.44h5.939 M321.42,181.62h12.42 M335.82,166.74h2.939 M340.74,149.94v-1.5
	 M340.74,148.44h0.479v1.5 M341.22,149.94h-0.479 M328.74,149.94v-1.98 M328.26,148.44v1.5h-0.42 M328.26,149.94h0.48v-1.5
	 M328.26,148.44h0.48 M328.74,149.94h10.02 M328.74,147.96h12 M327.84,149.94v9.66 M328.26,149.94v9.66 M350.46,149.94v9.66
	 M340.74,162.3v-14.34 M338.76,165.3v-15.36 M320.94,166.74v0.78 M321.42,166.74v0.78 M307.08,149.94h11.04 M318.6,149.94h-0.479
	v-1.98 M318.6,149.94v-1.5h-0.479 M318.12,149.94v-1.5 M305.1,147.96h13.02 M338.76,165.3h-31.68v-15.36 M318.6,149.94
	c-0.052,5.285,4.395,9.68,9.66,9.66 M307.08,166.74h26.76 M320.94,167.52h5.939 M307.08,183.84v-17.1 M305.1,183.36v-35.4
	 M338.76,195.72V166.74 M340.74,195.72V163.8 M335.82,195.72V166.74 M333.84,195.72V166.74 M320.94,173.46
	c3.228-0.03,5.986-2.666,5.939-5.94 M308.34,197.7h68.521 M340.74,195.72h34.68 M341.22,149.94c0.021,5.313,4.348,9.64,9.66,9.66
	 M350.88,149.94h-0.42 M340.74,163.8h12.899 M340.74,162.3h12.899 M353.1,171.54H340.74 M353.1,172.02H340.74 M353.1,179.52H340.74
	 M353.1,180H340.74 M353.1,187.5H340.74 M353.1,187.98H340.74 M353.64,172.8H347.7 M347.7,172.8
	c-0.197,3.208,2.822,5.966,5.939,5.94 M353.64,180.78H347.7c-0.197,3.208,2.822,5.966,5.939,5.939 M353.64,165.18H347.7
	c-0.184,3.179,2.809,6.027,5.939,5.94 M353.64,188.76H347.7 M347.7,188.76c-0.197,3.208,2.822,5.966,5.939,5.94 M376.14,127.14h1.5
	H375.9 M377.64,127.14v0.54h-1.5 M376.14,127.68v-0.54 M366.24,127.68h9.899v0.42 M376.14,128.1h-9.899 M377.64,127.14v-3.42H375.9
	 M375.9,123.72v3.42 M379.38,89.16v1.26 M379.38,90.42h0.48v-1.26 M380.28,89.16h-0.9 M388.98,89.16v1.26 M388.98,90.42h0.539v-1.26
	 M388.98,89.16h0.539 M388.98,89.16c0.122-4.933-4.195-9.267-9.12-9.12 M379.86,89.16v-9.12 M380.28,89.16v-9.12 M366.24,89.16v1.26
	 M366.24,90.42h-0.48v-1.26 M366.24,89.16h-0.48 M375.9,89.16v1.26 M375.9,90.42h-0.48v-1.26 M374.94,89.16h0.96 M375.9,89.16h0.84
	 M375.42,89.16v-9.12c-4.949-0.172-9.244,4.155-9.18,9.12 M374.94,89.16v-9.12 M378,89.16h1.38 M375.9,90.42h3.479 M307.08,126.42
	v-1.98 M307.8,123.72v3.42 M305.1,126.42v-1.98 M304.38,126.12v1.02 M304.38,127.14h-0.54v-1.02 M303.36,126.12h1.02 M307.8,127.14
	h-3.42v-3.42 M304.38,123.72h3.42 M305.1,125.46h1.98 M303.84,126.12V116.1 M303.36,126.12v-9.96 M317.22,89.16v1.26 M317.22,90.42
	h0.48v-1.26 M317.22,89.16h0.48 M307.56,89.16v1.26 M307.56,90.42h0.54v-1.26 M308.52,89.16h-0.96 M300.18,90.42v-1.26h5.28
	 M300.18,90.42h-0.54v-1.26 M299.22,89.16h0.96 M300.18,90.42h7.379 M306.72,89.16h0.84 M317.22,89.16
	c0.108-4.975-4.236-9.253-9.12-9.12 M308.1,89.16v-9.12 M308.52,89.16v-9.12 M299.64,89.16v-9.12 M299.22,89.16v-9.12 M317.7,89.16
	H341.1 M307.86,126.06h68.04 M307.86,124.56h68.04 M317.7,90.42h48.06 M342.36,89.16h23.399 M366.24,127.68
	c-0.021,5.478,4.479,9.901,9.899,9.9 M281.34,200.88v-0.6 M281.82,199.08v-1.62 M281.34,200.04v0.84 M281.82,177.18h1.5v0.48
	 M281.82,177.18v0.48h1.5 M283.32,200.04v-22.38 M281.82,195.96v-18.3 M240.78,200.04l-4.38,4.32 M240.78,200.28l-4.08,4.08
	 M237.3,204.36l3.48-3.48 M236.52,195v3.42 M235.8,197.7v-1.98 M243.48,199.08h38.34 M236.52,195.96h45.3 M243.48,197.46h38.34
	 M240.78,200.88h40.56 M240.78,200.28h40.56 M242.46,200.04h40.86 M281.82,168h1.5v-0.48 M281.82,168.42v-0.9h1.5 M281.82,167.52
	v-5.82 M281.82,160.44v-5.82 M281.82,154.14h1.5v0.48 M281.82,154.14v0.48h1.5 M283.32,167.52v-12.9 M281.82,168h-9.12
	 M281.82,168.42h-9.12 M281.82,144.96v0.48 M281.82,144.96h1.5v-0.48 M272.7,144.96h9.12v-0.48h1.5 M281.82,145.44h-9.12
	 M272.7,144.96c-0.091,5.042,4.121,9.185,9.12,9.18 M272.7,168c0.009,5.148,4.015,9.07,9.12,9.18 M232.98,196.74H231 M231.18,197.7
	H231 M231.18,197.7v-0.36H231 M231.18,201.78v-3.84 M231.72,201.78v-3.84 M231.18,201.78h1.08v-3.84 M232.26,201.78v0.24h-1.08
	 M231.18,201.78v0.24 M231.18,197.94v-0.24H231 M231.18,197.7h1.08v0.24 M232.26,197.94h-1.08 M232.26,197.7v-0.36h0.72
	 M232.26,195.48h-1.08 M232.26,195.48v0.24h-1.08 M231.18,196.08v-0.6 M232.26,195.72v0.36 M231.18,196.08H231 M232.98,196.08h-0.72
	 M231.18,195.72H231 M231.18,191.64v-0.24 M231.18,191.4h1.08v0.24 M232.26,195.48v-3.84h-1.08 M231.72,191.64v3.84 M231.18,191.64
	v3.84 M233.1,195v3.42 M233.82,197.7v-1.98 M232.98,196.08v1.26 M231,196.08v1.26 M232.26,179.04h-1.08 M232.26,179.04v-0.3h-1.08
	 M231.18,179.04v-0.3 M231.72,179.04v12.36 M231.72,162.3v3.84 M232.26,162.3v3.84 M232.26,162.3h-1.08v3.84 M232.26,162.3v-0.24
	h-1.08 M231.18,162.3v-0.24 M231.18,161.7H231 M232.26,162.06v-0.36 M231,162.06h0.18v-0.36 M232.26,166.14h-1.08 M232.26,166.14
	v0.24h-1.08 M231.18,166.14v0.24 M232.98,161.1H231 M232.26,159.84h-1.08 M232.26,159.84v0.24h-1.08 M231.18,160.44v-0.6
	 M232.26,160.08v0.36 M231.18,160.44H231 M231.18,160.08H231 M231.18,156v-0.24 M231.18,155.76h1.08V156 M231.18,159.84V156h1.08
	 M231.72,156v3.84 M232.26,156v3.84 M232.98,160.44v1.26 M231,160.44v1.26 M232.26,143.4h-1.08 M232.26,143.4v-0.3h-1.08
	 M231.18,143.4v-0.3 M231.72,143.4v12.36 M231,162.06v33.66 M231.18,166.38v25.02 M231.72,166.38v12.36 M232.26,166.38v25.02
	 M233.1,198.42h3.42 M233.1,195h3.42 M233.82,196.74h1.98 M281.82,160.44h-49.56 M281.82,161.7h-49.56 M283.32,126.12h0.96
	 M283.86,126.12v1.02h-0.54 M283.32,126.12v1.02 M281.82,101.52h1.5 M283.32,101.52v0.54h-1.5 M281.82,124.56v-23.04 M284.28,126.12
	v-9.96 M283.86,126.12V116.1 M235.8,126.42v-1.98 M236.52,123.72v3.42 M281.82,125.82h-45.3 M281.82,124.56h-45.3 M281.82,91.92h1.5
	 M283.32,91.92v0.48h-1.5 M281.82,92.82v-0.9 M283.32,90.54h6.66 M290.52,89.16v1.26 M290.52,90.42h-0.54v-1.26 M289.98,89.04v0.12
	h0.54 M289.98,90.42v0.12 M283.32,91.92v-1.38 M281.82,91.92v-1.38 M281.82,92.4h-9.12 M281.82,92.82h-9.12 M272.7,92.4
	c-0.118,4.943,4.186,9.255,9.12,9.12 M231.72,126.66v3.84 M232.26,126.66v3.84 M232.26,126.66h-1.08v3.84 M232.26,130.5h-1.08
	 M232.26,130.5v0.24h-1.08 M231.18,130.5v0.24 M233.82,126.42v-1.98 M232.98,124.8v1.26 M231,124.8v1.26 M232.98,125.46H231
	 M232.26,124.2h-1.08 M232.26,124.2v0.24h-1.08 M231.18,124.8v-0.6 M232.26,124.44v0.36 M231.18,124.8H231 M232.98,124.8h-0.72
	 M232.26,126.42h-1.08 M232.98,126.06h-0.72 M231.18,126.06H231 M232.26,126.42v-0.36 M231,126.42h0.18v-0.36 M231.18,124.44H231
	 M231.18,120.36v-0.24 M231.18,120.12h1.08v0.24 M231.18,124.2v-3.84h1.08 M231.72,120.36v3.84 M232.26,120.36v3.84 M233.1,123.72
	v3.42 M232.26,126.66v-0.24 M231.18,126.66v-0.24 M232.26,107.76h-1.08 M232.26,107.76v-0.3h-1.08 M231.18,107.76v-0.3
	 M231.72,107.76v12.36 M232.26,94.86h-1.08 M232.26,94.86v0.24h-1.08 M231.18,94.86v0.24 M232.98,89.16v1.26 M231,89.16v1.26
	 M232.98,89.76H231 M232.26,88.8h-1.08 M232.98,89.16h-0.72 M231.18,89.16H231 M232.26,88.8v0.36 M231.18,88.8v0.36 M232.26,88.8
	v-0.24h-1.08 M231.18,88.56v0.24 M232.26,91.02h-1.08 M232.26,91.02v-0.24h-1.08 M231.18,91.02v-0.24 M232.98,90.42h-0.72
	 M231.18,90.42H231 M232.26,90.78v-0.36 M231,90.78h0.18v-0.36 M231.18,88.8H231 M232.98,90.42v0.12 M232.98,89.16v-0.12
	 M231.18,84.72v3.84 M231.72,84.72v3.84 M232.26,84.72v3.84 M231.18,84.72v-0.24 M231.18,84.48h1.08v0.24 M232.26,84.72h-1.08
	 M231.72,91.02v3.84 M232.26,91.02v3.84 M231.18,91.02v3.84 M232.26,72.12h-1.08 M232.26,72.12v-0.3h-1.08 M231.18,72.12v-0.3
	 M231.72,72.12v12.36 M231,90.78v33.66 M231.18,95.1v25.02 M231.72,95.1v12.36 M232.26,95.1v25.02 M233.1,127.14h3.42 M233.1,123.72
	h3.42 M233.82,125.46h1.98 M232.98,89.04h57 M232.98,90.54h48.84 M231,126.42v33.66 M231.18,130.74v25.02 M231.72,130.74v12.36
	 M232.26,130.74v25.02 M281.82,144.48v-18.66 M283.32,144.48v-42.42 M299.64,80.04c-4.925-0.147-9.243,4.187-9.12,9.12
	 M303.84,116.1c-5.641,0.144-9.877,4.379-10.02,10.02c-0.011-5.639-4.391-9.879-9.96-10.02 M235.5,198.42v67.86 M237.3,204.36v55.98
	 M236.7,204.36v55.98 M236.4,204.36v55.98 M256.92,200.88v16.38 M259.56,200.88v16.38 M262.2,200.88v16.38 M264.84,200.88v16.38
	 M267.42,200.88v16.38 M270.06,200.88v16.38 M393.24,210.6c4.938-0.14,8.862-3.943,8.88-8.94 M231.18,227.04v-25.02 M232.26,227.04
	v-25.02 M231,231.36V197.7 M231.72,214.38v-12.36 M367.2,202.38c0.028,5.313,4.303,9.664,9.66,9.66 M379.08,52.44h-3.42v3.42h3.42
	V52.44z M376.38,54.12h1.98 M378.36,55.14v-1.98 M376.38,55.14v-1.98 M378,52.32h-1.26 M378,50.34h-1.26 M377.4,52.32v-1.98
	 M378,50.34v0.18h0.36 M378.36,50.52v-0.18 M372.3,51.6h3.84 M372.3,50.52h3.84 M372.3,51.06h3.84 M372.3,50.52v1.08 M372.3,50.52
	H372v1.08 M372.3,51.6H372 M376.38,50.52v-0.18 M376.14,51.6v-1.08 M376.14,51.6h0.24v-1.08 M376.74,50.52h-0.601 M376.38,51.6h0.36
	 M376.74,50.52v-0.18 M376.74,52.32V51.6 M378.36,52.08v0.24 M378.36,52.08H378v0.24 M359.7,51.6v-1.08 M359.7,51.6h-0.3v-1.08
	 M359.7,50.52h-0.3 M359.7,51.06H372 M342.96,51.6h3.84 M342.96,51.06h3.84 M342.96,50.52h3.84 M342.36,52.32H341.1 M346.8,51.6
	h0.24 M347.04,51.6v-1.08h-0.24 M346.8,50.52v1.08 M336.66,51.6h3.84 M336.66,50.52h3.84 M336.66,51.06h3.84 M336.66,50.52v1.08
	 M336.66,50.52h-0.24v1.08 M336.66,51.6h-0.24 M342.72,50.52v-0.18 M342.96,51.6v-1.08 M342.96,51.6h-0.24v-1.08 M342.96,50.52
	h-0.24 M342.36,50.52v-0.18 M342.72,51.6h-0.359 M342.72,50.52h-0.359 M341.1,50.52v-0.18 M340.74,51.6h0.359 M340.5,50.52h0.6
	 M340.74,50.52v1.08h-0.24 M340.5,51.6v-1.08 M340.74,50.52v-0.18 M341.76,52.32v-1.98 M342.36,50.34H341.1 M324.06,50.52h-0.239
	 M323.82,50.52v1.08h0.239 M324.06,51.6v-1.08 M324.06,51.06h12.36 M307.8,52.44v3.42 M307.08,55.14v-1.98 M307.32,50.52h3.899
	 M307.32,51.06h3.899 M311.46,51.6h-4.14 M311.46,51.6v-1.08h-0.24 M311.22,50.52v1.08 M307.32,50.52h-0.24 M307.08,50.52v1.08h0.24
	 M307.32,51.6v-1.08 M307.08,50.52v-0.18 M304.38,52.44v3.42 M305.1,55.14v-1.98 M306.72,52.32h-1.26 M306.72,50.34h-1.26
	 M306.12,52.32v-1.98 M306.72,50.52v-0.18 M306.72,52.32V51.6 M305.1,52.08h0.36 M305.1,50.52h0.36 M305.46,52.08v0.24
	 M305.46,50.52v-0.18 M305.1,52.08v0.24 M305.1,50.52v-0.18 M304.38,55.86h3.42 M304.38,52.44h3.42 M305.1,54.12h1.98 M307.08,50.52
	h-0.36 M307.08,51.6h-0.36 M311.46,50.52h24.96 M311.46,51.6h24.96 M307.08,50.34h33.66 M311.46,51.06h12.36 M347.04,51.6H372
	 M347.04,50.52H372 M342.72,50.34h33.66 M347.04,51.06h12.36 M269.82,52.32h1.26 M269.82,50.34h1.26 M270.48,52.32v-1.98
	 M271.44,50.34v0.18h-0.36v-0.18 M269.82,50.34v0.18h-0.36 M269.46,50.52v-0.18 M271.08,52.32v-0.24h0.36v0.24 M269.46,52.08v0.24
	 M269.46,52.08h0.36v0.24 M236.52,52.44v3.42 M235.8,55.14v-1.98 M234.84,52.32v-1.98 M235.8,50.34v0.18h-0.36v-0.18 M235.44,52.32
	v-0.24h0.36v0.24 M269.46,50.34H235.8 M269.46,52.32H235.8 M232.26,59.22h-1.08 M232.26,59.22v0.24h-1.08 M231.18,59.22v0.24
	 M233.1,52.44v3.42 M233.82,55.14v-1.98 M232.98,53.52v1.26 M231,53.52v1.26 M232.98,54.12H231 M232.26,54.78v0.36h-1.08v-0.36
	 M231.18,54.78H231 M232.98,54.78h-0.72 M232.26,55.14v0.24h-1.08 M231,55.14h0.18v0.24 M231.18,55.38v3.84 M231.72,55.38v3.84
	 M232.26,55.38v3.84 M233.1,52.44h3.42 M233.1,55.86h3.42 M233.82,54.12h1.98 M235.44,52.32h-1.26 M235.44,50.34h-1.26 M305.1,52.32
	h-33.66 M305.1,50.34h-33.66 M231,55.14V88.8 M305.46,55.86v33.3 M306.72,55.86v33.3 M378,55.86v33.3 M376.74,55.86v33.3
	 M231.18,59.46v25.02 M231.72,59.46v12.36 M232.26,59.46v25.02 M341.1,51.6v37.56 M342.36,51.6v37.56 M378.36,50.34h33.659
	 M377.76,195.72h69.181 M446.94,340.26h-67.32 M446.94,338.28h-67.32 M393.24,197.7h53.7 M421.62,232.38h-13.86 M421.62,231.84
	h-13.86 M421.62,232.86h-13.86 M378.36,52.32h33.659 M389.52,89.16H451.2 M389.52,90.42h5.94 M389.52,302.88H451.2 M389.52,304.38
	H451.2 M231.72,340.5v3.84 M232.26,340.5v3.84 M231.18,340.5v3.84 M231,340.26v33.66 M452.46,340.26v33.66 M451.2,340.5v33.18
	 M452.28,340.5v33.18 M451.74,340.5V357 M280.62,339.9v12.12 M282.06,326.52v25.5 M306.6,365.04v-23.52 M306.12,365.04v-23.52
	 M305.58,365.04v-23.52 M376.74,370.2v-29.22 M378,370.2v-29.22"/>
<path fill="none" stroke="#000000" stroke-width="0.72" stroke-linecap="round" stroke-linejoin="round" stroke-miterlimit="10" d="
	M451.2,126.42v-0.36h-0.72 M451.2,124.2v-4.08 M451.74,120.36v3.84 M450.36,123.72v3.42 M446.94,123.72v3.42 M451.2,126.66v-0.24
	 M450.48,125.46h1.979 M451.2,124.2h1.08 M451.2,124.44h1.08 M451.2,126.66h1.08 M451.2,126.42h1.08 M451.2,120.36h1.08
	 M451.2,120.12h1.08 M451.2,130.74h1.08 M451.2,130.5h1.08 M452.28,107.76v-0.3 M452.28,107.76h-1.08v-0.3 M451.2,107.46h1.08
	 M451.74,107.76v12.36 M396.66,101.52v0.54 M396.66,101.52h-1.2v0.54 M395.46,124.32v-22.26h1.2 M396.66,102.06v22.26 M452.28,94.86
	v0.24 M452.28,88.8v0.36h0.18v1.26 M452.46,88.8h-0.18v-0.24 M452.28,91.02v-0.24h0.18 M452.28,90.78v-0.36h0.18 M452.28,88.56
	v-4.08 M452.28,91.02v3.84 M451.2,94.86v0.24 M450.48,90.42v-1.26 M451.2,88.56v0.6 M451.2,90.42v0.6 M451.2,88.56v-4.08
	 M451.74,84.72v3.84 M451.74,91.02v3.84 M451.2,91.02v3.84 M450.48,89.76h1.979 M451.2,88.8h1.08 M451.2,88.56h1.08 M451.2,91.02
	h1.08 M451.2,90.78h1.08 M451.2,84.72h1.08 M451.2,84.48h1.08 M451.2,95.1h1.08 M451.2,94.86h1.08 M452.28,72.12v-0.3 M452.28,71.82
	h-1.08v0.3 M451.2,72.12h1.08 M451.74,72.12v12.36 M396.66,92.82h9.18 M396.66,92.4h9.18 M395.46,92.4h1.2v0.42 M396.66,92.4v-0.48
	h-1.2 M395.46,92.4v-0.48 M396.66,90.42v1.5 M395.46,90.42v1.5 M396.66,90.42h53.82 M452.46,90.78v33.66 M452.28,95.1v25.02
	 M451.74,95.1v12.36 M451.2,95.1v25.02 M396.66,101.52c5.057,0.099,9.13-4.067,9.18-9.12 M452.46,126.42v33.66 M452.28,130.74v25.02
	 M451.74,130.74v12.36 M451.2,130.74v25.02 M452.46,197.7v33.66 M451.74,197.94v16.44 M451.2,197.94v33.18 M452.28,197.94v33.18
	 M452.28,59.22v0.24 M452.46,54.78v-1.26 M452.46,54.78h-0.18v0.36 M452.46,55.14h-0.18v0.24 M452.28,55.38v3.84 M451.2,59.22v0.24
	 M450.36,52.44h-3.42v3.42h3.42V52.44z M447.66,54.12h1.979 M449.64,55.14v-1.98 M447.66,55.14v-1.98 M449.28,52.32h-1.261
	 M449.28,50.34h-1.261 M448.62,52.32v-1.98 M450.48,54.78v-1.26 M447.66,50.34v0.18h0.359v-0.18 M450.48,54.78h0.72v0.36
	 M451.2,55.38v-0.24 M448.02,52.32v-0.24h-0.359v0.24 M451.2,55.38v3.84 M451.74,55.38v3.84 M450.48,54.12h1.979 M451.2,55.14h1.08
	 M451.2,55.38h1.08 M451.2,59.46h1.08 M451.2,59.22h1.08 M413.64,52.32h-1.26 M413.64,50.34h-1.26 M412.98,52.32v-1.98
	 M412.02,50.34v0.18h0.36v-0.18 M413.64,50.34v0.18H414 M414,50.52v-0.18 M414,52.08v0.24 M414,52.08h-0.36v0.24 M412.38,52.32
	v-0.24h-0.36v0.24 M414,50.34h33.66 M414,52.32h33.66 M452.46,55.14V88.8 M452.28,59.46v25.02 M451.74,59.46v12.36 M451.2,59.46
	v25.02 M379.62,340.26v-1.98 M378.36,339.3h-1.98 M379.08,337.56h-3.42 M379.08,340.98h-3.42 M378.36,340.26v-1.98 M379.08,337.56
	v3.42 M376.38,340.26v-1.98 M375.66,337.56v3.42 M379.08,338.28v1.98 M376.62,331.08H365.52 M376.62,330.66H365.52 M376.62,331.62
	h1.5 M378.12,331.62v-0.54h-1.5 M376.62,337.56v-6.9 M378.12,337.56v-5.94 M376.62,319.5h1.5 M378.12,319.5v0.48h-1.5
	 M376.62,319.98v-0.48 M376.62,319.98c-6.03-0.061-11.255,5.067-11.101,11.1 M379.62,340.26h-0.54 M379.62,338.28h-0.54
	 M379.62,302.88v1.5h0.42 M388.98,304.38v-1.5 M388.98,302.88h0.539v1.5 M389.52,304.38h-0.539 M378.12,302.88h0.96 M378.12,304.38
	h0.96 M379.62,304.38h-0.54v-1.5 M379.62,302.88h-0.54 M378.12,319.5v-15.12 M379.62,313.8c5.22-0.027,9.353-4.218,9.36-9.42
	 M380.04,304.38v9.42 M379.62,304.38v9.42 M307.8,337.56v3.42 M307.08,340.26v-1.98 M304.38,337.56v3.42 M305.1,340.26v-1.98
	 M305.58,340.98h1.02 M306.6,340.98v0.54h-1.02 M305.58,341.52v-0.54 M305.58,337.56h1.02 M306.6,337.56v-0.54h-1.02 M305.58,337.02
	v0.54 M304.38,340.98h3.42 M304.38,337.56h3.42 M305.1,339.3h1.98 M305.58,320.4v0.48 M305.58,320.4h1.02v0.48 M305.58,320.88h1.02
	 M306.12,320.88v16.14 M306.6,320.88v16.14 M305.58,320.88v16.14 M305.58,304.02h1.02 M306.6,304.02v-0.48h-1.02 M305.58,303.54
	v0.48 M305.58,293.76h1.02 M306.6,293.76v-0.54h-1.02 M305.58,293.22v0.54 M306.6,293.76v9.78 M306.12,293.76v9.78 M305.58,293.76
	v9.78 M305.58,282.78h-10.86 M305.58,282.78v-0.42h-10.86 M305.58,281.88h1.02 M306.6,281.88v0.48h-1.02 M305.58,282.36v-0.48
	 M306.12,304.02v16.38 M306.6,304.02v16.38 M305.58,304.02v16.38 M375.66,339.9H307.8 M375.66,338.64H307.8 M407.76,231.84v1.02
	 M407.76,232.86h-0.479v-1.02 M407.28,231.84h0.479 M393.72,232.86h-3.479 M393.24,232.86v-1.02h0.479 M393.72,231.84v1.02
	 M380.34,232.86h-0.479 M379.86,232.86v-1.5h0.479 M380.34,231.36v1.5 M389.76,232.86v-1.5 M390.24,231.36v1.5 M380.34,232.86h0.42
	 M390.24,232.86h-0.48 M391.98,231.36h-2.221 M407.28,232.86H393.72 M407.28,232.38H393.72 M407.28,231.84H393.72 M393.24,210.6
	v0.48 M393.24,210.6h-1.26v0.48 M391.98,231.36v-20.28h1.26 M393.24,232.86v-21.78 M376.62,219.72h-7.92v-5.16 M369.96,218.52h6.66
	v-3.96h-6.66V218.52z M376.86,212.58h1.26 M378.12,212.58v-0.54h-1.26 M376.86,212.04v0.54 M379.86,231.36h-1.74v-18.78
	 M379.86,232.86h-1.74 M380.34,242.28c5.247-0.123,9.34-4.104,9.42-9.42 M380.76,232.86v9.36 M380.34,232.86v9.42 M307.08,268.98
	V267 M308.1,266.04V270 M305.1,268.98V267 M304.14,266.04V270 M305.58,270h1.02 M306.6,270v0.48h-1.02 M305.58,270.48V270
	 M305.1,268.02h1.98 M304.14,266.04h3.959 M304.14,270h3.959 M305.46,245.7v0.54 M305.46,245.7h1.26v0.54 M305.46,246.24h1.26
	 M305.46,234.84v-0.48 M305.46,234.84h1.26v-0.48 M305.46,234.36h1.26 M294.6,234.84h10.86v0.42 M305.46,235.26H294.6
	 M305.46,212.58h72.66 M306.72,214.56h61.98 M306.12,270.48v11.4 M306.6,270.48v11.4 M305.58,270.48v11.4 M376.62,319.5v-99.78
	 M378.12,302.88v-70.02 M280.62,326.52h1.44 M282.06,326.52v-0.48h-1.44 M280.62,326.04v0.48 M282.06,316.86v-0.48 M282.06,316.38
	h-1.44v0.48 M282.06,316.86h-1.44 M271.44,316.86h9.18v0.42 M280.62,317.28h-9.18 M271.44,316.86c0.106,5.181,3.999,9.074,9.18,9.18
	 M280.62,326.52v12.12 M236.52,337.56v3.42 M235.8,340.26v-1.98 M236.52,338.64h44.1 M236.52,339.9h44.1 M280.62,290.4v0.48
	 M280.62,290.4h1.44v0.48 M280.62,290.88h1.44 M280.62,280.74v0.9 M280.62,281.22h1.44v-0.48 M280.62,280.74h1.44 M280.62,281.64
	h-9.18 M280.62,281.22h-9.18 M271.44,281.22c0.106,5.181,3.999,9.074,9.18,9.18 M280.62,290.88V303 M280.62,304.26v12.12
	 M282.06,290.88v25.5 M233.1,337.56v3.42 M233.82,340.26v-1.98 M232.98,338.64v1.26 M231,338.64v1.26 M232.98,339.3H231
	 M232.26,338.04h-1.08 M232.26,338.04v0.24h-1.08 M231.18,338.64v-0.6 M232.26,338.28v0.36 M231.18,338.64H231 M232.98,338.64h-0.72
	 M232.26,340.5h-1.08 M232.26,340.5v-0.24h-1.08 M231.18,340.5v-0.24 M232.98,339.9h-0.72 M231.18,339.9H231 M232.26,340.26v-0.36
	 M231.18,340.26v-0.36 M231.18,338.28H231 M231.18,340.26H231 M231.18,334.2v-0.24 M231.18,333.96h1.08v0.24 M232.26,338.04v-3.84
	h-1.08 M231.72,334.2v3.84 M231.18,334.2v3.84 M232.26,321.6h-1.08 M232.26,321.6v-0.24h-1.08 M231.18,321.6v-0.24 M231.72,321.6
	v12.36 M231.72,304.86v3.84 M232.26,304.86v3.84 M231.18,304.86v3.84 M231,304.26V303 M232.98,304.26V303 M231.18,304.62H231
	 M231.18,304.26H231 M232.26,304.62v-0.36 M231.18,304.86v-0.6 M231.18,304.62h1.08v0.24 M232.26,304.86h-1.08 M232.98,303.66H231
	 M231.18,303v-0.36H231 M232.26,302.64V303 M231.18,303H231 M231.18,302.4v0.24 M231.18,302.64h1.08v-0.24 M232.26,302.4h-1.08
	 M232.26,308.7h-1.08 M232.26,308.7v0.24h-1.08 M231.18,308.7v0.24 M231.18,298.56v-0.24 M231.18,298.32h1.08v0.24 M232.26,302.4
	v-3.84h-1.08 M231.72,298.56v3.84 M231.18,298.56v3.84 M232.26,285.96h-1.08 M232.26,285.96v-0.24h-1.08 M231.18,285.96v-0.24
	 M231.72,285.96v12.36 M231,304.62v33.66 M231.72,308.94v12.42 M232.26,308.94v25.02 M231.18,308.94v25.02 M233.1,340.98h3.42
	 M233.1,337.56h3.42 M233.82,339.3h1.98 M232.26,303h48.36 M232.26,304.26h48.36 M271.2,263.82v0.6 M271.2,247.44v-0.6
	 M264.84,247.44v16.38 M267.42,247.44v16.38 M270.06,247.44v16.38 M236.52,266.28v3.42 M235.8,268.98V267 M236.4,260.34l4.38,4.32
	 M240.78,264.42l-4.08-4.08 M237.3,260.34l3.48,3.48 M237.3,240.78h16.74 M237.3,243.3h16.74 M237.3,245.88h16.74 M256.92,247.44
	v16.38 M259.56,247.44v16.38 M262.2,247.44v16.38 M240.78,264.42h30.42 M240.78,263.82h30.42 M243.48,267.24h38.58 M236.52,269.46
	h44.1 M254.04,247.44h17.16 M254.64,246.84h16.56 M254.94,246.54h15.12 M237.3,222.78h16.74 M237.3,225.36h16.74 M237.3,227.94
	h16.74 M237.3,230.46h16.74 M237.3,233.04h16.74 M237.3,235.62h16.74 M237.3,238.2h16.74 M237.3,217.62h16.74 M237.3,220.2h16.74
	 M254.04,217.26h28.32 M254.64,217.86h27.18 M254.94,218.16h26.64 M254.04,217.26v30.18 M254.64,217.86v28.98 M254.94,218.16v28.38
	 M282.36,217.26v47.4 M281.82,217.86v46.8 M281.58,218.16v46.5 M233.1,266.28v3.42 M233.82,268.98V267 M232.98,267.36v1.26
	 M231,267.36v1.26 M232.98,268.02H231 M231.18,267.36H231 M231.72,269.22v3.84 M232.26,269.22v3.84 M232.26,269.22h-1.08v3.84
	 M232.26,269.22v-0.24h-1.08 M231.18,269.22v-0.24 M232.98,268.62h-0.72 M231.18,268.62H231 M232.26,268.98v-0.36 M231.18,268.98
	v-0.36 M231.18,267.36V267H231 M231.18,268.98H231 M232.26,273.06h-1.08 M232.26,273.06v0.24h-1.08 M231.18,273.06v0.24
	 M232.98,267.36h-0.72V267 M232.26,266.76V267 M231.18,267H231 M232.26,267h-1.08v-0.24 M232.26,266.76h-1.08 M231.18,262.92v-0.24
	 M231.18,262.68h1.08v0.24 M231.18,266.76v-3.84h1.08 M231.72,266.76v-3.84 M232.26,266.76v-3.84 M231.18,250.02v0.3 M231.18,250.32
	h1.08v-0.3 M232.26,250.02h-1.08 M231.72,262.68v-12.36 M231.18,237.42v-3.84 M231.72,237.42v-3.84 M231.18,237.42h1.08v-3.84
	 M232.26,237.42v0.24h-1.08 M231.18,237.42v0.24 M232.26,233.58h-1.08 M232.26,233.58v-0.24h-1.08 M231.18,233.58v-0.24
	 M231.18,232.98H231 M232.26,233.34v-0.36 M231,233.34h0.18v-0.36 M232.98,232.38H231 M232.26,231.12h-1.08 M232.26,231.12v0.24
	h-1.08 M231.18,231.72v-0.6 M232.26,231.36v0.36 M231.18,231.72H231 M231.18,231.36H231 M232.98,231.72v1.26 M231,231.72v1.26
	 M231.18,227.28v-0.24 M231.18,227.04h1.08v0.24 M231.18,231.12v-3.84h1.08 M232.26,231.12v-3.84 M231.72,231.12v-3.84
	 M232.26,214.68h-1.08 M232.26,214.68v-0.3h-1.08 M231.18,214.68v-0.3 M231.72,227.04v-12.36 M231.18,262.68v-25.02 M232.26,262.68
	v-25.02 M231,267v-33.66 M231.72,250.02v-12.36 M233.1,269.7h3.42 M233.1,266.28h3.42 M233.82,268.02h1.98 M231,268.98v33.66
	 M280.62,269.46v11.28 M232.26,273.3v25.02 M231.72,273.3v12.42 M231.18,273.3v25.02 M294.72,282.36
	c-0.025,5.974,4.859,10.92,10.86,10.86 M294.6,234.84c-0.034,5.981,4.879,10.894,10.86,10.86 M391.98,201.66h1.26v0.42
	 M393.24,201.66v-0.48h-1.26 M391.98,201.66v-0.48 M393.24,201.18v-3.48 M391.98,201.18v-3.48 M393.24,202.08h8.88 M393.24,201.66
	h8.88 M376.86,202.38h-9.66 M376.86,202.86h-9.601 M378.12,202.38v-0.48 M378.12,201.9h-1.26v0.48 M376.86,202.86v-0.48h1.26
	 M378.12,201.9v-4.2 M376.86,201.9v-4.2 M353.1,187.98v0.78 M353.1,194.7v1.02 M353.64,194.7v1.02 M369.48,169.56h5.939
	 M369.48,169.56v-0.54h5.939 M353.1,180v0.78 M353.1,186.72v0.78 M353.1,172.02v0.78 M353.1,171.12v0.42 M353.64,171.12v1.68
	 M353.1,178.74v0.78 M353.64,178.74v2.04 M353.64,186.72v2.04 M378.12,197.7h13.86 M353.64,165.18v-2.88 M353.1,163.8v1.38
	 M376.14,147.48h-9.899 M376.14,147h-9.899 M376.14,147.96h1.5 M377.64,147.96v-0.48h-1.5 M376.14,147v0.96 M351.36,149.94v-1.98
	 M350.88,148.44v1.5 M350.88,148.44h0.48v1.5 M375.42,149.94h-24.54 M377.76,147.96H351.36 M376.14,137.58
	c-5.549,0.039-9.86,4.351-9.899,9.9 M350.88,149.94v9.66 M375.42,195.72v-26.16 M335.82,195.72h2.939 M307.08,193.98h10.14
	 M307.08,194.46v-0.9h10.14 M307.08,197.7v-1.98 M308.34,194.46v4.5 M305.58,193.98v0.48 M305.1,197.7v-1.98 M303.84,194.46v4.5
	 M305.1,196.74h1.98 M303.84,198.96h4.5 M303.84,194.46h4.5 M305.58,193.98h1.5 M307.08,194.46h-1.5 M307.08,183.84v-0.48
	 M307.08,182.1h0.479v-0.72 M307.56,181.38h-0.479 M316.02,181.38v0.72 M316.02,182.1h-0.539v-0.72 M315.06,181.38h0.96
	 M307.08,181.38v0.72 M320.94,181.38v0.24 M321.42,181.32v0.3 M316.02,181.62h4.921 M321.42,174.66v0.78 M321.42,173.4v0.78
	 M320.94,173.46v1.98 M315.06,181.38v-7.92 M315.48,181.38v-7.92 M307.08,183.36h-1.5v0.48 M307.08,183.84h-1.5 M305.1,183.36h1.98
	 M315.48,173.46c-4.436-0.007-7.879,3.558-7.921,7.92 M317.22,193.98c0.09-5.508-4.631-10.237-10.14-10.14"/>
<path fill="none" stroke="#000000" stroke-width="0.72" stroke-linecap="round" stroke-linejoin="round" stroke-miterlimit="10" d="
	M367.38,370.74c-0.067,5.22,4.16,9.337,9.36,9.42 M307.8,408.84v3.42 M307.08,411.54v-1.98 M304.38,408.84v3.42 M305.1,411.54v-1.98
	 M305.58,408.84h1.02 M306.6,408.84v-0.54h-1.02 M305.58,408.3v0.54 M305.58,412.8v-0.54 M305.58,412.8h1.02v-0.54 M305.58,412.26
	h1.02 M304.38,412.26h3.42 M304.38,408.84h3.42 M305.1,410.58h1.98 M305.58,384.3h-9.36 M305.58,383.88h-9.36 M305.58,384.84h1.02
	 M306.6,384.84v-0.54h-1.02 M305.58,383.88v0.96 M306.6,408.3v-23.46 M305.58,408.3v-23.46 M306.12,408.3v-23.46 M305.58,365.94
	h-9.36 M305.58,365.52h-9.36 M305.58,365.04v0.9 M305.58,365.52h1.02v-0.48 M305.58,365.04h1.02 M296.22,365.52
	c-0.091,5.118,4.228,9.446,9.36,9.42 M305.58,374.94c-5.08-0.094-9.506,4.339-9.36,9.36 M376.62,412.26v33.181 M378.12,412.26
	v34.681 M306.12,412.8V429 M305.58,412.8V429 M306.6,412.8V429 M280.62,469.08h1.44 M282.06,469.08v-0.48h-1.44 M280.62,480.36
	V468.6 M280.62,458.94h1.44 M282.06,458.94v0.479h-1.44 M280.62,459.42v0.48 M271.44,459.42h9.18v-0.479 M280.62,459.9h-9.18
	 M271.44,459.42c0.106,5.181,3.999,9.074,9.18,9.18 M235.8,482.82v-1.98 M236.52,483.06h5.94 M236.52,480.36h44.1 M280.62,433.44
	h1.44 M282.06,433.44v-0.48h-1.44 M280.62,445.56v-12.6 M280.62,423.3h1.44 M282.06,423.3v0.48h-1.44 M280.62,423.78v0.479
	 M271.44,423.78h9.18v-0.48 M280.62,424.26h-9.18 M271.44,423.78c0.106,5.181,3.999,9.073,9.18,9.18 M280.62,446.82v12.12
	 M282.06,433.44v25.5 M233.82,482.82v-1.98 M232.98,481.2v1.26 M231,481.2v1.26 M232.98,481.86H231 M231,482.82h0.18v-0.36H231
	 M231.18,480.6v-3.84 M232.26,480.6v-3.84 M231.18,481.2v-0.36H231 M232.26,480.84v0.36 M231.18,481.2H231 M232.98,481.2h-0.72
	 M231.18,480.6v0.24 M231.18,480.84h1.08v-0.24 M232.26,480.6h-1.08 M231.72,480.6v-3.84 M231.18,476.76v-0.24 M231.18,476.52h1.08
	v0.24 M232.26,476.76h-1.08 M232.26,483.06v-0.239 M232.26,482.82v-0.36h0.72 M232.26,483.06h-1.08 M231.18,483.06v-0.239h1.08
	 M231.18,463.92v0.24 M231.18,464.16h1.08v-0.24 M232.26,463.92h-1.08 M232.26,451.26h-1.08 M232.26,451.26v0.24h-1.08
	 M231.18,451.26v0.24 M231.72,463.92V451.5 M232.26,476.52V451.5 M231.72,476.52V464.16 M231.18,476.52V451.5 M231.18,444.96v-3.84
	 M232.26,444.96v-3.84 M231,446.82v-1.261 M232.98,446.82v-1.261 M231.18,447.18H231 M231.18,446.82H231 M232.26,447.18v-0.359
	 M231.18,447.42v-0.6 M231.18,447.18h1.08v0.24 M232.26,447.42h-1.08 M232.98,446.22H231 M231.72,444.96v-3.84 M231.18,445.56V445.2
	H231 M232.26,445.2v0.359 M231.18,445.56H231 M231.18,444.96v0.24 M231.18,445.2h1.08v-0.24 M232.26,444.96h-1.08 M231.18,441.12
	v-0.24 M231.18,440.88h1.08v0.24 M232.26,441.12h-1.08 M231.18,428.28v0.239 M231.18,428.52h1.08v-0.239 M232.26,428.28h-1.08
	 M232.26,415.62h-1.08 M232.26,415.62v0.24h-1.08 M231.18,415.62v0.24 M231.72,428.28v-12.42 M231.18,440.88v-25.02 M231.72,440.88
	v-12.36 M232.26,440.88v-25.02 M231,480.84v-33.66 M232.26,451.26v-3.84 M231.72,451.26v-3.84 M231.18,451.26v-3.84 M233.1,480.12
	h3.42 M233.82,481.86h1.98 M232.26,446.82h48.36 M232.26,445.56h48.36 M280.62,397.32v0.479 M280.62,397.32h1.44v0.479
	 M280.62,409.92V397.8h1.44 M282.06,388.14h-1.44v0.48 M280.62,388.14v-0.48h1.44 M282.06,388.14v-0.48 M280.62,388.62h-9.18
	 M280.62,388.14h-9.18 M271.44,388.14c0.106,5.181,3.999,9.074,9.18,9.18 M236.52,408.84v3.42 M235.8,411.54v-1.98 M236.52,411.18
	h44.1 M236.52,409.92h44.1 M280.62,362.16h1.44 M282.06,362.16v-0.48h-1.44 M280.62,374.28v-12.6 M280.62,352.02h1.44
	 M282.06,352.02v0.48h-1.44 M280.62,352.5v-0.48 M271.44,352.5h9.18v0.48 M280.62,352.98h-9.18 M271.44,352.5
	c0.106,5.181,3.999,9.074,9.18,9.18 M280.62,375.54v12.12 M282.06,362.16v25.5 M233.1,408.84v3.42 M233.82,411.54v-1.98
	 M232.98,409.92v1.26 M231,409.92v1.26 M232.98,410.58H231 M232.26,409.32h-1.08 M232.26,409.32v0.239h-1.08 M231.18,409.92v-0.6
	 M232.26,409.56v0.36 M231.18,409.92H231 M232.98,409.92h-0.72 M231.18,409.56H231 M231.18,411.54H231 M232.98,411.18h-0.72
	 M231.18,411.18H231 M232.26,411.54v-0.36 M231.18,411.78v-0.601 M231.18,411.54h1.08v0.24 M232.26,411.78h-1.08 M231.18,405.48
	v-0.24 M231.18,405.24h1.08v0.24 M232.26,409.32v-3.84h-1.08 M231.72,405.48v3.84 M231.18,405.48v3.84 M232.26,392.88h-1.08
	 M232.26,392.88v-0.24h-1.08 M231.18,392.88v-0.24 M232.26,379.98h-1.08 M232.26,379.98v0.24h-1.08 M231.18,379.98v0.24
	 M231.72,380.22v12.42 M231.72,392.88v12.36 M232.26,380.22v25.02 M231.18,380.22v25.02 M232.98,374.28v1.26 M231,374.28v1.26
	 M232.98,374.94H231 M232.26,373.68h-1.08 M232.26,373.68v0.24h-1.08 M231.18,374.28v-0.6 M232.26,373.92v0.36 M231.18,374.28H231
	 M232.26,376.14h-1.08 M232.26,376.14v-0.24h-1.08 M231.18,376.14v-0.24 M231.18,375.54H231 M232.26,375.9v-0.36 M231.18,375.9
	v-0.36 M231.18,373.92H231 M231.18,375.9H231 M231.18,369.84v-0.24 M231.18,369.6h1.08v0.24 M232.26,373.68v-3.84h-1.08
	 M231.72,369.84v3.84 M231.18,369.84v3.84 M232.26,357.24h-1.08 M232.26,357.24V357h-1.08 M231.18,357.24V357 M232.26,344.34h-1.08
	 M232.26,344.34v0.24h-1.08 M231.18,344.34v0.24 M231.72,344.58V357 M231.72,357.24v12.36 M232.26,344.58v25.02 M231.18,344.58
	v25.02 M231.72,376.14v3.84 M232.26,376.14v3.84 M231.18,376.14v3.84 M231,375.9v33.66 M233.1,412.26h3.42 M233.1,408.84h3.42
	 M233.82,410.58h1.98 M232.26,375.54h48.36 M232.26,374.28h48.36 M231,445.2v-33.66 M280.62,411.18v12.12 M282.06,397.8v25.5
	 M232.26,415.62v-3.84 M231.72,415.62v-3.84 M231.18,415.62v-3.84 M236.52,480.12v3.479 M233.1,480.12v3.479 M304.38,480.12v3.479
	 M307.8,480.12v3.479 M407.64,481.08v46.56 M406.2,482.58v45.06 M359.04,446.94V483.6 M321.54,480.6v3 M312.66,480.6v3
	 M337.92,480.6v3 M328.98,480.6v3 M345.3,480.6v3 M354.24,480.6v3 M231,482.82v33.66 M231.18,483.06v3.841 M231.72,483.06v3.841
	 M232.26,483.06v3.841 M231,589.74v33.66 M304.14,622.44v3.96 M308.1,622.44v3.96 M378,693.96V589.5 M376.74,693.96v-61.14
	 M269.7,623.64v-2.34 M317.4,631.32v-9.12 M326.16,631.32c-0.047-5.072-4.138-9.197-9.18-9.12v9.12 M271.2,629.34v-8.04
	 M232.26,619.32v3.84 M231.72,619.32v3.84 M231.18,619.32v3.84 M361.2,631.32c0.19-4.899-4.258-9.292-9.12-9.12 M352.5,631.32v-9.12
	 M352.08,631.32v-9.12 M412.02,699.54H378.36 M446.94,411.18h-67.86 M446.94,409.92h-67.86 M446.94,551.88H407.64 M446.94,554.58
	H406.2 M413.88,588c-0.093-5.088-4.048-9.121-9.18-9.12 M378.36,697.56h33.659 M452.46,339.9v-1.26 M452.46,338.64h-0.18v-0.36
	 M452.46,338.28h-0.18v-0.24 M452.28,340.5v-0.24h0.18 M452.28,340.26v-0.36h0.18 M450.36,337.56h-3.42v3.42h3.42V337.56z
	 M447.66,339.3h1.979 M449.64,340.26v-1.98 M447.66,340.26v-1.98 M450.48,339.9v-1.26 M450.48,338.64h0.72v-0.36 M451.2,338.04v0.24
	 M451.2,340.5v-0.24 M451.2,340.26v-0.36h-0.72 M450.48,339.3h1.979 M451.2,338.28h1.08 M451.2,338.04h1.08 M451.2,340.5h1.08
	 M451.2,340.26h1.08 M452.28,321.36v0.24 M452.28,321.6h-1.08v-0.24 M451.2,321.36h1.08 M451.74,338.04V321.6 M452.46,303h-0.18
	v-0.36 M452.46,302.64h-0.18v-0.24 M452.28,304.26h0.18 M452.28,304.86v-0.24 M452.28,304.26v0.36h0.18 M452.46,303v1.26
	 M450.48,303h0.72v-0.36 M451.2,302.4v0.24 M450.48,304.26h0.72 M451.2,304.26v0.6 M450.48,303v1.26 M451.2,302.64h1.08
	 M451.2,302.4h1.08 M451.2,304.62h1.08 M451.2,304.86h1.08 M450.48,303.66h1.979 M452.28,285.72v0.24 M452.28,285.96h-1.08v-0.24
	 M451.2,285.72h1.08 M451.74,302.4v-16.44 M451.74,321.36v-16.5 M452.28,338.04v-33.18 M451.2,338.04v-33.18 M452.46,338.28v-33.66
	 M452.46,268.62v-1.26 M452.28,267v0.36 M452.28,266.76V267h0.18 M452.28,267.36h0.18 M452.28,268.62h0.18 M452.28,269.22v-0.24
	 M452.28,268.62v0.36h0.18 M446.94,269.7h3.42v-3.42 M446.94,266.28h3.42 M447.66,268.02h1.979 M449.64,268.98V267 M447.66,268.98
	V267 M450.48,268.62v-1.26 M451.2,266.76v0.6 M450.48,267.36h0.72 M450.48,268.62h0.72 M451.2,268.62v0.6 M446.94,269.7v-3.42
	 M450.48,268.02h1.979 M451.2,266.76h1.08 M451.2,267h1.08 M451.2,268.98h1.08 M451.2,269.22h1.08 M452.28,250.32v-0.3
	 M452.28,250.32h-1.08v-0.3 M451.2,250.02h1.08 M451.74,250.32v16.44 M452.46,232.98v-1.26 M452.28,231.36v0.36 M452.28,231.12v0.24
	h0.18 M452.28,231.72h0.18 M452.28,233.58v-0.24h0.18 M452.28,233.34v-0.36h0.18 M450.48,232.98v-1.26 M451.2,231.12v0.6
	 M450.48,231.72h0.72 M451.2,233.58v-0.24 M451.2,233.34v-0.36h-0.72 M450.48,232.86H450 M450,232.86v-1.02h0.48 M450.48,231.84
	v1.02 M450.48,232.38h1.979 M451.2,231.12h1.08 M451.2,231.36h1.08 M451.2,233.58h1.08 M451.2,233.34h1.08 M452.28,214.68v-0.3
	 M452.28,214.68h-1.08v-0.3 M451.2,214.38h1.08 M451.74,214.68v16.44 M436.44,232.86h-0.48 M435.96,232.86v-1.02h0.48
	 M436.44,231.84v1.02 M422.1,232.86h-0.479 M421.62,232.86v-1.02h0.479 M422.1,231.84v1.02 M435.96,232.38H422.1 M435.96,231.84
	H422.1 M435.96,232.86H422.1 M450,232.38h-13.56 M450,231.84h-13.56 M450,232.86h-13.56 M452.46,233.34V267 M451.74,233.58v16.44
	 M451.2,233.58v33.18 M452.28,233.58v33.18 M452.28,302.4v-33.18 M451.2,302.4v-33.18 M452.46,302.64v-33.66 M451.74,285.72v-16.5
	 M452.28,197.94v-0.24h0.18 M452.28,197.7v-0.36h0.18 M452.28,195.72v0.36 M452.28,195.48v0.24h0.18 M452.28,196.08h0.18
	 M452.28,195.48v-4.08 M452.46,197.34v-1.26 M446.94,198.42h3.42 M447.66,196.74h1.979 M451.2,197.94v-0.24 M451.2,197.7v-0.36
	h-0.72 M446.94,195h3.42 M451.2,195.48v0.6 M450.48,196.08h0.72 M451.2,191.64v-0.24 M451.74,191.64v3.84 M451.2,191.64v3.84
	 M450.36,195v3.42 M446.94,195v3.42 M449.64,197.7v-1.98 M447.66,197.7v-1.98 M450.48,197.34v-1.26 M450.48,196.74h1.979
	 M451.2,195.48h1.08 M451.2,195.72h1.08 M451.2,197.94h1.08 M451.2,197.7h1.08 M451.2,191.64h1.08 M451.2,191.4h1.08 M452.28,179.04
	v-0.3 M452.28,179.04h-1.08v-0.3 M451.2,178.74h1.08 M451.74,179.04v12.36 M452.28,162.3v3.84 M452.28,162.3v-0.24h0.18
	 M452.28,162.06v-0.36h0.18 M452.28,166.14v0.24 M452.28,160.08v0.36 M452.28,159.84v0.24h0.18 M452.28,160.44h0.18 M452.28,159.84
	v-4.08 M452.46,161.7v-1.26 M451.74,162.3v3.84 M451.2,162.06v4.08 M451.2,162.06v-0.36h-0.72 M451.2,166.14v0.24 M451.2,159.84v0.6
	 M450.48,160.44h0.72 M451.2,159.84v-4.08 M451.74,156v3.84 M450.48,161.7v-1.26 M450.48,161.1h1.979 M451.2,159.84h1.08
	 M451.2,160.08h1.08 M451.2,162.3h1.08 M451.2,162.06h1.08 M451.2,156h1.08 M451.2,155.76h1.08 M451.2,166.38h1.08 M451.2,166.14
	h1.08 M452.28,143.4v-0.3 M452.28,143.4h-1.08v-0.3 M451.2,143.1h1.08 M451.74,143.4v12.36 M452.46,162.06v33.66 M451.74,166.38
	v12.36 M452.28,166.38v25.02 M451.2,166.38v25.02 M452.28,130.74v-4.08 M452.46,126.06v-1.26 M452.28,124.44v0.36 M452.28,124.2
	v0.24h0.18 M452.28,124.8h0.18 M452.28,126.42h0.18 M452.28,126.42v-0.36h0.18 M452.28,124.2v-4.08 M452.28,126.66v-0.24
	 M446.94,127.14h3.42 M451.74,126.66v3.84 M451.2,130.74v-4.08 M446.94,123.72h3.42 M447.66,125.46h1.979 M449.64,126.42v-1.98
	 M447.66,126.42v-1.98 M450.48,126.06v-1.26 M451.2,124.2v0.6 M450.48,124.8h0.72"/>
<path fill="none" stroke="#000000" stroke-width="0.72" stroke-linecap="round" stroke-linejoin="round" stroke-miterlimit="10" d="
	M316.98,632.82v-1.5 M305.1,625.38V623.4 M306.72,631.32v-4.92 M305.1,624.42h1.98 M304.14,626.4h3.959 M306.72,631.32h9.78
	 M306.72,683.28v-50.46h9.78 M336.54,683.4v-50.58 M335.04,684.9v-52.08 M305.46,659.28V626.4 M326.64,631.32h24.96 M336.54,632.82
	h15.06 M340.98,697.56V684.9 M342.48,697.56V683.4 M316.38,693.48c-0.055-5.338-4.238-9.656-9.66-9.66 M269.82,697.56h1.26
	 M269.82,699.54h1.26 M270.48,697.56v1.98 M271.08,697.56v0.181 M271.08,699.3v0.24 M271.08,699.3h0.36v0.24 M269.82,699.54v-0.24
	h-0.36 M269.46,699.3v0.24 M271.44,697.56v0.181h-0.36 M269.82,697.56v0.181 M269.82,697.74h-0.36v-0.181 M236.52,693.96v3.48
	 M235.8,696.66v-1.98 M234.84,697.56v1.98 M235.44,699.3v0.24 M235.44,699.3h0.36v0.24 M235.8,697.56v0.181h-0.36 M235.44,697.74
	v-0.181 M269.46,699.54H235.8 M235.8,697.56h33.66 M233.1,693.96v3.48 M233.82,696.66v-1.98 M232.98,695.04v1.26 M231,695.04v1.26
	 M232.98,695.7H231 M232.26,694.44h-1.08 M232.26,694.44v0.239h-1.08 M231.18,695.04v-0.6 M232.26,694.68v0.36 M231.18,695.04H231
	 M232.98,695.04h-0.72 M231.18,694.68H231 M233.1,697.44h3.42 M233.1,693.96h3.42 M233.82,695.7h1.98 M234.18,699.54h1.26
	 M234.18,697.56h1.26 M285.06,660.78v-1.5 M285.06,659.28h-0.48v1.5 M284.58,660.78h-0.42 M284.58,669.96v-9.18h0.48 M284.16,660.78
	v9.18 M274.92,660.78v-1.5h-3.72 M274.92,659.28h0.48v1.5 M275.4,660.78h-0.48 M275.4,660.78c0.14,5.184,3.966,9.065,9.18,9.18
	 M269.7,639v0.48 M269.7,639.48h1.5V639 M271.2,639h-1.5 M269.7,629.34v0.96 M269.7,629.34h1.5v0.48 M269.7,629.82h1.5
	 M269.7,629.34v-4.2 M236.52,622.68v3.48 M235.8,625.38V623.4 M236.52,623.64h33.18 M236.52,625.14h33.18 M269.7,630.3h-9.12
	 M269.7,629.82h-9.12 M260.58,629.82c-0.089,5.057,4.141,9.192,9.12,9.18 M269.7,659.28v-19.8 M271.2,659.28v-19.8 M231.18,690.6
	v-0.239 M231.18,690.36h1.08v0.239 M232.26,690.6h-1.08 M232.26,678h-1.08 M232.26,678v-0.24h-1.08 M231.18,678v-0.24 M231.72,678
	v12.36 M232.98,659.4v1.26 M231,659.4v1.26 M232.98,660.06H231 M232.26,658.8h-1.08 M232.26,658.8v0.24h-1.08 M231.18,659.4V658.8
	 M232.26,659.04v0.36 M231.18,659.4H231 M232.98,659.4h-0.72 M231.72,661.26v3.84 M232.26,661.26v3.84 M232.26,661.26h-1.08v3.84
	 M232.26,661.26v-0.24h-1.08 M231.18,661.26v-0.24 M232.98,660.66h-0.72 M231.18,660.66H231 M232.26,661.02v-0.359 M231.18,661.02
	v-0.359 M231.18,659.04H231 M231.18,661.02H231 M232.98,659.4v-0.12 M232.98,660.66v0.12 M232.26,665.1h-1.08 M232.26,665.1v0.24
	h-1.08 M231.18,690.36V665.1 M231.72,665.34v12.42 M232.26,665.34v25.021 M231.18,654.96v-0.24 M231.18,654.72h1.08v0.24
	 M232.26,654.96h-1.08 M232.26,642.36h-1.08 M232.26,642.36v-0.24h-1.08 M231.18,642.36v-0.24 M231.72,642.36v12.359 M233.1,622.68
	v3.48 M233.82,625.38V623.4 M232.98,623.76v1.26 M231,623.76v1.26 M232.98,624.42H231 M232.26,623.16h-1.08 M232.26,623.16v0.24
	h-1.08 M231.18,623.76v-0.6 M232.26,623.4v0.359 M231.18,623.76H231 M232.98,623.76h-0.72 M231.72,625.62v3.84 M232.26,625.62v3.84
	 M232.26,625.62h-1.08v3.84 M232.26,625.62v-0.24h-1.08 M231.18,625.62v-0.24 M232.98,625.02h-0.72 M231.18,625.02H231
	 M232.26,625.38v-0.36 M231.18,625.38v-0.36 M231.18,623.4H231 M231.18,625.38H231 M232.26,629.46h-1.08 M232.26,629.46v0.24h-1.08
	 M231.18,654.72v-25.26 M231.72,629.7v12.42 M232.26,629.7v25.02 M231,625.38v33.66 M231.72,654.96v3.84 M232.26,654.96v3.84
	 M231.18,654.96v3.84 M233.1,626.16h3.42 M233.1,622.68h3.42 M233.82,624.42h1.98 M232.98,660.78h41.94 M232.98,659.28h36.72
	 M231,661.02v33.66 M231.18,690.6v3.841 M231.72,690.6v3.841 M232.26,690.6v3.841 M305.1,699.54h-33.66 M305.1,697.56h-33.66
	 M285.06,659.28h20.4 M285.06,660.78h20.4 M404.22,589.5V588 M404.22,588h0.48v1.5 M404.7,589.5h-0.48 M404.7,588h0.42 M378,589.5
	h26.22 M378,554.1v3.48 M376.02,554.1v1.5 M389.4,554.1H378 M404.7,588v-9.12 M405.12,588v-9.12 M327.78,588.12v1.14 M327.78,589.26
	h-0.48v-1.14 M327.78,588.12h-0.9 M304.14,622.44h3.959 M307.56,588.12h-0.42v1.14 M305.46,588h1.26 M306.72,588.12v1.14
	 M305.04,588h0.42 M305.46,588v1.2h-0.42 M305.04,589.2V588h-0.42 M307.14,589.26h-0.42 M307.14,588.12h-0.42 M305.46,588v34.44
	 M306.72,588v34.44 M328.98,578.22h-1.2 M327.78,578.22v-0.479h1.2 M328.98,577.74v0.479 M328.98,568.08h-1.2 M327.78,568.08v0.479
	h1.2 M328.98,568.56v-0.479 M327.78,568.56v0.48 M327.78,557.58v10.5 M328.98,557.58v10.5 M316.5,557.58v-3.48 M318.48,555.6v-1.5
	 M316.5,554.1h-8.4 M305.1,553.14h1.98 M304.14,555.48h3.959 M316.5,557.58h11.28 M327.78,568.56H318.6
	c-0.087,4.979,4.201,9.268,9.181,9.181 M327.78,569.04H318.6 M328.98,578.22V588 M327.78,578.22v11.04 M327.3,588.12v-10.08
	 M326.88,588.12v-10.08 M307.14,588.12v-10.08 M307.56,588.12v-10.08 M327.3,578.04c-5.644,0.109-10.014,4.447-10.08,10.08
	 M317.22,588.12c-0.01-5.625-4.487-10.01-10.08-10.08 M304.62,588v-10.56 M305.04,588v-10.62 M327.78,589.26h48.96 M318.48,555.6
	h57.539 M376.02,554.1H318.48 M328.98,557.58H378 M328.98,588h75.239 M406.2,539.76h1.439 M407.64,539.76v-0.479H406.2
	 M406.2,539.28v0.479 M407.64,539.76v12.12 M406.2,528.12h-11.16 M406.2,528.54h-11.16 M406.2,527.64h1.439 M407.64,527.64v0.48
	H406.2 M406.2,527.64v0.9 M395.04,528.12c0.013,6.21,4.977,11.114,11.16,11.16 M353.22,492.48V483.6h5.82 M354.24,483.6v8.881
	 M304.14,550.74h3.959 M337.92,483.6h7.38 M337.92,492.48V483.6h-1.02 M336.9,483.6v8.881 M328.98,483.6
	c0.009,4.939,4.002,8.903,8.939,8.881 M307.08,497.94v0.479 M307.08,483.6v3.42 M307.8,483.6h4.86 M321.54,483.6h-0.96
	 M312.66,483.6c0.046,4.968,3.904,8.854,8.88,8.881 M320.58,483.6v8.881 M321.54,483.6v8.881 M305.1,497.94h-10.86 M305.1,498.42
	v-0.9h-10.86 M305.1,483.6v3.42 M304.38,483.6h3.42 M305.1,498.42h1.98 M307.08,497.94h-1.98 M305.1,487.02h1.98 M305.1,486.54h1.98
	 M321.54,483.6h7.44 M305.1,550.74v-52.32 M307.08,550.74v-52.32 M389.4,552.12H308.1 M345.3,483.6
	c0.147,4.929,3.932,8.884,8.94,8.881 M305.1,554.1v-1.979 M307.08,554.1v-1.979 M304.14,550.74v4.74 M308.1,550.74v4.74
	 M389.4,554.1v-1.979 M406.2,539.76v14.82 M269.7,621.3h1.5 M271.2,621.3v-0.479h-1.5 M269.7,621.3V620.4 M269.7,611.16h1.5
	 M271.2,611.16v0.479h-1.5 M269.7,611.64v-0.479 M283.32,588v1.2 M283.8,588h-1.44 M283.8,589.2h-0.48 M283.8,589.2V588h0.42
	 M271.2,611.16v-21.78h12.12 M269.7,611.16v-21.78 M269.7,611.64c-5.088,0.094-9.121,4.049-9.12,9.181 M269.7,620.82h-9.12
	 M269.7,620.4h-9.12 M283.32,587.52h-0.96 M283.32,575.58h-0.96 M282.36,575.58v0.479h0.96 M283.32,575.58v0.479 M282.36,576.06
	v11.46 M282.84,576.06v11.46 M283.32,576.06v11.46 M283.32,565.92h-0.96 M282.36,566.4h0.96 M282.36,566.88v-0.96 M283.32,566.4
	v-0.48 M283.32,554.34v-0.479 M283.32,554.34h-0.96v-0.479 M283.32,553.86h-0.96 M283.32,554.34v11.58 M282.36,554.34v11.58
	 M282.84,554.34v11.58 M282.36,566.4h-9.18 M282.36,566.88h-9.18 M273.18,566.4c-0.087,4.979,4.201,9.267,9.18,9.18 M282.36,588
	v-0.48 M283.32,587.52V588 M284.22,588v-10.56 M283.8,588v-10.62 M231.18,619.32v-0.24 M231.18,619.08h1.08v0.24 M232.26,619.32
	h-1.08 M232.26,606.72h-1.08 M232.26,606.72v-0.239h-1.08 M231.18,606.72v-0.239 M231.72,606.72v12.36 M232.98,588.12v1.26
	 M231,588.12v1.26 M232.98,588.78H231 M231.18,588.12H231 M231.72,589.98v3.84 M232.26,589.98v3.84 M232.26,589.98h-1.08v3.84
	 M232.26,589.98v-0.24h-1.08 M231.18,589.98v-0.24 M231.18,589.38H231 M232.26,589.74v-0.36 M231,589.74h0.18v-0.36 M232.26,593.82
	h-1.08 M232.26,593.82v0.239h-1.08 M231.18,593.82v0.239 M232.26,594.06v25.021 M231.72,594.06v12.421 M231.18,594.06v25.021
	 M232.26,587.52h-1.08 M232.26,587.52v0.24h-1.08 M231,587.76h0.18v-0.24 M231.18,583.68v-0.239 M231.18,583.44h1.08v0.239
	 M232.26,583.68h-1.08 M231.72,583.68v3.84 M232.26,583.68v3.84 M231.18,583.68v3.84 M232.26,571.08h-1.08 M232.26,571.08v-0.24
	h-1.08 M231.18,571.08v-0.24 M231.72,571.08v12.36 M232.98,553.14H231 M231.72,554.34v3.84 M232.26,554.34v3.84 M232.26,554.34
	h-1.08v3.84 M232.26,554.34v-0.24h-1.08 M231.18,554.34v-0.24 M232.98,553.74h-0.72 M231.18,553.74H231 M232.26,554.1v-0.359
	 M231,554.1h0.18v-0.359 M232.26,558.18h-1.08 M232.26,558.18v0.24h-1.08 M231.18,558.18v0.24 M231,554.1v33.66 M232.26,558.42
	v25.021 M231.72,558.42v12.42 M231.18,558.42v25.021 M231.18,587.76v0.36 M232.26,587.76v0.36 M233.1,554.88h3.42 M233.82,553.14
	h1.98 M232.26,589.38h37.44 M232.26,588.12h50.1 M282.36,549.54v-0.6v0.899 M282.84,550.74v1.62 M270.06,532.56v16.381
	 M267.42,532.56v16.381 M264.84,532.56v16.381 M237.3,545.46l3.48,3.48 M236.4,545.46l4.38,4.38 M240.78,549.54l-4.08-4.08
	 M237.3,523.32h16.74 M237.3,531h16.74 M237.3,528.42h16.74 M237.3,525.9h16.74 M237.3,520.74h16.74 M262.2,532.56v16.381
	 M259.56,532.56v16.381 M256.92,532.56v16.381 M254.64,531.96h27.18 M254.94,531.72h26.64 M254.04,532.56h28.32 M240.78,548.94
	h41.58 M240.78,549.54h41.58 M271.2,502.38v0.66 M271.2,485.4v0.6 M270.06,486v16.38 M267.42,486v16.38 M264.84,486v16.38
	 M237.3,505.32h16.74 M237.3,502.74h16.74 M237.3,515.58h16.74 M237.3,513.06h16.74 M237.3,510.48h16.74 M237.3,507.9h16.74
	 M237.3,518.16h16.74 M240.78,485.16l-4.38,4.32 M240.78,485.4l-4.08,4.08 M237.3,489.48l3.48-3.48 M262.2,486v16.38 M259.56,486
	v16.38 M256.92,486v16.38 M240.78,486h30.42 M240.78,485.4h30.42 M242.46,485.16h41.1 M243.48,484.2h38.58 M254.64,503.04h15.96
	 M254.94,503.28h15.42 M254.04,502.38h17.16 M236.4,489.48v55.979 M235.5,483.6V551.4 M236.7,489.48v55.979 M237.3,489.48v55.979
	 M254.04,502.38v30.18 M254.94,503.28v28.439 M254.64,503.04v28.92 M281.82,531.96v-46.8 M281.58,531.72v-46.56 M282.36,532.56
	V485.16 M231,552.48h0.18v-0.36 M231.18,552.12H231 M231.18,548.04v-0.24 M231.18,547.8h1.08v0.24 M231.18,551.88v-3.84h1.08
	 M231.72,548.04v3.84 M232.98,552.48h-0.72v-4.44 M232.26,551.88h-1.08 M231.18,551.88v0.24h1.08 M232.26,535.44h-1.08
	 M232.26,535.44v-0.24h-1.08 M231.18,535.44v-0.24 M232.26,518.7v3.84 M231.72,518.7v3.84 M232.26,522.54h-1.08v-3.84
	 M232.26,522.54v0.24h-1.08 M231.18,522.54v0.24 M232.26,518.7h-1.08 M232.26,518.7v-0.24h-1.08 M231,518.46h0.18v0.24
	 M231.72,522.78v12.42 M232.26,522.78v25.02 M231.18,522.78v25.02 M231.72,535.44V547.8 M231,518.46v33.66 M231.18,512.4v3.84
	 M231.72,512.4v3.84 M232.26,512.4v3.84 M231.18,518.1H231 M232.98,517.5H231 M232.26,516.24h-1.08 M232.26,516.24v0.24h-1.08
	 M231.18,516.84v-0.6 M232.26,516.48v0.359 M231.18,516.84H231 M231.18,516.48H231 M232.98,516.84v1.26 M231,516.84v1.26
	 M231.18,512.4v-0.24 M231.18,512.16h1.08v0.24 M232.26,512.4h-1.08 M232.26,499.8h-1.08 M232.26,499.8v-0.24h-1.08 M231.18,499.8
	v-0.24 M232.26,486.9h-1.08 M232.26,486.9v0.239h-1.08 M231.18,486.9v0.239 M231.72,487.14v12.42 M231.72,499.8v12.36
	 M231.18,487.14v25.021 M232.26,487.14v25.021 M232.26,518.46v-0.36 M231.18,518.46v-0.36 M233.1,483.6h3.42 M236.52,554.88V551.4
	h-3.42 M233.1,551.4v3.479 M235.8,554.1v-1.979 M233.82,554.1v-1.979 M232.98,552.48v1.26 M231,552.48v1.26 M284.34,549.84v4.021
	 M305.04,577.38c-5.744-0.015-10.713,4.863-10.62,10.62c0.076-5.751-4.915-10.615-10.62-10.62 M305.1,487.02
	c-5.928,0.043-10.989,4.927-10.86,10.921 M386.64,481.08h0.48 M386.64,481.08v1.5h0.48 M406.2,482.58h-19.08v-1.5 M387.12,481.08
	h20.52 M375,481.08v1.5 M375,482.58h0.48v-1.5 M375.48,481.08h0.42 M375.48,469.98v11.1H375 M375.9,481.08v-11.1 M354.24,480.6
	h1.859 M360.06,481.08H375 M359.04,482.58H375 M356.1,449.94V480.6 M386.64,481.08c-0.073-6.11-4.967-11.145-11.159-11.1
	 M360.06,446.94v34.14 M343.44,480.6h1.859 M337.92,480.6h2.58 M326.4,480.6h2.58 M340.5,449.94h-14.1 M323.4,480.6V449.94
	 M326.4,480.6V449.94 M340.5,480.6V449.94 M343.44,480.6V449.94 M307.08,482.82v-1.98 M310.8,480.6h1.86 M305.1,482.82v-1.98
	 M305.58,479.64h1.02 M306.6,479.64v0.48h-1.02 M305.58,480.12v-0.48 M304.38,480.12h3.42 M305.1,481.86h1.98 M305.58,463.38V462.9
	 M305.58,463.38h1.02V462.9 M305.58,462.9h1.02 M310.8,480.6V449.94 M306.12,463.38v16.26 M306.6,463.38v16.26 M305.58,463.38v16.26
	 M323.4,449.94H310.8 M321.54,480.6h1.86 M305.58,446.46v-0.479 M305.58,446.46h1.02v-0.479 M305.58,445.98h1.02 M305.58,429h1.02
	 M306.6,429v0.48h-1.02 M305.58,429.48V429 M306.6,429.48v16.5 M306.12,429.48v16.5 M305.58,429.48v16.5 M307.8,480.12v-33.18
	 M306.12,446.46v16.44 M306.6,446.46v16.44 M305.58,446.46v16.44 M378.12,446.94H306.6 M376.62,445.44H306.6 M356.1,449.94H343.44
	 M376.38,411.54v-1.98 M375.66,408.84v3.42 M378.36,411.54v-1.98 M379.08,408.84v3.42 M378.36,410.58h-1.98 M379.08,408.84h-3.42
	 M379.08,412.26h-3.42 M376.74,380.16v0.48 M376.74,380.16H378v0.48 M376.74,408.84v-28.2H378 M378,408.84v-28.2 M376.74,370.74
	h-9.36 M376.74,371.16h-9.36 M376.74,371.16v-0.42H378 M378,370.74v-0.54h-1.26 M376.74,370.74v-0.54"/>
<path fill="none" stroke="#000000" stroke-width="0.72" stroke-linecap="round" stroke-linejoin="round" stroke-miterlimit="10" d="
	M451.2,90.42h-0.72 M375.42,169.02v-19.08 M377.76,195.72v-47.76 M282.36,588v0.12 M283.32,589.38V588 M376.74,631.32V589.26
	 M282.06,482.58v1.62 M282.06,267.24v-1.62 M242.46,549.84h-1.68 M243.48,550.74v1.62h39.36 M284.34,549.84h-41.88v2.04
	 M243.48,550.74h39.36 M236.52,551.88h5.94 M236.52,553.86h47.82 M242.46,485.16h-1.68 M243.48,484.2v-1.62h38.58 M242.46,485.16
	v-2.101 M282.06,481.2h1.5 M282.06,268.62h1.5 M283.56,481.2v3.96 M282.06,469.08v12.12 M283.56,268.62v-3.96 M282.06,280.74v-12.12
	 M305.46,246.24v19.8 M306.72,246.24v19.8 M305.46,234.36v-21.78 M306.72,234.36v-19.8 M280.74,200.04v0.24 M242.46,266.76h-5.94
	 M242.46,264.66h-1.68 M243.48,265.62v1.62 M242.46,264.66v2.1 M243.48,265.62h38.58 M242.46,264.66h41.1 M242.46,200.04h-1.68
	 M243.48,199.08v-1.62 M242.46,200.04v-2.1h-5.94 M395.46,124.32h-17.82 M446.94,124.32h-50.28 M446.94,126.54H377.64 M452.46,696.3
	v-1.26 M452.28,694.68v0.36 M452.28,694.44v0.239h0.18 M452.28,695.04h0.18 M450.36,693.96h-3.42v3.48h3.42V693.96z M447.66,695.7
	h1.979 M449.64,696.66v-1.98 M447.66,696.66v-1.98 M450.48,696.3v-1.26 M448.02,697.56h1.261 M448.02,699.54h1.261 M448.62,697.56
	v1.98 M451.2,694.44v0.6 M450.48,695.04h0.72 M447.66,699.3v0.24 M447.66,699.3h0.359v0.24 M448.02,697.56v0.181h-0.359
	 M447.66,697.74v-0.181 M450.48,695.7h1.979 M451.2,694.44h1.08 M451.2,694.68h1.08 M412.38,697.56h1.26 M412.38,699.54h1.26
	 M412.98,697.56v1.98 M414,699.54v-0.24h-0.36 M413.64,699.3v0.24 M412.38,699.54v-0.24h-0.36 M412.02,699.3v0.24 M413.64,697.74
	v-0.181 M413.64,697.74H414v-0.181 M412.02,697.56v0.181h0.36 M412.38,697.74v-0.181 M447.66,699.54H414 M447.66,697.56H414
	 M452.28,690.6v-0.239 M452.28,678v-0.24 M451.2,690.6v-0.239 M451.2,678v-0.24 M451.74,678v12.36 M451.2,678h1.08 M451.2,677.76
	h1.08 M451.2,690.6h1.08 M451.2,690.36h1.08 M452.46,660.66v-1.26 M452.28,659.04v0.36 M452.28,658.8v0.24h0.18 M452.28,659.4h0.18
	 M452.28,661.26v3.84 M452.28,661.26v-0.24h0.18 M452.28,661.02v-0.359h0.18 M452.28,665.1v0.24 M450.48,660.66v-1.26 M451.2,658.8
	v0.601 M450.48,659.4h0.72 M451.74,661.26v3.84 M451.2,661.02v4.08 M451.2,661.02v-0.359h-0.72 M451.2,665.1v0.24 M450.48,660.06
	h1.979 M451.2,658.8h1.08 M451.2,659.04h1.08 M451.2,661.26h1.08 M451.2,661.02h1.08 M451.2,665.34h1.08 M451.2,665.1h1.08
	 M451.2,665.34v25.021 M451.74,665.34v12.42 M452.28,665.34v25.021 M415.86,661.92H414.6 M452.28,654.96v-0.24 M452.28,642.36v-0.24
	 M451.2,654.96v-0.24 M451.2,642.36v-0.24 M451.74,642.36v12.359 M451.2,642.36h1.08 M451.2,642.12h1.08 M451.2,654.96h1.08
	 M451.2,654.72h1.08 M452.46,625.02v-1.26 M452.28,623.4v0.359 M452.28,623.16v0.24h0.18 M452.28,623.76h0.18 M452.28,625.62v3.84
	 M452.28,625.62v-0.24h0.18 M452.28,625.38v-0.36h0.18 M452.28,629.46v0.24 M450.36,622.68h-3.42v3.48h3.42V622.68z M447.66,624.42
	h1.979 M449.64,625.38V623.4 M447.66,625.38V623.4 M450.48,625.02v-1.26 M451.2,623.16v0.6 M450.48,623.76h0.72 M451.74,625.62v3.84
	 M451.2,625.38v4.08 M451.2,625.38v-0.36h-0.72 M451.2,629.46v0.24 M450.48,624.42h1.979 M451.2,623.16h1.08 M451.2,623.4h1.08
	 M451.2,625.62h1.08 M451.2,625.38h1.08 M451.2,629.7h1.08 M451.2,629.46h1.08 M452.28,629.7v25.02 M451.74,629.7v12.42
	 M451.2,629.7v25.02 M452.46,625.38v33.66 M452.28,654.96v3.84 M451.74,654.96v3.84 M451.2,654.96v3.84 M452.46,661.02v33.66
	 M452.28,690.6v3.841 M451.74,690.6v3.841 M451.2,690.6v3.841 M452.28,619.32v-0.24 M452.28,606.72v-0.239 M451.2,619.32v-0.24
	 M451.2,606.72v-0.239 M451.74,606.72v12.36 M451.2,606.72h1.08 M451.2,606.48h1.08 M451.2,619.32h1.08 M451.2,619.08h1.08
	 M452.28,588.12h0.18v1.26 M452.28,589.98v3.84 M452.28,589.98v-0.24h0.18 M452.28,589.74v-0.36h0.18 M452.28,593.82v0.239
	 M451.2,588.12h-0.72v1.26 M451.74,589.98v3.84 M451.2,589.74v4.08 M451.2,589.74v-0.36h-0.72 M450.48,589.38v0.12 M450.48,588.12
	V588 M451.2,593.82v0.239 M450.48,588.78h1.979 M451.2,589.98h1.08 M451.2,589.74h1.08 M451.2,594.06h1.08 M451.2,593.82h1.08
	 M452.28,594.06v25.021 M451.74,594.06v12.421 M451.2,594.06v25.021 M414.6,613.26h1.261 M414.36,589.5V588 M414.36,588h-0.48v1.5
	 M413.88,589.5h0.48 M415.86,588h34.62 M414.36,589.5h36.12 M452.28,587.52v0.24h0.18 M452.28,587.52v-4.079 M452.28,571.08v-0.24
	 M451.2,587.52v0.24 M451.2,583.68v-0.239 M451.74,583.68v3.84 M451.2,583.68v3.84 M451.2,571.08v-0.24 M451.74,571.08v12.36
	 M451.2,571.08h1.08 M451.2,570.84h1.08 M451.2,587.52h1.08 M451.2,587.76h1.08 M451.2,583.68h1.08 M451.2,583.44h1.08
	 M452.28,554.34v3.84 M452.28,554.34v-0.24h0.18 M452.28,554.1v-0.359h0.18 M452.28,558.18v0.24 M446.94,554.88h3.42 M447.66,553.14
	h1.979 M451.74,554.34v3.84 M451.2,554.1v4.08 M451.2,554.1v-0.359h-0.72 M451.2,558.18v0.24 M450.48,553.14h1.979 M451.2,554.34
	h1.08 M451.2,554.1h1.08 M451.2,558.42h1.08 M451.2,558.18h1.08 M452.46,554.1v33.66 M452.28,558.42v25.021 M451.74,558.42v12.42
	 M451.2,558.42v25.021 M414.36,564.24v0.54 M414.36,564.24h1.5v0.54 M414.36,564.78h1.5 M415.86,555.54h9.12 M415.86,555.54v-0.42
	h9.12 M414.36,555.12v-0.54 M414.36,555.12h1.5v-0.54 M414.36,554.58h1.5 M415.86,564.24c5.034,0.033,9.152-4.085,9.12-9.12
	 M452.28,587.76v0.36 M451.2,587.76v0.36 M414.36,588v-23.22 M415.86,588v-23.22 M452.28,552.12v0.36 M452.28,551.88v0.24h0.18
	 M452.28,552.48h0.18 M446.94,551.4h3.42 M451.2,551.88v0.601 M450.48,552.48h0.72 M451.2,551.88h1.08 M451.2,552.12h1.08
	 M452.28,535.44v-0.24 M452.28,518.7v-0.24h0.18 M451.2,535.44v-0.24 M451.2,518.7v-0.24 M451.74,518.7v16.5 M451.2,518.7h1.08
	 M451.2,518.46h1.08 M451.2,535.44h1.08 M451.2,535.2h1.08 M452.46,518.46v33.66 M451.2,518.7v33.18 M452.28,518.7v33.18
	 M451.74,535.44v16.439 M452.46,518.1v-1.26 M452.28,516.48v0.359 M452.28,516.24v0.24h0.18 M452.28,516.84h0.18 M452.28,518.1h0.18
	 M450.48,518.1v-1.26 M451.2,516.24v0.6 M450.48,516.84h0.72 M450.48,518.1h0.72 M450.48,517.5h1.979 M451.2,516.24h1.08
	 M451.2,516.48h1.08 M452.28,499.8v-0.24 M451.2,499.8v-0.24 M446.64,483.84h3.721 M451.2,499.8h1.08 M451.2,499.56h1.08
	 M451.74,499.8v16.44 M451.2,518.46v-0.36 M452.28,518.46v-0.36 M450.36,551.4v3.479 M446.94,551.4v3.479 M449.64,554.1v-1.979
	 M447.66,554.1v-1.979 M450.48,553.74v-1.26 M452.46,553.74v-1.26 M452.46,482.46v-1.26 M452.28,483.06v-0.239h0.18 M452.28,482.82
	v-0.36h0.18 M452.46,481.2h-0.18v-0.36 M452.46,480.84h-0.18v-0.24 M447.66,481.86h1.979 M449.64,482.82v-1.98 M447.66,482.82v-1.98
	 M450.48,482.46v-1.26 M451.2,483.06v-0.239 M451.2,482.82v-0.36h-0.72 M446.64,479.88h3.721 M450.48,481.2h0.72v-0.36 M451.2,480.6
	v0.24 M450.48,481.86h1.979 M451.2,483.06h1.08 M451.2,482.82h1.08 M451.2,480.84h1.08 M451.2,480.6h1.08 M452.28,463.92v0.24
	 M452.28,464.16h-1.08v-0.24 M451.2,463.92h1.08 M451.74,480.6V464.16 M452.28,446.82h0.18v-1.261 M452.28,447.42v-0.24
	 M452.28,446.82v0.359h0.18 M452.46,445.56h-0.18V445.2 M452.46,445.2h-0.18v-0.24 M451.2,446.82h-0.72v-1.261 M451.2,446.82v0.6
	 M450.48,445.56h0.72V445.2 M451.2,444.96v0.24 M451.2,447.18h1.08 M451.2,447.42h1.08 M450.48,446.22h1.979 M451.2,445.2h1.08
	 M451.2,444.96h1.08 M452.28,428.52v-0.239 M452.28,428.52h-1.08v-0.239 M451.2,428.28h1.08 M451.74,444.96v-16.44 M452.28,480.6
	v-33.18 M451.2,480.6v-33.18 M452.46,480.84v-33.66 M451.74,463.92v-16.5 M452.46,411.18v-1.26 M452.28,409.56v0.36 M452.28,409.32
	v0.239h0.18 M452.28,409.92h0.18 M452.28,411.18h0.18 M452.28,411.78v-0.24 M452.28,411.18v0.36h0.18 M450.36,408.84h-3.42v3.42
	h3.42V408.84z M447.66,410.58h1.979 M449.64,411.54v-1.98 M447.66,411.54v-1.98 M450.48,411.18v-1.26 M451.2,409.32v0.6
	 M450.48,409.92h0.72 M450.48,411.18h0.72 M451.2,411.18v0.601 M450.48,410.58h1.979 M451.2,409.32h1.08 M451.2,409.56h1.08
	 M451.2,411.54h1.08 M451.2,411.78h1.08 M452.28,392.64v0.24 M452.28,392.88h-1.08v-0.24 M451.2,392.64h1.08 M451.74,392.88v16.44
	 M452.46,375.54v-1.26 M452.28,373.92v0.36 M452.28,373.68v0.24h0.18 M452.28,374.28h0.18 M452.28,376.14v-0.24h0.18 M452.28,375.9
	v-0.36h0.18 M450.48,375.54v-1.26 M451.2,373.68v0.6 M450.48,374.28h0.72 M451.2,376.14v-0.24 M451.2,375.9v-0.36h-0.72
	 M450.48,374.94h1.979 M451.2,373.68h1.08 M451.2,373.92h1.08 M451.2,376.14h1.08 M451.2,375.9h1.08 M452.28,357.24V357
	 M452.28,357.24h-1.08V357 M451.2,357h1.08 M451.74,357.24v16.44 M452.46,375.9v33.66 M451.2,376.14v33.18 M452.28,376.14v33.18
	 M451.74,376.14v16.5 M452.28,444.96v-33.18 M451.2,444.96v-33.18 M452.46,445.2v-33.66 M451.74,428.28v-16.5 M450.36,479.88v3.96
	 M452.46,482.82v33.66 M451.74,483.06v16.5 M451.2,482.82v33.42 M452.28,482.82v33.42 M446.64,479.88v3.96 M452.46,589.74v33.66
	 M414.6,661.92v-48.66 M415.86,661.92v-48.66 M452.28,619.32v3.84 M451.74,619.32v3.84 M451.2,619.32v3.84 M379.08,693.96h-3.42
	v3.48h3.42V693.96z M376.38,695.7h1.98 M378.36,696.66v-1.98 M376.38,696.66v-1.98 M376.74,697.56H378 M376.74,699.54H378
	 M377.4,697.56v1.98 M378,699.3v0.24 M378,699.3h0.36v0.24 M376.38,698.28v1.02 M376.14,698.28v1.02 M376.74,697.56v0.721h-0.36
	 M376.14,698.28h0.24 M376.74,699.54v-0.24h-0.36 M376.38,699.54v-0.24h-0.24 M378.36,697.56v0.181H378 M378,697.74v-0.181
	 M359.7,698.28v1.02 M359.7,698.28h-0.3v1.02 M359.4,699.3h0.3 M376.14,698.76H359.7 M341.1,697.56h1.261 M341.1,699.54h1.261
	 M341.76,697.56v1.98 M342.72,698.28v1.02 M342.96,698.28v1.02 M342.36,697.56v0.721 M342.36,698.28h0.6 M342.36,699.3v0.24
	 M342.96,699.3h-0.24 M342.36,699.3h0.359v0.24 M340.74,698.28v1.02 M340.5,698.28v1.02 M341.1,697.56v0.721h-0.359 M340.5,698.28
	h0.24 M341.1,699.54v-0.24h-0.359 M340.74,699.54v-0.24h-0.24 M341.1,697.56h-0.119 M342.36,697.56h0.12 M324.06,698.28v1.02
	 M324.06,698.28h-0.239v1.02 M323.82,699.3h0.239 M340.5,698.76h-16.44 M307.8,693.96v3.48 M307.08,696.66v-1.98 M307.08,698.28
	v1.02 M307.08,698.28h0.24v1.02 M307.08,699.54v-0.24h0.24 M304.38,693.96v3.48 M305.1,696.66v-1.98 M305.46,697.56h1.26
	 M305.46,699.54h1.26 M306.12,697.56v1.98 M306.72,697.56v0.721 M306.72,699.3v0.24 M305.46,699.54v-0.24h-0.36 M305.1,699.3v0.24
	 M306.72,693.96v-0.479h-1.26 M306.72,693.96h-1.26v-0.479 M306.72,693.48V693 M305.1,697.74v-0.181 M305.1,697.74h0.36v-0.181
	 M304.38,697.44h3.42 M304.38,693.96h3.42 M305.1,695.7h1.98 M307.08,698.28h-0.36 M307.08,699.3h-0.36 M306.72,693.48h9.66
	 M306.72,693h9.66 M323.82,698.76h-16.5 M340.5,699.3h-33.18 M340.5,698.28h-33.18 M340.74,699.54h-33.66 M359.4,698.76h-16.44
	 M376.14,699.3h-33.18 M376.14,698.28h-33.18 M376.38,699.54h-33.66 M361.74,632.82h-0.54 M352.08,632.82h-0.48 M361.2,631.32h0.54
	 M351.6,631.32h0.9 M361.74,631.32v1.5 M361.2,631.32v1.5 M351.6,631.32v1.5 M352.08,632.82v-1.5 M361.74,631.32h15 M361.74,632.82
	h15 M342.48,683.4h-5.94 M340.98,684.9h-5.94 M306.72,683.82h-1.26 M305.46,683.82v-0.54h1.26 M306.72,683.82v-0.54 M305.46,683.28
	v-22.5 M335.04,632.82h-8.88 M326.64,632.82v-1.5h-0.479 M326.16,631.32v1.5 M316.98,632.82h-0.48 M307.08,625.38V623.4
	 M316.5,632.82v-1.5h0.9"/>
</svg>
