<?xml version="1.0" encoding="utf-8"?>
<!-- Generator: Adobe Illustrator 16.0.0, SVG Export Plug-In . SVG Version: 6.00 Build 0)  -->
<!DOCTYPE svg PUBLIC "-//W3C//DTD SVG 1.1//EN" "http://www.w3.org/Graphics/SVG/1.1/DTD/svg11.dtd">
<svg version="1.1" id="Layer_1" xmlns="http://www.w3.org/2000/svg" xmlns:xlink="http://www.w3.org/1999/xlink" x="0px" y="0px"
	 width="612px" height="792px" viewBox="0 0 612 792" enable-background="new 0 0 612 792" xml:space="preserve">
<path fill="none" stroke="#000000" stroke-width="0.72" stroke-linecap="round" stroke-linejoin="round" stroke-miterlimit="10" d="
	M330.18,212.7v-33.6"/>
<path fill="none" stroke="#000000" stroke-width="0.06" stroke-linecap="round" stroke-linejoin="round" stroke-miterlimit="10" d="
	M72.24,43.5 M577.92,43.5H72.24v725.1h505.68V43.5z"/>
<path fill="none" stroke="#000000" stroke-width="0.72" stroke-linecap="round" stroke-linejoin="round" stroke-miterlimit="10" d="
	M291.9,567.72c0.024,5.387,4.463,9.876,9.9,9.84 M301.38,567.72v9.84 M301.8,567.72v9.84 M282.48,567.72v9.84 M282.06,567.72v9.84
	 M282.06,577.56c5.517-0.029,9.762-4.354,9.84-9.84 M301.8,213.72h-0.42 M339.3,713.34v-40.08 M340.32,713.34v-40.08 M380.58,605.4
	v0.359 M373.68,641.1h-57.84 M380.58,640.98h-3.48 M380.58,639.72h-3.48 M389.94,639.72h8.22 M381.06,640.98v8.399 M381.48,640.98
	v8.399 M381.06,639.72h-0.479 M380.58,640.98h0.479 M381.06,639.72v1.261h0.421 M380.58,640.98v-1.261 M389.94,639.72h-0.48
	 M389.94,639.72v1.261h-0.48 M381.06,649.38c5.315-0.202,8.814-4.352,8.4-9.66 M398.16,627.36v12.359 M399.42,627.36v12.359
	 M399.42,618.48h8.4 M399.42,618.9h8.4 M398.16,618.48V618 M399.42,618v0.48 M398.16,618.48h1.26v0.42 M399.42,618h-1.26
	 M398.16,627.36v-0.48 M398.16,627.36h1.26v-0.48 M399.42,626.88h-1.26 M399.42,626.88c4.66-0.076,8.393-3.687,8.4-8.399
	 M376.38,604.2h4.2 M389.94,605.4h8.22 M389.94,640.98h54.54 M399.42,639.72h45.061 M389.94,604.2h58.38 M399.42,605.4h48.9
	 M398.16,605.4V618 M399.42,605.4V618 M331.44,179.1h-1.261 M359.7,179.1v1.98 M351.78,181.08v29.64 M351.78,210.72h20.279V179.1
	 M359.7,181.08h-7.92 M392.52,177.48h-0.6 M308.94,183.24L308.88,183l-0.18-0.18l-0.24-0.06 M306.72,182.76l-0.239,0.06L306.3,183
	l-0.06,0.24 M309.72,181.98h-4.44 M308.46,182.76h-1.74 M308.46,186.18l0.24-0.06l0.18-0.18l0.061-0.24 M306.24,185.7l0.06,0.24
	l0.181,0.18l0.239,0.06 M309.72,186.96h-4.44 M308.46,186.18h-1.74 M309.72,181.98v4.98 M308.94,183.24v2.46 M305.28,181.98v4.98
	 M306.24,183.24v2.46 M448.2,709.74h-3.42v3.42h3.42V709.74z M445.5,711.48h1.98 M447.48,712.44v-1.98 M445.5,712.44v-1.98
	 M448.32,713.34v-2.52 M450.3,715.26v-4.439 M448.32,711.48h1.979 M445.86,713.34h2.46 M445.86,715.26h4.439 M446.46,713.34v1.92
	 M450.12,710.46v0.36 M449.04,710.46v0.36 M450.12,710.46h0.18 M449.04,710.22h1.08 M449.04,710.22v0.24h1.08 M450.12,710.22v0.24
	 M450.12,710.82h0.18 M448.32,710.82h0.72 M445.5,715.08v0.18 M445.5,715.08h0.36v0.18 M450.12,706.14v0.24 M450.12,706.38h-1.08
	v-0.24 M449.04,706.14h1.08 M449.58,706.38v3.84 M449.04,706.38v3.84 M450.12,706.38v3.84 M449.04,693.78h1.08 M449.04,693.78v-0.24
	h1.08"/>
<path fill="none" stroke="#000000" stroke-width="0.72" stroke-linecap="round" stroke-linejoin="round" stroke-miterlimit="10" d="
	M450.12,693.78v-0.24 M448.32,676.5v-1.2 M450.3,676.5v-1.2 M448.32,675.9h1.979 M450.12,674.94v0.359 M449.04,674.94v0.359
	 M450.12,674.94h0.18 M449.04,674.7h1.08 M449.04,674.7v0.24h1.08 M450.12,674.7v0.24 M450.12,675.3h0.18 M448.32,675.3h0.72
	 M449.58,677.16v3.78 M449.04,677.16v3.78 M450.12,677.16v3.78 M450.12,676.92h0.18 M449.04,677.16h1.08 M449.04,677.16v-0.24h1.08
	 M450.12,677.16v-0.24 M448.32,676.5h0.72 M450.12,676.5h0.18 M449.04,676.92v-0.42 M450.12,676.92v-0.42 M449.04,681.24h1.08
	 M449.04,681.24v-0.3h1.08 M450.12,681.24v-0.3 M449.58,681.24v12.3 M450.3,676.92v33.54 M449.58,693.78v12.359 M450.12,681.24
	v24.899 M449.04,681.24v24.899 M410.34,713.34h1.2 M410.34,715.26h1.2 M410.94,713.34v1.92 M411.9,715.08h-0.36 M411.9,714h-0.36
	 M411.9,715.08v0.18 M411.54,715.08v0.18 M411.54,713.34V714 M410.34,713.34V714 M410.34,715.08v0.18 M409.92,715.08v0.18
	 M409.92,714h0.42 M409.92,715.08h0.42 M409.92,713.34V714 M411.9,713.34V714 M377.1,709.74v3.42 M376.38,712.44v-1.98
	 M375.36,713.34v1.92 M376.02,715.08v0.18 M376.02,715.08h0.36v0.18 M409.92,715.26h-33.54 M409.92,713.34h-33.9 M445.5,715.26
	h-33.6 M445.86,713.34H411.9 M450.12,670.62v0.24 M450.12,670.86h-1.08v-0.24 M449.04,670.62h1.08 M449.04,658.26h1.08
	 M449.04,658.26v-0.24h1.08 M450.12,658.26v-0.24 M449.58,658.26v12.36 M445.5,640.32h1.98 M447.48,641.34v-1.979 M445.5,641.34
	v-1.979 M450.3,640.98v-1.261 M448.44,640.32h1.859 M450.12,639.36v0.359 M449.04,639.36v0.359 M450.12,639.36h0.18 M449.04,639.12
	h1.08 M449.04,639.12v0.24h1.08 M450.12,639.12v0.24 M450.12,639.72h0.18 M448.44,639.72h0.6 M449.58,641.58v3.84 M449.04,641.58
	v3.84 M450.12,641.58v3.84 M450.12,641.34h0.18 M449.04,641.58h1.08 M449.04,641.58v-0.24h1.08 M450.12,641.58v-0.24 M448.44,640.98
	h0.6 M450.12,640.98h0.18 M449.04,641.34v-0.359 M450.12,641.34v-0.359 M444.48,642.3h3.96 M448.56,640.98v-1.261 M449.04,645.66
	h1.08 M449.04,645.66v-0.24h1.08 M450.12,645.66v-0.24 M444.48,638.4h3.96 M449.04,635.04h1.08 M449.04,635.04v0.24h1.08
	 M450.12,635.04v0.24 M444.48,638.4v3.899 M448.44,638.4v3.899 M450.12,635.28v3.84 M449.58,635.28v3.84 M449.04,635.28v3.84
	 M450.12,645.66v24.96 M449.58,645.66v12.359 M449.04,645.66v24.96 M449.04,622.68h1.08 M449.04,622.68v-0.239h1.08 M450.12,622.68
	v-0.239 M449.58,606v3.84 M449.04,606v3.84 M450.12,606v3.84 M450.12,605.76h0.18 M449.04,606h1.08 M449.04,606v-0.24h1.08
	 M450.12,606v-0.24 M448.32,605.4h0.72 M450.12,605.4h0.18 M449.04,605.76V605.4 M450.12,605.76V605.4 M449.04,609.84h1.08
	 M449.04,609.84v0.24h1.08 M450.12,610.08v-0.24 M449.58,610.08v12.36 M448.32,604.8h1.979 M450.12,603.78v0.42 M449.04,603.78v0.42
	 M450.12,603.78h0.18 M449.04,603.54h1.08 M449.04,603.54v0.24h1.08 M450.12,603.54v0.24 M450.12,604.2h0.18 M448.32,604.2h0.72
	 M449.04,599.46h1.08 M449.04,599.46v0.3h1.08 M450.12,603.54v-4.08 M449.58,599.76v3.78 M449.04,599.76v3.78 M449.04,587.16h1.08
	 M449.04,587.16v-0.24h1.08 M450.12,587.16v-0.24 M449.58,587.16v12.3 M448.32,605.4v-1.2 M450.3,605.4v-1.2 M450.3,605.76v33.601
	 M449.58,622.68v12.36 M449.04,610.08v24.96 M450.12,610.08v24.96 M376.38,641.34v-1.979 M377.1,638.64v3.42 M381.06,604.2v-8.4
	 M381.48,604.2v-8.4 M381.06,605.4h-0.479 M380.58,604.2h0.479 M381.06,605.4v-1.2h0.421 M380.58,604.2v1.2 M389.94,605.4h-0.48
	 M389.94,605.4v-1.2h-0.48 M389.46,604.2v1.2 M389.46,604.2c0.059-4.593-3.825-8.464-8.4-8.4 M450.3,641.34v33.601 M376.38,709.74
	V642.06 M450.12,670.86v3.84 M449.58,670.86v3.84 M449.04,670.86v3.84 M449.04,574.32h1.08 M449.04,574.32v0.239h1.08
	 M450.12,574.56v-0.239 M448.2,567.48h-3.42v3.479h3.42V567.48z M445.5,569.22h1.98 M447.48,570.24v-1.98 M445.5,570.24v-1.98
	 M448.32,569.88v-1.26 M450.3,569.88v-1.26 M448.32,569.22h1.979 M450.12,568.26v0.36 M449.04,568.26v0.36 M450.12,568.26h0.18
	 M449.04,568.02h1.08 M449.04,568.02v0.24h1.08 M450.12,568.02v0.24 M450.12,568.62h0.18 M448.32,568.62h0.72 M450.12,570.24h0.18
	 M449.04,570.48h1.08 M449.04,570.48v-0.24h1.08 M450.12,570.48v-0.24 M448.32,569.88h0.72 M450.12,569.88h0.18 M449.04,570.24
	v-0.36 M450.12,570.24v-0.36 M449.04,563.94h1.08 M449.04,563.94v0.239h1.08 M450.12,568.02v-4.079 M449.58,564.18v3.84
	 M449.04,564.18v3.84 M449.58,570.48v3.84 M449.04,570.48v3.84 M450.12,570.48v3.84 M449.04,551.58h1.08 M449.04,551.58v-0.24h1.08
	 M450.12,551.58v-0.24 M449.04,538.74h1.08 M449.04,538.74v0.24h1.08 M450.12,538.98v-0.24 M449.58,538.98v12.359 M449.58,551.58
	v12.36 M450.12,538.98v24.96 M449.04,538.98v24.96 M448.32,534.3v-1.26 M450.3,534.3v-1.26 M448.32,533.7h1.979 M450.12,532.68v0.36
	 M449.04,532.68v0.36 M450.12,532.68h0.18 M449.04,532.44h1.08 M449.04,532.44v0.239h1.08 M450.12,532.44v0.239 M450.12,533.04h0.18
	 M448.32,533.04h0.72 M450.12,534.66h0.18 M449.04,534.9h1.08 M449.04,534.9v-0.24h1.08 M450.12,534.9v-0.24 M448.32,534.3h0.72
	 M450.12,534.3h0.18 M449.04,534.66v-0.36 M450.12,534.66v-0.36 M449.04,528.36h1.08 M449.04,528.36v0.239h1.08 M450.12,528.36
	v0.239 M449.04,528.6v3.841 M449.58,528.6v3.841 M450.12,528.6v3.841 M449.04,516h1.08 M449.04,516v-0.24h1.08 M450.12,516v-0.24
	 M448.2,496.14v3.96 M445.5,498.12h1.98 M447.48,499.14v-1.979 M445.5,499.14v-1.979 M448.32,498.72v-1.2 M450.3,498.72v-1.2
	 M448.32,498.12h1.979 M449.58,499.38v3.78 M450.12,499.14h0.18 M449.04,499.38h1.08 M449.04,499.38v-0.24h1.08 M450.12,499.38
	v-0.24 M448.32,498.72h0.72 M450.12,498.72h0.18 M449.04,499.14v-0.42 M450.12,499.14v-0.42 M449.04,499.14v4.021 M450.12,499.14
	v4.021 M448.2,496.14h-3.72v3.96 M444.48,500.1h3.72 M450.12,497.16v0.359 M449.04,497.16v0.359 M450.12,497.52h0.18 M448.32,497.52
	h0.72 M450.12,496.92v0.24 M450.12,497.16h-1.08v-0.24 M449.04,496.92h1.08 M450.12,497.16h0.18 M449.04,503.16h1.08 M449.04,503.16
	v0.3h1.08 M450.12,503.46v-0.3 M449.58,503.46v12.3 M450.3,499.14v33.54 M449.58,516v12.36 M450.12,503.46v24.9 M449.04,503.46v24.9
	 M450.3,534.66v33.6 M449.58,534.9v3.84 M449.04,534.9v3.84 M450.12,534.9v3.84 M377.1,567.48v3.479 M376.38,570.24v-1.98
	 M377.1,496.38v3.48 M376.38,499.14v-1.979 M377.1,498.84h2.7 M377.1,497.4h1.261 M444.78,570.24H377.1 M444.78,568.26H377.1
	 M449.04,492.84h1.08 M449.04,492.84v0.24h1.08 M450.12,492.84v0.24 M450.12,480.24v0.24 M450.12,480.48h-1.08v-0.24 M449.04,480.24
	h1.08 M449.58,492.84V480.48 M450.12,461.58v0.36 M449.04,461.58v0.36 M450.12,461.94h0.18 M448.32,461.94h0.72 M450.12,461.34v0.24
	 M450.12,461.58h-1.08v-0.24 M449.04,461.34h1.08 M450.12,461.58h0.18 M448.32,463.2h0.72 M450.12,463.2h0.18 M450.12,463.8v-0.24
	 M450.12,463.56h-1.08v0.24 M449.04,463.8h1.08 M450.12,463.56h0.18 M449.04,463.56V463.2 M450.12,463.56V463.2 M448.32,462.6h1.979
	 M450.3,461.94v1.26 M448.32,461.94v1.26 M449.04,467.64h1.08 M449.04,467.64v0.24h1.08 M450.12,463.8v4.08 M449.58,467.64v-3.84
	 M449.04,467.64v-3.84 M449.04,457.26h1.08 M449.04,457.26v0.24h1.08 M450.12,457.26v0.24 M449.58,461.34v-3.84 M450.12,461.34
	v-3.84 M449.04,461.34v-3.84 M449.58,480.24v-12.36 M450.12,492.84v-24.96 M449.04,492.84v-24.96 M450.12,444.66v0.24 M450.12,444.9
	h-1.08v-0.24 M449.04,444.66h1.08 M444.78,428.76h3.42 M450.12,427.98h0.18 M450.12,427.98v-0.36h0.18 M448.32,427.62h0.72
	 M450.12,427.62h0.18 M450.12,428.22v-0.239 M450.12,427.98h-1.08v0.239 M449.04,428.22h1.08 M450.12,427.98h0.18 M449.04,427.98
	v-0.36 M450.12,427.98v-0.36 M449.04,432.06h1.08 M449.04,432.06v0.24h1.08 M450.12,428.22v4.08 M449.58,432.06v-3.84
	 M449.04,432.06v-3.84 M449.58,444.66V432.3 M444.78,425.28h3.42 M445.5,427.02h1.98 M448.32,427.02h1.979H448.32z M447.24,425.28
	v-16.92h0.96 M448.2,425.28v3.479 M444.78,425.28v3.479 M447.48,427.98V426 M445.5,427.98V426 M448.32,427.62v-1.2 M450.3,427.62
	v-1.2 M450.3,461.58v-33.6 M449.04,457.26V432.3 M450.12,457.26V432.3 M449.58,457.26V444.9 M379.8,481.8h9.54 M379.8,481.38h9.54
	 M379.8,482.34v-0.54 M379.8,482.34h-1.439v-0.54 M378.36,481.8h1.439v-0.42 M379.8,463.26h9.54 M379.8,463.26v-0.96h-1.439v0.54
	h10.979 M389.34,481.8c-0.127-5.265-4.2-9.446-9.54-9.479c5.291-0.023,9.472-4.226,9.54-9.48 M377.1,425.28v3.479 M376.38,427.98
	V426 M450.12,497.16v-4.08 M449.04,497.16v-4.08 M450.3,497.16V463.56 M449.58,496.92v-3.84 M379.8,482.34v16.5 M378.36,482.34
	V497.4 M450.3,570.24v33.54 M376.38,570.96v33.24 M450.12,574.56v24.9 M449.58,574.56v12.36 M449.04,574.56v24.9 M373.62,709.74
	v3.42 M374.4,712.44v-1.98 M374.16,715.08h-3.84 M374.16,714h-3.84 M374.16,714.54h-3.84 M374.4,714v1.08 M374.16,714v1.08
	 M374.76,713.34V714H374.4 M374.16,714h0.24 M374.76,715.26v-0.18H374.4 M374.4,715.26v-0.18h-0.24 M370.08,715.08h0.24
	 M370.08,715.08V714h0.24 M370.32,714v1.08 M357.48,714.54h-12.36 M357.72,714v1.08 M357.72,714h-0.239v1.08 M357.48,715.08h0.239
	 M345.12,715.08h-0.24 M345.12,715.08V714h-0.24 M344.88,714v1.08 M368.76,714.54H352.32 M370.08,714.54h-12.36 M370.08,714h-24.96
	 M370.08,715.08h-24.96 M353.88,673.26H353.4 M353.4,673.26v-1.439h0.479 M353.88,673.26v-1.439 M344.7,673.26h-0.96 M343.74,673.26
	v-1.439h0.54 M344.28,682.44v-10.62 M344.7,673.26v9.12 M344.28,682.44c5.063-0.056,9.106-4.129,9.12-9.181 M374.4,673.26H353.88
	 M374.4,671.82H353.88 M374.4,709.74v-36.48 M339.3,713.34h1.021 M339.18,715.26h1.261 M339.84,713.34v1.92 M340.8,714v1.08
	 M341.04,714v1.08 M340.2,713.34V714 M340.2,714h0.84 M340.44,715.08v0.18 M341.04,715.08h-0.24 M340.44,715.08h0.359v0.18
	 M338.58,715.08h-3.84 M338.58,714h-3.84 M338.58,714.54h-3.84 M338.82,714v1.08 M338.58,714v1.08 M339.42,713.34V714h-0.6
	 M338.58,714h0.24 M339.18,715.26v-0.18h-0.359 M338.82,715.26v-0.18h-0.24 M334.74,714v1.08 M334.74,714h-0.24v1.08 M334.5,715.08
	h0.24 M321.9,714.54H309.6 M322.14,714v1.08 M322.14,714H321.9v1.08 M321.9,715.08h0.239 M309.6,715.08h-0.3 M309.6,715.08V714h-0.3
	 M309.3,714v1.08 M334.5,714h-24.9 M334.5,714.54h-12.36 M334.5,715.08h-24.9 M339.3,673.26h-3.42 M335.4,673.26v-1.439
	 M335.4,671.82h0.479v1.439 M334.92,673.26h0.96 M325.74,673.26h0.479 M326.22,673.26v-1.439h-0.479 M325.74,673.26v-1.439
	 M335.4,673.26v9.181 M334.92,673.26v9.12 M326.22,673.26c0.141,5.185,3.968,9.066,9.181,9.181 M374.4,715.26H340.8 M343.74,673.26
	h-3.42 M343.74,671.82h-7.86 M344.88,714.54h-3.84 M344.88,714h-3.84 M344.88,715.08h-3.84 M306,709.74h-3.48v3.42H306V709.74z
	 M303.3,711.48h1.98 M305.28,712.44v-1.98 M303.3,712.44v-1.98 M303.66,713.34h1.2 M303.66,715.26h1.2 M304.26,713.34v1.92
	 M305.28,714v1.08 M305.52,714v1.08 M304.86,713.34V714 M304.86,714h0.66 M304.86,715.08v0.18 M305.52,715.08h-0.24 M304.86,715.08
	h0.42v0.18 M303.66,713.34V714h-0.36 M303.66,715.26v-0.18h-0.36 M303.3,715.08v0.18 M303.3,713.34V714 M301.8,676.5h1.98
	 M301.8,675.3h1.98 M292.14,676.5h0.54 M292.68,676.5v-1.2h-0.54 M292.14,676.5v-1.2 M301.8,676.5h-0.96 M301.8,676.5v-1.2h-0.48
	 M301.32,685.14v-9.84 M300.84,676.5v8.64 M292.68,676.5c-0.149,4.677,3.963,8.789,8.64,8.64 M303.78,709.74V676.5 M305.76,709.74
	v-36.48 M268.08,713.34h1.26 M268.08,715.26h1.26 M268.74,713.34v1.92 M269.7,714h-0.36v-0.66 M269.34,715.08v0.18 M269.34,715.08
	h0.36v0.18 M267.72,713.34V714h0.36 M268.08,715.26v-0.18h-0.36 M267.72,715.08v0.18 M268.08,713.34V714 M303.3,715.26h-33.6
	 M303.3,713.34h-33.6 M338.82,715.26H305.28 M325.74,671.82h-19.98 M325.74,673.26h-19.98 M309.3,714.54h-3.78 M309.3,714h-3.78
	 M309.3,715.08h-3.78 M374.4,641.34v-1.979 M373.68,638.64v3.42 M316.38,639.6v-0.479h0.96 M317.34,639.12v0.479 M315.84,639.6v1.5
	 M315.36,639.6v1.5 M315.36,641.1h0.479v-1.5 M314.94,639.6h0.899 M316.38,628.02h0.96 M316.38,628.02v-0.539h0.96 M317.34,627.48
	v0.539 M316.38,639.12V628.02 M317.34,639.12V628.02 M316.86,639.12V628.02 M315.36,639.6v-8.64 M314.94,639.6v-8.64 M373.68,639.6
	h-57.84 M316.38,617.16h0.96 M317.34,617.16v0.479h-0.96 M316.38,617.64v-0.479 M317.34,605.76v0.54h-0.96 M316.38,606.3v-0.54
	 M315.84,605.76h-0.479 M317.34,617.16V606.3 M316.38,617.16V606.3 M316.86,617.16V606.3 M315.84,599.1h1.98v4.681 M315.84,604.32
	h-0.479 M317.82,599.1v-0.479 M317.82,598.62h-1.44v0.479 M317.82,599.1h-1.44 M315.84,588h-0.479v-1.98 M315.36,586.02h0.479
	 M315.84,588v0.48h1.98 M315.36,586.5v1.5 M315.36,588h-0.48v-1.5 M315.36,586.5h-0.48 M317.82,588.48v0.96 M317.82,588.48h-1.44
	v0.539 M327.48,589.02H316.38 M317.82,589.44h9.66 M317.82,598.62c5.38-0.002,9.581-4.293,9.66-9.601 M315.84,605.76v-6.66
	 M315.36,604.32v1.439 M315.84,604.32v1.439 M317.82,603.78h56.58 M316.38,627.48v-0.421 M303.3,641.34v-1.979 M305.28,641.34
	v-1.979 M303.3,640.32h1.98 M302.28,642.3h3.96 M306.24,639.6h0.479 M306.72,639.6v1.5h-0.479 M306.24,639.6v1.5 M301.8,641.1v-1.5
	h-0.42 M301.8,639.6h0.48v1.5 M302.28,641.1h-0.48 M302.28,642.3V638.4h3.96 M306.24,638.4v3.899 M301.8,639.6v-9.84 M301.38,639.6
	v-9.84 M281.58,639.36v1.979 M282.48,639.6h-0.9"/>
<path fill="none" stroke="#000000" stroke-width="0.72" stroke-linecap="round" stroke-linejoin="round" stroke-miterlimit="10" d="
	M282.06,639.6v1.5h-0.48 M281.58,641.1v-1.5 M282.48,639.6v-9.84 M301.8,629.76c-5.287-0.165-10.027,4.56-9.9,9.84
	c0.011-5.441-4.379-9.877-9.84-9.84v9.84 M306.72,605.76h-3.42 M305.28,603.78h0.96 M306.72,604.32v-8.641 M306.24,604.32h0.899
	v-8.641 M305.28,588h0.48 M305.76,588v-1.98h-0.48 M306.24,586.5v1.5 M306.24,588h-0.48v-1.5 M306.66,586.5h-0.9 M305.28,588v15.78
	 M306.24,604.32v1.439v-1.979 M306.72,604.32v1.439 M316.38,627.06h-10.14 M316.38,617.64c-5.492,0.001-9.973,4.331-10.14,9.841
	h10.14 M315.36,630.96c-4.808,0.091-8.569,3.797-8.641,8.64 M315.36,604.32c0.066-4.741-3.896-8.752-8.641-8.641 M374.4,671.82
	V642.06 M305.76,671.82V642.3 M303.78,675.3v-33 M234.9,709.74h-3.48v3.42h3.48V709.74z M232.2,711.48h1.92 M234.12,712.44v-1.98
	 M232.2,712.44v-1.98 M231.3,710.82v1.26 M229.32,710.82v4.439 M231.3,711.48h-1.98 M233.16,713.34v1.92 M229.32,715.26h4.44
	 M232.56,713.34h1.2 M230.58,710.22h-1.02 M230.58,710.22v0.24h-1.02 M229.56,710.82v-0.601 M230.58,710.46v0.36 M229.56,710.82
	h-0.24 M231.3,710.82h-0.72 M229.56,710.46h-0.24 M233.76,715.08v0.18 M233.76,715.08h0.36v0.18 M230.58,706.14h-1.02
	 M230.58,706.14v0.24h-1.02 M229.56,706.14v0.24 M230.58,706.38v3.84 M230.1,706.38v3.84 M229.56,706.38v3.84 M230.58,693.78h-1.02
	 M230.58,693.78v-0.24h-1.02 M229.56,693.78v-0.24 M231.3,675.3v1.2 M229.32,675.3v1.2 M231.3,675.9h-1.98 M230.58,674.7h-1.02
	 M230.58,674.7v0.24h-1.02 M229.56,675.3v-0.6 M230.58,674.94v0.359 M229.56,675.3h-0.24 M230.1,677.16v3.78 M230.58,677.16v3.78
	 M230.58,677.16h-1.02v3.78 M230.58,677.16v-0.24h-1.02 M229.56,677.16v-0.24 M229.56,676.5h-0.24 M230.58,676.92v-0.42
	 M229.56,676.92v-0.42 M229.56,674.94h-0.24 M229.56,676.92h-0.24 M229.56,681.24v-0.3 M229.56,680.94h1.02v0.3 M230.58,681.24
	h-1.02 M230.1,681.24v12.3 M230.1,693.78v12.359 M229.32,676.92v33.54 M229.56,681.24v24.899 M230.58,681.24v24.899 M230.58,670.62
	h-1.02 M230.58,670.62v0.24h-1.02 M229.56,670.62v0.24 M230.58,658.26h-1.02 M230.58,658.26v-0.24h-1.02 M229.56,658.26v-0.24
	 M230.1,658.26v12.36 M234.9,638.64h-3.48v3.42h3.48V638.64z M232.2,640.32h1.92 M234.12,641.34v-1.979 M232.2,641.34v-1.979
	 M231.3,639.72v1.261 M229.32,639.72v1.261 M231.3,640.32h-1.98 M230.58,639.12h-1.02 M230.58,639.12v0.24h-1.02 M229.56,639.72
	v-0.6 M230.58,639.36v0.359 M229.56,639.72h-0.24 M231.3,639.72h-0.72 M230.1,641.58v3.84 M230.58,641.58v3.84 M230.58,641.58h-1.02
	v3.84 M230.58,641.58v-0.24h-1.02 M229.56,641.58v-0.24 M231.3,640.98h-0.72 M229.56,640.98h-0.24 M230.58,641.34v-0.359
	 M229.56,641.34v-0.359 M229.56,639.36h-0.24 M229.56,641.34h-0.24 M229.56,645.66v-0.24 M229.56,645.42h1.02v0.24 M229.56,670.62
	v-24.96h1.02 M230.1,645.66v12.359 M230.58,645.66v24.96 M207.12,639.6h22.44 M229.56,622.44v0.239 M229.56,622.68h1.02v-0.239
	 M230.58,622.44h-1.02 M229.32,613.74v0.96 M229.32,614.16h1.26v0.54 M229.32,614.7h1.26 M230.1,622.44v-7.74 M219.96,614.16h9.36
	 M219.96,613.74h9.36 M229.32,595.86v-0.96 M229.32,595.44h1.26v-0.54 M229.32,594.9h1.26 M229.56,586.92v0.24 M229.56,587.16h1.02
	v-0.24 M230.58,586.92h-1.02 M230.1,594.9v-7.74 M219.96,595.86h9.36 M219.96,595.44h9.36 M219.96,595.44
	c-0.069,5.09,4.284,9.388,9.36,9.359c-5.123,0.017-9.407,4.206-9.36,9.36 M229.32,639.36V614.7 M229.56,639.12V614.7 M230.58,639.12
	V614.7 M230.1,639.12v-16.44 M229.32,641.34v33.601 M229.56,670.86v3.84 M230.1,670.86v3.84 M230.58,670.86v3.84 M267.72,715.26
	h-33.6 M281.58,641.34H234.9 M281.58,639.36H234.9 M267.72,713.34h-33.96 M230.58,676.5h61.56 M230.58,675.3h61.56 M373.68,567.48
	v3.479 M374.4,570.24v-1.98 M317.82,570.24h55.859 M373.68,496.38v3.48 M374.4,499.14v-1.979 M303.3,570.24v-1.98 M305.28,570.24
	v-1.98 M303.3,569.22h1.98 M306.24,571.2h-3.96v-3.96h3.96V571.2z M303.78,566.76v0.48 M303.78,566.76h0.96v0.48 M301.8,569.16
	v-1.44h-0.42 M301.8,567.72h0.48v1.44 M302.28,569.16h-0.48 M281.58,565.92V570 M281.58,569.16v-1.44 M281.58,569.16h0.48v-1.44
	 M281.58,567.72h0.9 M303.78,550.62v-0.54 M303.78,550.08h0.96v0.54 M303.78,566.76v-16.14h0.96 M304.74,566.76v-16.14
	 M304.26,566.76v-16.14 M301.8,557.82c-5.459-0.036-9.91,4.489-9.9,9.899 M301.38,567.72v-9.899 M301.8,567.72v-9.899
	 M282.48,567.72v-9.899 M282.06,567.72v-9.899 M268.08,566.88v1.62 M291.9,567.72c-0.044-5.508-4.3-9.87-9.84-9.899 M303.78,533.94
	h0.96 M304.74,533.94v-0.48h-0.96 M303.78,533.94v-0.48 M303.78,525.78h0.96 M304.74,525.78v-0.48h-0.96 M303.78,525.78v-0.48
	 M295.38,525.3h8.4v-0.42 M303.78,524.88h-8.4 M303.78,533.46v-7.68 M304.26,533.46v-7.68 M304.74,533.46v-7.68 M303.78,508.02h0.96
	 M304.74,508.02v0.48h-0.96 M295.38,508.5h8.4v-0.48 M303.78,508.5v0.42h-8.4 M303.3,499.14v-1.979 M305.28,499.14v-1.979
	 M303.3,498.12h1.98 M306.24,496.14h-3.96v3.96h3.96V496.14z M303.78,500.1v0.48h0.96 M304.74,500.58v-0.48 M291.9,499.38V497.4
	 M291.9,499.38h0.54V497.4 M302.28,497.4H291.9 M292.44,499.38h9.84 M303.78,508.02v-7.439 M304.74,508.02v-7.439 M304.26,508.02
	v-7.439 M291.9,499.38v9.601 M281.82,499.38V497.4v3.06 M281.82,499.38h0.48V497.4 M281.82,497.4h0.48 M291.9,499.38h-0.42v9.601
	 M282.3,499.38c-0.024,5.248,4.33,9.652,9.6,9.601 M295.38,508.5c-0.01,4.575,3.807,8.438,8.4,8.4
	c-4.574-0.039-8.439,3.825-8.4,8.399 M268.86,519.24v0.24 M269.46,518.64v0.601 M252.96,519.24v13.56 M253.2,519.48v13.26
	 M252.36,518.64v14.341 M252.96,519.24h16.5 M253.2,519.48h15.66 M252.36,518.64h17.1 M267.96,498.84v1.62V498.84z M269.46,501.66
	v0.66 M269.34,501.42v-0.96 M268.32,502.32v16.319 M265.68,502.32v16.319 M263.1,502.32v16.319 M260.46,502.32v16.319
	 M257.82,502.32v16.319 M255.24,502.32v16.319 M269.34,500.46h12.48 M269.7,497.4h12.12 M303.78,550.08v-16.14 M304.26,550.08
	v-16.14 M304.74,550.08v-16.14 M306.24,568.26h67.439 M306.24,570.24h9.6 M306.24,497.16h67.439 M306.24,499.14h67.439
	 M373.68,425.28v3.479 M374.4,427.98V426 M269.7,492.72v-0.479 M267.72,493.2h1.98 M267.72,493.2v-0.48h1.98 M269.7,492.72v0.48
	 M267.72,483.06h1.98 M269.7,483.06v-0.479h-1.98 M267.72,482.58v0.479 M279.3,492.72c0.114-5.329-4.369-9.647-9.6-9.66
	 M269.7,492.24h9.6 M269.7,492.72h9.6 M302.52,428.76H306 M303.3,427.02h1.98 M302.52,425.28H306 M303.3,427.98V426 M305.28,427.98
	V426 M302.52,425.28v3.479 M306,425.28v3.479 M267.72,423.3v3 M269.7,422.82v-0.42 M267.72,423.3h1.98 M269.7,422.82v0.479V422.82
	h-1.98 M267.72,422.82v0.479 M269.7,412.68v0.48 M269.7,412.68h-1.98v0.48 M279.3,422.82c-0.047-6.329-5.407-10.324-11.58-9.66
	 M269.7,422.4h9.6 M269.7,422.82h9.6 M267.72,427.74v54.84 M269.7,423.3v59.28 M269.7,493.2v4.2 M267.72,493.2v4.2 M234.9,567.48
	h-3.48v3.479h3.48V567.48z M232.2,569.22h1.92 M234.12,570.24v-1.98 M232.2,570.24v-1.98 M231.3,568.62v1.26 M229.32,568.62v1.26
	 M231.3,569.22h-1.98 M229.32,568.62h0.24v-0.36 M230.58,570.48h-1.02 M230.58,570.48v-0.24h-1.02 M229.56,570.48v-0.24
	 M231.3,569.88h-0.72 M229.56,569.88h-0.24 M230.58,570.24v-0.36 M229.56,570.24v-0.36 M234.78,561.6l4.32,4.32 M234.78,562.56
	l3.36,3.36h-3.36 M234.78,566.88v0.601 M234.78,562.56v3.36 M229.56,568.26h-0.24 M229.56,570.24h-0.24 M207.12,570h22.44
	 M231.3,533.04v1.26 M229.32,533.04v1.26 M231.3,533.7h-1.98 M229.32,533.04h0.24v-0.36 M229.56,534.66v-0.36h-0.24 M235.62,536.94
	h3.84 M231.3,534.66h2.52 M231.3,532.68h2.52 M229.56,532.68h-0.24 M229.56,534.66h-0.24 M234.9,496.38h-3.48v3.48h3.48V496.38z
	 M232.2,498.12h1.92 M234.12,499.14v-1.979 M232.2,499.14v-1.979 M231.3,497.52v1.2 M229.32,497.52v1.2 M231.3,498.12h-1.98
	 M230.58,496.92h-1.02 M230.58,496.92v0.24h-1.02 M229.56,497.52v-0.6 M230.58,497.16v0.359 M229.56,497.52h-0.24 M231.3,497.52
	h-0.72 M229.56,499.14v-0.42h-0.24 M234.78,504.78v-3.36h3.36L234.78,504.78z M234.78,499.86v0.6 M229.56,497.16h-0.24
	 M229.56,499.14h-0.24 M239.1,501.42l-4.32,4.32 M239.1,501.66l-4.08,4.08 M235.62,538.14V505.74l3.48-3.42 M235.02,505.74v32.58
	 M233.82,499.86v32.819 M231.3,498.72v33.96 M229.32,499.14v33.54 M234.78,505.74V561.6 M233.82,534.66v32.82 M231.3,534.66v33.96
	 M229.32,534.66v33.6 M230.58,493.08h-1.02 M230.58,493.08v-0.24h-1.02 M229.56,493.08v-0.24 M229.56,480.24v0.24 M229.56,480.48
	h1.02v-0.24 M230.58,480.24h-1.02 M230.1,492.84V480.48 M229.56,461.58h-0.24 M229.56,463.56h-0.24 M229.56,461.58v0.36
	 M230.58,461.58v0.36 M229.56,461.94h-0.24 M231.3,461.94h-0.72 M229.56,461.34v0.24 M229.56,461.58h1.02v-0.24 M230.58,461.34
	h-1.02 M231.3,463.2h-0.72 M229.56,463.2h-0.24 M230.58,463.56V463.2 M229.56,463.8v-0.6 M229.56,463.56h1.02v0.24 M230.58,463.8
	h-1.02 M231.3,462.6h-1.98 M229.32,463.2v-1.26 M231.3,463.2v-1.26 M229.56,467.64v0.24 M229.56,467.88h1.02v-0.24 M229.56,463.8
	v3.84h1.02 M230.1,467.64v-3.84 M230.58,467.64v-3.84 M230.58,457.5h-1.02 M230.58,457.5v-0.24h-1.02 M229.56,461.34v-4.08
	 M230.58,461.34v-3.84 M230.1,461.34v-3.84 M230.1,480.24v-12.36 M230.58,492.84v-24.96 M229.56,492.84v-24.96 M229.56,444.66v0.24
	 M229.56,444.9h1.02v-0.24 M230.58,444.66h-1.02 M231.42,428.76h3.48 M230.58,428.22h-1.02 M230.58,428.22v-0.239h-1.02
	 M229.56,428.22v-0.239 M231.3,427.62h-0.72 M229.56,427.62h-0.24 M230.58,427.98v-0.36 M229.32,427.98h0.24v-0.36 M230.58,432.06
	h-1.02 M230.58,432.06v0.24h-1.02 M229.56,428.22v4.08 M230.1,432.06v-3.84 M230.58,432.06v-3.84 M230.1,444.66V432.3
	 M231.42,425.28h3.48 M232.2,427.02h1.92 M231.3,427.02h-1.98 M230.58,425.76h-1.02 M230.58,425.76V426h-1.02 M229.56,426.42v-0.66
	 M230.58,426v0.42 M229.56,426.42h-0.24 M231.3,426.42h-0.72 M229.56,426h-0.24 M230.58,421.98h-1.02 M230.58,421.98v-0.301h-1.02
	 M229.56,425.76v-4.08 M230.1,421.98v3.779 M230.58,421.98v3.779 M230.58,409.38h-1.02 M230.58,409.38v-0.24h-1.02 M229.56,409.38
	v-0.24 M230.1,409.38v12.3 M234.9,425.28v3.479 M231.42,425.28v3.479 M234.12,427.98V426 M232.2,427.98V426 M231.3,426.42v1.2
	 M229.32,426.42v1.2 M229.32,461.58v-33.6 M230.58,457.26V432.3 M230.1,457.26V444.9 M229.56,457.26V432.3 M229.32,497.16V463.56
	 M229.56,496.92v-3.84 M230.58,496.92v-3.84 M230.1,496.92v-3.84 M239.1,502.32h30.36 M239.1,501.66h30.36 M239.1,501.42h30.24
	 M234.9,498.84h33.06 M234.78,500.46h33.18 M235.62,521.58h16.74 M235.62,519h16.74 M235.62,534.36h12.18 M235.62,531.84h16.74
	 M235.62,529.26h16.74 M235.62,526.68h16.74 M235.62,524.1h16.74 M239.1,565.92h42.48 M234.9,568.5h33.18 M234.78,566.88h33.3
	 M234.9,570h46.68 M234.9,497.4h32.82 M253.2,532.74l-18.42,5.64 M234.9,427.74h32.82 M234.9,426.3h32.82 M229.32,594.9v-24.66
	 M230.1,586.92V570.48 M229.56,594.9v-24.42 M230.58,594.9v-24.42 M207.12,570v69.6 M374.4,570.96v32.82 M303.3,571.2v34.56
	 M305.28,571.2v14.819 M315.84,586.02V570.24 M317.82,588.48v-18.24 M314.88,586.5c-0.055-4.805-3.853-8.585-8.64-8.64
	 M306.66,586.5v-8.58 M306.24,586.5v-8.64 M373.62,713.16h3.479 M373.62,709.74h3.479 M374.4,711.48h1.979 M374.76,713.34h1.26
	 M374.76,715.26h1.26 M377.1,428.76h-3.42 M377.1,425.28h-3.42 M376.38,427.02H374.4 M377.1,499.86h-3.42 M377.1,496.38h-3.42
	 M376.38,498.12H374.4 M377.1,570.96h-3.42 M377.1,567.48h-3.42 M376.38,569.22H374.4 M376.38,640.32H374.4 M377.1,638.64h-3.42
	 M377.1,642.06h-3.42 M315.84,605.76h64.74 M448.2,391.44h-0.48 M448.2,374.52h-0.96 M448.2,354.18h-3.42v3.48h3.42V354.18z
	 M445.5,355.92h1.98 M447.48,356.88v-1.98 M445.5,356.88v-1.98 M448.32,356.52v-1.26 M450.3,356.52v-1.26 M448.32,355.92h1.979
	 M450.3,354.9h-0.18v0.36 M450.12,355.26h0.18 M450.12,354.66v-3.84 M449.04,354.66v-3.84 M449.58,354.66v-3.84 M449.04,354.66h1.08
	 M449.04,354.66v0.24h1.08 M450.12,354.66v0.24 M449.04,354.9v0.36h-0.72 M449.04,350.58h1.08 M449.04,350.58v0.24h1.08
	 M450.12,350.58v0.24 M450.12,337.98v0.24 M450.12,338.22h-1.08v-0.24 M449.04,337.98h1.08 M450.12,319.38v0.36 M449.04,319.38v0.36
	 M450.12,319.74h0.18 M450.12,319.14v0.24 M450.12,319.38h-1.08v-0.24 M449.04,319.14h1.08 M450.12,319.38h0.18 M450.12,320.94h0.18
	 M450.12,321.6v-0.24 M450.12,321.36h-1.08v0.24 M449.04,321.6h1.08 M450.12,321.36h0.18 M449.04,321.36v-0.42 M450.12,321.36v-0.42
	 M448.32,320.34h1.979 M450.3,319.74v1.2 M448.32,319.74v1.2 M449.04,325.38h1.08 M449.04,325.38v0.3h1.08 M450.12,325.68v-0.3
	 M449.04,325.38v-3.78 M449.58,325.38v-3.78 M450.12,325.38v-3.78 M449.58,337.98v-12.3 M450.3,354.9v-33.54 M449.04,350.58v-24.9
	 M449.58,350.58v-12.36 M450.12,350.58v-24.9 M447.24,374.52v-16.86 M411.18,356.64h0.48v-1.5 M411.66,355.14h-0.48 M411.18,355.14
	v1.5h-0.42 M392.58,356.64h-0.9v-1.5h0.48v1.5 M377.1,354.18v3.48 M376.38,356.88v-1.98 M378.36,355.14H377.1 M378.36,356.64H377.1
	 M391.68,356.64H379.8 M391.68,355.14H379.8 M411.18,356.64v9.48 M410.76,356.64v9.48 M392.16,366.12
	c5.021,0.228,9.708-4.458,9.479-9.48c-0.061,5.049,4.442,9.687,9.54,9.48 M392.58,356.64v9.48 M392.16,356.64v9.48 M444.78,355.14
	h-33.12 M444.78,356.64h-33.12 M449.04,315.06h1.08 M449.04,315.06v0.24h1.08 M450.12,315.06v0.24 M450.12,302.46v0.24
	 M450.12,302.7h-1.08v-0.24 M449.04,302.46h1.08 M449.58,315.06V302.7"/>
<path fill="none" stroke="#000000" stroke-width="0.72" stroke-linecap="round" stroke-linejoin="round" stroke-miterlimit="10" d="
	M448.2,283.08h-3.42v3.42h3.42V283.08z M445.5,284.82h1.98 M447.48,285.78v-1.98 M445.5,285.78v-1.98 M448.32,285.42v-1.26
	 M450.3,285.42v-1.26 M448.32,284.82h1.979 M450.12,283.8v0.36 M449.04,283.8v0.36 M450.12,283.8h0.18 M449.04,283.56h1.08
	 M449.04,283.56v0.24h1.08 M450.12,283.56v0.24 M450.12,284.16h0.18 M448.32,284.16h0.72 M450.12,285.78h0.18 M450.12,285.78v-0.36
	h0.18 M448.32,285.42h0.72 M450.12,286.02v-0.24 M450.12,285.78h-1.08v0.24 M449.04,286.02h1.08 M449.04,285.78v-0.36
	 M449.04,289.86h1.08 M449.04,289.86v0.24h1.08 M450.12,290.1v-0.24 M449.04,289.86v-3.84 M449.58,289.86v-3.84 M450.12,289.86
	v-3.84 M449.04,279.48h1.08 M449.04,279.48v0.24h1.08 M450.12,279.48v0.24 M449.04,279.72v3.84 M449.58,279.72v3.84 M450.12,279.72
	v3.84 M449.58,302.46V290.1 M449.04,315.06V290.1 M450.12,315.06V290.1 M449.04,267.12h1.08 M449.04,267.12v-0.24h1.08
	 M450.12,267.12v-0.24 M449.58,250.44v3.84 M449.04,250.44v3.84 M450.12,250.44v3.84 M450.12,250.2h0.18 M449.04,250.44h1.08
	 M449.04,250.44v-0.24h1.08 M450.12,250.44v-0.24 M448.32,249.84h0.72 M450.12,249.84h0.18 M449.04,250.2v-0.36 M450.12,250.2v-0.36
	 M449.04,254.28h1.08 M449.04,254.28v0.24h1.08 M450.12,254.52v-0.24 M449.58,254.52v12.36 M448.32,249.24h1.979 M450.12,248.22
	v0.42 M449.04,248.22v0.42 M450.12,248.22h0.18 M449.04,247.98h1.08 M449.04,247.98v0.24h1.08 M450.12,247.98v0.24 M450.12,248.64
	h0.18 M448.32,248.64h0.72 M449.04,243.9h1.08 M449.04,243.9v0.3h1.08 M450.12,247.98v-4.08 M449.58,244.2v3.78 M449.04,244.2v3.78
	 M449.04,231.6h1.08 M449.04,231.6v-0.24h1.08 M450.12,231.6v-0.24 M449.58,231.6v12.3 M448.32,249.84v-1.2 M450.3,249.84v-1.2
	 M450.3,250.2v33.6 M449.58,267.12v12.36 M449.04,254.52v24.96 M450.12,254.52v24.96 M377.1,283.08v3.42 M376.38,285.78v-1.98
	 M378.36,285.54H377.1 M379.8,284.04h-2.7 M395.88,238.86v9.78 M395.88,238.86h-1.26v0.48 M394.62,239.34h1.26 M385.38,238.86h9.24
	v-0.42 M394.62,238.44h-9.24 M394.62,229.86c-4.883-0.105-9.238,4.128-9.24,9 M394.62,239.34v10.5 M449.04,248.64h-53.16
	 M449.04,249.84h-54.42 M449.58,319.14v-3.84 M450.12,319.14v-3.84 M449.04,319.14v-3.84 M450.3,319.38v-33.6 M379.8,284.04v71.1
	 M378.36,285.54v69.6 M449.04,218.76h1.08 M449.04,218.76V219h1.08 M450.12,219v-0.24 M448.2,211.98h-3.42v3.42h3.42V211.98z
	 M445.5,213.66h1.98 M447.48,214.68v-1.98 M445.5,214.68v-1.98 M448.32,214.32v-1.26 M450.3,214.32v-1.26 M448.32,213.66h1.979
	 M450.12,212.7v0.36 M449.04,212.7v0.36 M450.12,212.7h0.18 M449.04,212.46h1.08 M449.04,212.46v0.24h1.08 M450.12,212.46v0.24
	 M450.12,213.06h0.18 M448.32,213.06h0.72 M450.12,214.68h0.18 M449.04,214.92h1.08 M449.04,214.92v-0.24h1.08 M450.12,214.92v-0.24
	 M448.32,214.32h0.72 M450.12,214.32h0.18 M449.04,214.68v-0.36 M450.12,214.68v-0.36 M449.04,208.38h1.08 M449.04,208.38v0.24h1.08
	 M450.12,212.46v-4.08 M449.58,208.62v3.84 M449.04,208.62v3.84 M449.58,214.92v3.84 M449.04,214.92v3.84 M450.12,214.92v3.84
	 M449.04,196.02h1.08 M449.04,196.02v-0.24h1.08 M450.12,196.02v-0.24 M449.04,183.18h1.08 M449.04,183.18v0.24h1.08 M450.12,183.42
	v-0.24 M449.58,196.02v12.36 M448.32,178.74v-1.26 M450.3,178.74v-1.26 M448.32,178.14h1.979 M450.12,177.12v0.36 M449.04,177.12
	v0.36 M450.12,177.12h0.18 M449.04,176.88h1.08 M449.04,176.88v0.24h1.08 M450.12,176.88v0.24 M450.12,177.48h0.18 M448.32,177.48
	h0.72 M450.12,179.1h0.18 M449.04,179.34h1.08 M449.04,179.34v-0.24h1.08 M450.12,179.34v-0.24 M448.32,178.74h0.72 M450.12,178.74
	h0.18 M449.04,179.1v-0.36 M450.12,179.1v-0.36 M449.04,172.8h1.08 M449.04,172.8v0.24h1.08 M450.12,172.8v0.24 M449.04,160.44h1.08
	 M449.04,160.44v-0.24h1.08 M450.12,160.44v-0.24 M448.2,140.82h-3.42v3.48h3.42V140.82z M445.5,142.56h1.98 M447.48,143.58v-1.98
	 M445.5,143.58v-1.98 M448.32,143.16v-1.2 M450.3,143.16v-1.2 M448.32,142.56h1.979 M450.12,141.6v0.36 M449.04,141.6v0.36
	 M450.12,141.6h0.18 M449.04,141.36h1.08 M449.04,141.36v0.24h1.08 M450.12,141.36v0.24 M450.12,141.96h0.18 M448.32,141.96h0.72
	 M449.58,143.82v3.78 M449.04,143.82v3.78 M450.12,143.82v3.78 M450.12,143.58h0.18 M449.04,143.82h1.08 M449.04,143.82v-0.24h1.08
	 M450.12,143.82v-0.24 M448.32,143.16h0.72 M450.12,143.16h0.18 M449.04,143.58v-0.42 M450.12,143.58v-0.42 M449.04,147.6h1.08
	 M449.04,147.6v0.3h1.08 M450.12,147.9v-0.3 M449.58,147.9v12.3 M450.3,143.58v33.54 M449.58,160.44v16.44 M449.04,147.9v28.98
	 M450.12,147.9v28.98 M450.3,179.1v33.6 M449.58,179.34v16.44 M449.04,179.34v29.04 M450.12,179.34v29.04 M394.62,220.86h1.26
	 M395.88,220.86v-0.54h-1.26 M394.62,220.32v0.96 M391.92,212.7v1.98h2.7 M395.88,214.68v5.64 M394.62,214.68v5.64 M377.1,211.98
	v3.42 M376.38,214.68v-1.98 M377.1,214.68h4.2 M377.1,212.7h4.2 M381.78,214.68h-0.48 M381.78,214.68v-1.98h-0.48 M381.3,212.7v1.98
	 M381.78,212.7h0.42 M391.92,212.7h-0.479v1.98 M391.92,214.68h-0.479 M394.62,220.86h-9.24 M394.62,221.28h-9.24 M391.44,212.7
	c-0.049-5.333-4.291-9.631-9.66-9.66 M381.78,212.7v-9.66 M382.2,212.7v-9.6 M392.52,177.48V177h1.2 M391.92,177.48v1.26
	 M393.72,177.48h-1.2V177 M393.72,177.12h0.061 M393.72,177v0.48 M393.72,164.58h10.38 M393.72,164.16h10.38 M392.52,165.12h1.2
	 M393.72,164.16v0.42h-1.2 M392.52,165.12v-0.54 M393.72,164.58v0.54 M392.52,165.12v11.94 M393.72,165.12V177 M393.12,165.12V177
	 M381.78,177.18v1.92h-5.4 M391.44,177.48v1.26 M381.3,177.12v1.98h0.9 M381.78,177.18h-0.48 M391.92,177.48h-0.479 M391.92,178.74
	h-0.479 M393.72,154.26h-1.2v-0.54 M393.72,154.26v-0.54h-1.2 M392.52,142.2v0.48h1.2 M392.52,142.2h1.2v0.48 M393.12,142.68v11.04
	 M393.72,142.68v11.04 M392.52,142.68v11.04 M377.1,140.82v3.48 M376.38,143.58v-1.98 M404.1,164.58
	c0.01-5.716-4.664-10.399-10.38-10.32 M376.38,211.98V179.1 M381.78,179.1v9.6 M382.2,179.1v9.6 M381.78,188.7
	c5.477,0.062,9.804-4.545,9.66-9.96 M448.32,177.48H393.72 M448.32,178.74h-56.4 M444.78,212.7h-52.86 M444.78,214.68h-48.9
	 M449.04,137.28h1.08 M449.04,137.28v0.24h1.08 M450.12,137.28v0.24 M449.04,124.92h1.08 M449.04,124.92v-0.24h1.08 M450.12,124.92
	v-0.24 M449.58,124.92v12.36 M448.32,107.64v-1.26 M450.3,107.64v-1.26 M448.32,107.04h1.979 M450.12,106.38h0.18 M449.04,106.02
	v0.36 M450.12,105.78v0.6 M450.12,106.02h-1.08v-0.24 M449.04,105.78h1.08 M450.12,106.02h0.18 M449.58,108.24v3.84 M449.04,108.24
	v3.84 M450.12,108.24v3.84 M450.12,108h0.18 M449.04,108.24h1.08 M449.04,108.24V108h1.08 M450.12,108.24V108 M450.12,107.64h0.18
	 M449.04,108v-0.36 M450.12,108v-0.36 M449.04,106.38h-22.98 M449.04,107.64h-22.98 M425.58,106.38h0.479 M425.58,106.38v1.26h0.479
	 M426.06,107.64v-1.26 M425.58,107.64h-0.42 M449.04,112.08h1.08 M449.04,112.08v0.24h1.08 M450.12,112.32v-0.24 M449.04,101.7h1.08
	 M449.04,101.7v0.24h1.08 M450.12,101.7v0.24 M449.04,101.94v3.84 M449.58,101.94v3.84 M450.12,101.94v3.84 M425.58,107.64v9.6
	 M425.16,107.64v9.6 M450.12,112.32v24.96 M449.58,112.32v12.36 M449.04,112.32v24.96 M450.12,89.34V89.1 M450.12,89.1h-1.08v0.24
	 M449.04,89.34h1.08 M444.78,73.2h3.42 M450.12,72.72v3.78 M449.04,72.72v3.78 M449.58,72.72v3.78 M450.12,72.42v-0.36
	 M449.04,72.42v-0.36 M450.12,72.06h0.18 M448.32,72.06h0.72 M450.12,72.72v-0.3 M450.12,72.42h-1.08v0.3 M449.04,72.72h1.08
	 M450.12,72.42h0.18 M449.04,76.5h1.08 M449.04,76.5v0.24h1.08 M450.12,76.74V76.5 M449.58,76.74V89.1 M444.78,69.72h3.42
	 M445.5,71.46h1.98 M447.12,69.6h-1.26 M450.3,67.62h-4.439 M446.46,69.6v-1.98 M448.32,71.46h1.979 M445.5,67.62v0.24h0.36v-0.24
	 M448.2,69.72v3.48 M444.78,69.72v3.48 M447.48,72.42v-1.98 M445.5,72.42v-1.98 M450.3,72.06v-4.44 M448.32,72.06v-1.2 M450.3,72.42
	v33.6 M449.58,89.34v12.36 M449.04,76.74v24.96 M450.12,76.74v24.96 M415.98,107.64v-1.26 M415.98,107.64h-0.54v-1.26
	 M415.44,106.38h0.54 M392.52,97.14v-0.96 M392.52,96.66h1.2v0.48 M393.72,106.38v-9.24h-1.2 M392.52,96.18h-8.939 M392.52,96.66
	h-8.939 M415.44,106.38H393.72 M415.44,107.64H393.72 M411.54,69.6h-1.2 M411.54,67.62h-1.2 M410.94,69.6v-1.98 M409.92,67.62v0.24
	h0.42v-0.24 M411.54,67.62v0.24h0.36 M411.9,67.86v-0.24 M392.52,78.24h1.2 M393.72,78.24v0.479h-1.2 M392.52,79.2v-0.96
	 M392.52,78.72h-8.939c-0.116,4.933,4.058,8.97,8.939,9 M392.52,79.2h-8.939 M393.72,69.6h0.12 M375.36,69.6v-1.98 M376.02,67.62
	v0.24h0.36 M376.38,67.86v-0.24 M376.02,69.6h16.5 M377.1,69.72v3.48 M376.38,72.42v-1.98 M392.52,69.6v8.64 M393.72,69.6v8.64
	 M376.38,67.62h33.54 M393.72,69.6h16.561 M392.52,87.72c-4.853-0.139-9.078,4.087-8.939,8.94 M411.9,67.62h33.6 M411.54,69.6h34.32
	 M415.98,107.64c-0.087,5.289,4.344,9.624,9.6,9.6 M450.3,108v33.6 M449.58,137.52v3.84 M450.12,137.52v3.84 M449.04,137.52v3.84
	 M393.72,107.64v34.56 M392.52,97.14v45.06 M450.3,214.68v33.54 M385.38,220.86c0.012,4.812,4.377,9.114,9.24,9 M449.04,219v24.9
	 M449.58,219v12.36 M450.12,219v24.9 M373.68,354.18v3.48 M374.4,356.88v-1.98 M373.68,355.14h-9.42v1.5 M373.68,356.64h-9.42
	 M269.7,368.52v-0.48 M267.72,369h1.98 M267.72,369v-0.48h1.98 M269.7,368.52V369 M267.72,369v21.72 M269.7,368.04h9.6
	 M269.7,368.52h9.6 M303.3,356.88v-1.98 M305.28,356.88v-1.98 M302.52,354.18v3.48 M306,354.18v3.48 M303.3,355.92h1.98
	 M302.52,354.18H306 M302.52,357.66H306 M302.52,355.92H269.7 M269.7,358.38v0.48 M269.7,358.38h-1.98v0.48 M279.3,368.52
	c-0.027-6.354-5.418-10.313-11.58-9.66 M373.68,283.08v3.42 M374.4,285.78v-1.98 M302.28,286.74h3.96 M303.3,284.82h1.98
	 M305.28,283.8v1.98 M303.3,283.8v1.98 M291.9,285.54h0.54 M291.9,285.54v-1.98h0.54 M302.28,285.54h-9.84v-1.98 M292.44,283.56
	h9.84 M304.26,274.92v7.38 M303.78,274.92v7.38 M304.74,274.92v7.38 M303.78,282.3v0.54 M303.78,282.3h0.96v0.54 M302.28,282.84
	h3.96 M303.78,274.92h0.96 M304.74,274.92v-0.48h-0.96 M295.38,273.96h8.4v0.96 M303.78,274.44h-8.4 M302.28,286.74v-3.9
	 M306.24,286.74v-3.9 M291.9,283.56v-9.66 M281.82,283.56h0.48 M282.3,283.56v1.98h-0.48 M281.82,282.42v3.12v-1.98 M291.9,283.56
	h-0.42v-9.6 M267.72,300.36h1.98 M269.7,300.36v-0.48h-1.98 M267.72,300.36v-0.48 M269.7,285.54v4.2 M269.7,289.74h-1.98v-4.2
	 M267.72,289.74v0.48h1.98 M269.7,290.64v-0.9 M269.46,280.62v0.6 M269.46,281.46v0.96 M267.96,282.42v1.62 M269.46,282.42h12.36
	 M269.7,285.54h12.12 M269.7,299.88c5.222,0.007,9.707-4.37,9.6-9.66h-9.6 M269.7,290.64h9.6 M303.78,257.16h0.96 M304.74,257.16
	v0.48h-0.96 M295.38,257.64h8.4v-0.48 M303.78,257.64v0.42h-8.4 M295.38,257.64c-0.01,4.575,3.807,8.437,8.4,8.4 M303.78,249v0.48
	 M303.78,249.48h0.96V249 M303.78,249h0.96 M303.78,232.32v0.48 M303.78,232.8h0.96v-0.48 M303.78,232.32h0.96 M303.78,232.8V249
	 M304.26,232.8V249 M304.74,232.8V249 M303.78,249.48v7.68 M304.26,249.48v7.68 M304.74,249.48v7.68 M269.46,263.64v0.66
	 M268.86,263.4v0.24 M253.2,250.2v13.2 M252.96,250.14v13.5 M269.46,264.3h-17.1v-14.4 M252.96,263.64h16.5 M253.2,263.4h15.66
	 M255.24,264.3v16.32 M257.82,264.3v16.32 M260.46,264.3v16.32 M263.1,264.3v16.32 M265.68,264.3v16.32 M268.32,264.3v16.32
	 M291.9,273.9c-5.218-0.04-9.671,4.443-9.6,9.66 M303.78,266.04c-4.631-0.047-8.413,3.763-8.4,8.4 M306.24,285.54h67.439
	 M306.24,284.04h67.439 M269.7,300.36v58.02 M267.72,300.36v58.02 M229.56,396.54v0.24 M229.56,396.78h1.02v-0.24 M230.58,396.54
	h-1.02 M231.3,390.84v1.26 M229.32,390.84v1.26 M231.3,391.44h-1.98 M230.58,390.24h-1.02 M230.58,390.24v0.24h-1.02 M229.56,390.84
	v-0.6 M230.58,390.48v0.36 M229.56,390.84h-0.24 M231.3,390.84h-0.72 M230.58,392.7h-1.02 M230.58,392.7v-0.24h-1.02 M229.56,392.7
	v-0.24 M231.3,392.1h-0.72 M229.56,392.1h-0.24 M230.58,392.46v-0.36 M229.56,392.46v-0.36 M229.56,390.48h-0.24 M229.56,392.46
	h-0.24 M231.3,390.84v-0.12 M231.3,392.1v0.12 M230.58,386.4h-1.02 M230.58,386.4v-0.24h-1.02 M229.56,390.24v-4.08 M230.1,386.4
	v3.84 M230.58,386.4v3.84 M230.1,392.7v3.84 M230.58,392.7v3.84 M229.56,392.7v3.84 M230.58,373.8h-1.02 M230.58,373.8v-0.24h-1.02
	 M229.56,373.8v-0.24 M229.56,360.96v0.24 M229.56,361.2h1.02v-0.24 M230.58,360.96h-1.02 M230.1,361.2v12.36 M230.1,373.8v12.36
	 M230.58,361.2v24.96 M229.56,361.2v24.96 M234.9,354.18h-3.48v3.48h3.48V354.18z M232.2,355.92h1.92 M234.12,356.88v-1.98
	 M232.2,356.88v-1.98 M231.3,355.26v1.26 M229.32,355.26v1.26 M231.3,355.92h-1.98 M230.58,354.66h-1.02 M230.58,354.66v0.24h-1.02
	 M229.56,355.26v-0.6 M230.58,354.9v0.36 M229.56,355.26h-0.24 M231.3,355.26h-0.72 M230.58,357.12h-1.02 M230.58,357.12v-0.24
	h-1.02 M229.56,357.12v-0.24 M231.3,356.52h-0.72 M229.56,356.52h-0.24 M230.58,356.88v-0.36 M229.56,356.88v-0.36 M229.56,354.9
	h-0.24 M229.56,356.88h-0.24 M229.56,354.66v-3.84 M230.58,354.66v-3.84 M230.1,354.66v-3.84 M230.58,350.82h-1.02 M230.58,350.82
	v-0.24h-1.02 M229.56,350.82v-0.24 M229.56,337.98v0.24"/>
<path fill="none" stroke="#000000" stroke-width="0.72" stroke-linecap="round" stroke-linejoin="round" stroke-miterlimit="10" d="
	M229.56,338.22h1.02v-0.24 M230.58,337.98h-1.02 M229.56,319.38h-0.24 M229.56,321.36h-0.24 M229.56,319.38v0.36 M230.58,319.38
	v0.36 M229.56,319.74h-0.24 M231.3,319.74h-0.72 M229.56,319.14v0.24 M229.56,319.38h1.02v-0.24 M230.58,319.14h-1.02 M231.3,320.94
	h-0.72 M229.56,320.94h-0.24 M230.58,321.36v-0.42 M229.56,321.6v-0.66 M229.56,321.36h1.02v0.24 M230.58,321.6h-1.02 M231.3,320.34
	h-1.98 M229.32,320.94v-1.2 M231.3,320.94v-1.2 M229.56,325.38v0.3 M229.56,325.68h1.02v-0.3 M230.58,325.38h-1.02 M230.1,325.38
	v-3.78 M230.58,325.38v-3.78 M229.56,325.38v-3.78 M230.1,337.98v-12.3 M229.32,354.9v-33.54 M229.56,350.58v-24.9 M230.1,350.58
	v-12.36 M230.58,350.58v-24.9 M230.1,357.12v3.84 M230.58,357.12v3.84 M229.56,357.12v3.84 M229.32,356.88v33.6 M230.58,315.3h-1.02
	 M230.58,315.3v-0.24h-1.02 M229.56,315.3v-0.24 M229.56,302.46v0.24 M229.56,302.7h1.02v-0.24 M230.58,302.46h-1.02 M230.1,315.06
	V302.7 M234.9,283.08h-3.48v3.42h3.48V283.08z M232.2,284.82h1.92 M234.12,285.78v-1.98 M232.2,285.78v-1.98 M231.3,284.16v1.26
	 M229.32,284.16v1.26 M231.3,284.82h-1.98 M229.56,284.16h-0.24 M230.58,286.02h-1.02 M230.58,286.02v-0.24h-1.02 M229.56,286.02
	v-0.24 M231.3,285.42h-0.72 M229.56,285.42h-0.24 M230.58,285.78v-0.36 M229.56,285.78v-0.36 M229.56,284.16v-0.36h-0.24
	 M229.56,285.78h-0.24 M229.56,289.86v0.24 M229.56,290.1h1.02v-0.24 M229.56,286.02v3.84h1.02 M230.1,289.86v-3.84 M230.58,289.86
	v-3.84 M234.78,281.46h3.36 M234.78,277.14l4.32,4.32 M239.1,281.22l-4.08-4.08 M235.62,277.14l3.48,3.48 M234.78,281.46v-3.36
	l3.36,3.36 M234.78,282.42v0.66 M230.1,302.46V290.1 M229.56,315.06V290.1 M230.58,315.06V290.1 M229.56,249.84h-0.24
	 M229.56,249.84v0.36h-0.24 M231.3,250.2h2.52 M231.3,249.24h-1.98 M229.32,248.22h0.24v0.42h-0.24h0.24 M231.3,248.22h2.52
	 M231.3,248.64v1.2 M229.32,248.64v1.2 M229.32,250.2v33.6 M231.3,250.2v33.96 M233.82,250.2v32.88 M235.62,244.8v32.34
	 M234.78,244.56v32.58 M235.02,244.62v32.52 M229.32,319.38v-33.6 M229.56,319.14v-3.84 M230.58,319.14v-3.84 M230.1,319.14v-3.84
	 M239.1,281.22h30.36 M239.1,280.62h30.36 M234.78,282.42h33.18 M234.9,284.04h33.06 M234.9,285.54h32.82 M239.1,281.46h30.36
	 M235.62,247.38h8.34 M235.62,249.9h16.74 M235.62,252.48h16.74 M235.62,255.06h16.74 M235.62,257.64h16.74 M235.62,260.16h16.74
	 M235.62,262.74h16.74 M253.2,250.2l-18.42-5.64 M231.3,392.22h36.42 M230.58,390.72h37.14 M373.68,211.98v3.42 M374.4,214.68v-1.98
	 M317.94,204.3h-1.44 M318.24,204.54h-1.98 M316.5,193.92h-0.24 M318.24,204.54v-15.06 M316.26,204.54v-10.62 M316.5,204.3v-10.38
	 M317.94,204.3v-14.58 M328.2,191.94h-9.96 M328.2,194.4h-9.96 M328.2,196.86h-9.96 M328.2,199.38h-9.96 M328.2,201.84h-9.96
	 M328.2,204.3h-9.96 M347.46,212.7h-17.28 M372.06,179.1h-0.54 M372.06,179.1v-1.98h-0.54 M371.52,177.12v1.98 M360.18,177.12h0.42
	 M359.7,177.12h0.479v1.98 M359.7,177.12v1.98h0.479 M360.6,177.12v-11.34 M360.18,177.12v-11.34 M347.46,179.1h-5.4 M341.58,179.1
	h-0.48 M342.06,177.12v1.98 M342.06,177.12h-0.479v1.98 M341.58,179.1h0.479 M359.7,177.12H342.06 M373.68,140.82v3.48
	 M374.4,143.58v-1.98 M331.44,177.12h-3.24 M327.72,177.12h-0.42 M328.2,177.12v1.98 M328.2,177.12h-0.48v1.98 M327.72,179.1h0.48
	 M331.44,179.1h0.479 M331.44,179.1v-1.98h0.479 M331.92,177.12v1.98 M327.3,177.12v-9.6 M327.72,177.12v-9.6 M317.58,179.1h0.54
	 M317.58,179.1v-1.98h0.54 M327.72,167.52c-6.399,0.168-10.256,5.29-9.6,11.58 M328.2,212.7v-35.58 M347.46,212.7v-33.6
	 M331.92,179.1c0.047,5.376,4.292,9.621,9.66,9.66 M341.1,179.1v9.66 M341.58,179.1v9.66 M304.74,215.64v0.48h-0.96 M303.78,216.12
	v-0.48 M306.24,211.68h-3.96v3.96h3.96V211.68z M303.3,213.66h1.98 M305.28,212.7v1.98 M303.3,212.7v1.98 M301.8,213.72h0.48v1.5
	 M281.58,216.96v-4.02 M268.08,214.44V216 M304.26,177.12h-0.96 M303.3,177.12v-0.48h0.96 M304.26,176.64v0.48 M304.26,166.02h-0.96
	 M303.3,166.02v-0.48h0.96 M304.26,165.54v0.48 M303.3,166.02v10.62 M303.78,166.02v10.62 M304.26,166.02v10.62 M304.26,155.64
	h-0.96 M304.26,155.64v0.48h-0.96 M293.88,156.12h9.42v-0.48 M303.3,156.12v0.48h-9.42 M303.3,143.58v-1.98 M305.28,143.58v-1.98
	 M303.3,142.56h1.98 M302.28,140.58h3.96v3.96h-3.96V140.58z M303.78,140.58h0.96 M304.74,140.58v-0.48h-0.96 M303.78,140.58v-0.48
	 M304.26,144.54h-0.96 M304.26,144.54v0.48h-0.96 M303.3,145.02v-0.48 M301.8,141.84v1.44h-0.42 M301.8,143.28h0.48v-1.44
	 M302.28,141.84h-0.48 M303.3,145.02v10.62 M303.78,145.02v10.62 M304.26,145.02v10.62 M301.38,143.28v9.9 M301.8,143.28v9.9
	 M281.58,143.58v-1.98 M281.58,141.84v1.44 M281.58,141.84h0.48v1.44 M281.58,143.28h0.9 M282.48,143.28v9.9 M282.06,143.28v9.9
	 M282.06,153.18c5.54-0.03,9.796-4.392,9.84-9.9c-0.01,5.41,4.441,9.936,9.9,9.9 M293.88,156.12c0.022,5.211,4.209,9.398,9.42,9.42
	 M303.3,211.68v-34.56 M305.28,211.68V179.1 M373.68,214.68H306.24 M317.58,179.1h-12.3 M317.58,177.12H303.3 M318.24,189.48h-12.96
	 M328.2,212.7h-21.96 M316.26,201.84h-10.98 M316.26,199.38h-10.98 M316.26,196.86h-10.98 M316.26,194.4h-10.98 M317.94,189.72
	H305.28 M374.76,69.6v-0.72 M374.76,67.86v-0.24 M374.4,68.88h0.359 M374.16,67.86h0.6 M374.4,67.86v1.02h-0.24 M374.16,68.88v-1.02
	 M374.4,67.86v-0.24 M370.08,67.86h0.24 M370.08,67.86v1.02h0.24 M374.16,68.88h-3.84v-1.02 M370.32,68.34h3.84 M370.32,67.86h3.84
	 M357.72,67.86h-0.239 M357.48,67.86v1.02h0.239 M357.72,68.88v-1.02 M344.88,68.88v-1.02 M344.88,68.88h0.24v-1.02 M345.12,67.86
	h-0.24 M345.12,68.34h12.36 M357.72,68.34h12.36 M345.12,67.86h24.96 M345.12,68.88h24.96 M373.62,69.72v3.48 M374.4,72.42v-1.98
	 M340.44,69.6h-1.261 M340.44,67.62h-1.261 M339.84,69.6v-1.98 M339.18,67.86v-0.24 M338.82,68.88h0.359 M338.58,67.86h0.6
	 M338.82,67.86v1.02h-0.24 M338.58,68.88v-1.02 M338.82,67.86v-0.24 M340.8,67.86h-0.359 M340.8,68.88h-0.359 M340.44,67.86v-0.24
	 M341.04,67.86h-0.24 M340.8,67.86v1.02h0.24 M341.04,68.88v-1.02 M340.8,67.86v-0.24 M334.5,67.86h0.24 M334.5,67.86v1.02h0.24
	 M338.58,68.88h-3.84v-1.02 M334.74,68.34h3.84 M334.74,67.86h3.84 M322.14,67.86H321.9 M321.9,67.86v1.02h0.239 M322.14,68.88
	v-1.02 M309.3,68.88v-1.02 M309.3,68.88h0.3v-1.02 M309.6,67.86h-0.3 M309.6,68.34H321.9 M322.14,68.34h12.36 M309.6,67.86h24.9
	 M309.6,68.88h24.9 M341.04,67.86h3.84 M341.04,68.88h3.84 M341.04,68.34h3.84 M340.8,67.62H374.4 M340.44,68.88v38.76
	 M339.18,68.88v37.5 M303.78,129.24h0.96 M304.74,129.24v-0.48h-0.96 M303.78,129.24v-0.48 M304.74,128.76v-0.479 M303.78,118.86
	h0.96 M304.74,118.86v0.48h-0.96 M303.78,118.86v0.48 M280.56,129.42v0.48 M280.56,129.9h1.02v-0.48 M280.56,129.42h1.02
	 M281.58,120.24h9.6 M281.58,119.76h9.6 M280.56,119.28h1.02 M281.58,119.28v0.479h-1.02 M280.56,119.28v0.479 M281.58,119.76v0.48
	 M281.58,129.42c5.296-0.07,9.615-4.299,9.6-9.66 M304.74,107.64h-0.96v-1.26 M304.74,107.64v0.48h-0.96 M303.78,107.64v0.48
	 M303.78,106.38v-0.48 M303.78,105.9h0.96v0.48 M303.78,106.38h0.96 M297.48,106.5h0.48 M297.96,106.5v1.02h-0.48 M297.48,106.5
	v1.02 M297.96,106.5h5.34 M297.96,107.52h5.34 M303.3,107.52v-1.02h0.48 M303.78,106.5v1.02 M297.96,107.04h5.34 M303.3,107.52h0.48
	 M303.78,94.68h0.96 M304.74,94.68v0.48h-0.96 M303.78,94.68v0.48 M304.74,95.16v10.74 M304.26,95.16v10.74 M303.78,95.16v10.74
	 M287.82,107.52h0.48 M287.34,106.5h0.48 M287.82,106.5v1.02h-0.48 M282.06,106.5h5.28v1.02 M281.58,107.52h5.76 M281.58,107.52
	v-1.02h0.48 M282.06,106.5v1.02 M282.06,107.04h5.28 M303.78,118.86v-11.22 M304.26,118.86v-10.74 M304.74,118.86v-10.74
	 M288.3,107.52v9.6 M287.82,107.52v9.6 M287.82,117.12c5.416,0,9.575-4.263,9.66-9.6 M281.58,119.28v-12.9 M280.56,119.28v-11.64
	 M304.74,85.02v0.42 M303.78,84.54v0.48 M303.78,85.02h0.96v-0.48 M303.78,84.54h0.96 M302.52,73.2H306 M303.78,73.68h0.96
	 M304.74,73.68V73.2h-0.96 M303.78,73.68V73.2 M304.26,73.68v10.86 M303.78,73.68v10.86 M304.74,73.68v10.86 M302.52,69.72H306
	 M303.3,71.46h1.98 M304.86,69.6h-1.2 M304.86,67.62h-1.2 M304.26,69.6v-1.98 M303.3,67.62v0.24h0.36v-0.24 M305.28,67.86h-0.42
	 M305.28,68.88h-0.42 M304.86,67.86v-0.24 M304.86,69.6v-0.72 M305.52,67.86h-0.24 M305.28,67.86v1.02h0.24 M305.52,68.88v-1.02
	 M305.28,67.86v-0.24 M306,69.72v3.48 M302.52,69.72v3.48 M305.28,72.42v-1.98 M303.3,72.42v-1.98 M269.34,69.6h-1.26 M269.34,67.62
	h-1.26 M268.74,69.6v-1.98 M268.08,67.62v0.24h-0.36v-0.24 M269.34,67.62v0.24h0.36 M303.3,67.62h-33.6v0.24 M269.34,69.6h34.32
	 M305.52,67.86h3.78 M305.52,68.88h3.78 M305.52,68.34h3.78 M305.28,67.62h33.541 M339.18,106.38h-35.4 M340.44,107.64h-35.7
	 M304.74,94.68c5.388-0.057,9.603-4.272,9.66-9.66 M304.74,85.02h9.66 M304.74,85.44h9.66 M304.74,128.76h9.42 M304.74,128.28h9.42
	 M314.16,128.76c-0.022-5.211-4.209-9.398-9.42-9.42 M304.74,140.1v-10.86 M303.78,140.1v-10.86 M304.26,140.1v-10.86
	 M281.58,141.84V129.9 M280.56,141.6v-11.7 M234.78,220.32v-3.36h3.36 M239.1,216.96l-4.32,4.32 M238.14,216.96l-3.36,3.36
	 M234.9,211.98h-3.48v3.42h3.48V211.98z M232.2,213.66h1.92 M234.12,214.68v-1.98 M232.2,214.68v-1.98 M231.3,213.06v1.26
	 M229.32,213.06v1.26 M231.3,213.66h-1.98 M230.58,212.46h-1.02 M230.58,212.46v0.24h-1.02 M229.56,213.06v-0.6 M230.58,212.7v0.36
	 M229.56,213.06h-0.24 M231.3,213.06h-0.72 M229.56,214.68h-0.24 M229.56,214.68v-0.36h-0.24 M234.78,215.4v0.6 M229.56,212.7h-0.24
	 M230.58,196.02h-1.02 M230.58,196.02v-0.24h-1.02 M229.56,196.02v-0.24 M229.32,187.98h1.26 M230.58,187.98v-0.48h-1.26
	 M229.32,187.98v-0.9 M230.1,187.98v7.8 M219.96,187.5h9.36 M219.96,187.08h9.36 M229.32,187.98v24.72 M229.56,187.98v24.48
	 M230.58,187.98v24.48 M230.1,196.02v16.44 M207.12,212.94h22.44 M229.32,169.2v-0.96 M229.32,168.72h1.26v-0.479 M229.32,168.24
	h1.26 M219.96,168.72c-0.098,5.083,4.274,9.471,9.36,9.42 M219.96,169.2h9.36 M219.96,168.72h9.36 M230.58,160.44h-1.02
	 M230.58,160.44v-0.24h-1.02 M229.56,160.44v-0.24 M234.9,140.82h-3.48v3.48h3.48V140.82z M232.2,142.56h1.92 M234.12,143.58v-1.98
	 M232.2,143.58v-1.98 M231.3,141.96v1.2 M229.32,141.96v1.2 M231.3,142.56h-1.98 M230.58,141.36h-1.02 M230.58,141.36v0.24h-1.02
	 M229.56,141.96v-0.6 M230.58,141.6v0.36 M229.56,141.96h-0.24 M231.3,141.96h-0.72 M230.58,143.82h-1.02 M230.58,143.82v-0.24
	h-1.02 M229.56,143.82v-0.24 M231.3,143.16h-0.72 M229.56,143.16h-0.24 M230.58,143.58v-0.42 M229.32,143.58h0.24v-0.42
	 M229.56,141.6h-0.24 M230.1,143.82v16.38 M230.1,160.44v7.8 M229.32,143.58v24.66 M229.56,143.82v24.42 M230.58,143.82v24.42
	 M207.12,212.94v-69.66h22.44 M229.32,178.14c-5.085-0.071-9.431,4.275-9.36,9.36 M229.56,137.52v-0.24 M229.56,137.28h1.02v0.24
	 M230.58,137.52h-1.02 M230.58,124.92h-1.02 M230.58,124.92v-0.24h-1.02 M229.56,124.92v-0.24 M230.1,124.92v12.36 M231.3,106.38
	v1.26 M229.32,106.38v1.26 M231.3,107.04h-1.98 M230.58,106.02h-1.02 M231.3,106.38h-0.72 M229.56,106.38h-0.24 M230.58,106.02v0.36
	 M229.56,106.02v0.36 M230.58,106.02v-0.24h-1.02 M229.56,105.78v0.24 M230.1,108.24v3.84 M230.58,108.24v3.84 M230.58,108.24h-1.02
	v3.84 M230.58,108.24V108h-1.02 M229.56,108.24V108 M231.3,107.64h-0.72 M229.56,107.64h-0.24 M230.58,108v-0.36 M229.32,108h0.24
	v-0.36 M229.56,106.02h-0.24 M229.56,112.08v0.24 M229.56,112.32h1.02v-0.24 M230.58,112.08h-1.02 M230.58,101.94h-1.02
	 M230.58,101.94v-0.24h-1.02 M229.56,105.78v-4.08 M230.1,101.94v3.84 M230.58,101.94v3.84 M229.56,112.32v24.96 M230.1,112.32
	v12.36 M230.58,112.32v24.96 M230.58,89.34h-1.02 M230.58,89.34V89.1h-1.02 M229.56,89.34V89.1 M231.42,73.2h3.48 M229.56,72.72
	v3.78 M230.1,72.72v3.78 M230.58,72.72v3.78 M230.58,72.06v0.36h-1.02v-0.36 M229.56,72.06h-0.24 M231.3,72.06h-0.72 M230.58,72.42
	v0.3h-1.02 M229.32,72.42h0.24v0.3 M230.58,76.5h-1.02 M230.58,76.5v0.24h-1.02 M229.56,76.5v0.24 M230.1,76.74V89.1 M231.42,69.72
	h3.48 M232.2,71.46h1.92 M233.76,69.6h-1.2 M233.76,67.62h-4.44 M233.16,69.6v-1.98 M231.3,71.46h-1.98 M234.12,67.86v-0.24
	 M234.12,67.86h-0.36v-0.24 M234.9,69.72v3.48 M231.42,69.72v3.48 M234.12,72.42v-1.98 M232.2,72.42v-1.98 M231.3,70.86v1.2
	 M229.32,67.62v4.44 M230.1,89.34v12.36 M229.32,72.42v33.6 M229.56,76.74v24.96 M230.58,76.74v24.96 M229.32,108v33.6
	 M230.58,137.52v3.84 M229.56,137.52v3.84 M230.1,137.52v3.84 M234.78,216h33.3 M234.9,212.94h46.68 M234.9,214.44h33.18
	 M239.1,216.96h42.48 M234.12,67.62h33.6 M281.58,143.58H234.9 M280.56,141.6H234.9 M233.76,69.6h34.32 M230.58,106.38h51
	 M230.58,107.64h49.98 M229.32,214.68v33.54 M231.3,214.68v33.54 M233.82,215.4v32.82 M304.74,216.12v16.2 M304.26,216.12v16.2
	 M303.78,216.12v16.2 M234.78,244.56v-23.28 M373.62,73.2h3.479 M373.62,69.72h3.479 M374.4,71.46h1.979 M376.02,69.6h-1.26
	 M376.02,67.62h-1.26 M377.1,144.3h-3.42 M377.1,140.82h-3.42 M376.38,142.56H374.4 M377.1,215.4h-3.42 M377.1,211.98h-3.42
	 M376.38,213.66H374.4 M377.1,283.08h-3.42 M376.38,284.82H374.4 M377.1,286.5h-3.42 M377.1,357.66h-3.42 M377.1,354.18h-3.42
	 M376.38,355.92H374.4 M372.06,177.12h9.24 M371.52,177.12c0.124-6.15-5.178-11.434-11.34-11.34 M229.32,392.46V426 M379.8,356.64
	V462.3 M378.36,356.64V462.3 M267.72,392.22v20.459 M269.7,369v43.68 M448.2,408.36v-33.84 M447.72,425.28v-67.62 M229.56,396.78
	v24.899 M230.1,396.78v12.359 M230.58,396.78v24.899"/>
</svg>
