<?xml version="1.0" encoding="utf-8"?>
<!-- Generator: Adobe Illustrator 16.0.0, SVG Export Plug-In . SVG Version: 6.00 Build 0)  -->
<!DOCTYPE svg PUBLIC "-//W3C//DTD SVG 1.1//EN" "http://www.w3.org/Graphics/SVG/1.1/DTD/svg11.dtd">
<svg version="1.1" id="Layer_1" xmlns="http://www.w3.org/2000/svg" xmlns:xlink="http://www.w3.org/1999/xlink" x="0px" y="0px"
	 width="612px" height="792px" viewBox="0 0 612 792" enable-background="new 0 0 612 792" xml:space="preserve">
<path fill="none" stroke="#000000" stroke-width="0.72" stroke-linecap="round" stroke-linejoin="round" stroke-miterlimit="10" d="
	M463.68,562.98h7.801v0.42 M463.68,563.4h8.641 M471.48,554.82h0.84v0.359h-0.84V554.82z M471.48,555.18
	c-4.38,0.211-7.946,3.781-7.801,8.221 M450.48,551.58v-20.4 M471.48,551.58V530.4 M471.48,554.82v-2.4 M472.32,554.82v-24.84
	 M450.48,552.42h21 M450.48,551.58h7.199 M450.48,530.4V520.38 M450.48,572.82v-20.4 M450.48,591.6v-18 M457.68,534.78v2.399h-7.199
	 M462.48,531.18V530.4 M469.68,604.98v0.84h-0.359 M469.68,604.98h0.42v0.84 M469.68,605.82h0.42 M469.32,613.62v-7.8
	 M469.68,613.62v-7.8 M453.3,605.82h-0.42 M452.88,605.82v-0.84h0.42 M453.3,605.82v-0.84 M453.3,613.62v-7.8h0.42 M453.72,613.62
	v-7.8 M453.3,613.62c4.439,0.146,8.009-3.421,8.22-7.8 M461.52,605.82c0.035,4.357,3.806,7.949,8.16,7.8 M470.1,605.82h43.2
	 M470.1,604.98h1.381 M469.68,519h0.42 M470.1,519v0.78h-0.42 M469.68,519v0.78 M469.68,511.14V519h-0.359 M469.32,511.14V519
	 M469.68,511.14c-4.349-0.069-8.151,3.512-8.16,7.86 M453.3,519.78V519h0.42 M453.3,519.78h-0.42V519 M453.3,519h-0.42 M461.52,519
	c-0.177-4.374-3.812-7.935-8.22-7.86 M453.72,511.14V519 M453.3,511.14V519 M470.1,519.78h1.381 M470.1,519h43.2 M450.48,572.82h21
	 M450.48,573.6h21 M462.48,591.6v0.78 M472.32,601.8v0.42h-0.84 M472.32,602.22v0.36h-0.84 M471.48,602.22v0.36 M480.12,602.22h-7.8
	 M480.12,601.8h-7.8 M472.32,594h-0.84v-0.42h0.84 M480.12,602.22c0.141-4.443-3.376-8.065-7.8-8.22v-0.42 M472.32,529.98h-0.84
	v-0.421h0.84V529.98z M471.48,521.4h0.84v0.359 M471.48,521.4v-0.42h0.84 M472.32,521.4v-0.42 M480.12,521.76h-7.8 M472.32,529.56
	c4.327-0.021,7.985-3.822,7.8-8.159h-7.8 M471.48,530.4v-0.42 M472.32,520.98v-1.2 M471.48,520.98v-1.2 M471.48,593.58V573.6
	 M472.32,593.58v-15.6 M450.48,531.18h2.819 M458.52,531.18h3.961 M457.68,591.6h4.801 M453.3,591.6h-2.819 M453.3,592.38h-2.819
	 M457.68,592.38h4.801 M450.48,519v-41.04 M472.32,519.78H513.3 M457.68,530.4h4.801 M450.48,519.78h2.399 M450.48,530.4h2.819
	 M450.48,604.98V592.38 M472.32,604.98H513.3 M472.32,577.2v-13.38 M450.48,520.38v-0.6 M472.32,604.98v-2.4 M395.7,534h-53.22
	 M395.7,534.78h-53.22 M339.9,477.18v20.4 M340.68,477.18v19.62 M397.5,477.18v19.62 M398.28,477.18V530.4 M400.08,361.98v42.48
	 M400.5,404.04v-27.48h0.48 M308.04,361.98h17.76 M422.88,379.14h7.44 M427.74,376.92h2.58 M430.86,375.54v28.5 M430.32,375.84
	v27.72 M400.08,405.18h30.84 M400.5,404.04h30.36 M400.98,403.56h29.34 M400.08,404.46h30.84 M400.98,376.56v27 M412.98,392.82h5.34
	 M413.52,392.34h4.32 M418.32,392.82v-11.64 M417.84,392.34v-10.98 M418.32,392.34h12 M418.32,390.12h12 M418.32,387.96h12
	 M418.32,385.74h12 M418.32,383.52h12 M412.98,376.56h0.539 M418.32,381.36h12 M412.98,392.82v-16.26 M413.52,392.34v-15.78
	 M430.92,375.54l-16.32,7.26 M400.98,392.34h12 M400.98,390.12h12 M400.98,387.96h12 M400.98,385.74h12 M400.98,383.52h12
	 M400.98,381.36h12 M400.98,379.14h12 M400.98,376.92h12 M402.12,472.8h-2.04 M434.28,472.8H402.9 M434.64,473.58H431.7
	 M434.28,473.58v-0.78h0.359 M434.64,473.58v-0.78 M434.64,479.52v-5.939h0.301 M434.94,479.52v-5.939 M434.64,479.52
	c3.407-0.017,6.05-2.491,6.061-5.939 M446.76,473.58v-0.78 M446.76,472.8h0.36v0.78 M446.46,479.52v-5.939h0.66 M440.7,473.58
	c0.011,3.448,2.652,5.923,6.06,5.939v-5.939 M430.92,473.58h-30.84 M430.92,448.8v-32.22 M431.7,449.58v-33 M325.68,473.58v-0.78
	 M325.68,472.8h-0.359v0.78 M325.68,473.58h-0.359 M338.1,473.58h-0.659 M338.1,473.58v-0.78h-0.359 M337.74,473.58v-0.78
	 M337.44,479.52v-5.939 M337.74,479.52v-5.939 M325.68,479.52v-5.939h0.301 M325.98,479.52v-5.939 M325.68,479.52
	c3.459-0.087,5.964-2.427,6-5.939c0.067,3.396,2.642,5.941,6.061,5.939 M281.28,584.82v0.359h-0.78 M281.28,585.18v0.42h-0.78
	 M280.5,585.18v0.42 M289.14,585.18h-7.86 M289.14,584.82h-7.86 M281.28,577.02h-0.78v-0.42h0.78 M289.14,585.18
	c0.105-4.334-3.541-8.163-7.86-8.16v-0.42 M288.12,590.82h13.68 M280.5,585.6v2.4 M281.28,585.6v2.4 M310.8,590.82h-0.42
	 M302.58,590.82h-0.78 M310.8,589.98h-0.42 M302.22,589.98h-0.42 M310.8,590.82v-0.84 M310.38,590.82v-0.84 M301.8,590.82v-0.84
	 M302.22,598.62v-8.64 M302.58,598.62v-7.8 M302.22,598.62c4.336,0.186,8.138-3.473,8.16-7.8 M301.8,619.38h22.681 M301.8,618.6
	h22.681 M310.8,590.82h13.681 M310.8,589.98h13.681 M264.72,590.82v-0.84 M273.72,590.82h-0.42 M265.5,590.82h-0.78 M273.72,589.98
	h-0.42 M265.08,589.98h-0.36 M273.72,590.82v-0.84 M273.3,590.82v-0.84 M265.08,598.62v-8.64 M265.5,598.62v-7.8 M265.08,598.62
	c4.42,0.151,8.069-3.412,8.22-7.8 M273.72,590.82h6.78 M273.72,589.98h6.78 M238.68,590.82h-0.36 M230.52,590.82h-0.84
	 M238.68,589.98h-0.36 M230.1,589.98h-0.42 M238.68,590.82v-0.84 M238.32,590.82v-0.84 M229.68,590.82v-0.84 M230.1,598.62v-8.64
	 M230.52,598.62v-7.8 M230.1,598.62c4.439,0.146,8.009-3.421,8.22-7.8 M257.88,590.82h6.84 M238.68,590.82h18.42 M238.68,589.98
	h26.04 M230.1,534.78V534h0.42 M230.1,534.78h-0.42V534 M230.1,534h-0.42 M238.32,534h0.36v0.78h-0.36V534z M238.32,534
	c-0.177-4.374-3.812-7.935-8.22-7.86 M230.52,526.14V534 M230.1,526.14V534 M255.72,534h-17.04 M229.68,534.78h-2.4 M229.68,534
	h-2.4 M284.88,537.18h-0.78v0.42h0.78V537.18z M276.24,545.76h7.86 M284.88,545.76h-0.78V545.4 M276.24,545.4h7.86 M284.1,545.76
	v0.42h0.78 M284.88,545.76v0.42 M284.1,537.6c-4.48,0.193-7.816,3.685-7.86,8.16 M281.28,549v27.6 M280.5,548.16V576.6
	 M284.1,546.18v1.98 M284.88,546.18v1.98 M284.88,488.58v-0.42 M276.24,480h7.86 M284.88,480h-0.78v0.36 M276.24,480.36h7.86
	 M284.1,480v-0.42h0.78 M284.88,480v-0.42 M284.1,488.58h0.78 M284.1,488.16h0.78 M276.24,480c0.03,4.399,3.406,8.087,7.86,8.16
	v0.42 M307.38,497.58v0.78 M296.1,497.58v0.78 M295.32,498.36v49.8 M294.48,497.58v50.58 M284.88,488.58v41.82 M284.1,488.58v41.82
	 M292.02,473.58h-0.36 M291.66,473.58v-0.78h0.36 M292.02,473.58v-0.78 M306.48,473.58v-0.78 M306.48,472.8h0.359v0.78
	 M306.48,473.58h0.359 M291.66,473.58h-6.78 M291.66,472.8h-2.4 M288.42,472.8h-3.54 M288.12,590.82V618.6h13.68 M287.28,619.38
	v-28.56 M287.34,619.38h14.46 M284.88,589.98h16.92 M284.88,590.82h2.4 M324.48,549H281.28 M284.1,548.16h-3.6 M294.48,548.16h-9.6
	 M324.48,548.16H295.32 M325.32,473.58V534 M257.88,648v-57.18 M257.1,648v-57.18 M308.04,448.74v0.06 M308.04,245.94v20.82
	 M457.68,477.18h55.62 M450.48,477.18v-36 M449.7,472.8v-31.62 M430.92,448.8h-30.84 M307.26,246.72v56.82 M402.12,449.58H378.06
	 M431.7,449.58h-28.8 M430.92,506.58v-33 M431.7,506.58v-33 M453.3,129.12h-53.22 M450.48,477.18h2.819 M450.48,477.96H513.3
	 M450.48,519h2.399 M471.48,604.98v-2.4 M472.32,577.2H513.3 M472.32,577.98H513.3 M450.48,604.98h2.399 M450.48,648v-42.18h2.399
	 M449.7,648V473.58 M457.68,648H510.9 M516.18,126.24h0.061 M513.3,184.74v-53.22 M513.3,472.8v-53.22 M516.18,650.88V245.34
	 M515.28,645.6h-4.38v4.381h4.38V645.6z M515.28,588h-4.38v4.38h4.38V588z M515.28,530.4h-4.38v4.38h4.38V530.4z M513.3,588v-53.22
	 M515.28,472.8h-4.38v4.38h4.38V472.8z M513.3,530.4V477.18 M513.3,645.6v-53.22 M515.28,415.14h-4.38v4.44h4.38V415.14z
	 M515.28,357.54h-4.38v4.44h4.38V357.54z M515.28,299.94h-4.38v4.44h4.38V299.94z M513.3,357.54v-53.16 M515.28,242.34h-4.38v4.38
	h4.38V242.34z M515.28,184.74h-4.38v4.38h4.38V184.74z M513.3,299.34v-31.38 M513.3,415.14V393.24 M515.28,127.14h-4.38v4.38h4.38
	V127.14z M325.32,472.8h-18.48 M395.7,473.58h-2.4 M376.92,472.8H342.48 M395.7,472.8h-9.78 M280.5,473.58h-53.22 M280.5,472.8
	h-53.22 M308.52,496.8v0.78 M308.52,473.58v14.22 M309.3,496.8v0.78 M309.3,473.58v14.22 M324.48,498.36v49.8 M324.48,473.58v24
	 M284.1,534.78v2.399 M284.88,534.78v2.399 M255.72,506.16h-30.84 M256.5,505.38h-31.62 M255.72,506.16V534 M280.5,534h-24v-28.62
	 M449.7,473.58h-2.58 M449.7,472.8h-2.58 M280.5,534.78h-41.82 M227.28,589.98h2.4 M227.28,590.82h2.4 M284.1,477.18v2.4
	 M284.88,477.18v2.4 M235.32,445.14l-0.36,0.12 M234.96,445.74v-0.48h0.78 M235.74,445.74v-0.48 M232.92,445.74h8.7 M234.96,415.14
	v0.96h6.66 M242.34,416.1v1.74 M234.96,425.94h0.78 M232.5,425.64l1.26,0.24l1.2,0.061v0.42h0.78 M235.74,426.36v-0.42
	 M235.32,426.42l-0.36-0.06 M232.86,425.7l2.46-9.12 M232.5,425.64l2.46-9.12 M242.76,419.22h31.2 M243.24,419.76h30.42
	 M267.72,419.76v9.84 M269.94,419.76v6.181 M243.24,444.84h31.5v0.48 M242.76,445.32h31.98 M232.92,446.64h55.5 M289.26,445.74
	v9.479 M242.34,445.74h46.08 M242.34,416.1h38.16 M242.34,417.84h38.16 M284.88,416.1h3.54 M234.96,415.14h45.54 M284.88,417.84
	h3.54 M242.34,418.86h38.16 M288.42,418.86v15.479 M289.26,415.08v19.26 M274.74,432.84v0.48 M265.56,433.32v11.52 M267.72,433.32
	v11.52 M269.94,433.32v11.52 M272.16,433.32v11.52 M274.32,433.32v11.52 M252.36,431.64v1.2 M251.82,431.1v2.221 M252.36,433.32
	v11.52 M254.52,433.32v11.52 M256.74,433.32v11.52 M258.96,433.32v11.52 M261.12,433.32v11.52 M263.34,433.32v11.52 M274.74,432.84
	h-22.38 M266.52,431.64h-14.16 M274.74,433.32h-22.92 M266.82,431.1h-15 M254.52,419.76v11.34 M256.74,419.76v11.34 M258.96,419.76
	v11.34 M261.12,419.76v11.34 M263.34,419.76v11.34 M265.56,419.76v11.34 M266.4,431.88l7.56-12.66 M235.74,425.94h5.88
	 M241.62,445.74v-19.38h-5.88 M242.34,418.86v26.88 M241.62,416.1v9.841 M243.24,419.76v25.08 M242.76,419.22v26.101 M232.5,435.48
	l1.26,0.239l1.2,0.061 M234.96,435.78l-1.2,0.12l-1.26,0.239 M232.5,435.48l2.46-9.12 M232.86,435.54l2.46-9.12 M232.86,436.02
	l2.46,9.12 M232.5,436.14l2.46,9.12 M400.08,648h53.22 M342.48,648h53.22 M284.88,648h53.22 M280.5,129.12h-53.22 M338.1,129.12
	h-53.22 M395.7,129.12h-53.22 M224.88,299.94v-31.98 M224.88,357.54v-25.8 M224.88,415.14v-27.78 M224.88,472.8v-53.22
	 M224.88,530.4V477.18 M224.88,588v-53.22 M458.58,126.24h0.06 M458.58,650.88h0.06 M222,269.76v381.12 M224.88,645.6v-53.22
	 M513.48,126.24H222 M510.9,129.12H457.68 M222,650.88h294.18 M227.28,648h53.22 M457.68,645.6h-4.38v4.381h4.38V645.6z
	 M400.08,645.6h-4.38v4.381h4.38V645.6z M342.48,645.6H338.1v4.381h4.381V645.6z M284.88,645.6h-4.38v4.381h4.38V645.6z
	 M227.28,645.6h-4.38v4.381h4.38V645.6z M457.68,588h-4.38v4.38h4.38V588z M400.08,588h-4.38v4.38h4.38V588z M342.48,588H338.1v4.38
	h4.381V588z M284.88,588h-4.38v4.38h4.38V588z M227.28,588h-4.38v4.38h4.38V588z M457.68,530.4h-4.38v4.38h4.38V530.4z
	 M400.08,530.4h-4.38v4.38h4.38V530.4z M342.48,530.4H338.1v4.38h4.381V530.4z M284.88,530.4h-4.38v4.38h4.38V530.4z M227.28,530.4
	h-4.38v4.38h4.38V530.4z M457.68,472.8h-4.38v4.38h4.38V472.8z M400.08,472.8h-4.38v4.38h4.38V472.8z M342.48,472.8H338.1v4.38
	h4.381V472.8z M284.88,472.8h-4.38v4.38h4.38V472.8z M227.28,472.8h-4.38v4.38h4.38V472.8z M457.68,415.14h-4.38v4.44h4.38V415.14z
	 M400.08,415.14h-4.38v4.44h4.38V415.14z M342.48,415.14H338.1v4.44h4.381V415.14z M284.88,415.14h-4.38v4.44h4.38V415.14z
	 M227.28,415.14h-4.38v4.44h4.38V415.14z M457.68,357.54h-4.38v4.44h4.38V357.54z M400.08,357.54h-4.38v4.44h4.38V357.54z
	 M342.48,357.54H338.1v4.44h4.381V357.54z M284.88,357.54h-4.38v4.44h4.38V357.54z M227.28,357.54h-4.38v4.44h4.38V357.54z
	 M457.68,299.94h-4.38v4.44h4.38V299.94z M400.08,299.94h-4.38v4.44h4.38V299.94z M342.48,299.94H338.1v4.44h4.381V299.94z
	 M284.88,299.94h-4.38v4.44h4.38V299.94z M227.28,299.94h-4.38v4.44h4.38V299.94z M400.08,242.34h-4.38v4.38h4.38V242.34z
	 M342.48,242.34H338.1v4.38h4.381V242.34z M284.88,242.34h-4.38v4.38h4.38V242.34z M227.28,242.34h-4.38v4.38h4.38V242.34z
	 M457.68,184.74h-4.38v4.38h4.38V184.74z M400.08,184.74h-4.38v4.38h4.38V184.74z M342.48,184.74H338.1v4.38h4.381V184.74z
	 M284.88,184.74h-4.38v4.38h4.38V184.74z M227.28,184.74h-4.38v4.38h4.38V184.74z M457.68,127.14h-4.38v4.38h4.38V127.14z
	 M400.08,127.14h-4.38v4.38h4.38V127.14z M342.48,127.14H338.1v4.38h4.381V127.14z M284.88,127.14h-4.38v4.38h4.38V127.14z
	 M227.28,127.14h-4.38v4.38h4.38V127.14z"/>
<path fill="none" stroke="#000000" stroke-width="0.72" stroke-linecap="round" stroke-linejoin="round" stroke-miterlimit="10" d="
	M394.68,288.42h0.42 M395.1,288.42v0.84h-0.42 M394.32,288.42h0.359v0.84 M386.1,288.42h0.42v0.84h-0.42V288.42z M394.68,280.62v7.8
	 M394.32,280.62v7.8 M394.68,280.62c-4.253-0.163-8.177,3.501-8.16,7.8 M431.7,318.78v-25.02 M430.92,318.78v-14.4 M341.7,267.96
	h-33.66 M369.6,267.96H342.48 M397.5,267.96h-27.12 M344.88,288.42h-2.399 M344.88,289.26h-2.399 M386.1,288.42h-15.72
	 M386.1,289.26h-32.22 M397.5,288.42h0.06 M369.6,288.42h-15.72 M342.48,288.42v-20.46 M341.7,289.26v-21.3 M398.28,289.2v-21.24
	 M397.5,288.42v-20.46 M307.26,327.78v9.78 M308.04,327.78v2.4 M308.04,361.98v22.38 M308.04,360.3v0.54 M308.04,334.2v3.36
	 M308.04,330.96v2.46 M321.66,334.2h-13.62 M307.26,345.96v6.36 M308.04,345.96v5.16 M321.6,351.12h0.061v-0.06 M310.62,351.06v0.06
	 M321.6,351.12h-13.56 M376.74,330.96v2.46 M400.08,361.98h30.84 M377.52,360.84H395.7 M400.08,360.84h30.84 M377.52,359.4v-25.2
	v26.64 M399.9,350.22v7.32 M411.96,333.42h-34.44 M411.96,337.8v-3.6h-11.7 M411.96,350.82h1.56 M411.96,337.8v13.02V337.8z
	 M413.52,330.96v19.86V330.96z M411.12,337.2l0.24-0.12l0.12-0.3v-1.38 M411.48,335.4l-0.12-0.3l-0.24-0.12 M399.12,350.22v7.32
	V350.22h0.78H399.12z M399.12,341.88h1.14 M400.26,337.8v4.08V337.8z M400.68,335.4v1.38l0.12,0.3l0.3,0.12 M400.68,336.78l0.12,0.3
	l0.3,0.12 M399.12,334.2v7.68 M400.26,337.8v-3.6 M399.12,334.2v7.68 M400.26,337.8v-3.6 M400.68,336.78v-1.38 M403.5,335.4
	l-0.12-0.3l-0.3-0.12 M407.52,335.4l-0.119-0.3l-0.301-0.12 M407.1,334.98h-1.979l-0.3,0.12l-0.12,0.3 M409.08,334.98l-0.24,0.12
	l-0.12,0.3 M411.12,334.98h-2.04H411.12z M409.08,334.98l-0.24,0.12l-0.12,0.3 M407.1,334.98h-1.979 M405.12,334.98l-0.3,0.12
	l-0.12,0.3 M407.52,335.4l-0.119-0.3l-0.301-0.12 M403.5,335.4l-0.12-0.3l-0.3-0.12 M403.08,334.98h-1.98H403.08z M408.12,337.8
	H404.1 M411.96,337.8h-3.84H411.96z M403.08,337.2l0.3-0.12l0.12-0.3 M403.5,336.78v-1.38 M407.1,337.2l0.301-0.12l0.119-0.3
	 M404.7,335.4v1.38l0.12,0.3l0.3,0.12 M407.1,337.2h-1.979 M407.52,336.78v-1.38 M408.72,335.4v1.38l0.12,0.3l0.24,0.12
	 M411.12,337.2h-2.04H411.12z M408.72,336.78v-1.38 M408.72,336.78l0.12,0.3l0.24,0.12 M407.52,336.78v-1.38 M407.1,337.2h-1.979
	 M404.7,336.78v-1.38 M404.7,336.78l0.12,0.3l0.3,0.12 M407.1,337.2l0.301-0.12l0.119-0.3 M403.08,337.2l0.3-0.12l0.12-0.3v-1.38
	 M404.1,337.8v-3.6V337.8z M408.12,337.8v-3.6V337.8v-3.6V337.8z M400.26,337.8h3.84v-3.6v3.6 M403.08,337.2h-1.98H403.08z
	 M408.12,337.8h-7.86 M378.72,359.34v1.2 M378.72,360.54h3.601v-1.2 M378.72,359.34h3.601 M388.62,360.54h-3.601v-1.2
	 M385.02,359.34h3.601 M388.62,359.34h-3.601v1.2 M391.14,359.34v1.2 M391.14,360.54h3.601v-1.2 M391.14,359.34h3.601
	 M388.62,359.34v1.2 M394.74,359.34v1.2 M391.14,359.34v1.2 M388.62,359.34v1.2 M391.14,359.34h3.601 M394.08,359.34l0.12-1.14
	l-0.061-1.08 M391.8,359.34c-0.821-1.822,1.063-6.051,2.34-2.22 M387.96,359.34l0.18-1.14l-0.12-1.08 M385.68,359.34
	c-0.82-1.822,1.063-6.051,2.34-2.22 M394.08,359.34l0.12-1.14l-0.061-1.08 M391.8,359.34c-0.821-1.822,1.063-6.051,2.34-2.22
	 M387.96,359.34l0.18-1.14l-0.12-1.08 M385.68,359.34c-0.82-1.822,1.063-6.051,2.34-2.22 M381.66,359.34l0.12-1.14l-0.12-1.08
	 M379.38,359.34l-0.06-0.18l-0.12-1.02l0.12-1.02l0.239-0.78l0.48-0.6l0.479-0.18l0.421,0.18l0.479,0.6l0.24,0.78 M399.12,350.22
	h-3.78 M399.12,350.64h-3.78 M389.58,350.64h-0.6 M383.46,350.64h-0.54 M384.24,350.64h-0.36 M384.24,350.22h-1.32 M390.54,350.64
	H390 M390.54,350.22h-1.5H390.54z M390.54,350.64H390 M384.24,350.22h-1.32 M384.24,350.64h-0.36 M383.46,350.64h-0.54
	 M389.58,350.64h-0.6 M399.12,350.64h-3.78 M399.12,350.22h-3.78 M378.12,350.64h-0.601 M378.12,350.22h-0.601 M377.52,330.96v2.46
	 M390,360.84v-10.2 M383.88,360.84v-10.2 M383.46,360.84v-10.2 M389.58,360.84v-10.2 M378.12,350.22v4.8 M378.12,355.02
	c2.576-0.013,4.845-2.19,4.8-4.8 M384.24,350.22v4.8c2.576-0.013,4.845-2.19,4.8-4.8 M390.54,355.02
	c2.551,0.063,4.863-2.249,4.8-4.8 M390.54,350.22v4.8V350.22z M390.54,355.02c2.551,0.063,4.863-2.249,4.8-4.8 M384.24,350.22v4.8
	 M384.24,355.02c2.576-0.013,4.845-2.19,4.8-4.8 M389.58,360.54v-9.9 M390,360.54v-9.9 M383.46,360.54v-9.9 M383.88,360.54v-9.9
	 M378.12,350.22v4.8c2.576-0.013,4.845-2.19,4.8-4.8 M377.52,330.96v2.46 M326.64,361.98v14.4 M325.8,361.98v22.38 M308.04,384.36
	h6.36 M308.04,385.14h6.36 M326.64,376.38h1.2 M326.64,377.16h1.2 M362.88,333.42v27.42 M362.1,361.98v25.98 M362.88,330.96v29.88
	 M338.88,387.96h1.5 M338.88,388.74h1.5 M483.66,332.34h-0.42v-0.78h0.42V332.34z M475.02,332.34h-0.359 M474.66,332.34v-0.78h0.359
	 M475.02,332.34v-0.78 M475.02,340.2v-7.86h0.421 M475.44,340.2v-7.86 M475.02,340.2c4.396,0.084,8.115-3.46,8.221-7.86
	 M471.06,331.56v0.78h-0.42 M471.06,331.56h0.36v0.78 M471.06,332.34h0.36 M470.64,340.2v-7.86 M471.06,340.2v-7.86 M462.84,332.34
	h-0.42v-0.78h0.42V332.34z M462.84,332.34c0.221,4.428,3.741,7.907,8.22,7.86 M485.28,311.58v-0.42 M485.28,311.16h-0.78v0.42
	 M485.28,311.58h-0.78 M493.14,303.36h-7.859v-0.78 M493.14,302.94h-7.859 M485.28,302.58h-0.78v0.36 M485.28,302.94h-0.78
	 M485.28,311.16c4.349-0.089,7.967-3.866,7.859-8.22 M493.14,296.58h-7.859 M485.28,296.94v-0.78h7.859 M485.28,296.58h-0.78v0.36
	 M485.28,296.94h-0.78 M485.28,287.94v0.42 M485.28,287.94h-0.78v0.42 M493.14,296.58c0.083-4.727-3.934-8.513-8.64-8.22
	 M458.34,328.74h-7.859 M450.48,329.16v-0.78h7.859 M450.48,328.74h-0.78v0.42 M450.48,329.16h-0.78 M450.48,320.16v0.42
	 M450.48,320.16h-0.78v0.42 M458.34,328.74c0.035-4.704-3.918-8.508-8.64-8.16 M450.48,320.16v-52.2 M449.7,320.16v-53.4
	 M450.48,331.56v-2.4 M450.48,359.34v-27 M473.82,359.34H457.68 M485.28,299.34v-2.4 M462.42,331.56H450.48 M462.42,332.34H450.48
	 M473.82,332.34h-2.4 M474.66,331.56h-3.24 M484.5,302.58v-5.64 M485.28,302.58v-2.4 M485.28,287.94v-19.98 M484.5,287.94v-19.98
	 M308.04,330.96h54.06 M308.04,330.18h57.24 M346.5,360.54h-3.6 M342.9,360.54v-1.2h3.6 M346.5,359.34v1.2 M353.1,360.54h-3.6
	 M352.44,359.34l0.119-1.14l-0.119-1.08 M350.16,359.34l-0.061-0.18l-0.119-1.02l0.119-1.02l0.24-0.78l0.48-0.6l0.479-0.18
	l0.42,0.18l0.48,0.6l0.24,0.78 M349.5,360.54v-1.2h3.6 M353.1,359.34v1.2 M356.76,359.34v1.2h3.601 M356.76,359.34h3.601v1.2
	 M359.7,359.34l0.18-1.14l-0.12-1.08 M357.42,359.34c-0.743-2.399,1.232-5.822,2.34-2.22 M362.1,350.22H360.9 M362.1,350.64h-1.26
	 M355.08,360.54v-9.9h1.02 M354.66,350.64v9.9 M356.1,350.22v4.8c2.516,0,4.884-2.235,4.801-4.8 M347.46,350.64h-0.96
	 M354.66,350.64h-1.021 M348.9,350.64h-1.021 M348.9,350.22h-2.4 M356.1,350.22H353.7 M341.7,350.64h-1.021 M340.68,348.9v1.32
	h1.021 M347.88,350.64v9.9 M347.46,350.64v9.9 M340.32,357.54v-8.64 M340.68,357.54v-6.9 M348.9,350.22v4.8 M348.9,355.02
	c2.549,0.016,4.854-2.203,4.8-4.8 M341.7,350.22v4.8c2.551,0.063,4.862-2.249,4.8-4.8 M308.04,345.96h-0.78 M320.28,350.28H309
	 M322.86,352.32H307.26 M308.04,337.56h-0.78 M320.28,350.28L309,334.74v15.54 M326.52,336.78l0.12,0.3l0.301,0.12 M326.94,334.98
	l-0.301,0.12l-0.12,0.3 M325.92,337.8v-3.6 M326.52,336.78v-1.38 M320.28,334.74H309 M321.66,334.2v16.86 M320.28,334.74v15.54
	 M322.86,334.2v18.12 M309,350.28l11.28-15.54 M340.32,340.62h0.359 M333.66,337.2l0.3-0.12l0.12-0.3 M334.08,335.4l-0.12-0.3
	l-0.3-0.12 M334.68,337.8h-4.02 M334.68,334.2h-4.02 M331.26,336.78l0.12,0.3l0.3,0.12 M331.68,334.98l-0.3,0.12l-0.12,0.3
	 M330.66,337.8v-3.6 M331.26,336.78v-1.38 M333.66,337.2h-1.98 M333.66,334.98h-1.98 M334.68,337.8v-3.6 M334.08,336.78v-1.38
	 M338.82,336.78v-1.38 M339.42,337.8v-3.6 M338.46,334.98h-2.04 M338.46,337.2h-2.04 M336.06,336.78v-1.38 M335.46,337.8v-3.6
	 M336.42,334.98l-0.24,0.12l-0.12,0.3 M336.06,336.78l0.12,0.3l0.24,0.12 M339.42,334.2h-3.96 M339.42,337.8h-3.96 M338.82,335.4
	l-0.12-0.3l-0.24-0.12 M338.46,337.2l0.24-0.12l0.12-0.3 M325.92,337.8h4.021 M325.92,334.2h4.021 M328.92,337.2l0.3-0.12l0.12-0.3
	 M329.34,335.4l-0.12-0.3l-0.3-0.12 M329.94,337.8v-3.6 M329.34,336.78v-1.38 M326.94,337.2h1.979 M326.94,334.98h1.979
	 M340.32,340.62v-6.42 M340.68,340.62v-6.42 M345.78,334.2v1.2 M343.08,336.3l0.12,0.48l0.359,0.3l0.421,0.12l0.479-0.12l0.3-0.3
	l0.12-0.48 M353.1,334.2h-3.6 M353.1,334.2v1.2h-3.6 M349.5,334.2v1.2 M345.78,334.2h-3.601 M342.18,335.4h3.601 M360.36,334.2
	h-3.601 M360.36,334.2v1.2h-3.601 M356.76,334.2v1.2 M345.78,335.4l-0.42,0.12l-0.36,0.36l-0.12,0.42 M353.1,335.4l-0.479,0.12
	l-0.3,0.36l-0.12,0.42 M350.4,336.3l-0.12-0.42l-0.36-0.36l-0.42-0.12 M350.4,336.3l0.119,0.48l0.301,0.3l0.479,0.12l0.42-0.12
	l0.36-0.3l0.12-0.48 M360.36,335.4l-0.42,0.12l-0.36,0.36l-0.12,0.42 M357.66,336.3l-0.12-0.42l-0.3-0.36l-0.48-0.12 M357.66,336.3
	l0.12,0.48l0.359,0.3l0.42,0.12l0.48-0.12l0.3-0.3l0.12-0.48 M362.1,330.96v2.46 M362.88,331.14v29.7 M308.04,360.84h30.06
	 M305.22,303.54h2.04 M369.6,288.42v-20.46 M370.38,288.42v-20.46 M397.5,289.26h-2.4 M397.5,288.42h-2.4 M341.7,299.94v-1.2
	 M342.48,299.94v-1.2 M400.08,303.54h30.84 M397.5,299.94v-1.2 M398.28,299.94v-1.2 M400.08,304.38h30.84 M305.22,304.38h2.04
	 M484.5,331.56v-19.98 M485.28,331.56v-19.98 M474.66,359.34v-27.78 M473.82,359.34v-27 M289.26,266.76v36.78 M513.3,267.96h-28.02
	 M513.3,299.34h-28.02 M510.9,300.18h-25.62 M513.3,331.56h-28.02 M513.3,332.34h-29.64 M453.3,360.18h-2.819 M453.3,359.34h-2.819
	 M510.9,360.18H476.52 M510.9,359.34h-36.24 M350.7,388.74V417 M349.92,388.74v29.04 M400.08,419.58v29.22 M399.3,419.58v29.22
	 M399.3,361.98v25.98 M395.7,417.78h-2.4 M395.7,417h-2.4 M338.1,408.54h-30.06 M338.88,361.98v25.98 M338.88,419.58v29.22
	 M338.1,419.58v29.22 M338.1,361.98v14.4 M338.1,409.38h-30.06 M397.68,592.38v53.22 M397.68,534.78V588 M397.92,592.38v53.22
	 M397.92,534.78V588 M339.9,489.78h-14.58 M339.9,487.38h-14.58 M327.12,534.78V534h0.36 M327.12,534.78h-0.42V534 M327.12,534
	h-0.42 M335.28,534h0.42v0.78h-0.42V534z M335.28,534c0.017-4.267-3.901-8.006-8.16-7.86 M327.48,526.14V534 M327.12,526.14V534
	 M338.1,534.78H335.7 M326.7,534.78h-1.38 M326.7,534h-1.38 M338.1,534H335.7 M346.68,497.58v-0.78h0.42 M346.68,497.58h-0.359
	v-0.78 M346.68,496.8h-0.359 M354.9,496.8h0.42v0.78h-0.42V496.8z M354.9,496.8c-0.09-4.349-3.866-7.967-8.221-7.859 M347.1,488.94
	v7.859 M346.68,488.94v7.859 M397.5,497.58v32.82 M393.3,496.8h4.2 M366.84,496.8h20.04 M355.32,496.8h10.739 M393.3,497.58h4.2
	 M355.32,497.58h31.56 M366.06,473.58H346.32 M376.92,473.58h-10.08 M377.28,473.58h0.06 M386.88,473.58h-0.96 M392.52,473.58h-4.8
	 M393.3,497.58h-6.42 M392.52,496.8h-4.8 M386.88,473.58v23.22 M393.3,473.58v23.22 M392.52,473.58v23.22 M392.52,496.8l-4.8-23.22
	v23.22 M392.52,473.58l-4.8,23.22 M345.48,473.58l-4.801,23.22 M340.68,477.18l4.801,19.62 M345.48,473.58h-3 M345.48,496.8h-4.801
	 M346.32,473.58v24 M345.48,473.58v23.22 M346.32,497.58h-6.42 M430.92,506.58h0.78 M458.52,548.4v0.42 M458.52,548.82h-0.84v-0.42
	 M451.56,548.1h6.12v0.301 M451.56,548.4h6.96 M457.68,541.62h0.84v0.36h-0.84V541.62z M457.68,541.98
	c-3.538,0.307-6.024,2.831-6.12,6.42 M457.68,548.82v2.76 M458.52,548.82v2.76h12.961 M458.52,540.78h3.961v0.84 M450.48,537.96
	h7.199v3.66h4.801 M458.52,531.18v9.601 M472.32,563.4v0.42 M472.32,563.82h-0.84v-0.42"/>
<path fill="none" stroke="#000000" stroke-width="0.72" stroke-linecap="round" stroke-linejoin="round" stroke-miterlimit="10" d="
	M436.26,346.38h-0.42v-0.84 M444.42,337.74c-4.337-0.186-8.138,3.473-8.16,7.8h-0.42 M431.7,292.98v-25.02 M431.7,293.76h9v-0.78
	 M431.7,330.18v-2.4 M431.7,330.96h7.5 M431.7,330.18h7.5 M449.7,346.38h-4.86 M449.7,345.42h-4.86 M435.84,345.42h-4.14
	 M435.84,346.38h-4.14 M439.2,330.18v0.78 M431.7,292.98h9 M442.5,267.72h7.2 M442.5,266.76v19.62h-1.02 M441.48,267.96v18.42
	 M442.5,269.76h7.2 M442.5,271.74h7.2 M442.5,273.72h7.2 M442.5,275.76h7.2 M442.5,277.74h7.2 M442.5,279.72h7.2 M442.5,281.76h7.2
	 M442.5,283.74h7.2 M442.5,285.78h7.2 M442.5,266.76H308.04 M288.42,330.18v0.36h0.84 M288.42,330.54v0.42h0.84 M289.26,330.54v0.42
	 M280.62,330.54h7.8 M280.62,330.18h7.8 M289.26,321.96h-0.84v0.42h0.84V321.96z M288.42,322.38c-4.358,0.035-7.95,3.805-7.8,8.16
	 M280.62,353.46h7.8 M280.62,353.88h7.8 M289.26,353.88v0.42 M289.26,354.3h-0.84v-0.42 M289.26,353.88h-0.84v-0.42 M288.42,345.3
	h0.84v0.36h-0.84V345.3z M288.42,345.66c-4.379,0.211-7.946,3.781-7.8,8.22 M288.42,411.96v0.42h0.84 M288.42,412.38v0.36h0.84
	 M289.26,412.38v0.36 M280.62,412.38h7.8 M280.62,411.96h7.8 M289.26,403.74h-0.84v0.42h0.84V403.74z M288.42,404.16
	c-4.425,0.249-7.924,3.717-7.8,8.22 M288.42,412.74v2.399 M289.26,412.74v21.6 M288.42,354.3v32.28 M289.26,354.3v49.44
	 M289.26,330.96v0.78 M288.42,331.74v13.56 M458.34,432.6h-7.859 M450.48,432.18v0.78h7.859 M450.48,432.6h-0.78v-0.42
	 M450.48,432.18h-0.78 M450.48,441.18v-0.42 M450.48,441.18h-0.78v-0.42 M450.48,440.76h-0.78 M450.48,440.76
	c4.267,0.018,8.006-3.9,7.859-8.16 M450.48,392.46h-0.78 M449.7,392.46v-0.42h0.78 M458.34,391.62h-7.859v0.84 M458.34,392.04
	h-7.859 M450.48,383.82h-0.78 M449.7,383.82v-0.36h0.78 M458.34,392.04c0.075-4.408-3.486-8.043-7.859-8.22v-0.36 M450.48,431.4
	v-38.16 M449.7,432.18v-39.72 M449.7,383.46v-54.3 M450.48,383.46v-23.28 M484.5,331.56h-0.84 M441.48,267.96h-9.78 M484.5,267.96
	h-34.02 M471.48,572.82v-9 M325.32,534.78V648 M324.48,549v40.98 M324.48,590.82V618.6 M324.48,619.38V648 M296.1,498.36h-0.78
	 M324.48,498.36H307.38 M309.3,496.8h-0.78 M296.1,497.58h-1.62 M308.52,497.58h-1.14 M324.48,497.58H309.3 M324.48,473.58H306.84
	 M232.92,445.74h-0.36 M232.56,445.74v0.899h0.36 M232.92,446.64v-0.899 M225.24,445.74h-0.36v0.899 M225.24,445.74v0.899h-0.36
	 M225.24,453.42v-6.78h0.36 M225.6,453.42v-6.78 M225.24,453.42c3.887,0.115,7.117-2.888,7.32-6.78 M289.26,464.22h-0.84
	 M289.26,455.22h-0.84 M288.42,455.22v0.36h0.84 M289.26,456v-0.78 M288.42,464.22v-0.42h0.84 M289.26,464.22v-0.42 M289.26,463.8
	c4.424-0.153,7.941-3.775,7.8-8.22 M297.06,456h-7.8 M297.06,455.58h-7.8 M288.42,464.22v8.58 M289.26,464.22v8.58 M288.42,434.76
	c-4.327,0.022-7.986,3.823-7.8,8.16 M288.42,434.34h0.84v0.42h-0.84V434.34z M289.26,442.92v0.42 M289.26,443.34h-0.84v-0.42
	 M280.62,442.56h7.8v0.36 M280.62,442.92h8.64 M289.26,443.34v6.24 M288.42,443.34v2.4 M288.42,446.64v8.58 M235.32,416.58
	l-0.36-0.061 M284.88,418.86h3.54 M284.88,415.14h3.54 M288.42,418.86v15.479 M288.42,416.1v1.74 M256.26,279.36h0.78
	 M256.26,270.36v0.36h-7.86 M256.26,270.36h0.78v0.36h-0.78v0.42 M248.4,271.14h7.86 M248.4,270.72
	c0.04,4.818,3.818,8.436,8.64,8.22 M257.04,279.36v-0.42 M256.26,279.36v-0.42 M268.08,304.38c-0.131-4.372-3.84-7.938-8.22-7.86
	 M259.86,296.52v7.86 M260.28,296.52v7.86 M259.86,304.38h-0.42 M259.44,304.38v0.78h0.42 M260.28,304.38h-0.42v0.78 M268.44,304.38
	h-0.36v0.78h0.36V304.38z M257.04,270.36v-2.4h31.38 M256.26,270.36v-2.4 M268.44,305.16h19.98 M268.44,304.38h12.06 M256.26,267.96
	h-31.38 M257.04,304.38h2.4 M256.26,304.38v-25.02 M257.04,304.38v-25.02 M284.88,304.38h3.54 M224.88,305.16h34.56 M227.28,304.38
	h28.98 M513.3,266.76h-63.6 M348.96,387.96c-0.169-4.491-3.756-7.841-8.22-7.86 M340.74,380.1v7.86 M341.16,380.1v7.86
	 M340.74,387.96h-0.36 M340.38,387.96v0.78h0.36 M341.16,387.96h-0.42v0.78 M349.38,387.96h-0.42v0.78h0.42V387.96z M336.42,376.38
	c-0.073-4.326-3.888-7.99-8.22-7.86 M328.2,368.52v7.86 M328.62,368.52v7.86 M328.2,376.38h-0.36 M327.84,376.38v0.78h0.36
	 M328.62,376.38h-0.42v0.78 M336.84,376.38h-0.42v0.78h0.42V376.38z M327.84,384.36v0.78 M338.1,385.14h-1.26v-0.78 M336.84,384.36
	h1.26 M336.84,377.16h1.26 M336.84,376.38h1.26 M342.48,361.98H362.1 M338.1,377.16v7.2 M314.82,385.14h-0.42v-0.78h0.42V385.14z
	 M323.04,384.36v0.78h-0.42 M323.04,384.36h0.36v0.78 M323.04,385.14h0.36 M314.82,385.14c0.069,4.375,3.864,7.953,8.22,7.86
	 M322.62,393v-7.86 M323.04,393v-7.86 M307.26,387.96v-0.42 M308.04,396.54h-0.78v-0.36 M308.04,387.54h-0.78 M308.04,387.96h-0.78
	 M308.04,388.38v-0.84 M308.04,396.54v-0.36h-0.78 M308.04,396.18c4.501-0.272,7.801-3.701,7.86-8.22 M315.9,388.38h-7.86
	 M315.9,387.96h-7.86 M308.04,385.14v2.4 M326.64,377.16v7.2h1.2 M326.64,361.98h11.46 M307.26,396.54v15.24 M308.04,396.54v12
	 M323.4,385.14h4.439 M323.4,384.36h2.399 M338.88,388.74v26.399 M338.1,385.14v23.4 M338.1,409.38v5.76 M394.5,388.74h4.8
	 M350.7,388.74h34.8 M394.5,387.96h4.8 M362.88,387.96h22.62 M349.38,388.74h0.54 M349.38,387.96h12.72 M392.88,417h0.42 M393.3,417
	v0.78h-0.42 M392.52,417h0.36v0.78 M384.3,417h0.42v0.78h-0.42V417z M392.88,409.14V417 M392.52,409.14V417 M392.88,409.14
	c-4.218-0.182-8.252,3.595-8.16,7.86 M384.3,417h-33.6 M384.3,417.78h-34.38 M308.04,420.36h-0.78 M307.26,420.36v0.42h0.78
	 M308.04,420.78v-0.42 M308.04,411.78h-0.78 M307.26,411.78v0.359h0.78 M315.9,412.56h-7.86v-0.779 M308.04,420.36
	c4.491-0.169,7.841-3.757,7.86-8.221h-7.86 M308.04,409.38v2.4 M338.1,448.8h-30.06 M308.04,420.78v27.96 M360.9,449.58H307.26
	v-28.8 M360.9,448.8H338.88 M378.06,448.8v0.78 M378.06,449.58H377.7v-0.78h-0.42 M377.7,448.8h0.359 M361.26,448.8H360.9
	 M360.9,448.8v0.78h0.359 M361.26,448.8v0.78 M361.26,440.94v7.859h0.42 M361.68,440.94v7.859 M377.7,440.94
	c-4.397-0.064-8.136,3.43-8.22,7.859c-0.132-4.372-3.841-7.938-8.221-7.859 M377.28,440.94v7.859 M377.7,440.94v7.859 M431.7,416.58
	h-0.78v-0.36h0.78V416.58z M430.92,407.58V408h-7.86 M430.92,407.58h0.78V408h-0.78v0.42 M423.06,408.42h7.86 M423.06,408
	c-0.055,4.415,3.454,8.053,7.86,8.22 M431.7,407.58v-34.2 M430.92,407.58v-2.4 M430.92,373.38v31.08 M431.7,373.38h-0.78v-0.42h0.78
	V373.38z M430.92,364.38v0.36h-7.86 M430.92,364.38h0.78v0.36h-0.78v0.42 M423.06,365.16h7.86 M423.06,364.74
	c-0.028,4.444,3.378,8.088,7.86,8.22 M430.92,364.38v-2.4 M431.7,358.02v6.36 M431.7,358.44h-0.78v-0.42 M423.06,357.6h7.86v0.42
	 M423.06,358.02h8.641 M430.92,349.38h0.78v0.42h-0.78V349.38z M430.92,349.8c-4.407,0.167-7.915,3.805-7.86,8.22 M321.66,352.68
	v-0.36h0.78 M322.44,352.68v-0.36 M321.66,352.68h0.78v0.36 M321.66,360.3v-0.36 M321.66,360.3h0.78v-0.36 M322.44,359.94h-0.78
	 M322.44,359.94c3.982-0.091,6.823-3.367,6.899-7.26 M329.34,352.68h-6.899 M329.34,353.04h-6.899 M307.26,360.3v-0.36h0.78
	 M308.04,360.3v-0.36 M308.04,352.32h-0.78 M307.26,352.32v0.36h0.78 M314.94,353.04h-6.9v-0.72 M308.04,359.94
	c3.897-0.018,6.932-3.445,6.9-7.26h-6.9 M430.92,303.54v-35.58 M374.28,361.98h-0.42v-1.14h0.42V361.98z M365.7,361.98h-0.42
	 M365.28,361.98v-1.14h0.42 M366.06,361.98H365.7v-1.14 M365.7,361.98v7.5c4.393,0.121,7.896-3.094,8.16-7.5 M366.06,369.48v-7.5
	 M374.28,330.96h-0.42v-0.78h0.42V330.96z M365.7,330.96h-0.42 M365.28,330.96v-0.78h0.42 M366.06,330.96H365.7v-0.78 M365.7,330.96
	v7.86c4.476-0.044,7.967-3.38,8.16-7.86 M366.06,338.82v-7.86 M307.26,387.54V360.3h0.78 M321.66,360.3v0.54 M322.44,360.3v0.54
	 M340.68,348.9h-0.359 M342.48,360.84H362.1 M343.08,336.3l-0.12-0.42l-0.3-0.36l-0.48-0.12v-1.2 M375.06,330.96v2.46
	 M413.52,330.96h17.4 M399.12,334.2H377.52 M411.96,333.42v-2.46 M376.74,334.2h-2.46 M376.74,333.42h-1.681 M376.74,334.2v26.58
	 M377.52,330.96h34.44 M362.88,387.96v-25.98h2.4 M362.88,360.84h2.4 M362.88,361.98v25.98V361.98z M362.1,334.2v26.64
	 M362.88,330.96h2.4 M374.28,361.98h21.42 M374.28,360.84h2.46 M374.28,330.18v4.02 M375.06,330.96h1.681 M374.28,330.18h56.64
	 M362.1,334.2H322.86 M362.1,333.42h-54.06 M431.7,349.38v-3 M430.92,349.38v-18.42 M430.92,360.84v-2.4 M430.92,330.18v-2.4
	 M308.04,304.38v14.4 M308.04,327.36h-0.78 M307.26,327.36v0.42h0.78 M308.04,326.94v0.42 M315.9,327.36h-7.86v0.42 M315.9,326.94
	h-7.86 M308.04,318.78h-0.78 M307.26,318.78v0.36h0.78 M315.9,327.36c-0.06-4.519-3.359-7.947-7.86-8.22v-0.36 M431.7,327.36v0.42
	 M431.7,327.78h-0.78v-0.42 M423.06,326.94h7.86v0.42 M423.06,327.36h8.641 M430.92,318.78h0.78v0.36h-0.78V318.78z M430.92,319.14
	c-4.407,0.167-7.915,3.804-7.86,8.22 M342.48,289.26v0.48 M341.7,289.26v0.48 M342.48,298.38v0.36 M342.48,298.74h-0.78v-0.36
	 M333.84,297.96h7.86v0.42 M333.84,298.38h8.641 M341.7,289.74h0.78v0.42h-0.78V289.74z M341.7,290.16
	c-4.491,0.169-7.841,3.756-7.86,8.22 M397.5,289.74v-0.48 M398.28,289.2v0.54 M406.14,298.38h-7.859 M398.28,298.74v-0.78h7.859
	 M398.28,298.38h-0.78v0.36 M398.28,298.74h-0.78 M398.28,289.74v0.42 M398.28,289.74h-0.78v0.42 M406.14,298.38
	c0.083-4.727-3.934-8.513-8.64-8.22 M353.52,288.42h0.36 M353.88,288.42v0.84h-0.36 M353.1,288.42h0.42v0.84 M344.88,288.42h0.42
	v0.84h-0.42V288.42z M353.52,280.62v7.8 M353.1,280.62v7.8 M353.52,280.62c-4.311-0.184-8.152,3.485-8.22,7.8"/>
<path fill="none" d="M65.34,30.36 M572.82,30.36H65.34v700.56h507.48V30.36z"/>
<rect fill="none" width="612" height="792"/>
<path fill="none" stroke="#000000" stroke-width="0.72" stroke-linecap="round" stroke-linejoin="round" stroke-miterlimit="10" d="
	M385.92,472.8h-0.42H385.92z M385.5,473.58h-0.42H385.5z M385.92,473.58h-0.42H385.92z M377.28,473.58h-0.36H377.28z M377.28,472.8
	h-0.36H377.28z"/>
<path fill="none" stroke="#000000" stroke-width="0.72" stroke-linecap="round" stroke-linejoin="round" stroke-miterlimit="10" d="
	M385.5,387.96v0.78 M394.08,388.74h0.42v-0.78 M393.72,388.74h0.36v-0.78h0.42 M385.5,388.74h0.42v-0.78h-0.42V388.74z
	 M394.08,396.6v-7.859 M393.72,396.6v-7.859 M385.92,388.74c-0.031,4.359,3.837,7.928,8.16,7.859 M402.9,466.8h-0.78 M402.9,455.58
	h-0.78 M402.12,466.8v6 M402.9,466.8v6 M402.12,449.58v6 M402.9,449.58v6"/>
<path fill="none" stroke="#000000" stroke-width="0.72" stroke-linecap="round" stroke-linejoin="round" stroke-miterlimit="10" d="
	M377.28,473.58v-0.78 M376.92,473.58v-0.78 M385.5,473.52v-0.72 M385.92,473.58v-0.78 M377.28,473.58
	c0.209,4.432,3.773,7.844,8.22,7.8 M385.08,481.38v-7.8 M385.5,481.38v-7.86 M366.06,473.58v23.22 M366.84,473.58v23.22
	 M306.78,490.56v7.021h0.359 M307.14,490.5v7.08 M307.14,490.5c-3.315,0.377-5.91,3.785-5.399,7.08 M296.7,490.56v7.021h-0.36
	 M301.74,497.58c0.374-3.496-1.966-6.552-5.4-7.08v7.08 M309.3,488.16v-0.36 M296.34,497.58h-0.24 M296.1,497.58v0.78h0.24
	 M296.34,497.58v0.78 M307.14,497.58v0.78 M307.14,498.36h0.24v-0.78 M307.14,497.58h0.24 M308.52,487.8h0.78 M308.52,487.8v0.36
	h0.78 M300.66,496.38h7.859 M309.3,496.38h-0.78v-0.42 M300.66,495.96h7.859 M308.52,496.38v0.42h0.78 M309.3,496.38v0.42
	 M308.52,488.16c-4.372,0.131-7.938,3.84-7.859,8.22 M308.04,303.54h30.06 M308.04,304.38h30.06 M307.26,304.38v14.4 M289.26,303.54
	h0.78v0.84h-0.78v17.58 M290.04,303.54h0.72 M290.04,303.54v0.84h0.36 M290.4,303.54v0.84 M290.76,296.46v7.08 M297.66,303.54
	c0.007-4.017-3.247-7.204-7.26-7.08v7.08 M304.86,304.38v-0.84h-0.36 M304.86,304.38h0.36v-0.84 M304.86,303.54h0.36 M304.5,296.46
	v7.08 M304.86,296.46v7.08 M304.86,296.46c-3.853-0.208-7.346,3.232-7.2,7.08 M484.68,432.18V393.24 M484.68,477.18v-36.42
	 M449.7,431.76h25.979 M484.32,432.18h0.779 M475.32,432.18V431.4 M483.9,432.18h0.42 M483.9,423.54v7.86 M484.32,431.4h-0.84v-7.86
	 M483.9,431.4v0.779h0.42 M484.32,431.4v0.779 M475.32,431.4h0.359 M483.9,423.54c-4.572-0.221-8.591,4.112-8.221,8.64h-0.359
	 M485.1,432.18V393.24 M484.32,432.6v-0.42 M484.32,441.18h0.779 M492.96,432.6h-7.86 M485.1,432.18v0.78h7.86 M485.1,432.6h-0.779
	v-0.42 M485.1,432.18h-0.779 M485.1,441.18v-0.42 M485.1,441.18h-0.779v-0.42 M485.1,440.76h-0.779 M485.1,440.76
	c4.334-0.027,7.92-3.854,7.86-8.16 M484.32,432.18V393.24 M484.32,477.18v-36.42 M485.1,477.18v-36.42 M450.48,431.4h25.199
	 M449.7,432.18h25.979 M339.9,497.58v32.82 M224.88,386.58v-24.6 M288.42,387.36v16.38 M224.88,386.58h63.54 M224.88,387.36h63.54
	 M224.88,330.96h0.06 M224.88,330.96v0.78 M289.26,331.38h-0.84 M289.26,331.74v13.56 M288.42,331.74h-63.54 M224.88,305.16v25.8
	h64.38 M224.88,332.16v0.78 M475.68,383.46v-23.28h-18 M475.68,383.88v-0.06 M476.52,383.46v-23.28 M476.52,392.46h-0.84
	 M475.68,392.46v-0.42h0.84 M484.32,391.62h-7.801v0.84 M484.32,392.04h-7.801 M476.52,383.82h-0.84 M475.68,383.82v-0.36h0.84
	 M484.32,392.04c0.146-4.439-3.421-8.009-7.801-8.22v-0.36 M513.3,392.46v-30.48 M513.3,393.24h-63.6 M513.3,392.46h-63.6
	 M187.38,109.44H513.48 M516.18,186.12v-79.8 M222.9,141.6h-0.78 M222.9,133.92h-0.78 M222.12,133.92v0.36h0.78 M229.8,134.64h-6.9
	v-0.72 M222.9,141.6c4.067-0.294,6.803-3.273,6.9-7.32h-6.9 M222.9,191.52v-2.4 M229.8,192.24h-6.9v-0.36 M222.9,199.2
	c4.107-0.341,6.787-3.208,6.9-7.32h-6.9 M222.12,191.52v0.36h0.78 M222.9,191.52v0.36 M222.9,206.82h-0.78 M222.12,206.82v-0.36
	h0.78 M229.8,206.1h-6.9v0.72 M229.8,206.46h-6.9 M229.8,206.46c-0.076-3.894-2.917-7.169-6.9-7.26 M222.9,191.52h-0.78
	 M229.8,181.62h-6.9v0.36 M229.8,181.98h-6.9 M229.8,181.98c-0.101-4.053-2.827-7.021-6.9-7.32 M222.9,242.34v-35.52 M222.9,184.74
	v-2.4 M222.9,167.04V141.6 M222.9,133.92v-2.4 M222.12,182.34v-0.36h0.78 M222.9,182.34v-0.36 M222.9,167.04h-0.78 M222.12,167.04
	v0.36h0.78 M229.8,167.76h-6.9v-0.72 M222.9,174.66c4.039-0.119,6.829-3.303,6.9-7.26h-6.9 M222.9,182.34h-0.78 M222.12,191.52v-2.7
	 M222.12,167.04V141.6 M222.12,133.92v-4.8 M222.12,244.32H185.7 M222.9,246.72h-39.6 M289.26,282.72h18 M289.26,280.74h18
	 M289.26,278.76h18 M289.26,276.72h18 M289.26,274.74h18 M289.26,272.76h18 M289.26,270.72h18 M289.26,268.74h18 M289.26,266.76h18
	 M303.66,246.72h3.6 M293.22,245.94h-0.36v0.78 M293.22,245.94v0.78h-0.36 M293.64,251.7v-4.98h-0.42v5.04 M293.22,251.76
	c2.785,0.081,5.047-2.348,5.04-5.04 M298.26,246.72c-0.069,2.707,2.255,5.101,4.98,5.04 M303.24,251.76v-5.04h-0.42v4.98
	 M303.66,246.72h-0.42v-0.78 M303.66,246.72v-0.78h-0.42 M288.42,267.96v36.42 M303.66,245.94h4.38 M308.04,267.96v35.58
	 M284.88,245.94h7.98 M227.28,245.94h53.22 M284.88,246.72h7.98 M227.28,246.72h53.22 M513.3,266.76v-20.04 M170.1,184.74h-4.38
	v4.38h4.38V184.74z M170.1,127.14h-4.38v4.38h4.38V127.14z M222.12,244.32v-37.5 M222.12,187.62v-5.28 M222,126.24h-57.42
	 M118.44,128.7v-22.38h31.08 M120.84,109.44v16.8 M185.7,188.82h36.42 M515.28,243.36h26.34 M516.18,245.34h27.84 M515.28,188.16
	h26.34 M544.02,245.34v-59.22h-27.84 M541.62,188.16v55.2 M189.78,83.52v22.8 M187.38,85.92v23.52 M149.52,83.52h40.26
	 M152.58,85.92h34.8 M189.78,106.32h326.4 M149.52,128.7v76.44 M152.58,126.24v75.78 M120.84,109.44h31.74 M149.52,83.52v22.8
	 M149.52,205.14h19.2 M152.58,202.02h18.72 M166.98,131.52v53.22 M152.58,85.92v23.52 M164.58,126.24v63.78 M170.1,187.62h52.02
	 M185.7,188.82v55.5 M168.72,205.14v64.62 M171.3,202.02v64.74 M164.58,190.02h18.72v56.7 M168.72,269.76H222 M171.3,266.76H222
	 M170.1,129.12h52.02 M118.44,128.7h31.08 M120.84,126.24h31.74 M513.48,109.44v16.8 M288.42,305.16v16.8 M399.3,448.8h-21.24
	 M399.3,388.74v26.399 M400.08,405.18v9.96 M431.7,345.42v-14.46 M430.92,267.96h-32.64 M289.26,266.76H222 M449.28,292.98h0.42
	 M440.7,292.98h0.42 M449.7,293.76h-0.78 M440.7,293.76h0.42 M449.28,293.76v-0.78 M449.7,293.76v-0.78 M440.7,292.98v0.78
	 M441.12,293.76v-0.78 M449.28,301.62v-7.86 M448.92,301.62v-7.86 M441.12,293.76c0.072,4.454,3.761,7.83,8.16,7.86 M444.84,345.54
	v0.84 M444.84,346.38h-0.42v-0.84 M444.06,337.74v7.8h0.78 M444.42,337.74v7.8 M436.26,345.54v0.84"/>
</svg>
