<?xml version="1.0" encoding="utf-8"?>
<!-- Generator: Adobe Illustrator 16.0.0, SVG Export Plug-In . SVG Version: 6.00 Build 0)  -->
<!DOCTYPE svg PUBLIC "-//W3C//DTD SVG 1.1//EN" "http://www.w3.org/Graphics/SVG/1.1/DTD/svg11.dtd">
<svg version="1.1" xmlns="http://www.w3.org/2000/svg" xmlns:xlink="http://www.w3.org/1999/xlink" x="0px" y="0px" width="612px"
	 height="792px" viewBox="0 0 612 792" enable-background="new 0 0 612 792" xml:space="preserve">
<g id="Layer_1" display="none">
	
		<path display="inline" fill="none" stroke="#000000" stroke-width="0.72" stroke-linecap="round" stroke-linejoin="round" stroke-miterlimit="10" d="
		M450,216.3v56.16h32.04 M484.5,238.74v-0.96 M495.3,238.74v-0.96 M484.5,237.78h0.48v0.96 M484.5,238.74h0.48 M495.3,238.74h-0.479
		v-0.96 M494.82,237.78h0.479 M484.98,238.74v9.84 M484.98,238.74h0.479v9.84 M484.98,248.58c5.503-0.072,9.768-4.337,9.84-9.84
		 M484.5,238.74H483 M484.5,237.78h-2.46 M484.5,203.1v0.96 M495.3,203.1v0.96 M484.5,204.06h0.48v-0.96 M484.5,203.1h0.48
		 M495.3,203.1h-0.479v0.96 M494.82,204.06h0.479 M484.98,203.1v-9.9 M484.98,203.1h0.479v-9.9 M494.82,203.1
		c-0.039-5.526-4.314-9.828-9.84-9.9 M480.48,203.1v0.96 M469.62,203.1v0.96 M480.48,204.06H480v-0.96 M480.48,203.1H480
		 M469.62,203.1h0.479v0.96 M470.1,204.06h-0.479 M480,203.1v-9.9 M480,203.1h-0.48v-9.9 M480,193.2
		c-5.549,0.039-9.861,4.351-9.9,9.9 M482.04,203.1h-1.56 M484.5,204.06h-4.02 M484.5,203.1H483 M469.62,203.1H450 M469.62,204.06
		H450 M482.04,237.78v34.68 M483,238.74v33.72 M482.04,170.58H450 M483,170.58v32.52 M482.04,169.62H450 M482.04,170.58v32.52
		 M450,169.62v-37.38 M515.52,342.78H450 M515.52,341.82H450 M445.92,217.26h3.12 M450,205.5v-1.44 M450,216.3h-5.04v8.94
		 M445.92,217.26v7.98 M450,203.1v-32.52 M444.96,205.5H450 M445.92,204.54h3.12 M484.5,134.7v-1.02 M495.3,134.7v-1.02
		 M484.5,133.68h0.48v1.02 M484.5,134.7h0.48 M495.3,134.7h-0.479v-1.02 M494.82,133.68h0.479 M484.98,134.7v9.84 M484.98,134.7
		h0.479v9.84 M484.98,144.54c5.503-0.072,9.768-4.337,9.84-9.84 M484.5,134.7H483 M496.26,130.8h-0.96 M496.26,120h-0.96
		 M495.3,130.8v-0.48h0.96 M496.26,130.8v-0.48 M496.26,120v0.48h-0.96 M495.3,120.48V120 M496.26,130.32h9.9 M496.26,130.32v-0.48
		h9.9 M506.16,130.32c0.015-5.39-4.497-9.896-9.9-9.84 M495.3,130.8v3.9 M496.26,130.8v2.88 M496.26,101.64V120 M495.3,101.64V120
		 M484.5,100.68v0.96 M495.3,100.68v0.96 M484.5,101.64h0.48v-0.96 M484.5,100.68h0.48 M495.3,100.68h-0.479v0.96 M494.82,101.64
		h0.479 M484.98,100.68v-9.9 M484.98,100.68h0.479v-9.9 M494.82,100.68c-0.039-5.526-4.314-9.828-9.84-9.9 M484.5,101.64h-22.44
		 M484.5,100.68H483 M482.04,100.68h-19.98 M451.26,100.68v0.96 M462.06,100.68v0.96 M451.26,101.64h0.48v-0.96 M451.26,100.68h0.48
		 M462.06,100.68h-0.479v0.96 M461.58,101.64h0.479 M451.74,100.68v-9.9 M451.74,100.68h0.479v-9.9 M461.58,100.68
		c-0.039-5.526-4.314-9.828-9.84-9.9 M451.26,101.64h-2.938 M451.26,100.68h-2.938 M483,134.7v34.92 M482.04,133.68v35.94
		 M447.36,115.14h0.96 M447.36,104.34h0.96 M448.32,115.14v-0.48h-0.96 M447.36,115.14v-0.48 M447.36,104.34v0.48h0.96
		 M448.32,104.82v-0.48 M447.36,114.66h-9.842 M447.36,114.66v-0.48h-9.842 M447.36,104.82c-5.503,0.072-9.77,4.337-9.842,9.84
		 M447.36,115.14v2.94 M448.32,115.14v3.9 M448.32,101.64v2.7 M434.16,182.58H416.1 M444.96,182.1v0.96 M434.16,182.1v0.96
		 M444.96,183.06h-0.479v-0.96 M444.96,182.1h-0.479 M434.16,182.1h0.479v0.96 M434.64,183.06h-0.479 M444.48,182.1v-9.84
		 M444.48,182.1H444v-9.84 M444.48,172.26c-5.507-0.006-9.793,4.398-9.842,9.84 M444.96,183.06v22.44 M378.96,66.54v23.34
		 M378,66.54v24.3 M415.14,133.2v48.9 M434.16,183.06H416.1v-50.82 M434.16,182.1H416.1 M518.94,169.62H483 M518.94,170.58H483
		 M515.52,204.06h-19.26 M515.52,203.1H495.3 M447.36,118.08H413.64 M412.68,63.06v26.82 M413.64,63.06v55.02 M448.32,119.04H412.68
		 M398.52,133.2h-17.88 M415.14,133.2h-5.818 M398.52,132.24h-19.56 M416.1,132.24h-6.778 M515.52,134.7H495.3 M515.52,133.68
		h-19.26 M450,132.24h-5.04 M445.92,135.18v-1.98h3.12 M444.96,132.24v50.82 M519,237.78h-22.74 M519,238.74h-23.7 M515.52,273.42
		H450 M515.52,272.46H483 M518.94,101.64H496.26 M518.94,100.68H495.3 M483,63.06v37.62 M482.04,63.06v37.62 M448.32,67.38v33.3
		 M447.36,67.38v36.96 M449.04,271.5v-38.58 M449.04,202.08v-66.42 M449.04,467.28v-14.7 M312.78,132.24V153 M310.56,136.14h-3.54
		v-2.94 M310.56,135.18h-2.578 M312.78,132.24h62.398V153 M309.6,106.98h-0.96 M309.6,117.84h-0.96 M308.64,106.98v0.48h0.96
		 M309.6,106.98v0.48 M309.6,117.84v-0.48h-0.96 M308.64,117.36v0.48 M309.6,107.46h9.9 M309.6,107.46v0.48h9.9 M309.6,117.36
		c5.475-0.093,9.896-4.356,9.9-9.9 M308.64,117.84v14.4 M309.6,117.84v12.24 M309.6,104.1v2.88 M309.6,101.7h-0.96 M309.6,90.84
		h-0.96 M308.64,101.7v-0.48h0.96 M309.6,101.7v-0.48 M309.6,90.84v0.48h-0.96 M308.64,91.32v-0.48 M309.6,101.22h9.9 M309.6,101.22
		v-0.479h9.9 M319.5,101.22c-0.039-5.549-4.351-9.861-9.9-9.9 M308.64,101.7v5.28 M309.6,101.7v1.44 M274.92,90.84v28.2
		 M277.86,90.84h20.52 M277.56,89.88h20.76 M309.6,130.08h33.24 M309.6,104.1h33.24 M309.6,103.14h33.24 M274.92,89.88h2.94
		 M274.92,90.84h2.94 M342.84,63.06v40.08 M343.8,63.06v40.08 M241.68,479.1h1.02 M241.68,468.24h1.02 M242.7,479.1v-0.479h-1.02
		 M241.68,479.1v-0.479 M241.68,468.24v0.479h1.02 M242.7,468.72v-0.479 M241.68,478.62h-9.84 M241.68,478.62v-0.48h-9.84
		 M241.68,468.72c-5.526,0.072-9.801,4.374-9.84,9.9 M237.66,411.18v-56.16 M241.68,467.28h-3.06 M237.66,468.24V412.14
		 M242.7,479.1v58.5 M242.7,468.24h-5.04 M241.68,344.22h1.02 M241.68,355.02h1.02 M242.7,344.22v0.48h-1.02 M241.68,344.22v0.48
		 M241.68,355.02v-0.48h1.02 M242.7,354.54v0.48 M241.68,344.7h-9.84 M241.68,344.7v0.48h-9.84 M231.84,344.7
		c0.03,5.517,4.355,9.762,9.84,9.84 M241.68,274.86h1.02 M241.68,285.66h1.02 M242.7,274.86v0.48h-1.02 M241.68,274.86v0.48
		 M241.68,285.66v-0.48h1.02 M242.7,285.18v0.48 M241.68,275.34h-9.84 M241.68,275.34v0.48h-9.84 M231.84,275.34
		c0.038,5.481,4.365,9.781,9.84,9.84 M237.66,480.54v-1.44 M241.68,482.94v53.698 M241.68,480.06v1.922 M241.68,482.94h-3.06
		 M242.7,479.1h-5.04 M241.68,481.98h-3.06 M241.68,480.06h-3.06 M172.08,481.5h32.34 M172.08,480.54h65.58 M237.66,341.82v-56.16
		 M238.62,355.98h3.06 M237.66,344.22v-1.44 M237.66,355.02h5.04v76.38 M172.08,412.14h65.58 M172.08,411.18h65.58 M241.68,286.62
		h-3.06 M237.66,274.86v-1.44 M237.66,285.66h5.04v58.56 M238.62,340.86v-54.24 M241.68,355.98v54.24 M241.68,341.34v1.92
		 M238.62,340.86h3.06 M237.66,344.22h5.04 M238.62,343.26h3.06 M238.62,341.34h3.06 M238.62,271.5v-38.58 M241.68,286.62v54.24
		 M241.68,271.98v1.92 M242.7,271.5h-5.04 M242.7,274.86h-5.04 M241.68,273.9h-3.06 M241.68,271.98h-3.06 M238.62,135.66h3.06v66.42
		 M241.68,135.18h-3.06 M241.68,202.56v1.98 M241.68,202.08h-3.06 M241.68,202.56h-3.06 M241.68,205.5h1.02 M241.68,216.3h1.02
		 M242.7,205.5v0.48h-1.02 M241.68,205.5v0.48 M241.68,216.3v-0.48h1.02 M242.7,215.82v0.48 M241.68,205.98h-9.84 M241.68,205.98
		v0.48h-9.84 M231.84,205.98c0.038,5.481,4.365,9.781,9.84,9.84 M237.66,238.74v33.72h-32.1 M203.16,238.74v-0.96 M192.36,238.74
		v-0.96 M203.16,237.78h-0.48v0.96 M203.16,238.74h-0.48 M192.36,238.74h0.48v-0.96 M192.84,237.78h-0.48 M202.68,238.74v9.84
		 M202.68,238.74h-0.48v9.84 M192.84,238.74c0.049,5.464,4.378,9.819,9.84,9.84 M207.18,238.74v-0.96 M218.04,238.74v-0.96
		 M207.18,237.78h0.48v0.96 M207.18,238.74h0.48 M218.04,238.74h-0.48v-0.96 M217.56,237.78h0.48 M207.66,238.74v9.84
		 M207.66,238.74h0.48v9.84 M207.66,248.58c5.443,0.035,9.873-4.421,9.9-9.84 M218.04,238.74h19.62 M218.04,237.78h19.62
		 M205.56,238.74h1.62 M203.16,238.74h1.44 M203.16,237.78h4.02 M203.16,203.1v0.96 M192.36,203.1v0.96 M203.16,204.06h-0.48v-0.96
		 M203.16,203.1h-0.48 M192.36,203.1h0.48v0.96 M192.84,204.06h-0.48 M202.68,203.1v-9.9 M202.68,203.1h-0.48v-9.9 M202.68,193.2
		c-5.486,0.021-9.824,4.413-9.84,9.9 M207.18,203.1v0.96 M218.04,203.1v0.96 M207.18,204.06h0.48v-0.96 M207.18,203.1h0.48
		 M218.04,203.1h-0.48v0.96 M217.56,204.06h0.48 M207.66,203.1v-9.9 M207.66,203.1h0.48v-9.9 M217.56,203.1
		c0.007-5.442-4.434-9.935-9.9-9.9 M205.56,203.1h1.62 M203.16,204.06h4.02 M203.16,203.1h1.44 M218.04,203.1h19.62 M218.04,204.06
		h19.62 M205.56,238.74v33.72 M204.6,238.74v33.72 M205.56,170.58h32.1 M204.6,170.58v32.52 M205.56,169.62h32.1 M205.56,170.58
		v32.52 M237.66,169.62V134.7 M172.08,342.78h65.58 M172.08,341.82h65.58 M241.68,217.26h-3.06 M237.66,205.5v-1.44 M237.66,216.3
		h5.04v8.94 M241.68,217.26v7.98 M237.66,203.1v-32.52 M242.7,205.5h-5.04 M241.68,204.54h-3.06 M236.4,134.7v-1.02 M225.6,134.7
		v-1.02 M236.4,133.68h-0.48v1.02 M236.4,134.7h-0.48 M225.6,134.7h0.48v-1.02 M226.08,133.68h-0.48 M235.92,134.7v9.84
		 M235.92,134.7h-0.48v9.84 M226.08,134.7c0.08,5.463,4.309,9.833,9.84,9.84 M236.4,134.7h1.26 M236.4,133.68h1.26 M205.56,134.7
		h20.04 M203.16,134.7v-1.02 M192.36,134.7v-1.02 M203.16,133.68h-0.48v1.02 M203.16,134.7h-0.48 M192.36,134.7h0.48v-1.02
		 M192.84,133.68h-0.48 M202.68,134.7v9.84 M202.68,134.7h-0.48v9.84 M192.84,134.7c0.049,5.464,4.378,9.819,9.84,9.84
		 M203.16,134.7h1.44 M191.4,130.8h0.96 M191.4,120h0.96 M192.36,130.8v-0.48h-0.96 M191.4,130.8v-0.48 M191.4,120v0.48h0.96
		 M192.36,120.48V120 M191.4,130.32h-9.9 M191.4,130.32v-0.48h-9.9 M191.4,120.48c-5.498,0.026-9.862,4.335-9.9,9.84 M192.36,130.8
		v3.9 M191.4,130.8v2.88 M203.16,133.68h22.44 M191.4,101.64V120 M192.36,101.64V120 M203.16,100.68v0.96 M192.36,100.68v0.96
		 M203.16,101.64h-0.48v-0.96 M203.16,100.68h-0.48 M192.36,100.68h0.48v0.96 M192.84,101.64h-0.48 M202.68,100.68v-9.9
		 M202.68,100.68h-0.48v-9.9 M202.68,90.78c-5.486,0.021-9.824,4.413-9.84,9.9 M203.16,101.64h22.44 M203.16,100.68h1.44
		 M205.56,100.68h20.04 M236.4,100.68v0.96 M225.6,100.68v0.96 M236.4,101.64h-0.48v-0.96 M236.4,100.68h-0.48 M225.6,100.68h0.48
		v0.96 M226.08,101.64h-0.48 M235.92,100.68v-9.9 M235.92,100.68h-0.48v-9.9 M235.92,90.78c-5.554,0.006-9.793,4.414-9.84,9.9
		 M236.4,101.64h2.88 M236.4,100.68h2.88 M204.6,134.7v34.92 M205.56,134.7v34.92 M240.24,115.14h-0.96 M240.24,104.34h-0.96
		 M239.28,115.14v-0.48h0.96 M240.24,115.14v-0.48 M240.24,104.34v0.48h-0.96 M239.28,104.82v-0.48 M240.24,114.66h9.9
		 M240.24,114.66v-0.48h9.9 M250.14,114.66c-0.072-5.526-4.374-9.801-9.9-9.84 M240.24,115.14v2.94 M239.28,115.14v3.9
		 M239.28,101.64v2.7 M253.5,182.58h18.06 M272.52,182.1h2.88 M271.56,183.06h3.84 M242.7,182.1v0.96 M253.5,182.1v0.96
		 M242.7,183.06h0.48v-0.96 M242.7,182.1h0.48 M253.5,182.1h-0.48v0.96 M253.02,183.06h0.48 M243.18,182.1v-9.84"/>
	
		<path display="inline" fill="none" stroke="#000000" stroke-width="0.72" stroke-linecap="round" stroke-linejoin="round" stroke-miterlimit="10" d="
		M461.58,652.56h0.479 M451.74,653.52v9.842 M451.74,653.52h0.479v9.842 M451.74,663.36c5.463-0.08,9.833-4.311,9.84-9.842
		 M447.36,639.72h0.96 M447.36,650.58h0.96 M448.32,639.72v0.48h-0.96 M447.36,639.72v0.48 M447.36,650.58v-0.48h0.96 M448.32,650.1
		v0.48 M447.36,640.2h-9.842 M447.36,640.2v0.479h-9.842 M437.52,640.2c-0.034,5.437,4.454,9.876,9.842,9.898 M483,584.34v34.92h1.5
		 M482.04,619.26v-34.92 M495.3,621.66v-2.4 M496.26,621.66v-1.44 M484.5,620.22h-3.9 M496.26,652.56v-20.04 M495.3,653.52v-21
		 M484.5,653.52H483 M484.5,652.56h-22.44 M451.26,652.56h-2.938 M451.26,653.52h-2.938 M482.04,653.52h-19.98 M518.94,583.38h-35.7
		 M518.94,584.34H483 M483,690.84v-37.32 M482.04,690.84v-37.32 M518.94,652.56H496.26 M518.94,653.52H495.3 M448.32,639.72v-3.84
		 M447.36,639.72v-2.88 M408.84,670.38v-0.96 M398.04,670.38v-0.96 M408.84,669.42h-0.479v0.96 M408.84,670.38h-0.479
		 M398.04,670.38h0.479v-0.96 M398.52,669.42h-0.479 M408.36,670.38v9.84 M408.36,670.38h-0.48v9.84 M398.52,670.38
		c-0.035,5.461,4.398,9.853,9.842,9.84 M408.84,670.38h2.88 M411.72,635.88v33.54h-2.88 M378.96,670.38h19.08 M378.96,669.42h19.08
		 M378,658.56h0.96 M378,669.42h0.96 M378.96,658.56v0.48H378 M378,658.56v0.48 M378,669.42v-0.479h0.96 M378.96,668.94v0.479
		 M378,659.04h-9.84 M378,659.04v0.479h-9.84 M368.16,659.04c-0.036,5.437,4.454,9.876,9.84,9.9 M378,654.72h0.96 M378,643.86h0.96
		 M378.96,654.72v-0.479H378 M378,654.72v-0.479 M378,643.86v0.479h0.96 M378.96,644.34v-0.479 M378,654.24h-9.84 M378,654.24v-0.48
		h-9.84 M378,644.34c-5.419,0.027-9.875,4.457-9.84,9.9 M378,656.16v-1.44 M378,658.56v-1.438 M378.96,658.56v-3.84 M378,643.86
		v-16.62 M378.96,643.86v-22.2 M344.22,656.16H378 M344.22,657.12H378 M376.38,617.82h4.26 M379.68,620.7h-2.34 M376.38,620.7
		h-32.16 M412.68,690.84v-54 M411.72,690.84v-20.46 M380.64,620.7v-2.88 M376.38,617.82v2.88 M377.34,618.78h2.34 M416.1,621.66
		h-37.14 M415.14,620.7h-34.5 M515.52,620.22h-19.26 M515.52,619.26H495.3 M448.32,687.42v-33.9 M447.36,687.42v-36.84
		 M447.36,636.84H412.68 M448.32,635.88h-2.4 M415.14,572.52V620.7 M416.1,571.56v50.102 M378.96,687.42v-17.04 M378,687.42v-18
		 M191.4,621.66h0.96 M191.4,632.52h0.96 M192.36,621.66v0.479h-0.96 M191.4,621.66v0.479 M191.4,632.52v-0.479h0.96 M192.36,632.04
		v0.479 M191.4,622.14h-9.9 M191.4,622.14v0.48h-9.9 M181.5,622.14c0.004,5.544,4.428,9.809,9.9,9.9 M203.16,619.26v0.96
		 M192.36,619.26v0.96 M203.16,620.22h-0.48v-0.96 M203.16,619.26h-0.48 M192.36,619.26h0.48v0.96 M192.84,620.22h-0.48
		 M202.68,619.26v-9.898 M202.68,619.26h-0.48v-9.898 M202.68,609.36c-5.379-0.029-9.903,4.509-9.84,9.898 M203.16,653.52v-0.96
		 M192.36,653.52v-0.96 M203.16,652.56h-0.48v0.96 M203.16,653.52h-0.48 M192.36,653.52h0.48v-0.96 M192.84,652.56h-0.48
		 M202.68,653.52v9.842 M202.68,653.52h-0.48v9.842 M192.84,653.52c-0.015,5.493,4.417,9.812,9.84,9.842 M236.4,653.52v-0.96
		 M225.6,653.52v-0.96 M236.4,652.56h-0.48v0.96 M236.4,653.52h-0.48 M225.6,653.52h0.48v-0.96 M226.08,652.56h-0.48 M235.92,653.52
		v9.842 M235.92,653.52h-0.48v9.842 M226.08,653.52c0.004,5.479,4.363,9.838,9.84,9.842 M240.24,639.72h-0.96 M240.24,650.58h-0.96
		 M239.28,639.72v0.48h0.96 M240.24,639.72v0.48 M240.24,650.58v-0.48h-0.96 M239.28,650.1v0.48 M240.24,640.2h9.9 M240.24,640.2
		v0.479h9.9 M240.24,650.1c5.41,0.012,9.936-4.439,9.9-9.898 M204.6,584.34v34.92h-1.44 M205.56,620.22v-35.88 M192.36,621.66v-2.4
		 M191.4,621.66v-1.44 M203.16,620.22h2.4 M191.4,652.56v-20.04 M192.36,653.52v-21 M203.16,653.52h1.44 M203.16,652.56h22.44
		 M236.4,652.56h2.88 M236.4,653.52h2.88 M205.56,653.52h20.04 M237.66,583.38v-32.52 M168.66,583.38h35.76 M168.66,584.34h35.94
		 M204.6,690.84v-37.32 M205.56,690.84v-37.32 M168.66,652.56h22.74 M168.66,653.52h23.7 M239.28,639.72v-3.84 M240.24,639.72v-2.88
		 M278.82,670.38v-0.96 M289.62,670.38v-0.96 M278.82,669.42h0.48v0.96 M278.82,670.38h0.48 M289.62,670.38h-0.48v-0.96
		 M289.14,669.42h0.48 M279.3,670.38v9.84 M279.3,670.38h0.48v9.84 M279.3,680.22c5.463-0.044,9.822-4.349,9.84-9.84 M278.82,670.38
		h-2.94 M275.88,635.88v33.54h2.94 M308.64,670.38h-19.02 M308.64,669.42h-19.02 M309.6,658.56h-0.96 M309.6,669.42h-0.96
		 M308.64,658.56v0.48h0.96 M309.6,658.56v0.48 M309.6,669.42v-0.479h-0.96 M308.64,668.94v0.479 M309.6,659.04h9.9 M309.6,659.04
		v0.479h9.9 M309.6,668.94c5.41,0.01,9.938-4.441,9.9-9.9 M309.6,654.72h-0.96 M309.6,643.86h-0.96 M308.64,654.72v-0.479h0.96
		 M309.6,654.72v-0.479 M309.6,643.86v0.479h-0.96 M308.64,644.34v-0.479 M309.6,654.24h9.9 M309.6,654.24v-0.48h9.9 M319.5,654.24
		c0.035-5.466-4.458-9.907-9.9-9.9 M309.6,656.16v-1.44 M309.6,658.56v-1.438 M308.64,658.56v-3.84 M309.6,643.86v-16.62
		 M308.64,643.86v-22.2 M343.26,656.16H309.6 M343.26,657.12H309.6 M309.6,621.66H378 M311.28,617.82h-4.262 M307.98,620.7h2.34
		 M311.28,620.7h31.979 M274.92,690.84v-54 M275.88,690.84v-20.46 M343.26,690.84v-33.72 M344.22,690.84v-33.72 M307.02,620.7v-2.88
		 M311.28,617.82v2.88 M310.32,618.78h-2.34 M272.52,621.66h36.12 M272.52,620.7h34.5 M271.56,621.66h0.96 M172.08,620.22h19.32
		 M172.08,619.26h20.28 M239.28,687.42v-33.9 M240.24,687.42v-36.84 M240.24,636.84h34.68 M239.28,635.88h36.6 M272.52,572.52V620.7
		 M271.56,571.56v50.102 M237.66,549.9v-1.44 M172.08,550.86h20.04 M172.08,549.9h19.08 M241.68,618.78v1.92 M242.7,621.66h-5.04
		 M238.62,618.3h3.06 M238.62,618.78h3.06 M445.92,618.78v1.92 M444.96,621.66H450v-1.44 M449.04,618.3h-3.12 M449.04,620.7h-3.12
		 M449.04,618.78h-3.12 M241.68,620.7h-3.06 M253.5,572.52h18.06 M253.5,571.56h18.06 M308.64,687.42v-17.04 M309.6,687.42v-18
		 M449.04,536.64h-3.12 M444.96,548.46v73.2 M450,548.46v1.44 M450,537.6h-5.04 M445.92,549.42v1.92 M445.92,551.82V618.3
		 M445.92,551.82h3.12V618.3 M450,548.46h-5.04 M449.04,551.34h-3.12 M449.04,549.42h-3.12 M449.04,536.64v-54.18h-3.12v54.18
		 M450,481.5v56.1 M272.52,410.7v56.1 M416.04,409.74H271.56v57.06 M415.08,410.7h-34.92 M356.22,202.32h59.82 M356.22,203.34h58.86
		 M272.82,331.62h-1.26 M272.52,276.3h-0.96 M272.52,287.1h-0.96 M271.56,276.3v0.48h0.96 M272.52,276.3v0.48 M272.52,287.1v-0.48
		h-0.96 M271.56,286.62v0.48 M272.52,276.78h9.9 M272.52,276.78v0.479h9.9 M272.52,286.62c5.437,0.006,9.92-4.378,9.9-9.84
		 M415.08,276.3h0.96 M415.08,290.64h0.96 M415.08,287.1h0.96 M416.04,276.3v0.48h-0.96 M415.08,276.3v0.48 M415.08,287.1v-0.48
		h0.96 M416.04,286.62v0.48 M415.08,276.78h-9.9 M415.08,276.78v0.479h-9.9 M405.18,276.78c-0.042,5.418,4.508,9.868,9.9,9.84
		 M416.04,301.44v31.2 M416.04,287.1v3.54 M381.36,273.42v13.68 M380.4,273.42v14.64 M415.08,288.06v2.58 M271.56,287.1v28.2
		 M272.82,287.1v19.92 M272.82,273.42v2.88 M415.08,273.42v2.88 M415.08,272.46h-34.92 M415.08,273.42h-34.92 M496.26,206.94h-0.96
		 M496.26,217.74h-0.96 M495.3,206.94v0.48h0.96 M496.26,206.94v0.48 M496.26,217.74v-0.48h-0.96 M495.3,217.26v0.48 M496.26,207.42
		h9.9 M496.26,207.42v0.48h9.9 M496.26,217.26c5.479-0.006,9.882-4.374,9.9-9.84 M495.3,217.74v20.04 M496.26,217.74v20.04
		 M496.26,204.06v2.88 M495.3,204.06v2.88 M191.4,206.94h0.96 M191.4,217.74h0.96 M192.36,206.94v0.48h-0.96 M191.4,206.94v0.48
		 M191.4,217.74v-0.48h0.96 M192.36,217.26v0.48 M191.4,207.42h-9.9 M191.4,207.42v0.48h-9.9 M181.5,207.42
		c0.03,5.54,4.392,9.796,9.9,9.84 M192.36,217.74v20.04 M191.4,217.74v20.04 M191.4,204.06v2.88 M192.36,204.06v2.88 M412.2,182.1
		v0.96 M401.4,182.1v0.96 M412.2,183.06h-0.48v-0.96 M412.2,182.1h-0.48 M401.4,182.1h0.479v0.96 M401.88,183.06H401.4
		 M411.72,182.1v-9.84 M411.72,182.1h-0.479v-9.84 M411.72,172.26c-5.454,0.025-9.813,4.386-9.84,9.84 M412.2,183.06h3.898
		 M412.2,182.1h2.938 M275.4,182.1v0.96 M286.26,182.1v0.96 M275.4,183.06h0.48v-0.96 M275.4,182.1h0.48 M286.26,182.1h-0.48v0.96
		 M285.78,183.06h0.48 M275.88,182.1v-9.84 M275.88,182.1h0.48v-9.84 M285.78,182.1c-0.038-5.505-4.402-9.814-9.9-9.84
		 M286.26,183.06h25.32 M286.26,182.1h24.3 M237.66,237.78V216.3 M484.5,133.68h-2.46 M343.8,104.1v25.98 M342.84,104.1v25.98
		 M343.8,104.1v25.98 M378,106.98h0.96 M378,117.84h0.96 M378.96,106.98v0.48H378 M378,106.98v0.48 M378,117.84v-0.48h0.96
		 M378.96,117.36v0.48 M378,107.46h-9.84 M378,107.46v0.48h-9.84 M368.16,107.46c0.005,5.523,4.389,9.772,9.84,9.9 M378.96,117.84
		v14.4 M378,117.84v12.24 M378,104.1v2.88 M378,101.7h0.96 M378,90.84h0.96 M378.96,101.7v-0.48H378 M378,101.7v-0.48 M378,90.84
		v0.48h0.96 M378.96,91.32v-0.48 M378,101.22h-9.84 M378,101.22v-0.479h-9.84 M378,91.32c-5.526,0.072-9.801,4.374-9.84,9.9
		 M378.96,101.7v5.28 M378,101.7v1.44 M412.68,90.84v28.2 M381.9,89.88v0.96 M392.7,89.88v0.96 M381.9,90.84h0.479v-0.96
		 M381.9,89.88h0.479 M392.7,89.88h-0.48v0.96 M392.22,90.84h0.48 M382.38,89.88v-9.9 M382.38,89.88h0.48v-9.9 M392.22,89.88
		c0.036-5.437-4.454-9.876-9.84-9.9 M381.9,90.84H378 M412.68,90.84H392.7 M381.9,89.88h-2.94 M412.68,89.88H392.7 M378,104.1h-34.2
		 M343.8,63.06v40.08H378 M445.92,479.1h-0.96 M445.92,468.24h-0.96 M444.96,479.1v-0.479h0.96 M445.92,479.1v-0.479 M445.92,468.24
		v0.479h-0.96 M444.96,468.72v-0.479 M445.92,478.62h9.9 M445.92,478.62v-0.48h9.9 M455.82,478.62c0.007-5.442-4.436-9.937-9.9-9.9
		 M450,411.18v-56.16 M445.92,467.28h3.12 M450,468.24V412.14 M444.96,479.1v58.5 M444.96,468.24H450 M445.92,344.22h-0.96
		 M445.92,355.02h-0.96 M444.96,344.22v0.48h0.96 M445.92,344.22v0.48 M445.92,355.02v-0.48h-0.96 M444.96,354.54v0.48
		 M445.92,344.7h9.9 M445.92,344.7v0.48h9.9 M445.92,354.54c5.479-0.006,9.882-4.374,9.9-9.84 M445.92,285.66h-0.96 M444.96,274.86
		v0.48h0.96 M445.92,274.86v0.48 M445.92,285.66v-0.48h-0.96 M444.96,285.18v0.48 M445.92,275.34h9.9 M445.92,275.34v0.48h9.9
		 M445.92,285.18c5.403,0.056,9.915-4.45,9.9-9.84 M450,480.54v-1.44 M445.92,480.06v1.922 M444.96,479.1H450 M445.92,481.98h3.12
		 M445.92,480.06h3.12 M515.52,481.5H483.24 M515.52,480.54H450 M450,341.82v-56.16 M449.04,355.98h-3.12 M450,344.22v-1.44
		 M450,355.02h-5.04v76.38 M515.52,412.14H450 M515.52,411.18H450 M445.92,286.62h3.12 M450,274.86v-1.44 M450,285.66h-5.04v58.56
		 M449.04,340.86v-54.24 M445.92,355.98v54.24 M445.92,341.34v1.92 M449.04,340.86h-3.12 M450,344.22h-5.04 M449.04,343.26h-3.12
		 M449.04,341.34h-3.12 M449.04,271.5v-38.58 M445.92,286.62v54.24 M445.92,271.98v1.92 M445.92,271.5h3.12 M444.96,274.86H450
		 M445.92,273.9h3.12 M445.92,271.98h3.12 M449.04,135.66h-3.12v66.42 M445.92,135.18h3.12 M445.92,202.56v1.98 M445.92,202.08h3.12
		 M445.92,202.56h3.12 M445.92,205.5h-0.96 M445.92,216.3h-0.96 M444.96,205.5v0.48h0.96 M445.92,205.5v0.48 M445.92,216.3v-0.48
		h-0.96 M444.96,215.82v0.48 M445.92,205.98h9.9 M445.92,205.98v0.48h9.9 M445.92,215.82c5.403,0.056,9.915-4.45,9.9-9.84"/>
	
		<path display="inline" fill="none" stroke="#000000" stroke-width="0.72" stroke-linecap="round" stroke-linejoin="round" stroke-miterlimit="10" d="
		M331.68,550.86v-0.48h-0.96 M330.72,550.86v-0.48 M330.72,540v0.48h0.96 M331.68,540.48V540 M330.72,550.38h-9.898 M330.72,550.38
		V549.9h-9.898 M330.72,540.48c-5.359-0.066-9.966,4.537-9.898,9.898 M357.18,550.86h-0.96 M357.18,540h-0.96 M356.22,550.86v-0.48
		h0.96 M357.18,550.86v-0.48 M357.18,540v0.48h-0.96 M356.22,540.48V540 M357.18,550.38h9.9 M357.18,550.38V549.9h9.9
		 M367.08,550.38c0.035-5.466-4.458-9.907-9.9-9.898 M356.22,532.32H343.98 M356.22,533.28H343.98 M331.68,550.86h3.602
		 M356.22,550.86h-3.6 M331.68,551.82h3.602 M356.22,551.82h-3.6 M330.72,481.5V540 M357.18,481.5V540 M331.68,481.5v50.82
		 M356.22,481.5v50.82 M356.22,551.82h59.82 M356.22,550.86h20.642 M415.08,480.54v-2.88 M415.08,481.5h-34.92 M415.08,480.54
		h-34.92 M272.52,550.86h34.98 M271.56,551.82h60.12 M415.08,550.86V481.5 M416.04,551.82v-74.16 M344.28,480.54v-39.9
		 M343.32,480.54V410.7 M271.56,551.82v-74.16 M379.68,481.02h-2.34 M379.68,481.98v-1.922 M377.34,480.06v1.922 M310.32,480.06
		v1.922 M307.98,481.98v-1.922 M307.98,481.02h2.34 M307.5,273.42h-34.68 M307.5,272.46h-34.68 M310.8,271.5h-3.3v2.88h3.3V271.5z
		 M307.98,273.9h2.34 M310.32,271.98h-2.34 M356.22,272.46h-24.54 M343.32,273.42H310.8 M330.72,272.46H310.8 M376.86,271.5h3.3
		v2.88h-3.3V271.5z M376.86,273.42h-32.58 M376.86,272.46H357.18 M379.68,273.9h-2.34 M379.68,271.98h-2.34 M352.14,202.02h8.7
		c-1.056-10.62-15.854-10.653-16.858,0 M352.14,201.6h8.7 M352.14,202.32v1.02 M352.62,202.32h-0.48v-0.72 M352.62,203.34v-1.02
		V203.34h-0.48 M356.22,220.68v-6.54 M343.98,202.02c-1.058-10.62-15.854-10.653-16.86,0 M335.76,202.02h-8.64 M335.76,201.6h-8.64
		 M335.76,202.32v1.02 M335.28,202.32h0.479v-0.72 M335.28,202.32v1.02h0.479 M343.98,220.68v0.96 M333.12,220.68v0.96
		 M343.98,221.64h-0.48v-0.96 M343.98,220.68h-0.48 M333.12,220.68h0.479v0.96 M333.6,221.64h-0.479 M343.5,220.68v-9.9
		 M343.5,220.68h-0.48v-9.9 M343.5,210.78c-5.549,0.039-9.861,4.351-9.9,9.9 M331.68,220.68v-6.54 M333.12,221.64h-1.44
		 M333.12,220.68h-1.44 M335.28,203.34v-1.02 M330.72,203.34h0.96 M330.72,214.14h0.96 M331.68,203.34v0.48h-0.96 M330.72,203.34
		v0.48 M330.72,214.14v-0.48h0.96 M331.68,213.66v0.48 M330.72,203.82h-9.898 M330.72,203.82v0.48h-9.898 M320.82,203.82
		c0.022,5.386,4.463,9.876,9.898,9.84 M357.18,203.34h-0.96 M357.18,214.14h-0.96 M356.22,203.34v0.48h0.96 M357.18,203.34v0.48
		 M357.18,214.14v-0.48h-0.96 M356.22,213.66v0.48 M357.18,203.82h9.9 M357.18,203.82v0.48h9.9 M357.18,213.66
		c5.526-0.039,9.828-4.314,9.9-9.84 M356.22,221.64H343.98 M356.22,220.68H343.98 M331.68,203.34h3.602 M356.22,203.34h-3.6
		 M331.68,202.32h3.602 M356.22,202.32h-3.6 M330.72,272.46v-58.32 M357.18,272.46v-58.32 M331.68,272.46v-50.82 M356.22,272.46
		v-50.82 M376.38,183.06H401.4 M378,132.24h-0.66 M377.34,133.2v1.98 M378,131.04v1.2 M379.68,132.24h-0.72 M377.34,131.04H378
		 M310.56,131.04v1.2h-0.96v-1.2 M307.98,132.24h0.658 M309.6,131.04h0.96 M307.98,133.2h2.578 M310.56,136.14v45.96 M377.34,136.14
		v45.96 M379.68,133.2h-2.34 M377.34,136.14h3.3v-2.94 M379.68,135.18h-2.34 M323.1,183.06h41.7 M324.06,182.1h39.78 M377.34,182.1
		H401.4 M363.84,173.7h0.96 M324.06,182.1v-8.4h-0.96 M363.84,173.7v8.4 M323.1,173.7v9.36 M364.8,173.7v9.36 M376.38,155.16v27.9
		 M311.58,155.16v27.9 M312.78,153h62.398 M311.58,155.16h64.8 M444.96,635.88h-33.24 M445.92,632.52v3.36 M445.92,621.66h-0.96
		 M445.92,632.52h-0.96 M444.96,621.66v0.479h0.96 M445.92,621.66v0.479 M445.92,632.52v-0.479h-0.96 M444.96,632.04v0.479
		 M445.92,622.14h9.9 M445.92,622.14v0.48h9.9 M445.92,632.04c5.444-0.054,9.908-4.43,9.9-9.9 M444.96,635.88v-3.36 M480.6,619.26
		v0.96 M469.8,619.26v0.96 M480.6,620.22h-0.479v-0.96 M480.6,619.26h-0.479 M469.8,619.26h0.48v0.96 M470.28,620.22h-0.48
		 M480.12,619.26v-9.898 M480.12,619.26h-0.48v-9.898 M480.12,609.36c-5.39-0.017-9.896,4.497-9.84,9.898 M469.8,620.22H450
		 M469.8,619.26H450 M482.04,619.26h-1.44 M482.28,481.5H450 M496.5,548.46h-0.96 M496.5,537.6h-0.96 M495.54,548.46v-0.479h0.96
		 M496.5,548.46v-0.479 M496.5,537.6v0.48h-0.96 M495.54,538.08v-0.48 M496.5,547.98h9.84 M496.5,547.98v-0.48h9.84 M506.34,547.98
		c-0.047-5.486-4.286-9.896-9.84-9.9 M495.54,548.46v2.4 M496.5,548.46v1.44 M484.68,550.86v-0.96 M495.54,550.86v-0.96
		 M484.68,549.9h0.48v0.96 M484.68,550.86h0.48 M495.54,550.86h-0.48v-0.96 M495.06,549.9h0.48 M485.16,550.86v9.84 M485.16,550.86
		h0.479v9.84 M485.16,560.7c5.437,0.006,9.92-4.378,9.898-9.84 M480.84,550.86v-0.96 M469.98,550.86v-0.96 M480.84,549.9h-0.479
		v0.96 M480.84,550.86h-0.479 M469.98,550.86h0.479v-0.96 M470.46,549.9h-0.479 M480.36,550.86v9.84 M480.36,550.86h-0.48v9.84
		 M470.46,550.86c-0.042,5.418,4.506,9.866,9.9,9.84 M484.68,515.22v0.96 M495.54,515.22v0.96 M484.68,516.18h0.48v-0.96
		 M484.68,515.22h0.48 M495.54,515.22h-0.48v0.96 M495.06,516.18h0.48 M485.16,515.22v-9.898 M485.16,515.22h0.479v-9.898
		 M495.06,515.22c0.013-5.445-4.451-9.911-9.898-9.898 M496.5,516.18v21.42 M482.28,550.86h-1.44 M484.68,549.9h-3.84
		 M484.68,550.86h-1.438 M484.68,515.22h-1.438 M484.68,516.18h-2.398 M469.98,550.86H450 M469.98,549.9H450 M495.54,515.22v22.38
		 M445.92,548.46h-0.96 M445.92,537.6h-0.96 M444.96,548.46v-0.479h0.96 M445.92,548.46v-0.479 M445.92,537.6v0.48h-0.96
		 M444.96,538.08v-0.48 M445.92,547.98h9.9 M445.92,547.98v-0.48h9.9 M455.82,547.98c0.007-5.442-4.436-9.937-9.9-9.9
		 M482.28,550.86v32.52 M483.24,550.86v32.52 M483.24,481.5v33.72 M482.28,481.5v34.68 M519,516.18h-22.5 M519,515.22h-23.46
		 M515.52,550.86H495.54 M515.52,549.9H496.5 M191.16,548.46h0.96 M191.16,537.6h0.96 M192.12,548.46v-0.479h-0.96 M191.16,548.46
		v-0.479 M191.16,537.6v0.48h0.96 M192.12,538.08v-0.48 M191.16,547.98h-9.9 M191.16,547.98v-0.48h-9.9 M191.16,538.08
		c-5.459-0.036-9.91,4.49-9.9,9.9 M192.12,548.46v2.4 M191.16,548.46v1.44 M202.98,550.86v-0.96 M192.12,550.86v-0.96 M202.98,549.9
		h-0.48v0.96 M202.98,550.86h-0.48 M192.12,550.86h0.48v-0.96 M192.6,549.9h-0.48 M202.5,550.86v9.84 M202.5,550.86h-0.48v9.84
		 M192.6,550.86c0.006,5.554,4.414,9.793,9.9,9.84 M206.82,550.86v-0.96 M217.62,550.86v-0.96 M206.82,549.9h0.48v0.96
		 M206.82,550.86h0.48 M217.62,550.86h-0.48v-0.96 M217.14,549.9h0.48 M207.3,550.86v9.84 M207.3,550.86h0.48v9.84 M207.3,560.7
		c5.372,0.053,9.947-4.435,9.84-9.84 M202.98,515.22v0.96 M192.12,515.22v0.96 M202.98,516.18h-0.48v-0.96 M202.98,515.22h-0.48
		 M192.12,515.22h0.48v0.96 M192.6,516.18h-0.48 M202.5,515.22v-9.898 M202.5,515.22h-0.48v-9.898 M202.5,505.32
		c-5.442-0.008-9.935,4.434-9.9,9.898 M206.82,515.22v0.96 M217.62,515.22v0.96 M206.82,516.18h0.48v-0.96 M206.82,515.22h0.48
		 M217.62,515.22h-0.48v0.96 M217.14,516.18h0.48 M207.3,515.22v-9.898 M207.3,515.22h0.48v-9.898 M217.14,515.22
		c0.111-5.375-4.474-9.972-9.84-9.898 M191.16,516.18v21.42 M205.38,550.86h1.44 M205.38,515.22h1.44 M202.98,549.9h3.84
		 M202.98,550.86h1.44 M202.98,515.22h1.44 M202.98,516.18h3.84 M217.62,550.86h20.04 M217.62,549.9h20.04 M217.62,516.18h20.04
		 M217.62,515.22h20.04 M192.12,515.22v22.38 M241.68,548.46h1.02 M241.68,537.6h1.02 M242.7,548.46v-0.479h-1.02 M241.68,548.46
		v-0.479 M241.68,537.6v0.48h1.02 M242.7,538.08v-0.48 M241.68,547.98h-9.84 M241.68,547.98v-0.48h-9.84 M241.68,538.08
		c-5.526,0.072-9.801,4.374-9.84,9.9 M238.62,536.64h3.06 M242.7,548.46v73.2 M237.66,537.6v-21.42 M238.62,536.64V482.94
		 M241.68,551.82V618.3 M241.68,549.42v1.92 M237.66,537.6h5.04 M237.66,548.46h5.04 M238.62,551.82h3.06 M238.62,549.42h3.06
		 M238.62,551.34h3.06 M205.38,550.86v32.52 M204.42,550.86v32.52 M204.42,481.5v33.72 M205.38,481.5v33.72 M168.66,516.18h22.5
		 M168.66,515.22h23.46 M309.6,626.28v-4.62 M344.22,627.24H378 M309.6,626.28H378v-4.62 M309.6,627.24h33.66 M412.2,572.52v-0.96
		 M401.4,572.52v-0.96 M412.2,571.56h-0.48v0.96 M412.2,572.52h-0.48 M401.4,572.52h0.479v-0.96 M401.88,571.56H401.4
		 M411.72,572.52v9.9 M411.72,572.52h-0.479v9.9 M401.88,572.52c-0.048,5.41,4.477,9.91,9.84,9.9 M412.2,572.52h2.938 M412.2,571.56
		h3.898 M444.96,572.52v-0.96 M434.16,572.52v-0.96 M444.96,571.56h-0.479v0.96 M444.96,572.52h-0.479 M434.16,572.52h0.479v-0.96
		 M434.64,571.56h-0.479 M444.48,572.52v9.9 M444.48,572.52H444v9.9 M434.64,572.52c-0.026,5.396,4.424,9.942,9.842,9.9
		 M416.1,572.04h18.062 M416.1,571.56h18.062 M416.1,572.52h18.062 M275.4,572.52v-0.96 M286.26,572.52v-0.96 M275.4,571.56h0.48
		v0.96 M275.4,572.52h0.48 M286.26,572.52h-0.48v-0.96 M285.78,571.56h0.48 M275.88,572.52v9.9 M275.88,572.52h0.48v9.9
		 M275.88,582.42c5.41,0.01,9.936-4.441,9.9-9.9 M286.26,571.56H401.4 M286.26,572.52h57 M344.22,572.52H401.4 M343.26,620.7V572.52
		 M344.22,620.7V572.52 M242.7,572.52v-0.96 M253.5,572.52v-0.96 M242.7,571.56h0.48v0.96 M242.7,572.52h0.48 M253.5,572.52h-0.48
		v-0.96 M253.02,571.56h0.48 M243.18,572.52v9.9 M243.18,572.52h0.48v9.9 M243.18,582.42c5.386-0.023,9.876-4.463,9.84-9.9
		 M253.5,572.04h18.06 M272.52,572.52h2.88 M271.56,571.56h3.84 M496.26,621.66h-0.96 M496.26,632.52h-0.96 M495.3,621.66v0.479
		h0.96 M496.26,621.66v0.479 M496.26,632.52v-0.479h-0.96 M495.3,632.04v0.479 M496.26,622.14h9.9 M496.26,622.14v0.48h9.9
		 M496.26,632.04c5.444-0.054,9.908-4.43,9.9-9.9 M484.5,619.26v0.96 M495.3,619.26v0.96 M484.5,620.22h0.48v-0.96 M484.5,619.26
		h0.48 M495.3,619.26h-0.479v0.96 M494.82,620.22h0.479 M484.98,619.26v-9.898 M484.98,619.26h0.479v-9.898 M494.82,619.26
		c0.035-5.441-4.421-9.873-9.84-9.898 M484.5,653.52v-0.96 M495.3,653.52v-0.96 M484.5,652.56h0.48v0.96 M484.5,653.52h0.48
		 M495.3,653.52h-0.479v-0.96 M494.82,652.56h0.479 M484.98,653.52v9.842 M484.98,653.52h0.479v9.842 M484.98,663.36
		c5.463-0.08,9.832-4.311,9.84-9.842 M451.26,653.52v-0.96 M462.06,653.52v-0.96 M451.26,652.56h0.48v0.96 M451.26,653.52h0.48
		 M462.06,653.52h-0.479v-0.96"/>
	
		<path display="inline" fill="none" stroke="#000000" stroke-width="0.72" stroke-linecap="round" stroke-linejoin="round" stroke-miterlimit="10" d="
		M308.16,89.88h0.479 M297.84,90.84v-0.96 M308.64,89.88v0.96 M297.84,89.88v0.96 M308.64,90.84h-0.479v-0.96 M308.64,89.88h-0.479
		 M297.84,89.88h0.48v0.96 M298.32,90.84h-0.48 M308.16,89.88v-9.9 M308.16,89.88h-0.48v-9.9 M308.16,79.98
		c-5.365-0.01-9.889,4.49-9.84,9.9 M379.32,439.68h-0.48 M378.84,440.64h-0.96 M389.7,440.64v-0.96 M378.84,439.68v0.96
		 M389.7,439.68v0.96 M378.84,440.64h0.48v-0.96 M378.84,439.68h0.48 M389.7,439.68h-0.48v0.96 M389.22,440.64h0.48 M379.32,439.68
		v-9.84 M379.32,439.68h0.479v-9.84 M389.22,439.68c-0.038-5.505-4.4-9.812-9.898-9.84 M367.08,439.68v0.96h-22.8 M377.88,439.68
		v0.96 M367.08,439.68v0.96 M377.88,440.64H377.4v-0.96 M377.88,439.68H377.4 M367.08,439.68h0.479v0.96 M367.56,440.64h-0.479
		 M377.4,439.68v-9.84 M377.4,439.68h-0.48v-9.84 M377.4,429.84c-5.454,0.025-9.815,4.386-9.842,9.84 M367.56,439.68H344.28
		 M377.88,413.1h-1.02 M378.84,440.64V413.1 M377.88,440.64V413.1 M344.28,439.68V410.7 M389.22,439.68h25.86V410.7 M415.08,440.64
		h-25.92 M331.14,203.34H356.7v17.76H331.14V203.34z M482.52,101.1h13.262v33.12H482.52V101.1z M272.52,133.2h-0.48 M307.02,133.2
		h3.54 M344.28,307.02h70.8 M415.08,309.18v23.46 M377.28,397.2v0.96 M366.42,397.2v0.96 M377.28,398.16h-0.48v-0.96 M377.28,397.2
		h-0.48 M366.42,397.2h0.48v0.96 M366.9,398.16h-0.48 M376.8,397.2v-9.9 M376.8,397.2h-0.479v-9.9 M376.8,387.3
		c-5.447-0.011-9.911,4.453-9.898,9.9 M310.38,397.2v0.96 M321.24,397.2v0.96 M310.38,398.16h0.48v-0.96 M310.38,397.2h0.48
		 M321.24,397.2h-0.48v0.96 M320.76,398.16h0.48 M310.86,397.2v-9.9 M310.86,397.2h0.479v-9.9 M320.76,397.2
		c-0.055-5.444-4.429-9.908-9.898-9.9 M310.38,398.16h-2.88 M310.38,397.2h-2.88 M366.42,398.16h-45.18 M366.42,397.2h-45.18
		 M272.52,550.86V481.5 M449.04,410.22v-54.24 M445.92,413.1V431.4 M445.92,410.7v1.92 M449.04,413.1h-3.12 M449.04,410.22h-3.12
		 M449.04,410.7h-3.12 M449.04,412.62h-3.12 M450,550.86v32.52 M450,584.34v34.92 M343.26,656.16v-28.92 M344.22,656.16v-28.92
		 M239.28,652.56v-1.979 M205.38,583.38h32.28 M205.56,584.34h32.1 M237.66,515.22V481.5h-32.28 M238.62,410.22v-54.24
		 M241.68,413.1V431.4 M241.68,410.7v1.92 M241.68,413.1h-3.06 M241.68,410.22h-3.06 M241.68,412.62h-3.06 M241.68,410.7h-3.06
		 M343.8,130.08H378 M448.32,652.56v-1.979 M482.04,584.34H450 M482.28,583.38H450 M449.04,451.62V413.1 M238.62,231.96v-14.7
		V231.96z M238.62,451.62V413.1 M242.7,459.3v8.94 M241.68,459.3v7.98 M241.68,452.58v1.92 M242.7,451.62v2.88 M241.68,230.04v1.92
		 M242.7,230.04v2.88 M242.7,253.14v21.72 M241.68,253.14v18.36 M241.68,452.58h-3.06 M241.68,441.72h-3.06 M241.68,441.24h-3.06
		 M241.68,451.62h-3.06 M242.7,441.72v-0.479 M241.68,441.72v-0.479 M242.7,451.62h-1.02 M247.32,442.98l-1.5-0.66l-1.56-0.42
		l-1.56-0.182 M241.68,441.72h1.02v-0.479l1.56-0.12l1.62-0.42l1.44-0.66 M242.7,441.24h-1.02 M246.96,440.22l-4.68-8.16l0.42-0.18
		 M242.7,431.88l4.62,8.16 M241.68,431.4v0.479 M246.96,442.74l-4.68,8.22l0.42,0.18 M247.32,442.98l-4.62,8.158v0.48
		 M241.68,451.14v0.48 M241.68,441.24v0.479 M244.62,455.52l-0.96-0.42l-0.96-0.118 M242.7,458.82h0.06 M241.68,458.82v0.479
		 M241.68,454.5v0.48 M244.38,455.4l-1.92,3.3l0.24,0.12 M242.7,459.3v-0.479l1.92-3.302 M242.7,431.88h-1.02 M242.7,451.14h-1.02
		 M242.7,454.98h-1.02 M242.7,458.82h-1.02 M242.7,454.5v0.48 M241.68,454.5H240v4.8h1.68 M242.7,459.3h-1.02 M242.7,454.5h-1.02
		 M241.68,431.4h1.02v0.479 M241.68,231.96h-3.06 M241.68,242.82h-3.06 M241.68,243.3h-3.06 M241.68,232.92h-3.06 M242.7,242.82
		v0.48 M241.68,242.82v0.48 M242.7,232.92h-1.02 M242.7,242.82l1.56-0.12l1.56-0.42l1.5-0.72 M247.32,244.5l-1.44-0.66l-1.62-0.42
		l-1.56-0.12 M241.68,242.82h1.02v0.48 M242.7,243.3h-1.02 M246.96,244.32l-4.68,8.16l0.42,0.18 M242.7,252.66l4.62-8.16
		 M241.68,253.14v-0.48 M246.96,241.8l-4.68-8.16l0.42-0.24 M247.32,241.56l-4.62-8.16v-0.48 M241.68,233.4v-0.48 M241.68,243.3
		v-0.48 M242.7,229.56l0.96-0.12l0.96-0.42 M242.7,225.72h0.06 M241.68,225.72v-0.479 M241.68,230.04v-0.48 M244.38,229.14
		l-1.92-3.3l0.24-0.12 M242.7,225.24v0.479l1.92,3.3 M242.7,252.66h-1.02 M242.7,233.4h-1.02 M242.7,229.56h-1.02 M242.7,225.72
		h-1.02 M242.7,230.04v-0.48 M241.68,230.04H240v-4.8h1.68 M242.7,225.24h-1.02 M242.7,230.04h-1.02 M241.68,253.14h1.02v-0.48
		 M444.96,459.3v8.94 M445.92,459.3v7.98 M444.96,451.62v2.88 M449.04,452.58h-3.12v1.92 M445.92,441.72h3.12 M445.92,441.24h3.12
		 M445.92,451.62h3.12 M444.96,441.72v-0.479 M445.92,441.72v-0.479 M444.96,451.62h0.96 M444.96,441.72l-1.62,0.182l-1.56,0.42
		l-1.44,0.66 M440.34,440.04l1.44,0.66l1.56,0.42l1.62,0.12 M445.92,441.72h-0.96v-0.479 M444.96,441.24h0.96 M440.7,440.22
		l4.62-8.16l-0.36-0.18 M444.96,431.88l-4.62,8.16 M445.92,431.4v0.479 M440.7,442.74l4.62,8.22l-0.36,0.18 M440.34,442.98
		l4.62,8.158v0.48 M445.92,451.14v0.48 M445.92,441.24v0.479 M444.96,454.98L444,455.1l-0.96,0.42 M444.96,458.82h0.06
		 M445.92,458.82v0.479 M445.92,454.5v0.48 M443.28,455.4l1.92,3.3l-0.24,0.12 M444.96,459.3v-0.479l-1.92-3.302 M444.96,431.88
		h0.96 M444.96,451.14h0.96 M444.96,454.98h0.96 M444.96,458.82h0.96 M444.96,454.5v0.48 M445.92,454.5h1.74v4.8h-1.74
		 M444.96,459.3h0.96 M444.96,454.5h0.96 M445.92,431.4h-0.96v0.479 M445.92,231.96h3.12v-14.7v14.7 M445.92,242.82h3.12
		 M445.92,243.3h3.12 M445.92,232.92h3.12 M444.96,253.14v21.72 M445.92,253.14v18.36 M444.96,242.82v0.48 M445.92,242.82v0.48
		 M444.96,230.04v2.88h0.96 M445.92,230.04v1.92 M440.34,241.56l1.44,0.72l1.56,0.42l1.62,0.12 M445.92,242.82h-0.96v0.48
		l-1.62,0.12l-1.56,0.42l-1.44,0.66 M444.96,243.3h0.96 M440.7,244.32l4.62,8.16l-0.36,0.18 M444.96,252.66l-4.62-8.16
		 M445.92,253.14v-0.48 M440.7,241.8l4.62-8.16l-0.36-0.24 M440.34,241.56l4.62-8.16v-0.48 M445.92,233.4v-0.48 M445.92,243.3v-0.48
		 M443.04,229.02l0.96,0.42l0.96,0.12 M444.96,225.72h0.06 M445.92,225.72v-0.479 M445.92,230.04v-0.48 M443.28,229.14l1.92-3.3
		l-0.24-0.12 M444.96,225.24v0.479l-1.92,3.3 M444.96,252.66h0.96 M444.96,233.4h0.96 M444.96,229.56h0.96 M444.96,225.72h0.96
		 M444.96,230.04v-0.48 M445.92,230.04h1.74v-4.8h-1.74 M444.96,225.24h0.96 M444.96,230.04h0.96 M445.92,253.14h-0.96v-0.48
		 M378,626.28l-68.4-4.62 M378,621.66l-68.4,4.62 M375.18,153l-62.398-20.76 M375.18,132.24L312.78,153 M415.08,477.66h0.96
		 M415.08,466.8h0.96 M416.04,477.66v-0.48h-0.96 M415.08,477.66v-0.48 M415.08,466.8v0.48h0.96 M416.04,467.28v-0.48
		 M415.08,477.18h-9.9 M415.08,477.18V476.7h-9.9 M415.08,467.28c-5.459-0.036-9.91,4.488-9.9,9.898 M415.08,466.8v-26.16
		 M416.04,466.8v-57.06 M272.52,477.66h-0.96 M272.52,466.8h-0.96 M271.56,477.66v-0.48h0.96 M272.52,477.66v-0.48 M272.52,466.8
		v0.48h-0.96 M271.56,467.28v-0.48 M272.52,477.18h9.9 M272.52,477.18V476.7h9.9 M282.42,477.18c0.007-5.44-4.434-9.935-9.9-9.898
		 M272.52,477.66v2.88 M376.86,410.7h-32.58 M379.68,410.7h-2.34 M307.5,410.7h-34.98 M310.32,410.7h-2.34 M310.8,413.1h-3.3
		 M310.32,412.62h-2.34 M310.8,410.7v2.398 M307.5,413.1V410.7 M376.86,410.7v2.398 M380.16,410.7v2.398h-1.32 M379.68,412.62h-2.34
		 M343.32,410.7H310.8 M310.8,550.86h20.88 M307.5,551.82v-2.88 M307.5,548.94h3.3v2.88 M310.32,551.34h-2.34 M310.32,549.42h-2.34
		 M380.16,550.86h34.92 M380.16,548.94h-3.3 M379.68,551.34h-2.34 M379.68,549.42h-2.34 M376.86,548.94v2.88 M380.16,551.82v-2.88
		 M307.5,480.54h-34.98 M307.5,481.5h-34.98 M310.8,482.46h-3.3v-2.88h3.3V482.46z M307.98,480.06h2.34 M310.32,481.98h-2.34
		 M356.22,481.5h-24.54 M343.32,480.54H310.8 M330.72,481.5H310.8 M376.86,482.46h3.3v-2.88h-3.3V482.46z M376.86,480.54h-32.58
		 M376.86,481.5H357.18 M379.68,480.06h-2.34 M379.68,481.98h-2.34 M343.98,552.12c0.977,10.678,15.834,10.644,16.858,0
		 M352.14,552.12h8.7 M352.14,552.54h8.7 M352.14,551.82v-0.96 M352.62,551.82h-0.48v0.72 M352.62,550.86v0.96V550.86h-0.48
		 M356.22,533.28V540 M335.76,552.12h-8.64c0.977,10.678,15.834,10.644,16.86,0 M335.76,552.54h-8.64 M335.76,551.82v-0.96
		 M335.28,551.82h0.479v0.72 M335.28,551.82v-0.96h0.479 M343.5,533.28v-0.96 M332.64,533.28v-0.96 M343.5,532.32h-0.48v0.96
		 M343.5,533.28h-0.48 M332.64,533.28h0.48v-0.96 M333.12,532.32h-0.48 M343.02,533.28v9.84 M342.54,533.28v9.84 M333.12,533.28
		c0.03,5.54,4.392,9.796,9.898,9.84 M331.68,533.28V540 M333.12,532.32h-1.44 M333.12,533.28h-1.44 M335.28,550.86v0.96
		 M330.72,550.86h0.96 M330.72,540h0.96"/>
	
		<path fill="none" stroke="#000000" stroke-width="0.72" stroke-linecap="round" stroke-linejoin="round" stroke-miterlimit="10" d="
		M480.84,514.5v0.96 M469.98,514.5v0.96 M480.84,515.46h-0.479v-0.96 M480.84,514.5h-0.479 M469.98,514.5h0.479v0.96 M470.46,515.46
		h-0.479 M480.36,514.5v-9.9 M480.36,514.5h-0.48v-9.9 M480.36,504.6c-5.361-0.064-9.968,4.539-9.9,9.9 M480.84,515.46h1.44
		 M450,515.46h19.98 M480.84,514.5h1.44 M450,514.5h19.98"/>
	
		<path fill="none" stroke="#000000" stroke-width="0.72" stroke-linecap="round" stroke-linejoin="round" stroke-miterlimit="10" d="
		M380.4,288.06h34.68 M381.36,287.1h33.72 M343.5,532.32h-10.38 M416.04,301.44h-0.96v5.58 M416.04,290.64v0.48h-0.96
		 M415.08,290.64v0.48 M415.08,301.44v-0.48h0.96 M416.04,300.96v0.48 M415.08,291.12h-9.9 M415.08,291.12v0.48h-9.9 M405.18,291.12
		c-0.01,5.365,4.49,9.888,9.9,9.84 M307.02,133.2v-0.96 M296.16,133.2v-0.96 M307.02,132.24h-0.479v0.96 M307.02,133.2h-0.479
		 M296.16,133.2h0.48v-0.96 M296.64,132.24h-0.48 M306.54,133.2v9.9 M306.54,133.2h-0.48v9.9 M296.64,133.2
		c-0.01,5.41,4.441,9.936,9.9,9.9 M409.32,133.2v-0.96 M398.52,133.2v-0.96 M409.32,132.24h-0.48v0.96 M409.32,133.2h-0.48
		 M398.52,133.2H399v-0.96 M399,132.24h-0.48 M408.84,133.2v9.9 M408.84,133.2h-0.479v9.9 M399,133.2
		c0.047,5.486,4.286,9.894,9.84,9.9"/>
	
		<path fill="none" stroke="#000000" stroke-width="0.72" stroke-linecap="round" stroke-linejoin="round" stroke-miterlimit="10" d="
		M243.18,182.1h0.48v-9.84 M253.02,182.1c-0.038-5.481-4.365-9.781-9.84-9.84 M242.7,183.06v22.44 M237.66,133.68v-1.44
		 M308.64,66.54v24.3 M309.6,66.54v24.3 M310.56,133.2v1.98 M272.52,133.2v48.9 M271.56,132.24v50.82 M272.82,203.34h58.86
		 M271.56,202.32h60.12 M253.5,183.06h18.06 M253.5,182.1h18.06 M168.66,169.62h35.94 M168.66,170.58h35.94 M172.08,204.06h19.32
		 M172.08,203.1h20.28 M240.24,118.08h33.72 M274.92,63.06v26.82 M273.96,63.06v55.02 M239.28,119.04h35.64 M306.06,133.2h0.96
		 M272.52,133.2h23.64 M307.02,132.24h1.62 M271.56,132.24h24.6 M172.08,134.7h20.28 M172.08,133.68h19.32 M237.66,132.24h5.04
		 M241.68,135.18v-1.98h-3.06 M242.7,132.24v50.82 M237.66,621.66v-37.32 M168.66,237.78h22.74 M168.66,238.74h23.7 M172.08,273.42
		h65.58 M172.08,272.46h32.52 M168.66,101.64h22.74 M168.66,100.68h23.7 M204.6,63.06v37.62 M205.56,63.06v37.62 M239.28,67.38v33.3
		 M240.24,67.38v36.96 M413.7,382.02h0.6 M398.7,382.02h0.6 M396.6,394.8h19.5 M397.2,394.2h18.12 M399.3,378.78h14.4 M399.3,376.14
		h14.4 M399.3,373.5h14.4 M399.3,370.86h14.4 M399.3,368.22h14.4 M399.3,365.52h14.4 M397.2,357.6h1.5 M396.6,357h2.7 M399.3,362.88
		h14.4 M399.3,360.24h14.4 M399.3,357.6h14.4 M399.3,382.02V357 M396.6,394.8V357 M398.7,382.02V357.6 M397.2,394.2v-36.6
		 M381.6,394.2h-0.42 M382.2,394.8h-1.021 M380.16,355.26v41.94 M396.6,392.04H382.2 M396.6,389.4H382.2 M396.6,386.76H382.2
		 M396.6,384.12H382.2 M396.6,381.42H382.2 M382.2,376.14H396.6 M382.2,373.5H396.6 M382.2,370.86H396.6 M382.2,368.22H396.6
		 M382.2,365.52H396.6 M382.2,362.88H396.6 M396.6,378.78H382.2 M382.2,360.24H396.6 M306.48,398.16h1.02 M305.46,394.8h1.021
		 M306.06,394.2h0.422 M288.96,382.02h-0.6 M291,381.42h14.46 M291,384.12h14.46 M291,386.76h14.46 M291,389.4h14.46 M291,392.04
		h14.46 M291,378.78h14.46 M305.46,365.52H291 M305.46,368.22H291 M305.46,370.86H291 M305.46,373.5H291 M305.46,376.14H291
		 M291,357h-2.64 M290.4,357.6h-1.44 M305.46,360.24H291 M305.46,362.88H291 M290.4,394.2v-36.6 M288.96,382.02V357.6 M291,394.8
		V357 M288.36,382.02V357 M307.5,355.26v41.94 M273.9,382.02h-0.6 M290.4,394.2h-18.06 M291,394.8h-19.44 M288.36,357.6H273.9
		 M288.36,360.24H273.9 M288.36,362.88H273.9 M288.36,365.52H273.9 M288.36,368.22H273.9 M288.36,370.86H273.9 M288.36,373.5H273.9
		 M288.36,376.14H273.9 M288.36,378.78H273.9 M307.5,354.06h72.66 M307.5,355.26h72.66 M381.18,398.16h-3.898 M380.16,397.2h-2.88
		 M416.04,341.82v0.48 M415.08,342.3v-0.9 M414.96,341.82h1.08 M414.96,342.3h1.32 M415.08,342.3v0.9 M416.04,342.3v1.86
		 M416.04,332.64v0.48h-0.96 M416.04,332.64h-0.96v0.48 M395.94,333.36h2.278 M406.38,341.82h8.7 M406.44,341.4h8.64 M415.08,333.12
		c-4.857,0.033-8.605,3.868-8.7,8.7 M395.94,309.18v2.16 M398.22,333.36v-24.18h16.86 M395.94,312.18v21.18 M416.04,307.62v25.02
		 M415.08,203.34v69.12 M416.04,202.32v73.98 M377.16,341.22h2.64 M377.16,341.22v2.1h2.64 M379.8,343.32v-2.1 M377.16,340.38h3.42
		v2.82 M379.68,342.3h-2.34 M379.68,343.26v-1.92 M377.34,341.34v1.92 M370.8,341.88v1.44 M370.8,343.32h4.32v-1.44 M370.8,341.88
		h4.32 M371.52,339.18l-0.118,1.26l0.118,1.2l0.062,0.24 M374.34,341.88l0.18-1.32l-0.118-1.38 M374.04,338.28l-0.54-0.72
		l-0.54-0.18l-0.54,0.18l-0.54,0.72 M371.88,338.28l-0.36,0.9 M374.4,339.18l-0.36-0.9 M394.02,315.36v-1.74 M390.66,315.36v-1.74
		 M382.5,315.36v-1.74 M384.9,315.36v-1.74 M388.26,315.36v-1.74 M390.66,315.36l0.12,0.3l0.358,0.18 M394.74,316.56h-4.8
		 M382.02,315.84l0.302-0.18l0.18-0.3 M384.9,315.36l0.118,0.3l0.36,0.18 M387.78,315.84l0.358-0.18l0.12-0.3 M384.18,316.56h4.802
		 M385.38,315.84h2.4 M391.14,315.84h2.4l0.36-0.18l0.118-0.3 M376.44,329.34h0.72 M376.44,329.82h-1.2 M370.68,329.34h-2.88
		 M370.68,329.82h-2.88 M376.44,329.34h-1.2 M376.44,320.7h0.72 M379.08,315.36v-1.74 M379.08,315.36l0.18,0.3l0.3,0.18
		 M379.56,315.84h2.46 M378.36,316.56h4.858 M376.44,343.32v-13.98 M377.16,340.38v-11.04 M370.68,333.9v-4.56 M370.68,333.9
		c2.438,0.01,4.57-2.122,4.562-4.56 M369.48,343.32v-13.5 M369,343.32v-13.5 M355.98,341.88v1.44 M355.98,343.32h4.318v-1.44
		 M355.98,341.88h4.318 M367.74,343.32v-1.44h-4.38 M367.74,343.32h-4.38v-1.44 M366.96,339.18l0.12,1.26l-0.12,1.2l-0.06,0.24
		 M364.14,339.18l-0.18,1.38l0.24,1.32 M356.7,339.18l-0.12,1.26l0.12,1.2l0.06,0.24 M359.52,341.88l0.182-1.32l-0.12-1.38
		 M364.44,338.28l0.6-0.72l0.479-0.18l0.54,0.18l0.602,0.72 M359.22,338.28l-0.54-0.72l-0.54-0.18l-0.54,0.18l-0.6,0.72
		 M366.96,339.18l-0.3-0.9 M364.44,338.28l-0.302,0.9 M357,338.28l-0.3,0.9 M359.58,339.18l-0.36-0.9 M350.64,341.88h-4.318
		 M346.32,343.32h4.318 M343.26,341.88v1.44 M346.32,341.88v1.44 M350.64,341.88v1.44 M339.66,341.64l0.06,0.24 M342.42,341.88
		l0.18-1.32l-0.118-1.38 M349.92,339.18l0.12,1.26l-0.12,1.2l-0.06,0.24 M347.04,339.18l-0.12,1.38l0.18,1.32 M342.18,338.28
		l-0.6-0.72l-0.54-0.18l-0.48,0.18l-0.6,0.72 M347.4,338.28l0.54-0.72l0.54-0.18l0.538,0.18l0.54,0.72 M339.96,338.28l-0.3,0.9
		 M342.48,339.18l-0.302-0.9 M349.92,339.18l-0.36-0.9 M347.4,338.28l-0.36,0.9 M363.3,329.82h-2.938 M363.3,329.34h-2.88
		 M355.86,329.82h-1.44 M355.86,329.34h-1.44 M343.32,329.34h2.88 M343.32,329.82h2.938 M350.76,329.34h1.44 M350.76,329.82h1.44
		 M343.26,313.62l-0.42,0.12l-0.358,0.24l-0.24,0.36l-0.12,0.42 M350.64,313.62l-0.42,0.12l-0.358,0.24l-0.24,0.36l-0.062,0.42
		 M347.4,314.76l-0.062-0.42l-0.24-0.36l-0.358-0.24l-0.42-0.12 M346.32,313.62h4.318 M347.4,314.76
		c0.092,1.406,2.066,1.406,2.158,0 M339.96,314.76c0.343,1.522,2.064,1.286,2.16,0 M346.2,329.34c-0.01,2.438,2.122,4.57,4.56,4.56
		 M350.76,333.9v-4.56 M343.32,333.9v-4.56 M345,343.32v-13.5 M344.52,343.32v-13.5 M355.86,333.9v-4.56 M355.86,333.9
		c2.438,0.01,4.568-2.122,4.56-4.56 M363.3,333.9v-4.56 M362.1,343.32v-13.5 M361.62,343.32v-13.5 M354.42,343.32h22.021
		 M363.3,333.9c2.518-0.116,4.504-1.973,4.5-4.56 M394.74,312.18h-4.8 M384.18,312.18h4.802 M385.38,313.14h2.4 M393.54,313.14h-2.4
		 M379.56,313.14h2.46 M378.36,312.18h4.858 M350.64,312.18h-4.318 M376.44,320.7v-8.52H354.42 M377.16,312.18v8.52 M354.42,312.18
		v31.14 M352.2,312.18v31.14 M343.26,312.18v1.44 M346.32,312.18v1.44 M350.64,312.18v1.44 M394.74,316.56v-4.38 M389.94,316.56
		v-4.38 M383.22,316.56v-4.38 M378.36,316.56v-4.38 M384.18,316.56v-4.38 M388.98,316.56v-4.38 M391.14,313.14l-0.358,0.18
		l-0.12,0.3 M382.5,313.62l-0.18-0.3l-0.302-0.18 M379.56,313.14l-0.3,0.18l-0.18,0.3 M385.38,313.14l-0.36,0.18l-0.118,0.3
		 M388.26,313.62l-0.12-0.3l-0.358-0.18 M394.02,313.62l-0.118-0.3l-0.36-0.18 M377.16,312.18h18.78 M354.42,311.34h41.521
		 M415.08,343.2h-34.5 M381.18,344.16h34.86 M413.7,345.24h-31.5 M414.3,344.64h-32.7 M344.28,273.42v33.6 M343.32,273.42v33.6
		 M335.82,341.88h-4.32 M331.5,341.88v1.44h4.32 M328.38,341.88v1.44 M338.88,341.88v1.44 M335.82,341.88v1.44 M327.6,341.88
		l0.182-1.32l-0.12-1.38 M335.1,339.18l0.12,1.26l-0.12,1.2l-0.06,0.24 M332.22,339.18l-0.12,1.38l0.182,1.32 M327.36,338.28
		l-0.602-0.72l-0.54-0.18l-0.54,0.18 M332.52,338.28l0.602-0.72l0.54-0.18l0.54,0.18l0.54,0.72 M327.66,339.18l-0.3-0.9
		 M335.1,339.18l-0.358-0.9 M332.52,338.28l-0.3,0.9 M321,341.88h-4.38 M316.62,341.88v1.44H321 M321,341.88v1.44 M324.06,341.88
		v1.44 M324.78,339.18l-0.12,1.26l0.12,1.2l0.06,0.24 M320.22,339.18l0.182,1.26l-0.182,1.2l-0.06,0.24 M317.4,339.18l-0.12,1.38
		l0.18,1.32 M317.7,338.28l0.6-0.72l0.54-0.18l0.48,0.18l0.6,0.72 M314.4,343.2v-11.58 M325.14,338.28l-0.358,0.9 M320.22,339.18
		l-0.3-0.9 M317.7,338.28l-0.3,0.9 M324.06,341.88h4.32 M328.38,343.32h-4.32 M325.68,337.56l-0.54,0.72 M328.5,329.34h2.88
		 M328.5,329.82h2.88 M335.94,329.82h2.88 M335.94,329.34h2.88 M332.58,314.76l-0.12-0.42l-0.24-0.36l-0.3-0.24l-0.42-0.12
		 M335.82,313.62l-0.42,0.12l-0.36,0.24l-0.24,0.36l-0.06,0.42 M328.38,313.62l-0.42,0.12l-0.3,0.24l-0.24,0.36l-0.12,0.42
		 M331.5,313.62h4.32 M332.58,314.76c0.045,1.216,1.871,1.606,2.16,0 M315.12,329.34h1.438 M315.12,329.82h1.438 M321.06,329.34
		h2.882 M321.06,329.82H324 M314.4,320.7h0.72 M312.6,315.84l0.36-0.18l0.12-0.3v-1.74 M317.7,314.76l-0.062-0.42l-0.238-0.36
		l-0.36-0.24l-0.42-0.12 M321,313.62l-0.42,0.12l-0.36,0.24l-0.238,0.36l-0.062,0.42 M325.14,314.76l-0.06-0.42l-0.24-0.36
		l-0.358-0.24l-0.422-0.12 M316.62,313.62H321 M317.7,314.76c0.329,1.406,1.887,1.418,2.22,0 M328.38,313.62h-4.32 M325.14,314.76
		c0.094,1.406,2.068,1.406,2.16,0 M315.12,343.32v-13.98 M331.38,329.34c0.041,2.491,2.029,4.539,4.562,4.56 M323.94,329.34
		c-0.012,2.438,2.122,4.57,4.56,4.56v-4.56 M316.56,329.34c-0.027,2.543,2.021,4.489,4.5,4.56v-4.56 M335.94,333.9v-4.56
		 M322.26,343.32v-13.5 M322.74,343.32v-13.5 M329.7,343.32v-13.5 M330.18,343.32v-13.5 M337.62,343.32v-13.5 M337.14,343.32v-13.5
		 M307.5,340.38v2.82 M311.16,343.2v-2.82 M307.8,343.32v-2.1 M307.8,341.22h2.642v2.1 M311.16,340.38h-3.66 M310.44,343.32H307.8
		 M310.32,341.34v1.92 M307.98,343.26v-1.92 M307.98,342.3h2.34 M299.7,341.46h0.96 M299.7,340.98v0.96 M300.66,341.94v-0.48
		 M300.66,343.2v-1.26h-0.96 M299.7,341.94v1.26 M300.66,343.2h6.84 M299.7,332.82v-1.2h-0.48 M300.66,331.62v1.2 M299.7,332.82
		v0.48h0.96 M299.7,332.82h0.96v0.48 M290.58,331.62h0.48 M299.7,333.3c-4.534,0.167-8.133,3.554-8.16,8.16 M299.82,341.46h-8.28
		 M299.7,340.98h-8.16 M299.22,329.34h0.48 M307.86,316.56h-4.8 M306.66,315.84h-2.4 M303.78,315.36v-1.74 M297.84,315.36v-1.74
		 M301.2,315.36v-1.74 M303.78,315.36l0.12,0.3l0.36,0.18 M297.84,315.36l0.12,0.3l0.36,0.18h2.4 M300.72,315.84l0.36-0.18l0.12-0.3
		 M307.14,315.36v-1.74 M309.72,315.36v-1.74 M306.66,315.84l0.358-0.18l0.12-0.3 M309.72,315.36l0.12,0.3l0.36,0.18 M290.58,329.34
		h0.96 M291.9,315.36v-1.74 M295.26,315.36v-1.74 M295.98,316.56h-4.86 M291.9,315.36l0.12,0.3l0.36,0.18 M294.78,315.84h-2.4
		 M294.78,315.84l0.3-0.18l0.18-0.3 M291.54,329.34v-8.1 M299.22,329.34c0.005-4.471-3.686-8.141-8.16-8.1v8.28 M301.92,316.56h-4.8
		 M299.7,331.62v-2.28 M291.06,329.34v2.28 M299.7,331.62v-2.28 M299.22,331.62v-2.28 M299.7,329.34h15.42 M311.16,343.2h3.24
		 M300.66,331.62h13.74 M312.6,315.84H310.2 M313.8,316.56H309 M335.82,312.18h-4.32 M321,312.18h-4.38 M324.06,312.18h4.32
		 M307.86,312.18h-4.8 M306.66,313.14h-2.4 M300.72,313.14h-2.4 M290.58,309.18v2.16 M295.98,312.18h-4.86 M294.78,313.14h-2.4
		 M301.92,312.18h-4.8 M290.58,312.18h23.82 M312.6,313.14H310.2 M313.8,312.18H309 M289.14,308.7v21.42 M287.04,310.08v18.72
		 M314.4,312.18v8.52 M315.12,312.18v8.52 M290.58,312.18v19.44 M295.98,316.56v-4.38 M303.06,316.56v-4.38 M297.12,316.56v-4.38
		 M301.92,316.56v-4.38 M291.12,316.56v-4.38 M292.38,313.14l-0.36,0.18l-0.12,0.3 M304.26,313.14l-0.36,0.18l-0.12,0.3
		 M298.32,313.14l-0.36,0.18l-0.12,0.3 M301.2,313.62l-0.12-0.3l-0.36-0.18 M295.26,313.62l-0.18-0.3l-0.3-0.18 M307.86,316.56
		v-4.38 M309,316.56v-4.38 M313.8,316.56v-4.38 M307.14,313.62l-0.12-0.3l-0.358-0.18 M310.2,313.14l-0.36,0.18l-0.12,0.3
		 M313.08,313.62l-0.12-0.3l-0.36-0.18 M316.62,312.18v1.44 M321,312.18v1.44 M331.5,312.18v1.44 M328.38,312.18v1.44
		 M324.06,312.18v1.44 M335.82,312.18v1.44 M338.88,312.18v1.44 M271.56,341.76v1.44 M272.82,341.28v0.48 M272.82,341.28h-1.26v0.48
		 M271.56,343.2v0.96 M272.82,343.2v-1.44h-1.26 M271.56,331.62v0.48 M271.56,332.1h1.26v-0.48 M272.7,332.1h9.3 M282,332.58h-9.18
		v-0.48 M272.82,325.38h-1.26 M272.82,315.3h-1.26 M272.82,325.38v4.74 M271.56,325.38v6.24 M272.82,203.34v69.12 M273.42,310.08
		v18.72 M272.82,308.7v6.6 M271.56,202.32v73.98 M287.04,310.08h-13.62 M287.04,328.8h-13.62 M272.82,308.7h16.32 M271.56,344.16
		h34.92 M272.82,343.2h26.88 M273.3,344.64h32.76 M273.9,345.24h31.56 M272.82,341.28c4.986-0.015,9.232-4.127,9.18-9.18
		 M272.82,331.62h17.76 M272.82,330.12h16.32 M287.04,310.08l-13.62,18.72 M287.04,328.8l-13.62-18.72 M290.58,309.18h105.36
		 M290.58,311.34h63.84 M315.12,312.18h37.08 M307.5,344.16h72.66 M315.12,343.32h37.08 M272.82,307.02h70.5 M339.96,314.76
		l-0.06-0.42l-0.24-0.36l-0.36-0.24l-0.42-0.12 M338.88,312.18h4.38 M343.26,313.62h-4.38 M338.82,329.34
		c-0.024,2.535,2.024,4.526,4.5,4.56 M343.26,343.32h-4.38 M338.88,341.88h4.38 M339.66,339.18l-0.18,1.26l0.18,1.2 M381.18,344.16
		v54 M380.16,344.16v9.9 M273.9,345.24v36.78 M305.46,345.24v49.56 M273.3,344.64v37.38 M306.48,344.16v54 M307.5,344.16v9.9
		 M272.34,344.16v50.04 M271.56,344.16v50.64 M307.5,344.16l72.66,9.9 M380.16,344.16l-72.66,9.9 M381.6,344.64v49.56 M414.3,344.64
		v37.38 M382.2,345.24v49.56 M413.7,345.24v36.78 M416.04,344.16v50.64 M415.32,344.16v50.04 M306.06,344.64v49.56 M520.92,688.02
		h-0.96 M516.12,692.76v-0.96 M516.06,688.14v1.92 M518.4,688.14v1.92 M518.4,689.1h-2.342 M516.54,690.84h1.38 M516.54,692.76h1.38
		 M517.2,692.76v-1.92 M518.88,690.78h-3.36 M515.52,690.78v-3.36h3.36 M518.88,690.78v-3.36 M519,688.38v1.38 M520.86,688.38v1.38
		 M520.86,689.1H519 M482.52,692.76v-1.92 M481.86,692.76h1.38 M481.86,690.84h1.38 M483.6,691.8v0.96 M481.44,692.76v-0.96
		 M483.6,691.8h32.521 M516.54,692.76h-33.3 M516.54,690.84h-33.3 M520.86,654.42H519 M520.86,653.7v1.38 M519,655.08v-1.38
		 M520.92,655.5h-0.96 M520.92,653.34h-0.96 M520.86,619.74H519 M520.86,620.4v-1.381 M519,620.4v-1.381 M518.88,618.06v3.36
		 M518.88,621.42h-3.36v-3.36 M518.88,618.06h-3.36 M518.4,619.74h-2.342 M518.4,620.7v-1.92 M516.06,620.7v-1.92 M520.92,620.82
		h-0.96 M520.92,618.66h-0.96 M519.96,620.82v32.52 M518.94,620.4v33.3 M520.92,620.4v33.3 M518.94,655.08v33.3 M520.92,655.08v33.3
		 M519.96,655.5v32.52 M449.04,689.1h-2.34 M449.04,690.06v-1.92 M446.7,688.14v1.92 M447.84,692.76v-1.92 M447.18,692.76h1.38
		 M447.18,690.84h1.38 M449.52,690.78v-3.36 M449.52,687.42h-3.358v3.36 M449.52,690.78h-3.358 M448.92,691.8v0.96 M446.76,692.76
		v-0.96 M413.16,692.76v-1.92 M412.5,692.76h1.38 M412.5,690.84h1.38 M414.24,691.8v0.96 M412.08,692.76v-0.96 M414.24,691.8h32.52
		 M447.18,692.76h-33.3 M447.18,690.84h-33.3 M378.48,692.76v-1.92 M377.82,692.76h1.38 M377.82,690.84h1.38 M380.16,687.42v3.36
		 M380.16,690.78h-3.36v-3.36 M380.16,687.42h-3.36 M379.68,689.1h-2.34 M379.68,690.06v-1.92 M377.34,688.14v1.92 M379.56,691.8
		v0.96 M377.4,692.76v-0.96 M342.72,691.8v0.96 M344.52,690.84h-1.38 M344.52,692.76h-1.38 M343.8,692.76v-1.92 M377.4,691.8H344.88
		v0.96 M377.82,692.76H344.52 M377.82,690.84H344.52 M379.56,691.8h32.521 M412.5,692.76h-33.3 M412.5,690.84h-33.3 M446.7,620.7
		v-1.92 M449.04,620.7v-1.92 M449.04,619.74h-2.34 M377.34,618.78v1.92 M379.68,620.7v-1.92 M379.68,619.74h-2.34 M448.92,691.8
		h32.521 M481.86,692.76H448.56 M481.86,690.84H448.56 M520.92,586.14h-0.96 M519,585.72v-1.38 M520.86,584.34v1.38 M520.86,585.06
		H519 M520.92,583.98h-0.96 M520.92,551.46h-0.96 M518.4,550.38h-2.342 M518.88,552.06h-3.36 M520.86,550.38H519 M519.96,551.46
		v32.521 M520.92,551.04v33.3 M518.94,551.04v33.3 M520.92,549.3h-0.96 M518.88,548.7h-3.36 M519.96,549.3v-32.52h0.96
		 M520.92,514.62h-0.96 M519,516.36v-1.38 M520.86,514.98v1.38 M520.86,515.7H519 M518.88,482.7h-3.36 M520.92,516.36v33.3
		 M518.94,516.36v33.3 M516.06,551.34v-1.92 M518.4,551.34v-1.92 M515.52,548.7v3.358 M518.88,548.7v3.358 M519,551.04v-1.38
		 M520.86,551.04v-1.38 M449.04,550.38h-2.34 M379.68,550.38h-2.34 M446.7,551.34v-1.92 M449.04,551.34v-1.92 M377.34,549.42v1.92
		 M379.68,551.34v-1.92 M520.92,479.94h-0.96 M520.92,482.1h-0.96 M516.06,481.98v-1.922 M518.4,481.98v-1.922 M518.4,481.02h-2.342
		 M518.88,479.34h-3.36 M519,481.68v-1.38 M520.86,481.68v-1.38 M520.86,481.02H519 M520.86,446.34H519 M520.86,445.62V447 M519,447
		v-1.38 M520.92,447.42h-0.96 M520.92,445.26h-0.96 M518.94,447v33.3 M520.92,447v33.3 M519.96,447.42v32.521 M520.86,411.66H519
		 M520.86,412.32v-1.38 M519,412.32v-1.38 M518.88,409.98v3.358 M518.88,413.34h-3.36v-3.358 M518.88,409.98h-3.36 M518.4,411.66
		h-2.342 M518.4,412.62v-1.92 M516.06,412.62v-1.92 M520.92,412.74h-0.96 M520.92,410.58h-0.96 M520.86,376.98H519 M520.86,376.26
		v1.38 M519,377.64v-1.38 M520.92,378.06h-0.96 M520.92,375.9h-0.96 M518.94,377.64v33.3 M520.92,377.64v33.3 M519.96,378.06v32.52
		 M519.96,412.74v32.52 M518.94,412.32v33.3 M520.92,412.32v33.3 M446.7,481.98v-1.922 M449.04,481.98v-1.922 M449.04,481.02h-2.34
		 M377.34,480.06v1.922 M379.68,481.98v-1.922 M379.68,481.02h-2.34 M446.7,412.62v-1.92 M449.04,412.62v-1.92 M449.04,411.66h-2.34
		 M377.34,410.7v1.92 M379.68,412.62v-1.92 M379.68,411.66h-2.34 M520.92,481.68v33.302 M518.94,481.68v33.302 M519.96,482.1v32.521
		 M515.52,479.34v3.36 M518.88,479.34v3.36 M519.96,586.14v32.521 M520.92,585.72v33.3 M518.94,585.72v33.3 M310.2,692.76v-0.96
		 M308.04,691.8v0.96 M310.32,688.14v1.92 M307.98,690.06v-1.92 M307.98,689.1h2.34 M307.44,687.42h3.358 M310.8,687.42v3.36h-3.358
		 M307.44,687.42v3.36 M309.84,690.84h-1.38 M309.84,692.76h-1.38 M309.12,692.76v-1.92 M275.52,692.76v-0.96 M273.36,691.8v0.96
		 M275.16,690.84h-1.38 M275.16,692.76h-1.38 M274.44,692.76v-1.92 M240.84,692.76v-0.96 M241.44,690.78v-3.36 M240.96,688.14v1.92
		 M238.68,691.8v0.96 M238.08,690.78v-3.36 M240.48,690.84h-1.38 M240.48,692.76h-1.38 M239.76,692.76v-1.92 M238.62,690.06v-1.92
		 M238.08,690.78h3.36 M238.08,687.42h3.36 M238.62,689.1h2.34 M240.48,690.84h33.3 M240.48,692.76h33.3 M273.36,691.8h-32.52
		 M275.16,690.84h33.3 M275.16,692.76h33.3 M308.04,691.8h-32.52 M307.98,619.74h2.34 M307.98,620.7v-1.92 M310.32,618.78v1.92
		 M240.96,620.7v-1.92 M238.62,620.7v-1.92 M238.62,619.74h2.34 M206.16,692.76v-0.96 M204,691.8v0.96 M205.8,690.84h-1.38
		 M205.8,692.76h-1.38 M205.08,692.76v-1.92 M172.08,690.78v-3.36 M170.4,692.76v-1.92 M171.6,688.14v1.92 M171.48,692.76v-0.96
		 M171.12,690.84h33.3 M171.12,692.76h33.3 M204,691.8h-32.52 M166.8,689.1h1.86 M166.8,688.38v1.38 M168.66,688.38v1.38
		 M168.72,690.78v-3.36 M169.26,688.14v1.92 M166.74,688.02h0.96 M168.72,687.42h3.36 M168.72,690.78h3.36 M171.12,692.76h-1.38
		 M171.12,690.84h-1.38 M169.26,689.1h2.34 M171.6,620.7v-1.92 M172.08,618.06v3.36 M166.74,653.34h0.96 M166.74,655.5h0.96
		 M168.66,655.08v-1.38 M166.8,653.7v1.38 M166.8,654.42h1.86 M166.74,618.66h0.96 M166.74,620.82h0.96 M169.26,620.7v-1.92
		 M168.72,618.06v3.36 M168.66,620.4v-1.381 M166.8,620.4v-1.381 M166.8,619.74h1.86 M166.74,620.4v33.3 M168.66,620.4v33.3
		 M167.7,620.82v32.52 M169.26,619.74h2.34 M168.72,618.06h3.36 M168.72,621.42h3.36 M167.7,655.5v32.52 M166.74,655.08v33.3
		 M168.66,655.08v33.3 M205.8,690.84h33.3 M205.8,692.76h33.3 M238.68,691.8h-32.52 M307.98,550.38h2.34 M238.62,550.38h2.34
		 M238.62,551.34v-1.92 M240.96,551.34v-1.92 M307.98,551.34v-1.92 M310.32,549.42v1.92 M166.8,585.06h1.86 M166.8,584.34v1.38
		 M168.66,585.72v-1.38 M166.74,586.14h0.96 M166.74,583.98h0.96 M166.8,550.38h1.86 M167.7,583.98V551.46h-0.96 M168.66,551.04
		v33.3 M166.74,551.04v33.3 M168.72,552.06h3.36 M169.26,550.38h2.34 M166.74,549.3h0.96 M167.7,549.3v-32.52h-0.96 M166.8,515.7
		h1.86 M166.8,514.98v1.38 M168.66,516.36v-1.38 M166.74,514.62h0.96 M168.66,516.36v33.3 M166.74,516.36v33.3 M168.72,482.7h3.36
		 M168.72,548.7h3.36 M166.8,551.04v-1.38 M168.66,551.04v-1.38 M168.72,548.7v3.358 M172.08,548.7v3.358 M169.26,551.34v-1.92
		 M171.6,551.34v-1.92 M307.98,481.02h2.34 M307.98,481.98v-1.922 M310.32,480.06v1.922 M240.96,481.98v-1.922 M238.62,481.98
		v-1.922 M238.62,481.02h2.34 M307.98,411.66h2.34 M307.98,412.62v-1.92 M310.32,410.7v1.92 M240.96,412.62v-1.92 M238.62,412.62
		v-1.92 M238.62,411.66h2.34 M171.6,481.98v-1.922 M166.8,481.02h1.86 M166.8,481.68v-1.38 M168.66,481.68v-1.38 M169.26,481.98
		v-1.922 M166.74,482.1h0.96 M166.74,479.94h0.96 M166.74,445.26h0.96 M166.74,447.42h0.96 M168.66,447v-1.38 M166.8,445.62V447
		 M166.8,446.34h1.86 M167.7,447.42v32.521 M166.74,447v33.3 M168.66,447v33.3 M168.72,479.34h3.36 M169.26,481.02h2.34
		 M171.6,412.62v-1.92 M172.08,409.98v3.358 M166.74,410.58h0.96 M166.74,412.74h0.96 M169.26,412.62v-1.92 M168.72,409.98v3.358
		 M168.66,412.32v-1.38 M166.8,412.32v-1.38 M166.8,411.66h1.86 M166.74,375.9h0.96 M166.74,378.06h0.96 M168.66,377.64v-1.38
		 M166.8,376.26v1.38 M166.8,376.98h1.86 M167.7,378.06v32.52 M166.74,377.64v33.3 M168.66,377.64v33.3 M169.26,411.66h2.34
		 M168.72,409.98h3.36 M168.72,413.34h3.36 M166.74,412.32v33.3 M168.66,412.32v33.3 M167.7,412.74v32.52 M168.72,479.34v3.36
		 M172.08,479.34v3.36 M167.7,482.1v32.521 M168.66,481.68v33.302 M166.74,481.68v33.302 M168.66,585.72v33.3 M166.74,585.72v33.3
		 M167.7,586.14v32.521 M309.84,690.84h33.3 M309.84,692.76h33.3 M342.72,691.8H310.2 M520.86,342.3H519 M520.86,342.96v-1.38
		 M519,342.96v-1.38 M518.88,340.62v3.36 M518.88,343.98h-3.36v-3.36 M518.88,340.62h-3.36 M518.4,342.3h-2.342 M518.4,343.26v-1.92
		 M516.06,343.26v-1.92 M520.92,343.38h-0.96 M520.92,341.22h-0.96 M520.86,307.62H519 M520.86,306.9v1.38 M519,308.28v-1.38
		 M520.92,308.7h-0.96 M520.92,306.54h-0.96 M518.94,308.28v33.3 M520.92,308.28v33.3 M519.96,308.7v32.52 M520.86,272.94H519
		 M520.86,273.6v-1.38 M519,273.6v-1.38 M518.88,271.2v3.42 M518.88,274.62h-3.36v-3.42 M518.88,271.2h-3.36 M518.4,272.94h-2.342
		 M518.4,273.9v-1.92 M516.06,273.9v-1.92 M520.92,274.02h-0.96 M520.92,271.86h-0.96 M520.86,238.26H519 M520.86,237.54v1.38
		 M519,238.92v-1.38 M520.92,239.34h-0.96 M520.92,237.18h-0.96 M518.94,238.92v33.3 M520.92,238.92v33.3 M519.96,239.34v32.52
		 M519.96,274.02v32.52 M518.94,273.6v33.3 M520.92,273.6v33.3 M446.7,343.26v-1.92 M449.04,343.26v-1.92 M449.04,342.3h-2.34
		 M379.68,342.3h-2.34 M379.68,343.26v-1.92 M377.34,341.34v1.92 M446.7,273.9v-1.92 M449.04,273.9v-1.92 M449.04,272.94h-2.34
		 M379.68,272.94h-2.34 M379.68,271.98v1.92 M377.34,273.9v-1.92 M310.32,341.34v1.92 M307.98,343.26v-1.92 M307.98,342.3h2.34
		 M240.96,343.26v-1.92 M238.62,343.26v-1.92 M238.62,342.3h2.34 M310.32,273.9v-1.92 M307.98,271.98v1.92 M307.98,272.94h2.34
		 M240.96,273.9v-1.92 M238.62,273.9v-1.92 M238.62,272.94h2.34 M171.6,343.26v-1.92 M172.08,340.62v3.36 M166.74,341.22h0.96
		 M166.74,343.38h0.96 M169.26,343.26v-1.92 M168.72,340.62v3.36 M168.66,342.96v-1.38 M166.8,342.96v-1.38 M166.8,342.3h1.86
		 M166.74,306.54h0.96 M166.74,308.7h0.96 M168.66,308.28v-1.38 M166.8,306.9v1.38 M166.8,307.62h1.86 M167.7,308.7v32.52
		 M166.74,308.28v33.3 M168.66,308.28v33.3 M169.26,342.3h2.34 M168.72,340.62h3.36 M168.72,343.98h3.36 M171.6,273.9v-1.92
		 M172.08,271.2v3.42 M166.74,271.86h0.96 M166.74,274.02h0.96 M169.26,273.9v-1.92 M168.72,271.2v3.42 M168.66,273.6v-1.38
		 M166.8,273.6v-1.38 M166.8,272.94h1.86 M166.74,237.18h0.96 M166.74,239.34h0.96 M168.66,238.92v-1.38 M166.8,237.54v1.38
		 M166.8,238.26h1.86 M167.7,239.34v32.52 M166.74,238.92v33.3 M168.66,238.92v33.3 M169.26,272.94h2.34 M168.72,271.2h3.36
		 M168.72,274.62h3.36 M166.74,273.6v33.3 M168.66,273.6v33.3 M167.7,274.02v32.52 M166.74,342.96v33.3 M168.66,342.96v33.3
		 M167.7,343.38v32.52 M519.96,343.38v32.52 M518.94,342.96v33.3 M520.92,342.96v33.3 M520.86,203.58H519 M518.88,205.26h-3.36
		 M518.4,203.58h-2.342 M520.92,204.66h-0.96 M518.88,201.84h-3.36 M520.92,202.44h-0.96 M520.86,204.24v-1.38 M519,204.24v-1.38
		 M518.88,201.84v3.42 M515.52,201.84v3.42 M518.4,204.54v-1.98 M516.06,204.54v-1.98 M520.92,169.98h-0.96 M520.92,167.76h-0.96
		 M520.86,168.9H519 M519,169.56v-1.38 M520.86,168.18v1.38 M519.96,169.98v32.46 M520.92,169.56v33.3 M518.94,169.56v33.3
		 M449.04,203.58h-2.34 M446.7,204.54v-1.98 M449.04,204.54v-1.98 M519.96,204.66v32.52 M518.94,204.24v33.3 M520.92,204.24v33.3
		 M240.96,204.54v-1.98 M238.62,204.54v-1.98 M238.62,203.58h2.34 M171.6,204.54v-1.98 M172.08,201.84v3.42 M166.74,204.66h0.96
		 M166.8,203.58h1.86 M166.74,202.44h0.96 M169.26,204.54v-1.98 M168.72,201.84v3.42 M168.66,204.24v-1.38 M166.8,204.24v-1.38
		 M166.74,169.98h0.96 M166.8,168.9h1.86 M166.74,167.76h0.96 M166.8,168.18v1.38 M168.66,202.86v-34.68 M166.74,169.56v33.3
		 M167.7,169.98v32.46 M169.26,203.58h2.34 M168.72,201.84h3.36 M168.72,205.26h3.36 M166.74,204.24v33.3 M168.66,204.24v33.3
		 M167.7,204.66v32.52 M518.88,135.9h-3.36 M520.92,133.08h-0.96 M520.92,135.3h-0.96 M516.06,135.18v-1.98 M518.4,135.18v-1.98
		 M518.4,134.22h-2.342 M518.88,132.48h-3.36 M519,134.88v-1.38 M520.86,134.88v-1.38 M520.86,134.22H519 M515.52,132.48v3.42
		 M518.88,132.48v3.42 M520.86,99.48H519 M520.86,98.82v1.38 M519,100.2v-1.38 M520.92,100.62h-0.96 M520.92,98.4h-0.96
		 M518.94,100.2v33.3 M520.92,100.2v33.3 M519.96,100.62v32.46 M520.92,134.88v33.3 M518.94,134.88v33.3 M519.96,135.3v32.46
		 M449.04,134.22h-2.34 M449.04,135.18v-1.98 M446.7,135.18v-1.98 M379.68,135.18v-1.98 M379.68,134.22h-2.34 M520.86,64.8H519
		 M520.86,65.52v-1.38 M519,65.52v-1.38 M518.88,63.12v3.42 M518.88,66.54h-3.36v-3.42 M518.88,63.12h-3.36 M517.2,61.2v1.86
		 M516.54,61.2h1.38 M516.54,63.06h1.38 M518.4,64.8h-2.342 M518.4,65.82v-1.98 M516.06,65.82v-1.98 M516.12,61.14v0.96
		 M520.92,65.94h-0.96 M482.52,61.2v1.86 M481.86,61.2h1.38 M481.86,63.06h1.38 M481.44,61.14v0.96 M516.12,62.1H483.6v-0.96
		 M516.54,61.14h-33.3 M516.54,63.06h-33.42 M449.04,64.8h-2.34 M449.04,65.82v-1.98 M446.7,65.82v-1.98 M447.84,63.06V61.2
		 M447.18,63.06h1.38 M447.18,61.2h1.38 M446.76,61.14v0.96 M448.92,61.14v0.96 M446.16,63.12v4.26 M446.16,67.38h3.358v-4.26
		 M449.52,63.12h-3.358 M413.16,63.06V61.2 M412.5,63.06h1.38 M412.5,61.2h1.38 M412.08,61.14v0.96 M446.76,62.1h-32.52v-0.96
		 M413.88,61.14h33.3 M413.88,63.06h33.3 M380.16,63.12h-3.36 M378.48,61.2v1.86 M377.82,61.2h1.38 M377.82,63.06h1.38 M379.68,64.8
		h-2.34 M379.68,65.82v-1.98 M377.34,65.82v-1.98 M380.16,63.12v3.42 M380.16,66.54h-3.36v-3.42 M377.4,61.14v0.96 M379.56,61.14
		v0.96 M342.72,61.14v0.96 M344.52,61.2h-1.38 M344.52,63.06h-1.38 M343.8,63.06V61.2 M344.88,61.14v0.96 M377.82,61.14H344.52
		 M377.4,62.1H344.88 M377.82,63.06H344.52 M412.08,62.1H379.56 M412.5,61.14h-33.3 M412.5,63.06h-33.3 M481.86,61.14H448.56
		 M481.86,63.06H448.56 M481.44,62.1H448.92 M519.96,65.94V98.4 M518.94,65.52v33.3 M520.92,65.52v33.3 M307.98,134.22h2.34
		 M307.98,135.18v-1.98 M310.32,133.2v1.98 M240.96,135.18v-1.98 M238.62,135.18v-1.98 M238.62,134.22h2.34 M171.6,135.18v-1.98
		 M172.08,132.48v3.42 M166.8,134.22h1.86 M166.8,134.88v-1.38 M168.66,134.88v-1.38 M169.26,135.18v-1.98 M166.74,135.3h0.96
		 M166.74,133.08h0.96 M168.72,132.48v3.42 M166.74,98.4h0.96 M166.74,100.62h0.96 M168.66,100.2v-1.38 M166.8,98.82v1.38
		 M166.8,99.48h1.86 M167.7,100.62v32.46 M166.74,100.2v33.3 M168.66,100.2v33.3 M168.72,135.9h3.36 M168.72,132.48h3.36
		 M169.26,134.22h2.34 M167.7,135.3v32.46 M168.66,134.88v33.3 M166.74,134.88v33.3 M308.04,61.14v0.96 M310.2,61.14v0.96
		 M310.8,63.12v3.42h-3.358 M307.44,63.12v3.42 M310.32,65.82v-1.98 M307.98,65.82v-1.98 M307.98,64.8h2.34 M309.84,63.06h-1.38
		 M309.84,61.2h-1.38 M309.12,61.2v1.86 M307.44,63.12h3.358 M273.36,61.14v0.96 M275.52,61.14v0.96 M275.16,61.2h-1.38
		 M275.16,63.06h-1.38 M274.44,63.06V61.2 M241.44,63.12v4.26 M240.84,61.14v0.96 M240.96,65.82v-1.98 M238.08,63.12v4.26
		 M238.68,61.14v0.96 M240.48,61.2h-1.38 M240.48,63.06h-1.38 M239.76,63.06V61.2 M238.62,65.82v-1.98 M238.08,63.12h3.36
		 M238.08,67.38h3.36 M238.62,64.8h2.34 M273.78,63.06h-33.3 M273.78,61.14h-33.3 M240.84,62.1h32.52 M275.16,63.06h33.3
		 M275.16,61.14h33.3 M275.52,62.1h32.52 M204,61.14v0.96 M206.16,61.14v0.96 M205.8,63.06h-1.38 M205.8,61.2h-1.38 M205.08,61.2
		v1.86 M171.48,61.14v0.96 M171.6,65.82v-1.98 M170.4,61.2v1.86 M172.08,63.12v3.42 M171.12,63.06h33.42 M171.12,61.14h33.3
		 M171.48,62.1H204 M166.74,65.94h0.96 M169.26,65.82v-1.98 M168.72,63.12v3.42 M168.66,65.52v-1.38 M166.8,65.52v-1.38 M166.8,64.8
		h1.86 M169.26,64.8h2.34 M171.12,63.06h-1.38 M171.12,61.2h-1.38 M168.72,63.12h3.36 M168.72,66.54h3.36 M206.16,62.1h32.52
		 M205.8,63.06h33.3 M205.8,61.14h33.3 M166.74,65.52v33.3 M168.66,65.52v33.3 M167.7,65.94V98.4 M310.2,62.1h32.52 M309.84,63.06
		h33.3 M309.84,61.14h33.3 M238.62,271.5v-38.58 M238.62,202.08v-66.42 M238.62,135.18v-1.98 M238.62,273.9v-1.92 M238.62,343.26
		v-1.92 M238.62,481.98v-1.922 M238.62,467.28v-14.7 M377.34,131.04v1.2 M377.34,133.2v1.98 M449.04,549.42v1.92 M449.04,618.78
		v1.92 M238.62,620.7v-1.92 M238.62,551.34v-1.92 M449.04,412.62v-1.92"/>
</g>
<g id="Building">
	
		<path fill="none" stroke="#000000" stroke-width="0.72" stroke-linecap="round" stroke-linejoin="round" stroke-miterlimit="10" d="
		M242.7,183.06v22.44 M237.66,133.68v-1.44 M308.64,66.54v24.3 M309.6,66.54v24.3 M272.52,133.2v48.9 M271.56,132.24v50.82
		 M272.82,203.34h58.86 M271.56,202.32h60.12 M253.5,183.06h18.06 M253.5,182.1h18.06 M168.66,169.62h35.94 M168.66,170.58h35.94
		 M172.08,204.06h19.32 M172.08,203.1h20.28 M240.24,118.08h33.72 M274.92,63.06v26.82 M273.96,63.06v55.02 M239.28,119.04h35.64
		 M272.52,133.2h23.64 M271.56,132.24h24.6 M172.08,134.7h20.28 M172.08,133.68h19.32 M237.66,132.24h5.04 M242.7,132.24v50.82
		 M237.66,621.66v-37.32 M168.66,237.78h22.74 M168.66,238.74h23.7 M172.08,273.42h65.58 M172.08,272.46h32.52 M168.66,101.64h22.74
		 M168.66,100.68h23.7 M204.6,63.06v37.62 M205.56,63.06v37.62 M239.28,67.38v33.3 M240.24,67.38v36.96 M380.16,355.26v41.94
		 M306.48,398.16h1.02 M307.5,355.26v41.94 M307.5,354.061h72.66 M307.5,355.26h72.66 M381.18,398.16h-3.898 M380.16,397.2h-2.88
		 M416.04,341.82v0.48 M415.08,342.3v-0.9 M415.08,342.3v0.9 M416.04,342.3v1.86 M395.94,333.36h2.278 M398.22,333.36v-24.18h16.86
		 M395.94,312.18v21.18 M416.04,307.62v25.02 M415.08,203.34v69.12 M416.04,202.32v73.98 M377.16,340.38h3.42v2.82 M376.44,329.34
		h0.72 M376.44,320.7h0.72 M376.44,343.32v-13.98 M377.16,340.38v-11.04 M346.32,343.32h4.318 M354.42,343.32h22.021 M394.74,312.18
		h-4.8 M384.18,312.18h4.802 M378.36,312.18h4.858 M350.64,312.18h-4.318 M376.44,320.7v-8.52H354.42 M377.16,312.18v8.52
		 M354.42,312.18v31.14 M352.2,312.18v31.14 M377.16,312.18h18.78 M415.08,343.2h-34.5 M381.18,344.16h34.86 M344.28,273.42v33.6
		 M343.32,273.42v33.6 M314.4,343.2v-11.58 M328.38,343.32h-4.32 M314.4,320.7h0.72 M315.12,343.32v-13.98 M307.5,340.38v2.82
		 M311.16,343.2v-2.82 M311.16,340.38h-3.66 M300.66,343.2v-1.26h-0.96 M299.7,341.94v1.26 M300.66,343.2h6.84 M299.7,331.62v-2.28
		 M299.7,331.62v-2.28 M299.7,329.34h15.42 M311.16,343.2h3.24 M300.66,331.62h13.74 M335.82,312.18h-4.32 M321,312.18h-4.38
		 M324.06,312.18h4.32 M307.86,312.18h-4.8 M295.98,312.18h-4.86 M301.92,312.18h-4.8 M290.58,312.18h23.82 M313.8,312.18H309
		 M289.14,308.7v21.42 M314.4,312.18v8.52 M315.12,312.18v8.52 M290.58,312.18v19.44 M271.56,341.76v1.44 M271.56,343.2v0.96
		 M272.82,343.2v-1.44h-1.26 M272.82,325.38h-1.26 M272.82,315.3h-1.26 M272.82,325.38v4.74 M271.56,325.38v6.24 M272.82,203.34
		v69.12 M272.82,308.7v6.6 M271.56,202.32v73.98 M272.82,308.7h16.32 M271.56,344.16h34.92 M272.82,343.2h26.88 M272.82,331.62
		h17.76 M272.82,330.12h16.32 M315.12,312.18h37.08 M307.5,344.16h72.66 M315.12,343.32h37.08 M272.82,307.02h70.5 M338.88,312.18
		h4.38 M343.26,343.32h-4.38 M381.18,344.16v54 M380.16,344.16v9.9 M306.48,344.16v54 M307.5,344.16v9.9 M516.54,692.76h-33.3
		 M516.54,690.84h-33.3 M518.94,620.4v33.3 M520.92,620.4v33.3 M518.94,655.08v33.3 M520.92,655.08v33.3 M447.18,692.76h-33.3
		 M447.18,690.84h-33.3 M377.82,692.76H344.52 M377.82,690.84H344.52 M412.5,692.76h-33.3 M412.5,690.84h-33.3 M481.86,692.76
		H448.56 M481.86,690.84H448.56 M520.92,551.04v33.3 M518.94,551.04v33.3 M520.92,516.36v33.3 M518.94,516.36v33.3 M518.94,447v33.3
		 M520.92,447v33.3 M518.94,377.641v33.3 M520.92,377.641v33.3 M518.94,412.32v33.3 M520.92,412.32v33.3 M520.92,481.68v33.302
		 M518.94,481.68v33.302 M520.92,585.72v33.3 M518.94,585.72v33.3 M240.48,690.84h33.3 M240.48,692.76h33.3 M275.16,690.84h33.3
		 M275.16,692.76h33.3 M171.12,690.84h33.3 M171.12,692.76h33.3 M166.74,620.4v33.3 M168.66,620.4v33.3 M166.74,655.08v33.3
		 M168.66,655.08v33.3 M205.8,690.84h33.3 M205.8,692.76h33.3 M168.66,551.04v33.3 M166.74,551.04v33.3 M168.66,516.36v33.3
		 M166.74,516.36v33.3 M166.74,447v33.3 M168.66,447v33.3 M166.74,377.641v33.3 M168.66,377.641v33.3 M166.74,412.32v33.3
		 M168.66,412.32v33.3 M168.66,481.68v33.302 M166.74,481.68v33.302 M168.66,585.72v33.3 M166.74,585.72v33.3 M309.84,690.84h33.3
		 M309.84,692.76h33.3 M518.94,308.28v33.3 M520.92,308.28v33.3 M518.94,238.92v33.3 M520.92,238.92v33.3 M518.94,273.6v33.3
		 M520.92,273.6v33.3 M166.74,308.28v33.3 M168.66,308.28v33.3 M166.74,238.92v33.3 M168.66,238.92v33.3 M166.74,273.6v33.3
		 M168.66,273.6v33.3 M166.74,342.96v33.3 M168.66,342.96v33.3 M518.94,342.96v33.3 M520.92,342.96v33.3 M520.92,169.56v33.3
		 M518.94,169.56v33.3 M518.94,204.24v33.3 M520.92,204.24v33.3 M168.66,202.86v-34.68 M166.74,169.56v33.3 M166.74,204.24v33.3
		 M168.66,204.24v33.3 M518.94,100.2v33.3 M520.92,100.2v33.3 M520.92,134.88v33.3 M518.94,134.88v33.3 M516.54,61.14h-33.3
		 M516.54,63.06h-33.42 M413.88,61.14h33.3 M413.88,63.06h33.3 M377.82,61.14H344.52 M377.82,63.06H344.52 M412.5,61.14h-33.3
		 M412.5,63.06h-33.3 M481.86,61.14H448.56 M481.86,63.06H448.56 M518.94,65.52v33.3 M520.92,65.52v33.3 M166.74,100.2v33.3
		 M168.66,100.2v33.3 M168.66,134.88v33.3 M166.74,134.88v33.3 M273.78,63.06h-33.3 M273.78,61.14h-33.3 M275.16,63.06h33.3
		 M275.16,61.14h33.3 M171.12,63.06h33.42 M171.12,61.14h33.3 M205.8,63.06h33.3 M205.8,61.14h33.3 M166.74,65.52v33.3
		 M168.66,65.52v33.3 M309.84,63.06h33.3 M309.84,61.14h33.3"/>
	
		<path fill="none" stroke="#000000" stroke-width="0.72" stroke-linecap="round" stroke-linejoin="round" stroke-miterlimit="10" d="
		M380.4,288.06h34.68 M381.36,287.1h33.72"/>
	
		<path fill="none" stroke="#000000" stroke-width="0.72" stroke-linecap="round" stroke-linejoin="round" stroke-miterlimit="10" d="
		M480.84,514.5v0.96 M469.98,514.5v0.96 M480.84,515.46h1.44 M450,515.46h19.98 M480.84,514.5h1.44 M450,514.5h19.98"/>
	
		<path fill="none" stroke="#000000" stroke-width="0.72" stroke-linecap="round" stroke-linejoin="round" stroke-miterlimit="10" d="
		M297.84,90.84v-0.96 M308.64,89.88v0.96 M297.84,89.88v0.96 M298.32,90.84h-0.48 M378.84,440.64h-0.96 M378.84,439.68v0.96
		 M389.22,440.64h0.48 M367.08,440.64h-22.8 M367.08,439.68 M377.88,439.68v0.96 M367.56,439.68H344.28 M377.88,413.1h-1.02
		 M378.84,440.64V413.1 M377.88,440.64V413.1 M344.28,439.68V410.7 M389.22,439.68h25.86V410.7 M415.08,440.64h-25.92 M272.52,133.2
		h-0.48 M307.02,133.2h3.54 M344.28,307.02h70.8 M415.08,309.18v23.46 M377.28,397.2v0.96 M366.42,397.2v0.96 M310.38,397.2v0.96
		 M321.24,397.2v0.96 M310.38,398.16h-2.88 M310.38,397.2h-2.88 M366.42,398.16h-45.18 M366.42,397.2h-45.18 M272.52,550.86V481.5
		 M445.92,431.4 M450,550.86v32.52 M450,584.34v34.92 M343.26,656.16v-28.92 M344.22,656.16v-28.92 M239.28,652.56v-1.979
		 M205.38,583.38h32.28 M205.56,584.34h32.1 M237.66,515.22V481.5h-32.28 M343.8,130.08H378 M448.32,652.56v-1.979 M482.04,584.34
		H450 M482.28,583.38H450 M449.04,451.62 M242.7,459.3v8.94 M242.7,451.62v2.88 M242.7,230.04v2.88 M242.7,253.14v21.72
		 M241.68,253.14v18.36 M242.7,451.62h-1.02 M241.68,431.4v0.479 M242.7,431.88h-1.02 M241.68,454.5H240v4.8h1.68 M242.7,459.3
		h-1.02 M242.7,454.5h-1.02 M241.68,431.4h1.02v0.479 M242.7,232.92h-1.02 M241.68,253.14v-0.48 M242.7,252.66h-1.02 M241.68,230.04
		H240v-4.8h1.68 M242.7,225.24h-1.02 M242.7,230.04h-1.02 M241.68,253.14h1.02v-0.48 M444.96,459.3v8.94 M444.96,451.62v2.88
		 M445.92,451.62h3.12 M444.96,451.62h0.96 M445.92,431.4v0.479 M444.96,431.88h0.96 M445.92,454.5h1.74v4.8h-1.74 M444.96,459.3
		h0.96 M444.96,454.5h0.96 M445.92,431.4h-0.96v0.479 M445.92,232.92h3.12 M444.96,253.14v21.72 M445.92,253.14v18.36
		 M444.96,230.04v2.88h0.96 M445.92,253.14v-0.48 M444.96,252.66h0.96 M445.92,230.04h1.74v-4.8h-1.74 M444.96,225.24h0.96
		 M444.96,230.04h0.96 M445.92,253.14h-0.96v-0.48 M415.08,466.8h0.96 M415.08,466.8v-26.16 M416.04,466.8v-57.06 M272.52,477.66
		h-0.96 M272.52,477.66v2.88 M376.86,410.7h-32.58 M307.5,410.7h-34.98 M310.8,413.1h-3.3 M310.8,410.7v2.398 M307.5,413.1V410.7
		 M376.86,410.7v2.398 M380.16,410.7v2.398h-1.32 M343.32,410.7H310.8 M310.8,550.86h20.88 M307.5,551.82v-2.88 M307.5,548.94h3.3
		v2.88 M380.16,550.86h34.92 M380.16,548.94h-3.3 M376.86,548.94v2.88 M380.16,551.82v-2.88 M307.5,480.54h-34.98 M307.5,481.5
		h-34.98 M310.8,482.46h-3.3v-2.88h3.3V482.46z M356.22,481.5h-24.54 M343.32,480.54H310.8 M330.72,481.5H310.8 M376.86,482.46h3.3
		v-2.88h-3.3V482.46z M376.86,480.54h-32.58 M376.86,481.5H357.18 M356.22,533.28V540 M343.5,533.28v-0.96 M332.64,533.28h0.48
		v-0.96 M333.12,532.32h-0.48 M331.68,533.28V540 M333.12,532.32h-1.44 M333.12,533.28h-1.44 M335.28,550.86v0.96 M330.72,550.86
		h0.96 M330.72,540h0.96"/>
	
		<path fill="none" stroke="#000000" stroke-width="0.72" stroke-linecap="round" stroke-linejoin="round" stroke-miterlimit="10" d="
		M450,216.3v56.16h32.04 M484.5,238.74v-0.96 M495.3,238.74v-0.96 M484.5,238.74h0.48 M484.5,238.74H483 M484.5,237.78h-2.46
		 M484.5,203.1v0.96 M495.3,203.1v0.96 M480.48,203.1v0.96 M469.62,203.1v0.96 M480.48,204.06H480v-0.96 M480.48,203.1H480
		 M470.1,204.06h-0.479 M482.04,203.1h-1.56 M484.5,204.06h-4.02 M484.5,203.1H483 M469.62,203.1H450 M469.62,204.06H450
		 M482.04,237.78v34.68 M483,238.74v33.72 M482.04,170.58H450 M483,170.58v32.52 M482.04,169.62H450 M482.04,170.58v32.52
		 M450,169.62v-37.38 M515.52,342.78H450 M515.52,341.82H450 M450,205.5v-1.44 M450,216.3h-5.04v8.94 M450,203.1v-32.52
		 M444.96,205.5H450 M484.5,134.7v-1.02 M495.3,134.7v-1.02 M484.5,134.7H483 M496.26,130.8h-0.96 M496.26,120h-0.96 M495.3,130.8
		v3.9 M496.26,130.8v2.88 M496.26,101.64V120 M495.3,101.64V120 M484.5,100.68v0.96 M495.3,100.68v0.96 M484.5,101.64h-22.44
		 M484.5,100.68H483 M482.04,100.68h-19.98 M451.26,100.68v0.96 M462.06,100.68v0.96 M451.26,101.64h-2.938 M451.26,100.68h-2.938
		 M483,134.7v34.92 M482.04,133.68v35.94 M447.36,115.14h0.96 M447.36,104.34h0.96 M447.36,115.14v2.94 M448.32,115.14v3.9
		 M448.32,101.64v2.7 M444.96,182.1v0.96 M434.16,182.1v0.96 M434.64,183.06h-0.479 M444.96,183.06v22.44 M378.96,66.54v23.34
		 M378,66.54v24.3 M415.14,133.2v48.9 M434.16,183.06H416.1v-50.82 M434.16,182.1H416.1 M518.94,169.62H483 M518.94,170.58H483
		 M515.52,204.06h-19.26 M515.52,203.1H495.3 M447.36,118.08H413.64 M412.68,63.06v26.82 M413.64,63.06v55.02 M448.32,119.04H412.68
		 M398.52,133.2h-17.88 M415.14,133.2h-5.818 M398.52,132.24h-19.56 M416.1,132.24h-6.778 M515.52,134.7H495.3 M515.52,133.68
		h-19.26 M450,132.24h-5.04 M444.96,132.24v50.82 M519,237.78h-22.74 M519,238.74h-23.7 M515.52,273.42H450 M515.52,272.46H483
		 M518.94,101.64H496.26 M518.94,100.68H495.3 M483,63.06v37.62 M482.04,63.06v37.62 M448.32,67.38v33.3 M447.36,67.38v36.96
		 M449.04,271.5v-38.58 M312.78,132.24V153 M310.56,136.14h-3.54v-2.94 M312.78,132.24h62.398V153 M309.6,106.98h-0.96
		 M309.6,117.84h-0.96 M308.64,117.84v14.4 M309.6,117.84v12.24 M309.6,104.1v2.88 M309.6,101.7h-0.96 M309.6,90.84h-0.96
		 M308.64,101.7v5.28 M309.6,101.7v1.44 M274.92,90.84v28.2 M277.86,90.84h20.52 M277.56,89.88h20.76 M309.6,130.08h33.24
		 M309.6,104.1h33.24 M309.6,103.14h33.24 M274.92,89.88h2.94 M274.92,90.84h2.94 M342.84,63.06v40.08 M343.8,63.06v40.08
		 M241.68,479.1h1.02 M241.68,468.24h1.02 M237.66,411.18v-56.16 M237.66,468.24V412.14 M242.7,479.1v58.5 M242.7,468.24h-5.04
		 M241.68,344.22h1.02 M241.68,355.02h1.02 M241.68,274.86h1.02 M241.68,285.66h1.02 M237.66,480.54v-1.44 M242.7,479.1h-5.04
		 M172.08,481.5h32.34 M172.08,480.54h65.58 M237.66,341.82v-56.16 M237.66,344.22v-1.44 M237.66,355.02h5.04v76.38 M172.08,412.14
		h65.58 M172.08,411.18h65.58 M237.66,274.86v-1.44 M237.66,285.66h5.04v58.56 M237.66,344.22h5.04 M242.7,271.5h-5.04
		 M242.7,274.86h-5.04 M241.68,205.5h1.02 M241.68,216.3h1.02 M237.66,238.74v33.72h-32.1 M203.16,238.74v-0.96 M192.36,238.74
		v-0.96 M207.18,238.74v-0.96 M218.04,238.74v-0.96 M218.04,238.74h19.62 M218.04,237.78h19.62 M205.56,238.74h1.62 M203.16,238.74
		h1.44 M203.16,237.78h4.02 M203.16,203.1v0.96 M192.36,203.1v0.96 M203.16,204.06h-0.48v-0.96 M203.16,203.1h-0.48 M207.18,203.1
		v0.96 M218.04,203.1v0.96 M205.56,203.1h1.62 M203.16,204.06h4.02 M203.16,203.1h1.44 M218.04,203.1h19.62 M218.04,204.06h19.62
		 M205.56,238.74v33.72 M204.6,238.74v33.72 M205.56,170.58h32.1 M204.6,170.58v32.52 M205.56,169.62h32.1 M205.56,170.58v32.52
		 M237.66,169.62V134.7 M172.08,342.78h65.58 M172.08,341.82h65.58 M237.66,205.5v-1.44 M237.66,216.3h5.04v8.94 M237.66,203.1
		v-32.52 M242.7,205.5h-5.04 M236.4,134.7v-1.02 M225.6,134.7v-1.02 M226.08,133.68h-0.48 M236.4,134.7h1.26 M236.4,133.68h1.26
		 M205.56,134.7h20.04 M203.16,134.7v-1.02 M192.36,134.7v-1.02 M203.16,133.68h-0.48v1.02 M203.16,134.7h-0.48 M203.16,134.7h1.44
		 M191.4,130.8h0.96 M191.4,120h0.96 M192.36,130.8v3.9 M191.4,130.8v2.88 M203.16,133.68h22.44 M191.4,101.64V120 M192.36,101.64
		V120 M203.16,100.68v0.96 M192.36,100.68v0.96 M203.16,101.64h22.44 M203.16,100.68h1.44 M205.56,100.68h20.04 M236.4,100.68v0.96
		 M225.6,100.68v0.96 M226.08,101.64h-0.48 M236.4,101.64h2.88 M236.4,100.68h2.88 M204.6,134.7v34.92 M205.56,134.7v34.92
		 M240.24,115.14h-0.96 M240.24,104.34h-0.96 M240.24,115.14v2.94 M239.28,115.14v3.9 M239.28,101.64v2.7 M272.52,182.1h2.88
		 M271.56,183.06h3.84 M253.5,182.1v0.96"/>
	
		<path fill="none" stroke="#000000" stroke-width="0.72" stroke-linecap="round" stroke-linejoin="round" stroke-miterlimit="10" d="
		M461.58,652.56h0.479 M447.36,639.72h0.96 M447.36,650.58h0.96 M483,584.34v34.92h1.5 M482.04,619.26v-34.92 M495.3,621.66v-2.4
		 M496.26,621.66v-1.44 M484.5,620.22h-3.9 M496.26,652.56v-20.04 M495.3,653.52v-21 M484.5,653.52H483 M484.5,652.56h-22.44
		 M451.26,652.56h-2.938 M451.26,653.52h-2.938 M482.04,653.52h-19.98 M518.94,583.38h-35.7 M518.94,584.34H483 M483,690.84v-37.32
		 M482.04,690.84v-37.32 M518.94,652.56H496.26 M518.94,653.52H495.3 M448.32,639.72v-3.84 M447.36,639.72v-2.88 M408.84,670.38
		v-0.96 M398.04,670.38v-0.96 M408.84,670.38h2.88 M411.72,635.88v33.54h-2.88 M378.96,670.38h19.08 M378.96,669.42h19.08
		 M378,658.56h0.96 M378,669.42h0.96 M378,654.72h0.96 M378,643.86h0.96 M378,656.16v-1.44 M378,658.56v-1.438 M378.96,658.56v-3.84
		 M378,643.86v-16.62 M378.96,643.86v-22.2 M344.22,656.16H378 M344.22,657.12H378 M376.38,617.82h4.26 M376.38,620.7h-32.16
		 M412.68,690.84v-54 M411.72,690.84v-20.46 M380.64,620.7v-2.88 M376.38,617.82v2.88 M416.1,621.66h-37.14 M415.14,620.7h-34.5
		 M515.52,620.22h-19.26 M515.52,619.26H495.3 M448.32,687.42v-33.9 M447.36,687.42v-36.84 M447.36,636.84H412.68 M448.32,635.88
		h-2.4 M415.14,572.52V620.7 M416.1,571.56v50.102 M378.96,687.42v-17.04 M378,687.42v-18 M191.4,621.66h0.96 M191.4,632.52h0.96
		 M191.4,621.66 M203.16,619.26v0.96 M192.36,619.26v0.96 M203.16,653.52v-0.96 M192.36,653.52v-0.96 M236.4,653.52v-0.96
		 M225.6,653.52v-0.96 M240.24,639.72h-0.96 M240.24,650.58h-0.96 M204.6,584.34v34.92h-1.44 M205.56,620.22v-35.88 M192.36,621.66
		v-2.4 M191.4,621.66v-1.44 M203.16,620.22h2.4 M191.4,652.56v-20.04 M192.36,653.52v-21 M203.16,653.52h1.44 M203.16,652.56h22.44
		 M236.4,652.56h2.88 M236.4,653.52h2.88 M205.56,653.52h20.04 M237.66,583.38v-32.52 M168.66,583.38h35.76 M168.66,584.34h35.94
		 M204.6,690.84v-37.32 M205.56,690.84v-37.32 M168.66,652.56h22.74 M168.66,653.52h23.7 M239.28,639.72v-3.84 M240.24,639.72v-2.88
		 M278.82,670.38v-0.96 M289.62,670.38v-0.96 M278.82,670.38h-2.94 M275.88,635.88v33.54h2.94 M308.64,670.38h-19.02 M308.64,669.42
		h-19.02 M309.6,658.56h-0.96 M309.6,669.42h-0.96 M309.6,654.72h-0.96 M309.6,643.86h-0.96 M309.6,656.16v-1.44 M309.6,658.56
		v-1.438 M308.64,658.56v-3.84 M309.6,643.86v-16.62 M308.64,643.86v-22.2 M343.26,656.16H309.6 M343.26,657.12H309.6 M309.6,621.66
		H378 M311.28,617.82h-4.262 M311.28,620.7h31.979 M274.92,690.84v-54 M275.88,690.84v-20.46 M343.26,690.84v-33.72 M344.22,690.84
		v-33.72 M307.02,620.7v-2.88 M311.28,617.82v2.88 M272.52,621.66h36.12 M272.52,620.7h34.5 M271.56,621.66h0.96 M172.08,620.22
		h19.32 M172.08,619.26h20.28 M239.28,687.42v-33.9 M240.24,687.42v-36.84 M240.24,636.84h34.68 M239.28,635.88h36.6 M272.52,572.52
		V620.7 M271.56,571.56v50.102 M237.66,549.9v-1.44 M172.08,550.86h20.04 M172.08,549.9h19.08 M242.7,621.66h-5.04 M444.96,621.66
		H450v-1.44 M253.5,572.52h18.06 M253.5,571.56h18.06 M308.64,687.42v-17.04 M309.6,687.42v-18 M444.96,548.46v73.2 M450,548.46
		v1.44 M450,537.6h-5.04 M450,548.46h-5.04 M450,481.5v56.1 M272.52,410.7v56.1 M416.04,409.74H271.56v57.06 M415.08,410.7h-34.92
		 M356.22,202.32h59.82 M356.22,203.34h58.86 M272.82,331.62h-1.26 M272.52,276.3h-0.96 M272.52,287.1h-0.96 M415.08,276.3h0.96
		 M415.08,290.64h0.96 M415.08,287.1h0.96 M416.04,301.44v31.2 M416.04,287.1v3.54 M381.36,273.42v13.68 M380.4,273.42v14.64
		 M415.08,288.06v2.58 M271.56,287.1v28.2 M272.82,287.1v19.92 M272.82,273.42v2.88 M415.08,273.42v2.88 M415.08,272.46h-34.92
		 M415.08,273.42h-34.92 M496.26,206.94h-0.96 M496.26,217.74h-0.96 M495.3,217.74v20.04 M496.26,217.74v20.04 M496.26,204.06v2.88
		 M495.3,204.06v2.88 M191.4,206.94h0.96 M191.4,217.74h0.96 M192.36,206.94v0.48h-0.96 M191.4,206.94v0.48 M191.4,217.74v-0.48
		h0.96 M192.36,217.26v0.48 M192.36,217.74v20.04 M191.4,217.74v20.04 M191.4,204.06v2.88 M192.36,204.06v2.88 M412.2,182.1v0.96
		 M401.4,182.1v0.96 M401.88,183.06H401.4 M412.2,183.06h3.898 M412.2,182.1h2.938 M275.4,182.1v0.96 M286.26,182.1v0.96
		 M286.26,183.06h25.32 M286.26,182.1h24.3 M237.66,237.78V216.3 M484.5,133.68h-2.46 M343.8,104.1v25.98 M342.84,104.1v25.98
		 M343.8,104.1v25.98 M378,106.98h0.96 M378,117.84h0.96 M378.96,117.84v14.4 M378,117.84v12.24 M378,104.1v2.88 M378,101.7h0.96
		 M378,90.84h0.96 M378.96,101.7v5.28 M378,101.7v1.44 M412.68,90.84v28.2 M381.9,89.88v0.96 M392.7,89.88v0.96 M392.22,90.84h0.48
		 M381.9,90.84H378 M412.68,90.84H392.7 M381.9,89.88h-2.94 M412.68,89.88H392.7 M378,104.1h-34.2 M343.8,63.06v40.08H378
		 M445.92,479.1h-0.96 M445.92,468.24h-0.96 M450,411.18v-56.16 M450,468.24V412.14 M444.96,479.1v58.5 M444.96,468.24H450
		 M445.92,344.22h-0.96 M445.92,355.02h-0.96 M445.92,285.66h-0.96 M450,480.54v-1.44 M444.96,479.1H450 M515.52,481.5H483.24
		 M515.52,480.54H450 M450,341.82v-56.16 M450,344.22v-1.44 M450,355.02h-5.04v76.38 M515.52,412.14H450 M515.52,411.18H450
		 M450,274.86v-1.44 M450,285.66h-5.04v58.56 M450,344.22h-5.04 M449.04,271.5v-38.58 M445.92,271.5h3.12 M444.96,274.86H450
		 M445.92,205.5h-0.96 M445.92,216.3h-0.96"/>
	
		<path fill="none" stroke="#000000" stroke-width="0.72" stroke-linecap="round" stroke-linejoin="round" stroke-miterlimit="10" d="
		M330.72,550.86 M357.18,550.86h-0.96 M357.18,540h-0.96 M356.22,532.32H343.98 M356.22,533.28H343.98 M331.68,550.86h3.602
		 M356.22,550.86h-3.6 M331.68,551.82h3.602 M356.22,551.82h-3.6 M330.72,481.5V540 M357.18,481.5V540 M331.68,481.5v50.82
		 M356.22,481.5v50.82 M356.22,551.82h59.82 M356.22,550.86h20.642 M415.08,480.54v-2.88 M415.08,481.5h-34.92 M415.08,480.54
		h-34.92 M272.52,550.86h34.98 M271.56,551.82h60.12 M415.08,550.86V481.5 M416.04,551.82v-74.16 M344.28,480.54v-39.9
		 M343.32,480.54V410.7 M271.56,551.82v-74.16 M307.5,273.42h-34.68 M307.5,272.46h-34.68 M310.8,271.5h-3.3v2.88h3.3V271.5z
		 M356.22,272.46h-24.54 M343.32,273.42H310.8 M330.72,272.46H310.8 M376.86,271.5h3.3v2.88h-3.3V271.5z M376.86,273.42h-32.58
		 M376.86,272.46H357.18 M352.14,203.34 M352.14,202.32 M352.62,202.32v1.02 M352.62,203.34 M356.22,220.68v-6.54 M343.98,220.68
		v0.96 M333.12,220.68v0.96 M331.68,220.68v-6.54 M333.12,221.64h-1.44 M333.12,220.68h-1.44 M335.28,203.34v-1.02 M330.72,203.34
		h0.96 M330.72,214.14h0.96 M357.18,203.34h-0.96 M357.18,214.14h-0.96 M356.22,221.64H343.98 M356.22,220.68H343.98 M331.68,203.34
		h3.602 M356.22,203.34h-3.6 M331.68,202.32h3.602 M356.22,202.32h-3.6 M330.72,272.46v-58.32 M357.18,272.46v-58.32 M331.68,272.46
		v-50.82 M356.22,272.46v-50.82 M376.38,183.06H401.4 M307.98,132.24h0.658 M310.56,136.14v45.96 M377.34,136.14v45.96
		 M377.34,136.14h3.3v-2.94 M323.1,183.06h41.7 M324.06,182.1h39.78 M377.34,182.1H401.4 M363.84,173.7h0.96 M324.06,182.1v-8.4
		h-0.96 M363.84,173.7v8.4 M323.1,173.7v9.36 M364.8,173.7v9.36 M376.38,155.16v27.9 M311.58,155.16v27.9 M312.78,153h62.398
		 M311.58,155.16h64.8 M444.96,635.88h-33.24 M445.92,632.52v3.36 M445.92,632.52h-0.96 M444.96,635.88v-3.36 M480.6,619.26v0.96
		 M469.8,619.26v0.96 M469.8,620.22H450 M469.8,619.26H450 M482.04,619.26h-1.44 M482.28,481.5H450 M496.5,548.46h-0.96
		 M496.5,537.6h-0.96 M495.54,548.46v2.4 M496.5,548.46v1.44 M484.68,550.86v-0.96 M495.54,550.86v-0.96 M480.84,550.86v-0.96
		 M484.68,515.22v0.96 M495.54,515.22v0.96 M496.5,516.18v21.42 M482.28,550.86h-1.44 M484.68,549.9h-3.84 M484.68,550.86h-1.438
		 M484.68,515.22h-1.438 M484.68,516.18h-2.398 M469.98,550.86H450 M469.98,549.9H450 M495.54,515.22v22.38 M482.28,550.86v32.52
		 M483.24,550.86v32.52 M483.24,481.5v33.72 M482.28,481.5v34.68 M519,516.18h-22.5 M519,515.22h-23.46 M515.52,550.86H495.54
		 M515.52,549.9H496.5 M191.16,548.46h0.96 M191.16,537.6h0.96 M192.12,548.46v2.4 M191.16,548.46v1.44 M202.98,550.86v-0.96
		 M192.12,550.86v-0.96 M206.82,550.86v-0.96 M217.62,550.86v-0.96 M202.98,515.22v0.96 M192.12,515.22v0.96 M206.82,515.22v0.96
		 M217.62,515.22v0.96 M191.16,516.18v21.42 M205.38,550.86h1.44 M205.38,515.22h1.44 M202.98,549.9h3.84 M202.98,550.86h1.44
		 M202.98,515.22h1.44 M202.98,516.18h3.84 M217.62,550.86h20.04 M217.62,549.9h20.04 M217.62,516.18h20.04 M217.62,515.22h20.04
		 M192.12,515.22v22.38 M241.68,548.46h1.02 M241.68,537.6h1.02 M242.7,548.46v73.2 M237.66,537.6v-21.42 M237.66,537.6h5.04
		 M237.66,548.46h5.04 M205.38,550.86v32.52 M204.42,550.86v32.52 M204.42,481.5v33.72 M205.38,481.5v33.72 M168.66,516.18h22.5
		 M168.66,515.22h23.46 M309.6,626.28v-4.62 M344.22,627.24H378 M309.6,626.28H378v-4.62 M309.6,627.24h33.66 M412.2,572.52v-0.96
		 M401.4,572.52v-0.96 M412.2,572.52h2.938 M412.2,571.56h3.898 M434.16,572.52v-0.96 M416.1,571.56h18.062 M416.1,572.52h18.062
		 M275.4,572.52v-0.96 M286.26,572.52v-0.96 M286.26,571.56H401.4 M286.26,572.52h57 M344.22,572.52H401.4 M343.26,620.7V572.52
		 M344.22,620.7V572.52 M242.7,572.52v-0.96 M253.5,572.52v-0.96 M272.52,572.52h2.88 M271.56,571.56h3.84 M496.26,621.66h-0.96
		 M496.26,632.52h-0.96 M484.5,619.26v0.96 M484.5,653.52v-0.96 M495.3,653.52v-0.96 M484.98,653.52 M484.5,652.56 M484.5,653.52
		 M451.26,653.52v-0.96 M462.06,653.52v-0.96"/>
</g>
</svg>
