<?xml version="1.0" encoding="utf-8"?>
<!-- Generator: Adobe Illustrator 16.0.0, SVG Export Plug-In . SVG Version: 6.00 Build 0)  -->
<!DOCTYPE svg PUBLIC "-//W3C//DTD SVG 1.1//EN" "http://www.w3.org/Graphics/SVG/1.1/DTD/svg11.dtd">
<svg version="1.1" id="Layer_1" xmlns="http://www.w3.org/2000/svg" xmlns:xlink="http://www.w3.org/1999/xlink" x="0px" y="0px"
	 width="612px" height="792px" viewBox="0 0 612 792" enable-background="new 0 0 612 792" xml:space="preserve">
<g id="Building">
	
		<path fill="none" stroke="#000000" stroke-width="0.72" stroke-linecap="round" stroke-linejoin="round" stroke-miterlimit="10" d="
		M242.7,183.06v22.44 M237.66,133.68v-1.44 M308.64,66.54v24.3 M309.6,66.54v24.3 M272.52,133.2v48.9 M271.56,132.24v50.82
		 M272.82,203.34h58.86 M271.56,202.32h60.12 M253.5,183.06h18.06 M253.5,182.1h18.06 M168.66,169.62h35.94 M168.66,170.58h35.94
		 M172.08,204.06h19.32 M172.08,203.1h20.28 M240.24,118.08h33.72 M274.92,63.06v26.82 M273.96,63.06v55.02 M239.28,119.04h35.64
		 M272.52,133.2h23.64 M271.56,132.24h24.6 M172.08,134.7h20.28 M172.08,133.68h19.32 M237.66,132.24h5.04 M242.7,132.24v50.82
		 M237.66,621.66v-37.32 M168.66,237.78h22.74 M168.66,238.74h23.7 M172.08,273.42h65.58 M172.08,272.46h32.52 M168.66,101.64h22.74
		 M168.66,100.68h23.7 M204.6,63.06v37.62 M205.56,63.06v37.62 M239.28,67.38v33.3 M240.24,67.38v36.96 M380.16,355.26v41.94
		 M306.48,398.16h1.02 M307.5,355.26v41.94 M307.5,354.061h72.66 M307.5,355.26h72.66 M381.18,398.16h-3.897 M380.16,397.2h-2.88
		 M416.04,341.82v0.48 M415.08,342.3v-0.9 M415.08,342.3v0.9 M416.04,342.3v1.86 M395.94,333.36h2.277 M398.22,333.36v-24.18h16.86
		 M395.94,312.18v21.18 M416.04,307.62v25.02 M415.08,203.34v69.12 M416.04,202.32v73.98 M377.16,340.38h3.42v2.82 M376.44,329.34
		h0.72 M376.44,320.7h0.72 M376.44,343.32v-13.98 M377.16,340.38v-11.04 M346.32,343.32h4.317 M354.42,343.32h22.021 M394.74,312.18
		h-4.8 M384.18,312.18h4.803 M378.36,312.18h4.857 M350.64,312.18h-4.317 M376.44,320.7v-8.52H354.42 M377.16,312.18v8.52
		 M354.42,312.18v31.14 M352.2,312.18v31.14 M377.16,312.18h18.78 M415.08,343.2h-34.5 M381.18,344.16h34.86 M344.28,273.42v33.6
		 M343.32,273.42v33.6 M314.4,343.2v-11.58 M328.38,343.32h-4.32 M314.4,320.7h0.72 M315.12,343.32v-13.98 M307.5,340.38v2.82
		 M311.16,343.2v-2.82 M311.16,340.38h-3.66 M300.66,343.2v-1.26h-0.96 M299.7,341.94v1.26 M300.66,343.2h6.84 M299.7,331.62v-2.28
		 M299.7,331.62v-2.28 M299.7,329.34h15.42 M311.16,343.2h3.24 M300.66,331.62h13.74 M335.82,312.18h-4.32 M321,312.18h-4.38
		 M324.06,312.18h4.32 M307.86,312.18h-4.8 M295.98,312.18h-4.86 M301.92,312.18h-4.8 M290.58,312.18h23.82 M313.8,312.18H309
		 M289.14,308.7v21.42 M314.4,312.18v8.52 M315.12,312.18v8.52 M290.58,312.18v19.44 M271.56,341.76v1.44 M271.56,343.2v0.96
		 M272.82,343.2v-1.44h-1.26 M272.82,325.38h-1.26 M272.82,315.3h-1.26 M272.82,325.38v4.74 M271.56,325.38v6.24 M272.82,203.34
		v69.12 M272.82,308.7v6.6 M271.56,202.32v73.98 M272.82,308.7h16.32 M271.56,344.16h34.92 M272.82,343.2h26.88 M272.82,331.62
		h17.76 M272.82,330.12h16.32 M315.12,312.18h37.08 M307.5,344.16h72.66 M315.12,343.32h37.08 M272.82,307.02h70.5 M338.88,312.18
		h4.38 M343.26,343.32h-4.38 M381.18,344.16v54 M380.16,344.16v9.9 M306.48,344.16v54 M307.5,344.16v9.9 M516.54,692.76h-33.3
		 M516.54,690.84h-33.3 M518.94,620.4v33.3 M520.92,620.4v33.3 M518.94,655.08v33.3 M520.92,655.08v33.3 M447.18,692.76h-33.3
		 M447.18,690.84h-33.3 M377.82,692.76H344.52 M377.82,690.84H344.52 M412.5,692.76h-33.3 M412.5,690.84h-33.3 M481.86,692.76
		H448.56 M481.86,690.84H448.56 M520.92,551.04v33.3 M518.94,551.04v33.3 M520.92,516.36v33.3 M518.94,516.36v33.3 M518.94,447v33.3
		 M520.92,447v33.3 M518.94,377.641v33.3 M520.92,377.641v33.3 M518.94,412.32v33.3 M520.92,412.32v33.3 M520.92,481.68v33.303
		 M518.94,481.68v33.303 M520.92,585.72v33.3 M518.94,585.72v33.3 M240.48,690.84h33.3 M240.48,692.76h33.3 M275.16,690.84h33.3
		 M275.16,692.76h33.3 M171.12,690.84h33.3 M171.12,692.76h33.3 M166.74,620.4v33.3 M168.66,620.4v33.3 M166.74,655.08v33.3
		 M168.66,655.08v33.3 M205.8,690.84h33.3 M205.8,692.76h33.3 M168.66,551.04v33.3 M166.74,551.04v33.3 M168.66,516.36v33.3
		 M166.74,516.36v33.3 M166.74,447v33.3 M168.66,447v33.3 M166.74,377.641v33.3 M168.66,377.641v33.3 M166.74,412.32v33.3
		 M168.66,412.32v33.3 M168.66,481.68v33.303 M166.74,481.68v33.303 M168.66,585.72v33.3 M166.74,585.72v33.3 M309.84,690.84h33.3
		 M309.84,692.76h33.3 M518.94,308.28v33.3 M520.92,308.28v33.3 M518.94,238.92v33.3 M520.92,238.92v33.3 M518.94,273.6v33.3
		 M520.92,273.6v33.3 M166.74,308.28v33.3 M168.66,308.28v33.3 M166.74,238.92v33.3 M168.66,238.92v33.3 M166.74,273.6v33.3
		 M168.66,273.6v33.3 M166.74,342.96v33.3 M168.66,342.96v33.3 M518.94,342.96v33.3 M520.92,342.96v33.3 M520.92,169.56v33.3
		 M518.94,169.56v33.3 M518.94,204.24v33.3 M520.92,204.24v33.3 M168.66,202.86v-34.68 M166.74,169.56v33.3 M166.74,204.24v33.3
		 M168.66,204.24v33.3 M518.94,100.2v33.3 M520.92,100.2v33.3 M520.92,134.88v33.3 M518.94,134.88v33.3 M516.54,61.14h-33.3
		 M516.54,63.06h-33.42 M413.88,61.14h33.3 M413.88,63.06h33.3 M377.82,61.14H344.52 M377.82,63.06H344.52 M412.5,61.14h-33.3
		 M412.5,63.06h-33.3 M481.86,61.14H448.56 M481.86,63.06H448.56 M518.94,65.52v33.3 M520.92,65.52v33.3 M166.74,100.2v33.3
		 M168.66,100.2v33.3 M168.66,134.88v33.3 M166.74,134.88v33.3 M273.78,63.06h-33.3 M273.78,61.14h-33.3 M275.16,63.06h33.3
		 M275.16,61.14h33.3 M171.12,63.06h33.42 M171.12,61.14h33.3 M205.8,63.06h33.3 M205.8,61.14h33.3 M166.74,65.52v33.3
		 M168.66,65.52v33.3 M309.84,63.06h33.3 M309.84,61.14h33.3"/>
	
		<path fill="none" stroke="#000000" stroke-width="0.72" stroke-linecap="round" stroke-linejoin="round" stroke-miterlimit="10" d="
		M380.4,288.06h34.68 M381.36,287.1h33.72"/>
	
		<path fill="none" stroke="#000000" stroke-width="0.72" stroke-linecap="round" stroke-linejoin="round" stroke-miterlimit="10" d="
		M480.84,514.5v0.96 M469.98,514.5v0.96 M480.84,515.46h1.44 M450,515.46h19.98 M480.84,514.5h1.44 M450,514.5h19.98"/>
	
		<path fill="none" stroke="#000000" stroke-width="0.72" stroke-linecap="round" stroke-linejoin="round" stroke-miterlimit="10" d="
		M297.84,90.84v-0.96 M308.64,89.88v0.96 M297.84,89.88v0.96 M298.32,90.84h-0.48 M378.84,440.64h-0.96 M378.84,439.68v0.96
		 M389.22,440.64h0.48 M367.08,440.64h-22.8 M377.88,439.68v0.96 M367.56,439.68H344.28 M377.88,413.1h-1.02 M378.84,440.64V413.1
		 M377.88,440.64V413.1 M344.28,439.68V410.7 M389.22,439.68h25.86V410.7 M415.08,440.64h-25.92 M272.52,133.2h-0.48 M307.02,133.2
		h3.54 M344.28,307.02h70.8 M415.08,309.18v23.46 M377.28,397.2v0.96 M366.42,397.2v0.96 M310.38,397.2v0.96 M321.24,397.2v0.96
		 M310.38,398.16h-2.88 M310.38,397.2h-2.88 M366.42,398.16h-45.18 M366.42,397.2h-45.18 M272.52,550.86V481.5 M450,550.86v32.52
		 M450,584.34v34.92 M343.26,656.16v-28.92 M344.22,656.16v-28.92 M239.28,652.56v-1.979 M205.38,583.38h32.28 M205.56,584.34h32.1
		 M237.66,515.22V481.5h-32.28 M343.8,130.08H378 M448.32,652.56v-1.979 M482.04,584.34H450 M482.28,583.38H450 M242.7,459.3v8.94
		 M242.7,451.62v2.88 M242.7,230.04v2.88 M242.7,253.14v21.72 M241.68,253.14v18.36 M242.7,451.62h-1.02 M241.68,431.4v0.479
		 M242.7,431.88h-1.02 M241.68,454.5H240v4.8h1.68 M242.7,459.3h-1.02 M242.7,454.5h-1.02 M241.68,431.4h1.02v0.479 M242.7,232.92
		h-1.02 M241.68,253.14v-0.48 M242.7,252.66h-1.02 M241.68,230.04H240v-4.8h1.68 M242.7,225.24h-1.02 M242.7,230.04h-1.02
		 M241.68,253.14h1.02v-0.48 M444.96,459.3v8.94 M444.96,451.62v2.88 M445.92,451.62h3.12 M444.96,451.62h0.96 M445.92,431.4v0.479
		 M444.96,431.88h0.96 M445.92,454.5h1.74v4.8h-1.74 M444.96,459.3h0.96 M444.96,454.5h0.96 M445.92,431.4h-0.96v0.479
		 M445.92,232.92h3.12 M444.96,253.14v21.72 M445.92,253.14v18.36 M444.96,230.04v2.88h0.96 M445.92,253.14v-0.48 M444.96,252.66
		h0.96 M445.92,230.04h1.74v-4.8h-1.74 M444.96,225.24h0.96 M444.96,230.04h0.96 M445.92,253.14h-0.96v-0.48 M415.08,466.8h0.96
		 M415.08,466.8v-26.16 M416.04,466.8v-57.06 M272.52,477.66h-0.96 M272.52,477.66v2.88 M376.86,410.7h-32.58 M307.5,410.7h-34.98
		 M310.8,413.1h-3.3 M310.8,410.7v2.397 M307.5,413.1V410.7 M376.86,410.7v2.397 M380.16,410.7v2.397h-1.32 M343.32,410.7H310.8
		 M310.8,550.86h20.88 M307.5,551.82v-2.88 M307.5,548.94h3.3v2.88 M380.16,550.86h34.92 M380.16,548.94h-3.3 M376.86,548.94v2.88
		 M380.16,551.82v-2.88 M307.5,480.54h-34.98 M307.5,481.5h-34.98 M310.8,482.46h-3.3v-2.88h3.3V482.46z M356.22,481.5h-24.54
		 M343.32,480.54H310.8 M330.72,481.5H310.8 M376.86,482.46h3.3v-2.88h-3.3V482.46z M376.86,480.54h-32.58 M376.86,481.5H357.18
		 M356.22,533.28V540 M343.5,533.28v-0.96 M332.64,533.28h0.48v-0.96 M333.12,532.32h-0.48 M331.68,533.28V540 M333.12,532.32h-1.44
		 M333.12,533.28h-1.44 M335.28,550.86v0.96 M330.72,550.86h0.96 M330.72,540h0.96"/>
	
		<path fill="none" stroke="#000000" stroke-width="0.72" stroke-linecap="round" stroke-linejoin="round" stroke-miterlimit="10" d="
		M450,216.3v56.16h32.04 M484.5,238.74v-0.96 M495.3,238.74v-0.96 M484.5,238.74h0.48 M484.5,238.74H483 M484.5,237.78h-2.46
		 M484.5,203.1v0.96 M495.3,203.1v0.96 M480.48,203.1v0.96 M469.62,203.1v0.96 M480.48,204.06H480v-0.96 M480.48,203.1H480
		 M470.1,204.06h-0.479 M482.04,203.1h-1.56 M484.5,204.06h-4.02 M484.5,203.1H483 M469.62,203.1H450 M469.62,204.06H450
		 M482.04,237.78v34.68 M483,238.74v33.72 M482.04,170.58H450 M483,170.58v32.52 M482.04,169.62H450 M482.04,170.58v32.52
		 M450,169.62v-37.38 M515.52,342.78H450 M515.52,341.82H450 M450,205.5v-1.44 M450,216.3h-5.04v8.94 M450,203.1v-32.52
		 M444.96,205.5H450 M484.5,134.7v-1.02 M495.3,134.7v-1.02 M484.5,134.7H483 M496.26,130.8h-0.96 M496.26,120h-0.96 M495.3,130.8
		v3.9 M496.26,130.8v2.88 M496.26,101.64V120 M495.3,101.64V120 M484.5,100.68v0.96 M495.3,100.68v0.96 M484.5,101.64h-22.44
		 M484.5,100.68H483 M482.04,100.68h-19.98 M451.26,100.68v0.96 M462.06,100.68v0.96 M451.26,101.64h-2.938 M451.26,100.68h-2.938
		 M483,134.7v34.92 M482.04,133.68v35.94 M447.36,115.14h0.96 M447.36,104.34h0.96 M447.36,115.14v2.94 M448.32,115.14v3.9
		 M448.32,101.64v2.7 M444.96,182.1v0.96 M434.16,182.1v0.96 M434.64,183.06h-0.479 M444.96,183.06v22.44 M378.96,66.54v23.34
		 M378,66.54v24.3 M415.14,133.2v48.9 M434.16,183.06H416.1v-50.82 M434.16,182.1H416.1 M518.94,169.62H483 M518.94,170.58H483
		 M515.52,204.06h-19.26 M515.52,203.1H495.3 M447.36,118.08H413.64 M412.68,63.06v26.82 M413.64,63.06v55.02 M448.32,119.04H412.68
		 M398.52,133.2h-17.88 M415.14,133.2h-5.817 M398.52,132.24h-19.56 M416.1,132.24h-6.777 M515.52,134.7H495.3 M515.52,133.68
		h-19.26 M450,132.24h-5.04 M444.96,132.24v50.82 M519,237.78h-22.74 M519,238.74h-23.7 M515.52,273.42H450 M515.52,272.46H483
		 M518.94,101.64H496.26 M518.94,100.68H495.3 M483,63.06v37.62 M482.04,63.06v37.62 M448.32,67.38v33.3 M447.36,67.38v36.96
		 M449.04,271.5v-38.58 M312.78,132.24V153 M310.56,136.14h-3.54v-2.94 M312.78,132.24h62.397V153 M309.6,106.98h-0.96
		 M309.6,117.84h-0.96 M308.64,117.84v14.4 M309.6,117.84v12.24 M309.6,104.1v2.88 M309.6,101.7h-0.96 M309.6,90.84h-0.96
		 M308.64,101.7v5.28 M309.6,101.7v1.44 M274.92,90.84v28.2 M277.86,90.84h20.52 M277.56,89.88h20.76 M309.6,130.08h33.24
		 M309.6,104.1h33.24 M309.6,103.14h33.24 M274.92,89.88h2.94 M274.92,90.84h2.94 M342.84,63.06v40.08 M343.8,63.06v40.08
		 M241.68,479.1h1.02 M241.68,468.24h1.02 M237.66,411.18v-56.16 M237.66,468.24V412.14 M242.7,479.1v58.5 M242.7,468.24h-5.04
		 M241.68,344.22h1.02 M241.68,355.02h1.02 M241.68,274.86h1.02 M241.68,285.66h1.02 M237.66,480.54v-1.44 M242.7,479.1h-5.04
		 M172.08,481.5h32.34 M172.08,480.54h65.58 M237.66,341.82v-56.16 M237.66,344.22v-1.44 M237.66,355.02h5.04v76.38 M172.08,412.14
		h65.58 M172.08,411.18h65.58 M237.66,274.86v-1.44 M237.66,285.66h5.04v58.56 M237.66,344.22h5.04 M242.7,271.5h-5.04
		 M242.7,274.86h-5.04 M241.68,205.5h1.02 M241.68,216.3h1.02 M237.66,238.74v33.72h-32.1 M203.16,238.74v-0.96 M192.36,238.74
		v-0.96 M207.18,238.74v-0.96 M218.04,238.74v-0.96 M218.04,238.74h19.62 M218.04,237.78h19.62 M205.56,238.74h1.62 M203.16,238.74
		h1.44 M203.16,237.78h4.02 M203.16,203.1v0.96 M192.36,203.1v0.96 M203.16,204.06h-0.48v-0.96 M203.16,203.1h-0.48 M207.18,203.1
		v0.96 M218.04,203.1v0.96 M205.56,203.1h1.62 M203.16,204.06h4.02 M203.16,203.1h1.44 M218.04,203.1h19.62 M218.04,204.06h19.62
		 M205.56,238.74v33.72 M204.6,238.74v33.72 M205.56,170.58h32.1 M204.6,170.58v32.52 M205.56,169.62h32.1 M205.56,170.58v32.52
		 M237.66,169.62V134.7 M172.08,342.78h65.58 M172.08,341.82h65.58 M237.66,205.5v-1.44 M237.66,216.3h5.04v8.94 M237.66,203.1
		v-32.52 M242.7,205.5h-5.04 M236.4,134.7v-1.02 M225.6,134.7v-1.02 M226.08,133.68h-0.48 M236.4,134.7h1.26 M236.4,133.68h1.26
		 M205.56,134.7h20.04 M203.16,134.7v-1.02 M192.36,134.7v-1.02 M203.16,133.68h-0.48v1.02 M203.16,134.7h-0.48 M203.16,134.7h1.44
		 M191.4,130.8h0.96 M191.4,120h0.96 M192.36,130.8v3.9 M191.4,130.8v2.88 M203.16,133.68h22.44 M191.4,101.64V120 M192.36,101.64
		V120 M203.16,100.68v0.96 M192.36,100.68v0.96 M203.16,101.64h22.44 M203.16,100.68h1.44 M205.56,100.68h20.04 M236.4,100.68v0.96
		 M225.6,100.68v0.96 M226.08,101.64h-0.48 M236.4,101.64h2.88 M236.4,100.68h2.88 M204.6,134.7v34.92 M205.56,134.7v34.92
		 M240.24,115.14h-0.96 M240.24,104.34h-0.96 M240.24,115.14v2.94 M239.28,115.14v3.9 M239.28,101.64v2.7 M272.52,182.1h2.88
		 M271.56,183.06h3.84 M253.5,182.1v0.96"/>
	
		<path fill="none" stroke="#000000" stroke-width="0.72" stroke-linecap="round" stroke-linejoin="round" stroke-miterlimit="10" d="
		M461.58,652.56h0.479 M447.36,639.72h0.96 M447.36,650.58h0.96 M483,584.34v34.92h1.5 M482.04,619.26v-34.92 M495.3,621.66v-2.4
		 M496.26,621.66v-1.44 M484.5,620.22h-3.9 M496.26,652.56v-20.04 M495.3,653.52v-21 M484.5,653.52H483 M484.5,652.56h-22.44
		 M451.26,652.56h-2.938 M451.26,653.52h-2.938 M482.04,653.52h-19.98 M518.94,583.38h-35.7 M518.94,584.34H483 M483,690.84v-37.32
		 M482.04,690.84v-37.32 M518.94,652.56H496.26 M518.94,653.52H495.3 M448.32,639.72v-3.84 M447.36,639.72v-2.88 M408.84,670.38
		v-0.96 M398.04,670.38v-0.96 M408.84,670.38h2.88 M411.72,635.88v33.54h-2.88 M378.96,670.38h19.08 M378.96,669.42h19.08
		 M378,658.56h0.96 M378,669.42h0.96 M378,654.72h0.96 M378,643.86h0.96 M378,656.16v-1.44 M378,658.56v-1.438 M378.96,658.56v-3.84
		 M378,643.86v-16.62 M378.96,643.86v-22.2 M344.22,656.16H378 M344.22,657.12H378 M376.38,617.82h4.26 M376.38,620.7h-32.16
		 M412.68,690.84v-54 M411.72,690.84v-20.46 M380.64,620.7v-2.88 M376.38,617.82v2.88 M416.1,621.66h-37.14 M415.14,620.7h-34.5
		 M515.52,620.22h-19.26 M515.52,619.26H495.3 M448.32,687.42v-33.9 M447.36,687.42v-36.84 M447.36,636.84H412.68 M448.32,635.88
		h-2.4 M415.14,572.52V620.7 M416.1,571.56v50.103 M378.96,687.42v-17.04 M378,687.42v-18 M191.4,621.66h0.96 M191.4,632.52h0.96
		 M203.16,619.26v0.96 M192.36,619.26v0.96 M203.16,653.52v-0.96 M192.36,653.52v-0.96 M236.4,653.52v-0.96 M225.6,653.52v-0.96
		 M240.24,639.72h-0.96 M240.24,650.58h-0.96 M204.6,584.34v34.92h-1.44 M205.56,620.22v-35.88 M192.36,621.66v-2.4 M191.4,621.66
		v-1.44 M203.16,620.22h2.4 M191.4,652.56v-20.04 M192.36,653.52v-21 M203.16,653.52h1.44 M203.16,652.56h22.44 M236.4,652.56h2.88
		 M236.4,653.52h2.88 M205.56,653.52h20.04 M237.66,583.38v-32.52 M168.66,583.38h35.76 M168.66,584.34h35.94 M204.6,690.84v-37.32
		 M205.56,690.84v-37.32 M168.66,652.56h22.74 M168.66,653.52h23.7 M239.28,639.72v-3.84 M240.24,639.72v-2.88 M278.82,670.38v-0.96
		 M289.62,670.38v-0.96 M278.82,670.38h-2.94 M275.88,635.88v33.54h2.94 M308.64,670.38h-19.02 M308.64,669.42h-19.02 M309.6,658.56
		h-0.96 M309.6,669.42h-0.96 M309.6,654.72h-0.96 M309.6,643.86h-0.96 M309.6,656.16v-1.44 M309.6,658.56v-1.438 M308.64,658.56
		v-3.84 M309.6,643.86v-16.62 M308.64,643.86v-22.2 M343.26,656.16H309.6 M343.26,657.12H309.6 M309.6,621.66H378 M311.28,617.82
		h-4.263 M311.28,620.7h31.979 M274.92,690.84v-54 M275.88,690.84v-20.46 M343.26,690.84v-33.72 M344.22,690.84v-33.72
		 M307.02,620.7v-2.88 M311.28,617.82v2.88 M272.52,621.66h36.12 M272.52,620.7h34.5 M271.56,621.66h0.96 M172.08,620.22h19.32
		 M172.08,619.26h20.28 M239.28,687.42v-33.9 M240.24,687.42v-36.84 M240.24,636.84h34.68 M239.28,635.88h36.6 M272.52,572.52V620.7
		 M271.56,571.56v50.103 M237.66,549.9v-1.44 M172.08,550.86h20.04 M172.08,549.9h19.08 M242.7,621.66h-5.04 M444.96,621.66H450
		v-1.44 M253.5,572.52h18.06 M253.5,571.56h18.06 M308.64,687.42v-17.04 M309.6,687.42v-18 M444.96,548.46v73.2 M450,548.46v1.44
		 M450,537.6h-5.04 M450,548.46h-5.04 M450,481.5v56.1 M272.52,410.7v56.1 M416.04,409.74H271.56v57.06 M415.08,410.7h-34.92
		 M356.22,202.32h59.82 M356.22,203.34h58.86 M272.82,331.62h-1.26 M272.52,276.3h-0.96 M272.52,287.1h-0.96 M415.08,276.3h0.96
		 M415.08,290.64h0.96 M415.08,287.1h0.96 M416.04,301.44v31.2 M416.04,287.1v3.54 M381.36,273.42v13.68 M380.4,273.42v14.64
		 M415.08,288.06v2.58 M271.56,287.1v28.2 M272.82,287.1v19.92 M272.82,273.42v2.88 M415.08,273.42v2.88 M415.08,272.46h-34.92
		 M415.08,273.42h-34.92 M496.26,206.94h-0.96 M496.26,217.74h-0.96 M495.3,217.74v20.04 M496.26,217.74v20.04 M496.26,204.06v2.88
		 M495.3,204.06v2.88 M191.4,206.94h0.96 M191.4,217.74h0.96 M192.36,206.94v0.48h-0.96 M191.4,206.94v0.48 M191.4,217.74v-0.48
		h0.96 M192.36,217.26v0.48 M192.36,217.74v20.04 M191.4,217.74v20.04 M191.4,204.06v2.88 M192.36,204.06v2.88 M412.2,182.1v0.96
		 M401.4,182.1v0.96 M401.88,183.06H401.4 M412.2,183.06h3.897 M412.2,182.1h2.938 M275.4,182.1v0.96 M286.26,182.1v0.96
		 M286.26,183.06h25.32 M286.26,182.1h24.3 M237.66,237.78V216.3 M484.5,133.68h-2.46 M343.8,104.1v25.98 M342.84,104.1v25.98
		 M343.8,104.1v25.98 M378,106.98h0.96 M378,117.84h0.96 M378.96,117.84v14.4 M378,117.84v12.24 M378,104.1v2.88 M378,101.7h0.96
		 M378,90.84h0.96 M378.96,101.7v5.28 M378,101.7v1.44 M412.68,90.84v28.2 M381.9,89.88v0.96 M392.7,89.88v0.96 M392.22,90.84h0.48
		 M381.9,90.84H378 M412.68,90.84H392.7 M381.9,89.88h-2.94 M412.68,89.88H392.7 M378,104.1h-34.2 M343.8,63.06v40.08H378
		 M445.92,479.1h-0.96 M445.92,468.24h-0.96 M450,411.18v-56.16 M450,468.24V412.14 M444.96,479.1v58.5 M444.96,468.24H450
		 M445.92,344.22h-0.96 M445.92,355.02h-0.96 M445.92,285.66h-0.96 M450,480.54v-1.44 M444.96,479.1H450 M515.52,481.5H483.24
		 M515.52,480.54H450 M450,341.82v-56.16 M450,344.22v-1.44 M450,355.02h-5.04v76.38 M515.52,412.14H450 M515.52,411.18H450
		 M450,274.86v-1.44 M450,285.66h-5.04v58.56 M450,344.22h-5.04 M449.04,271.5v-38.58 M445.92,271.5h3.12 M444.96,274.86H450
		 M445.92,205.5h-0.96 M445.92,216.3h-0.96"/>
	
		<path fill="none" stroke="#000000" stroke-width="0.72" stroke-linecap="round" stroke-linejoin="round" stroke-miterlimit="10" d="
		M357.18,550.86h-0.96 M357.18,540h-0.96 M356.22,532.32H343.98 M356.22,533.28H343.98 M331.68,550.86h3.603 M356.22,550.86h-3.6
		 M331.68,551.82h3.603 M356.22,551.82h-3.6 M330.72,481.5V540 M357.18,481.5V540 M331.68,481.5v50.82 M356.22,481.5v50.82
		 M356.22,551.82h59.82 M356.22,550.86h20.643 M415.08,480.54v-2.88 M415.08,481.5h-34.92 M415.08,480.54h-34.92 M272.52,550.86
		h34.98 M271.56,551.82h60.12 M415.08,550.86V481.5 M416.04,551.82v-74.16 M344.28,480.54v-39.9 M343.32,480.54V410.7
		 M271.56,551.82v-74.16 M307.5,273.42h-34.68 M307.5,272.46h-34.68 M310.8,271.5h-3.3v2.88h3.3V271.5z M356.22,272.46h-24.54
		 M343.32,273.42H310.8 M330.72,272.46H310.8 M376.86,271.5h3.3v2.88h-3.3V271.5z M376.86,273.42h-32.58 M376.86,272.46H357.18
		 M352.62,202.32v1.02 M356.22,220.68v-6.54 M343.98,220.68v0.96 M333.12,220.68v0.96 M331.68,220.68v-6.54 M333.12,221.64h-1.44
		 M333.12,220.68h-1.44 M335.28,203.34v-1.02 M330.72,203.34h0.96 M330.72,214.14h0.96 M357.18,203.34h-0.96 M357.18,214.14h-0.96
		 M356.22,221.64H343.98 M356.22,220.68H343.98 M331.68,203.34h3.603 M356.22,203.34h-3.6 M331.68,202.32h3.603 M356.22,202.32h-3.6
		 M330.72,272.46v-58.32 M357.18,272.46v-58.32 M331.68,272.46v-50.82 M356.22,272.46v-50.82 M376.38,183.06H401.4 M307.98,132.24
		h0.657 M310.56,136.14v45.96 M377.34,136.14v45.96 M377.34,136.14h3.3v-2.94 M323.1,183.06h41.7 M324.06,182.1h39.78 M377.34,182.1
		H401.4 M363.84,173.7h0.96 M324.06,182.1v-8.4h-0.96 M363.84,173.7v8.4 M323.1,173.7v9.36 M364.8,173.7v9.36 M376.38,155.16v27.9
		 M311.58,155.16v27.9 M312.78,153h62.397 M311.58,155.16h64.8 M444.96,635.88h-33.24 M445.92,632.52v3.36 M445.92,632.52h-0.96
		 M444.96,635.88v-3.36 M480.6,619.26v0.96 M469.8,619.26v0.96 M469.8,620.22H450 M469.8,619.26H450 M482.04,619.26h-1.44
		 M482.28,481.5H450 M496.5,548.46h-0.96 M496.5,537.6h-0.96 M495.54,548.46v2.4 M496.5,548.46v1.44 M484.68,550.86v-0.96
		 M495.54,550.86v-0.96 M480.84,550.86v-0.96 M484.68,515.22v0.96 M495.54,515.22v0.96 M496.5,516.18v21.42 M482.28,550.86h-1.44
		 M484.68,549.9h-3.84 M484.68,550.86h-1.438 M484.68,515.22h-1.438 M484.68,516.18h-2.397 M469.98,550.86H450 M469.98,549.9H450
		 M495.54,515.22v22.38 M482.28,550.86v32.52 M483.24,550.86v32.52 M483.24,481.5v33.72 M482.28,481.5v34.68 M519,516.18h-22.5
		 M519,515.22h-23.46 M515.52,550.86H495.54 M515.52,549.9H496.5 M191.16,548.46h0.96 M191.16,537.6h0.96 M192.12,548.46v2.4
		 M191.16,548.46v1.44 M202.98,550.86v-0.96 M192.12,550.86v-0.96 M206.82,550.86v-0.96 M217.62,550.86v-0.96 M202.98,515.22v0.96
		 M192.12,515.22v0.96 M206.82,515.22v0.96 M217.62,515.22v0.96 M191.16,516.18v21.42 M205.38,550.86h1.44 M205.38,515.22h1.44
		 M202.98,549.9h3.84 M202.98,550.86h1.44 M202.98,515.22h1.44 M202.98,516.18h3.84 M217.62,550.86h20.04 M217.62,549.9h20.04
		 M217.62,516.18h20.04 M217.62,515.22h20.04 M192.12,515.22v22.38 M241.68,548.46h1.02 M241.68,537.6h1.02 M242.7,548.46v73.2
		 M237.66,537.6v-21.42 M237.66,537.6h5.04 M237.66,548.46h5.04 M205.38,550.86v32.52 M204.42,550.86v32.52 M204.42,481.5v33.72
		 M205.38,481.5v33.72 M168.66,516.18h22.5 M168.66,515.22h23.46 M309.6,626.28v-4.62 M344.22,627.24H378 M309.6,626.28H378v-4.62
		 M309.6,627.24h33.66 M412.2,572.52v-0.96 M401.4,572.52v-0.96 M412.2,572.52h2.938 M412.2,571.56h3.897 M434.16,572.52v-0.96
		 M416.1,571.56h18.062 M416.1,572.52h18.062 M275.4,572.52v-0.96 M286.26,572.52v-0.96 M286.26,571.56H401.4 M286.26,572.52h57
		 M344.22,572.52H401.4 M343.26,620.7V572.52 M344.22,620.7V572.52 M242.7,572.52v-0.96 M253.5,572.52v-0.96 M272.52,572.52h2.88
		 M271.56,571.56h3.84 M496.26,621.66h-0.96 M496.26,632.52h-0.96 M484.5,619.26v0.96 M484.5,653.52v-0.96 M495.3,653.52v-0.96
		 M451.26,653.52v-0.96 M462.06,653.52v-0.96"/>
</g>
</svg>
