<?xml version="1.0" encoding="utf-8"?>
<!-- Generator: Adobe Illustrator 16.0.0, SVG Export Plug-In . SVG Version: 6.00 Build 0)  -->
<!DOCTYPE svg PUBLIC "-//W3C//DTD SVG 1.1//EN" "http://www.w3.org/Graphics/SVG/1.1/DTD/svg11.dtd">
<svg version="1.1" id="Layer_1" xmlns="http://www.w3.org/2000/svg" xmlns:xlink="http://www.w3.org/1999/xlink" x="0px" y="0px"
	 width="612px" height="792px" viewBox="0 0 612 792" enable-background="new 0 0 612 792" xml:space="preserve">
<path fill="none" stroke="#000000" stroke-width="0.72" stroke-linecap="round" stroke-linejoin="round" stroke-miterlimit="10" d="
	M236.78,212.1h0.48v-9.84 M246.62,212.1c-0.038-5.481-4.365-9.781-9.84-9.84 M236.3,213.06v22.44 M231.26,163.68v-1.44
	 M302.24,96.54v24.3 M303.2,96.54v24.3 M304.16,163.2v1.98 M266.12,163.2v48.9 M265.16,162.24v50.82 M266.42,233.34h58.859
	 M265.16,232.32h60.119 M247.1,213.06h18.06 M247.1,212.1h18.06 M162.26,199.62h35.94 M162.26,200.58h35.94 M165.68,234.06H185
	 M165.68,233.1h20.28 M233.84,148.08h33.72 M268.52,93.06v26.82 M267.56,93.06v55.02 M232.88,149.04h35.64 M299.66,163.2h0.96
	 M266.12,163.2h23.64 M300.62,162.24h1.62 M265.16,162.24h24.6 M165.68,164.7h20.28 M165.68,163.68H185 M231.26,162.24h5.04
	 M235.28,165.18v-1.98h-3.06 M236.3,162.24v50.82 M231.26,651.66v-37.32 M162.26,267.78H185 M162.26,268.74h23.7 M165.68,303.42
	h65.58 M165.68,302.46h32.52 M162.26,131.64H185 M162.26,130.68h23.7 M198.2,93.06v37.62 M199.16,93.06v37.62 M232.88,97.38v33.3
	 M233.84,97.38v36.96 M407.3,412.021h0.6 M392.3,412.021h0.6 M390.199,424.8h19.5 M390.8,424.2h18.12 M392.899,408.78h14.4
	 M392.899,406.141h14.4 M392.899,403.5h14.4 M392.899,400.86h14.4 M392.899,398.221h14.4 M392.899,395.52h14.4 M390.8,387.6h1.5
	 M390.199,387h2.7 M392.899,392.88h14.4 M392.899,390.24h14.4 M392.899,387.6h14.4 M392.899,412.021V387 M390.199,424.8V387
	 M392.3,412.021V387.6 M390.8,424.2v-36.6 M375.199,424.2h-0.42 M375.8,424.8h-1.021 M373.76,385.26v41.94 M390.199,422.04H375.8
	 M390.199,419.4H375.8 M390.199,416.76H375.8 M390.199,414.12H375.8 M390.199,411.42H375.8 M375.8,406.141h14.399 M375.8,403.5
	h14.399 M375.8,400.86h14.399 M375.8,398.221h14.399 M375.8,395.52h14.399 M375.8,392.88h14.399 M390.199,408.78H375.8
	 M375.8,390.24h14.399 M300.081,428.16h1.02 M299.06,424.8h1.021 M299.66,424.2h0.423 M282.56,412.021h-0.6 M284.6,411.42h14.46
	 M284.6,414.12h14.46 M284.6,416.76h14.46 M284.6,419.4h14.46 M284.6,422.04h14.46 M284.6,408.78h14.46 M299.06,395.52H284.6
	 M299.06,398.221H284.6 M299.06,400.86H284.6 M299.06,403.5H284.6 M299.06,406.141H284.6 M284.6,387h-2.64 M284,387.6h-1.44
	 M299.06,390.24H284.6 M299.06,392.88H284.6 M284,424.2v-36.6 M282.56,412.021V387.6 M284.6,424.8V387 M281.96,412.021V387
	 M301.1,385.26v41.94 M267.5,412.021h-0.6 M284,424.2h-18.06 M284.6,424.8h-19.44 M281.96,387.6H267.5 M281.96,390.24H267.5
	 M281.96,392.88H267.5 M281.96,395.52H267.5 M281.96,398.221H267.5 M281.96,400.86H267.5 M281.96,403.5H267.5 M281.96,406.141H267.5
	 M281.96,408.78H267.5 M301.1,384.06h72.66 M301.1,385.26h72.66 M374.779,428.16h-3.897 M373.76,427.2h-2.88 M409.64,371.82v0.48
	 M408.68,372.3v-0.9 M408.56,371.82h1.08 M408.56,372.3h1.32 M408.68,372.3v0.9 M409.64,372.3v1.86 M409.64,362.64v0.48h-0.96
	 M409.64,362.64h-0.96v0.48 M389.54,363.36h2.277 M399.979,371.82h8.7 M400.04,371.4h8.64 M408.68,363.12
	c-4.857,0.033-8.605,3.868-8.7,8.7 M389.54,339.18v2.16 M391.819,363.36v-24.18h16.86 M389.54,342.18v21.18 M409.64,337.62v25.02
	 M408.68,233.34v69.12 M409.64,232.32v73.98 M370.76,371.22h2.64 M370.76,371.22v2.1h2.64 M373.399,373.32v-2.1 M370.76,370.38h3.42
	v2.82 M373.279,372.3h-2.34 M373.279,373.26v-1.92 M370.939,371.34v1.92 M364.399,371.88v1.44 M364.399,373.32h4.32v-1.44
	 M364.399,371.88h4.32 M365.119,369.18l-0.117,1.26l0.117,1.2l0.062,0.24 M367.939,371.88l0.18-1.32l-0.117-1.38 M367.64,368.28
	l-0.54-0.72l-0.54-0.18l-0.54,0.18l-0.54,0.72 M365.479,368.28l-0.36,0.9 M368,369.18l-0.36-0.9 M387.619,345.36v-1.74
	 M384.26,345.36v-1.74 M376.1,345.36v-1.74 M378.5,345.36v-1.74 M381.859,345.36v-1.74 M384.26,345.36l0.12,0.3l0.357,0.18
	 M388.34,346.56h-4.8 M375.619,345.84l0.303-0.18l0.18-0.3 M378.5,345.36l0.117,0.3l0.36,0.18 M381.38,345.84l0.357-0.18l0.12-0.3
	 M377.779,346.56h4.803 M378.979,345.84h2.4 M384.739,345.84h2.4l0.36-0.18l0.117-0.3 M370.04,359.34h0.72 M370.04,359.82h-1.2
	 M364.279,359.34h-2.88 M364.279,359.82h-2.88 M370.04,359.34h-1.2 M370.04,350.7h0.72 M372.68,345.36v-1.74 M372.68,345.36
	l0.18,0.3l0.3,0.18 M373.159,345.84h2.46 M371.96,346.56h4.857 M370.04,373.32v-13.98 M370.76,370.38v-11.04 M364.279,363.9v-4.56
	 M364.279,363.9c2.438,0.01,4.57-2.122,4.562-4.56 M363.08,373.32v-13.5 M362.6,373.32v-13.5 M349.58,371.88v1.44 M349.58,373.32
	h4.317v-1.44 M349.58,371.88h4.317 M361.34,373.32v-1.44h-4.38 M361.34,373.32h-4.38v-1.44 M360.56,369.18l0.12,1.26l-0.12,1.2
	l-0.06,0.24 M357.739,369.18l-0.18,1.38l0.24,1.32 M350.3,369.18l-0.12,1.26l0.12,1.2l0.06,0.24 M353.119,371.88l0.183-1.32
	l-0.12-1.38 M358.04,368.28l0.6-0.72l0.479-0.18l0.54,0.18l0.603,0.72 M352.819,368.28l-0.54-0.72l-0.54-0.18l-0.54,0.18l-0.6,0.72
	 M360.56,369.18l-0.3-0.9 M358.04,368.28l-0.303,0.9 M350.6,368.28l-0.3,0.9 M353.18,369.18l-0.36-0.9 M344.239,371.88h-4.317
	 M339.92,373.32h4.317 M336.859,371.88v1.44 M339.92,371.88v1.44 M344.239,371.88v1.44 M333.26,371.64l0.06,0.24 M336.02,371.88
	l0.18-1.32l-0.117-1.38 M343.52,369.18l0.12,1.26l-0.12,1.2l-0.06,0.24 M340.64,369.18l-0.12,1.38l0.18,1.32 M335.779,368.28
	l-0.6-0.72l-0.54-0.18l-0.48,0.18l-0.6,0.72 M341,368.28l0.54-0.72l0.54-0.18l0.537,0.18l0.54,0.72 M333.56,368.28l-0.3,0.9
	 M336.08,369.18l-0.303-0.9 M343.52,369.18l-0.36-0.9 M341,368.28l-0.36,0.9 M356.899,359.82h-2.938 M356.899,359.34h-2.88
	 M349.46,359.82h-1.44 M349.46,359.34h-1.44 M336.92,359.34h2.88 M336.92,359.82h2.938 M344.359,359.34h1.44 M344.359,359.82h1.44
	 M336.859,343.62l-0.42,0.12l-0.357,0.24l-0.24,0.36l-0.12,0.42 M344.239,343.62l-0.42,0.12l-0.357,0.24l-0.24,0.36l-0.062,0.42
	 M341,344.76l-0.062-0.42l-0.24-0.36l-0.357-0.24l-0.42-0.12 M339.92,343.62h4.317 M341,344.76c0.092,1.406,2.065,1.406,2.157,0
	 M333.56,344.76c0.343,1.522,2.064,1.286,2.16,0 M339.8,359.34c-0.01,2.438,2.122,4.57,4.56,4.56 M344.359,363.9v-4.56
	 M336.92,363.9v-4.56 M338.6,373.32v-13.5 M338.119,373.32v-13.5 M349.46,363.9v-4.56 M349.46,363.9
	c2.438,0.01,4.567-2.122,4.56-4.56 M356.899,363.9v-4.56 M355.699,373.32v-13.5 M355.22,373.32v-13.5 M348.02,373.32h22.021
	 M356.899,363.9c2.519-0.116,4.504-1.973,4.5-4.56 M388.34,342.18h-4.8 M377.779,342.18h4.803 M378.979,343.14h2.4 M387.14,343.14
	h-2.4 M373.159,343.14h2.46 M371.96,342.18h4.857 M344.239,342.18h-4.317 M370.04,350.7v-8.52H348.02 M370.76,342.18v8.52
	 M348.02,342.18v31.14 M345.8,342.18v31.14 M336.859,342.18v1.44 M339.92,342.18v1.44 M344.239,342.18v1.44 M388.34,346.56v-4.38
	 M383.54,346.56v-4.38 M376.819,346.56v-4.38 M371.96,346.56v-4.38 M377.779,346.56v-4.38 M382.58,346.56v-4.38 M384.739,343.14
	l-0.357,0.18l-0.12,0.3 M376.1,343.62l-0.18-0.3l-0.303-0.18 M373.159,343.14l-0.3,0.18l-0.18,0.3 M378.979,343.14l-0.36,0.18
	l-0.117,0.3 M381.859,343.62l-0.12-0.3l-0.357-0.18 M387.619,343.62l-0.117-0.3l-0.36-0.18 M370.76,342.18h18.78 M348.02,341.34
	h41.521 M408.68,373.2h-34.5 M374.779,374.16h34.86 M407.3,375.24h-31.5 M407.899,374.64h-32.7 M337.88,303.42v33.6 M336.92,303.42
	v33.6 M329.42,371.88h-4.32 M325.1,371.88v1.44h4.32 M321.979,371.88v1.44 M332.479,371.88v1.44 M329.42,371.88v1.44
	 M321.199,371.88l0.183-1.32l-0.12-1.38 M328.699,369.18l0.12,1.26l-0.12,1.2l-0.06,0.24 M325.819,369.18l-0.12,1.38l0.183,1.32
	 M320.96,368.28l-0.603-0.72l-0.54-0.18l-0.54,0.18 M326.119,368.28l0.603-0.72l0.54-0.18l0.54,0.18l0.54,0.72 M321.26,369.18
	l-0.3-0.9 M328.699,369.18l-0.357-0.9 M326.119,368.28l-0.3,0.9 M314.6,371.88h-4.38 M310.22,371.88v1.44h4.38 M314.6,371.88v1.44
	 M317.659,371.88v1.44 M318.38,369.18l-0.12,1.26l0.12,1.2l0.06,0.24 M313.819,369.18l0.183,1.26l-0.183,1.2l-0.06,0.24 M311,369.18
	l-0.12,1.38l0.18,1.32 M311.3,368.28l0.6-0.72l0.54-0.18l0.48,0.18l0.6,0.72 M308,373.2v-11.58 M318.739,368.28l-0.357,0.9
	 M313.819,369.18l-0.3-0.9 M311.3,368.28l-0.3,0.9 M317.659,371.88h4.32 M321.979,373.32h-4.32 M319.279,367.56l-0.54,0.72
	 M322.1,359.34h2.88 M322.1,359.82h2.88 M329.54,359.82h2.88 M329.54,359.34h2.88 M326.18,344.76l-0.12-0.42l-0.24-0.36l-0.3-0.24
	l-0.42-0.12 M329.42,343.62l-0.42,0.12l-0.36,0.24l-0.24,0.36l-0.06,0.42 M321.979,343.62l-0.42,0.12l-0.3,0.24l-0.24,0.36
	l-0.12,0.42 M325.1,343.62h4.32 M326.18,344.76c0.045,1.216,1.871,1.606,2.16,0 M308.72,359.34h1.438 M308.72,359.82h1.438
	 M314.659,359.34h2.883 M314.659,359.82h2.94 M308,350.7h0.72 M306.2,345.84l0.36-0.18l0.12-0.3v-1.74 M311.3,344.76l-0.062-0.42
	L311,343.98l-0.36-0.24l-0.42-0.12 M314.6,343.62l-0.42,0.12l-0.36,0.24l-0.237,0.36l-0.062,0.42 M318.739,344.76l-0.06-0.42
	l-0.24-0.36l-0.357-0.24l-0.423-0.12 M310.22,343.62h4.38 M311.3,344.76c0.329,1.406,1.887,1.418,2.22,0 M321.979,343.62h-4.32
	 M318.739,344.76c0.095,1.406,2.068,1.406,2.16,0 M308.72,373.32v-13.98 M324.979,359.34c0.041,2.491,2.029,4.539,4.562,4.56
	 M317.54,359.34c-0.013,2.438,2.122,4.57,4.56,4.56v-4.56 M310.159,359.34c-0.026,2.543,2.021,4.489,4.5,4.56v-4.56 M329.54,363.9
	v-4.56 M315.859,373.32v-13.5 M316.34,373.32v-13.5 M323.3,373.32v-13.5 M323.779,373.32v-13.5 M331.22,373.32v-13.5
	 M330.739,373.32v-13.5 M301.1,370.38v2.82 M304.76,373.2v-2.82 M301.4,373.32v-2.1 M301.4,371.22h2.643v2.1 M304.76,370.38h-3.66
	 M304.041,373.32H301.4 M303.92,371.34v1.92 M301.581,373.26v-1.92 M301.581,372.3h2.34 M293.3,371.46h0.96 M293.3,370.98v0.96
	 M294.26,371.94v-0.48 M294.26,373.2v-1.26h-0.96 M293.3,371.94v1.26 M294.26,373.2h6.84 M293.3,362.82v-1.2h-0.48 M294.26,361.62
	v1.2 M293.3,362.82v0.48h0.96 M293.3,362.82h0.96v0.48 M284.18,361.62h0.48 M293.3,363.3c-4.534,0.167-8.133,3.554-8.16,8.16
	 M293.42,371.46h-8.28 M293.3,370.98h-8.16 M292.82,359.34h0.48 M301.46,346.56h-4.8 M300.26,345.84h-2.4 M297.38,345.36v-1.74
	 M291.44,345.36v-1.74 M294.8,345.36v-1.74 M297.38,345.36l0.12,0.3l0.36,0.18 M291.44,345.36l0.12,0.3l0.36,0.18h2.4
	 M294.32,345.84l0.36-0.18l0.12-0.3 M300.74,345.36v-1.74 M303.32,345.36v-1.74 M300.26,345.84l0.357-0.18l0.12-0.3 M303.32,345.36
	l0.12,0.3l0.36,0.18 M284.18,359.34h0.96 M285.5,345.36v-1.74 M288.86,345.36v-1.74 M289.58,346.56h-4.86 M285.5,345.36l0.12,0.3
	l0.36,0.18 M288.38,345.84h-2.4 M288.38,345.84l0.3-0.18l0.18-0.3 M285.14,359.34v-8.1 M292.82,359.34
	c0.005-4.471-3.686-8.141-8.16-8.1v8.28 M295.52,346.56h-4.8 M293.3,361.62v-2.28 M284.66,359.34v2.28 M293.3,361.62v-2.28
	 M292.82,361.62v-2.28 M293.3,359.34h15.419 M304.76,373.2H308 M294.26,361.62H308 M306.2,345.84H303.8 M307.399,346.56H302.6
	 M329.42,342.18h-4.32 M314.6,342.18h-4.38 M317.659,342.18h4.32 M301.46,342.18h-4.8 M300.26,343.14h-2.4 M294.32,343.14h-2.4
	 M284.18,339.18v2.16 M289.58,342.18h-4.86 M288.38,343.14h-2.4 M295.52,342.18h-4.8 M284.18,342.18H308 M306.2,343.14H303.8
	 M307.399,342.18H302.6 M282.74,338.7v21.42 M280.64,340.08v18.72 M308,342.18v8.52 M308.72,342.18v8.52 M284.18,342.18v19.44
	 M289.58,346.56v-4.38 M296.66,346.56v-4.38 M290.72,346.56v-4.38 M295.52,346.56v-4.38 M284.72,346.56v-4.38 M285.98,343.14
	l-0.36,0.18l-0.12,0.3 M297.86,343.14l-0.36,0.18l-0.12,0.3 M291.92,343.14l-0.36,0.18l-0.12,0.3 M294.8,343.62l-0.12-0.3
	l-0.36-0.18 M288.86,343.62l-0.18-0.3l-0.3-0.18 M301.46,346.56v-4.38 M302.6,346.56v-4.38 M307.399,346.56v-4.38 M300.74,343.62
	l-0.12-0.3l-0.357-0.18 M303.8,343.14l-0.36,0.18l-0.12,0.3 M306.68,343.62l-0.12-0.3l-0.36-0.18 M310.22,342.18v1.44 M314.6,342.18
	v1.44 M325.1,342.18v1.44 M321.979,342.18v1.44 M317.659,342.18v1.44 M329.42,342.18v1.44 M332.479,342.18v1.44 M265.16,371.76v1.44
	 M266.42,371.28v0.48 M266.42,371.28h-1.26v0.48 M265.16,373.2v0.96 M266.42,373.2v-1.44h-1.26 M265.16,361.62v0.48 M265.16,362.1
	h1.26v-0.48 M266.3,362.1h9.3 M275.6,362.58h-9.18v-0.48 M266.42,355.38h-1.26 M266.42,345.3h-1.26 M266.42,355.38v4.74
	 M265.16,355.38v6.24 M266.42,233.34v69.12 M267.02,340.08v18.72 M266.42,338.7v6.6 M265.16,232.32v73.98 M280.64,340.08h-13.62
	 M280.64,358.8h-13.62 M266.42,338.7h16.32 M265.16,374.16h34.92 M266.42,373.2h26.88 M266.9,374.64h32.76 M267.5,375.24h31.56
	 M266.42,371.28c4.986-0.015,9.232-4.127,9.18-9.18 M266.42,361.62h17.76 M266.42,360.12h16.32 M280.64,340.08l-13.62,18.72
	 M280.64,358.8l-13.62-18.72 M284.18,339.18h105.36 M284.18,341.34h63.839 M308.72,342.18h37.08 M301.1,374.16h72.66 M308.72,373.32
	h37.08 M266.42,337.02h70.5 M333.56,344.76l-0.06-0.42l-0.24-0.36l-0.36-0.24l-0.42-0.12 M332.479,342.18h4.38 M336.859,343.62
	h-4.38 M332.42,359.34c-0.024,2.535,2.023,4.526,4.5,4.56 M336.859,373.32h-4.38 M332.479,371.88h4.38 M333.26,369.18l-0.18,1.26
	l0.18,1.2 M374.779,374.16v54 M373.76,374.16v9.9 M267.5,375.24v36.78 M299.06,375.24v49.56 M266.9,374.64v37.38 M300.081,374.16v54
	 M301.1,374.16v9.9 M265.94,374.16v50.04 M265.16,374.16v50.64 M301.1,374.16l72.66,9.9 M373.76,374.16l-72.66,9.9 M375.199,374.64
	v49.56 M407.899,374.64v37.38 M375.8,375.24v49.56 M407.3,375.24v36.78 M409.64,374.16v50.64 M408.92,374.16v50.04 M299.66,374.64
	v49.56 M514.52,718.02h-0.96 M509.72,722.76v-0.96 M509.659,718.14v1.92 M512,718.14v1.92 M512,719.1h-2.343 M510.14,720.84h1.38
	 M510.14,722.76h1.38 M510.8,722.76v-1.92 M512.479,720.78h-3.36 M509.119,720.78v-3.36h3.36 M512.479,720.78v-3.36 M512.6,718.38
	v1.38 M514.46,718.38v1.38 M514.46,719.1h-1.86 M476.119,722.76v-1.92 M475.46,722.76h1.38 M475.46,720.84h1.38 M477.199,721.8v0.96
	 M475.04,722.76v-0.96 M477.199,721.8h32.521 M510.14,722.76h-33.3 M510.14,720.84h-33.3 M514.46,684.42h-1.86 M514.46,683.7v1.38
	 M512.6,685.08v-1.38 M514.52,685.5h-0.96 M514.52,683.34h-0.96 M514.46,649.74h-1.86 M514.46,650.4v-1.381 M512.6,650.4v-1.381
	 M512.479,648.06v3.36 M512.479,651.42h-3.36v-3.36 M512.479,648.06h-3.36 M512,649.74h-2.343 M512,650.7v-1.92 M509.659,650.7
	v-1.92 M514.52,650.82h-0.96 M514.52,648.66h-0.96 M513.56,650.82v32.52 M512.54,650.4v33.3 M514.52,650.4v33.3 M512.54,685.08v33.3
	 M514.52,685.08v33.3 M513.56,685.5v32.52 M442.64,719.1h-2.34 M442.64,720.06v-1.92 M440.3,718.14v1.92 M441.439,722.76v-1.92
	 M440.779,722.76h1.38 M440.779,720.84h1.38 M443.119,720.78v-3.36 M443.119,717.42h-3.357v3.36 M443.119,720.78h-3.357
	 M442.52,721.8v0.96 M440.359,722.76v-0.96 M406.76,722.76v-1.92 M406.1,722.76h1.38 M406.1,720.84h1.38 M407.84,721.8v0.96
	 M405.68,722.76v-0.96 M407.84,721.8h32.52 M440.779,722.76h-33.3 M440.779,720.84h-33.3 M372.08,722.76v-1.92 M371.42,722.76h1.38
	 M371.42,720.84h1.38 M373.76,717.42v3.36 M373.76,720.78h-3.36v-3.36 M373.76,717.42h-3.36 M373.279,719.1h-2.34 M373.279,720.06
	v-1.92 M370.939,718.14v1.92 M373.159,721.8v0.96 M371,722.76v-0.96 M336.319,721.8v0.96 M338.119,720.84h-1.38 M338.119,722.76
	h-1.38 M337.399,722.76v-1.92 M371,721.8h-32.521v0.96 M371.42,722.76h-33.301 M371.42,720.84h-33.301 M373.159,721.8h32.521
	 M406.1,722.76h-33.3 M406.1,720.84h-33.3 M440.3,650.7v-1.92 M442.64,650.7v-1.92 M442.64,649.74h-2.34 M370.939,648.78v1.92
	 M373.279,650.7v-1.92 M373.279,649.74h-2.34 M442.52,721.8h32.521 M475.46,722.76h-33.301 M475.46,720.84h-33.301 M514.52,616.14
	h-0.96 M512.6,615.72v-1.38 M514.46,614.34v1.38 M514.46,615.06h-1.86 M514.52,613.98h-0.96 M514.52,581.46h-0.96 M512,580.38
	h-2.343 M512.479,582.06h-3.36 M514.46,580.38h-1.86 M513.56,581.46v32.521 M514.52,581.04v33.3 M512.54,581.04v33.3 M514.52,579.3
	h-0.96 M512.479,578.7h-3.36 M513.56,579.3v-32.52h0.96 M514.52,544.62h-0.96 M512.6,546.36v-1.38 M514.46,544.98v1.38
	 M514.46,545.7h-1.86 M512.479,512.7h-3.36 M514.52,546.36v33.3 M512.54,546.36v33.3 M509.659,581.34v-1.92 M512,581.34v-1.92
	 M509.119,578.7v3.357 M512.479,578.7v3.357 M512.6,581.04v-1.38 M514.46,581.04v-1.38 M442.64,580.38h-2.34 M373.279,580.38h-2.34
	 M440.3,581.34v-1.92 M442.64,581.34v-1.92 M370.939,579.42v1.92 M373.279,581.34v-1.92 M514.52,509.94h-0.96 M514.52,512.1h-0.96
	 M509.659,511.98v-1.923 M512,511.98v-1.923 M512,511.02h-2.343 M512.479,509.34h-3.36 M512.6,511.68v-1.38 M514.46,511.68v-1.38
	 M514.46,511.02h-1.86 M514.46,476.34h-1.86 M514.46,475.62V477 M512.6,477v-1.38 M514.52,477.42h-0.96 M514.52,475.26h-0.96
	 M512.54,477v33.3 M514.52,477v33.3 M513.56,477.42v32.521 M514.46,441.66h-1.86 M514.46,442.32v-1.38 M512.6,442.32v-1.38
	 M512.479,439.98v3.357 M512.479,443.34h-3.36v-3.357 M512.479,439.98h-3.36 M512,441.66h-2.343 M512,442.62v-1.92 M509.659,442.62
	v-1.92 M514.52,442.74h-0.96 M514.52,440.58h-0.96 M514.46,406.98h-1.86 M514.46,406.26v1.381 M512.6,407.641v-1.381
	 M514.52,408.061h-0.96 M514.52,405.9h-0.96 M512.54,407.641v33.3 M514.52,407.641v33.3 M513.56,408.061v32.52 M513.56,442.74v32.52
	 M512.54,442.32v33.3 M514.52,442.32v33.3 M440.3,511.98v-1.923 M442.64,511.98v-1.923 M442.64,511.02h-2.34 M370.939,510.06v1.923
	 M373.279,511.98v-1.923 M373.279,511.02h-2.34 M440.3,442.62v-1.92 M442.64,442.62v-1.92 M442.64,441.66h-2.34 M370.939,440.7v1.92
	 M373.279,442.62v-1.92 M373.279,441.66h-2.34 M514.52,511.68v33.303 M512.54,511.68v33.303 M513.56,512.1v32.521 M509.119,509.34
	v3.36 M512.479,509.34v3.36 M513.56,616.14v32.521 M514.52,615.72v33.3 M512.54,615.72v33.3 M303.8,722.76v-0.96 M301.64,721.8v0.96
	 M303.92,718.14v1.92 M301.581,720.06v-1.92 M301.581,719.1h2.34 M301.041,717.42h3.357 M304.4,717.42v3.36h-3.357 M301.041,717.42
	v3.36 M303.44,720.84h-1.38 M303.44,722.76h-1.38 M302.72,722.76v-1.92 M269.12,722.76v-0.96 M266.96,721.8v0.96 M268.76,720.84
	h-1.38 M268.76,722.76h-1.38 M268.04,722.76v-1.92 M234.44,722.76v-0.96 M235.04,720.78v-3.36 M234.56,718.14v1.92 M232.28,721.8
	v0.96 M231.68,720.78v-3.36 M234.08,720.84h-1.38 M234.08,722.76h-1.38 M233.36,722.76v-1.92 M232.22,720.06v-1.92 M231.68,720.78
	h3.36 M231.68,717.42h3.36 M232.22,719.1h2.34 M234.08,720.84h33.3 M234.08,722.76h33.3 M266.96,721.8h-32.52 M268.76,720.84h33.3
	 M268.76,722.76h33.3 M301.64,721.8h-32.52 M301.581,649.74h2.34 M301.581,650.7v-1.92 M303.92,648.78v1.92 M234.56,650.7v-1.92
	 M232.22,650.7v-1.92 M232.22,649.74h2.34 M199.76,722.76v-0.96 M197.6,721.8v0.96 M199.4,720.84h-1.38 M199.4,722.76h-1.38
	 M198.68,722.76v-1.92 M165.68,720.78v-3.36 M164,722.76v-1.92 M165.2,718.14v1.92 M165.08,722.76v-0.96 M164.72,720.84h33.3
	 M164.72,722.76h33.3 M197.6,721.8h-32.52 M160.4,719.1h1.86 M160.4,718.38v1.38 M162.26,718.38v1.38 M162.32,720.78v-3.36
	 M162.86,718.14v1.92 M160.34,718.02h0.96 M162.32,717.42h3.36 M162.32,720.78h3.36 M164.72,722.76h-1.38 M164.72,720.84h-1.38
	 M162.86,719.1h2.34 M165.2,650.7v-1.92 M165.68,648.06v3.36 M160.34,683.34h0.96 M160.34,685.5h0.96 M162.26,685.08v-1.38
	 M160.4,683.7v1.38 M160.4,684.42h1.86 M160.34,648.66h0.96 M160.34,650.82h0.96 M162.86,650.7v-1.92 M162.32,648.06v3.36
	 M162.26,650.4v-1.381 M160.4,650.4v-1.381 M160.4,649.74h1.86 M160.34,650.4v33.3 M162.26,650.4v33.3 M161.3,650.82v32.52
	 M162.86,649.74h2.34 M162.32,648.06h3.36 M162.32,651.42h3.36 M161.3,685.5v32.52 M160.34,685.08v33.3 M162.26,685.08v33.3
	 M199.4,720.84h33.3 M199.4,722.76h33.3 M232.28,721.8h-32.52 M301.581,580.38h2.34 M232.22,580.38h2.34 M232.22,581.34v-1.92
	 M234.56,581.34v-1.92 M301.581,581.34v-1.92 M303.92,579.42v1.92 M160.4,615.06h1.86 M160.4,614.34v1.38 M162.26,615.72v-1.38
	 M160.34,616.14h0.96 M160.34,613.98h0.96 M160.4,580.38h1.86 M161.3,613.98V581.46h-0.96 M162.26,581.04v33.3 M160.34,581.04v33.3
	 M162.32,582.06h3.36 M162.86,580.38h2.34 M160.34,579.3h0.96 M161.3,579.3v-32.52h-0.96 M160.4,545.7h1.86 M160.4,544.98v1.38
	 M162.26,546.36v-1.38 M160.34,544.62h0.96 M162.26,546.36v33.3 M160.34,546.36v33.3 M162.32,512.7h3.36 M162.32,578.7h3.36
	 M160.4,581.04v-1.38 M162.26,581.04v-1.38 M162.32,578.7v3.357 M165.68,578.7v3.357 M162.86,581.34v-1.92 M165.2,581.34v-1.92
	 M301.581,511.02h2.34 M301.581,511.98v-1.923 M303.92,510.06v1.923 M234.56,511.98v-1.923 M232.22,511.98v-1.923 M232.22,511.02
	h2.34 M301.581,441.66h2.34 M301.581,442.62v-1.92 M303.92,440.7v1.92 M234.56,442.62v-1.92 M232.22,442.62v-1.92 M232.22,441.66
	h2.34 M165.2,511.98v-1.923 M160.4,511.02h1.86 M160.4,511.68v-1.38 M162.26,511.68v-1.38 M162.86,511.98v-1.923 M160.34,512.1h0.96
	 M160.34,509.94h0.96 M160.34,475.26h0.96 M160.34,477.42h0.96 M162.26,477v-1.38 M160.4,475.62V477 M160.4,476.34h1.86
	 M161.3,477.42v32.521 M160.34,477v33.3 M162.26,477v33.3 M162.32,509.34h3.36 M162.86,511.02h2.34 M165.2,442.62v-1.92
	 M165.68,439.98v3.357 M160.34,440.58h0.96 M160.34,442.74h0.96 M162.86,442.62v-1.92 M162.32,439.98v3.357 M162.26,442.32v-1.38
	 M160.4,442.32v-1.38 M160.4,441.66h1.86 M160.34,405.9h0.96 M160.34,408.061h0.96 M162.26,407.641v-1.381 M160.4,406.26v1.381
	 M160.4,406.98h1.86 M161.3,408.061v32.52 M160.34,407.641v33.3 M162.26,407.641v33.3 M162.86,441.66h2.34 M162.32,439.98h3.36
	 M162.32,443.34h3.36 M160.34,442.32v33.3 M162.26,442.32v33.3 M161.3,442.74v32.52 M162.32,509.34v3.36 M165.68,509.34v3.36
	 M161.3,512.1v32.521 M162.26,511.68v33.303 M160.34,511.68v33.303 M162.26,615.72v33.3 M160.34,615.72v33.3 M161.3,616.14v32.521
	 M303.44,720.84h33.299 M303.44,722.76h33.299 M336.319,721.8H303.8 M514.46,372.3h-1.86 M514.46,372.96v-1.38 M512.6,372.96v-1.38
	 M512.479,370.62v3.36 M512.479,373.98h-3.36v-3.36 M512.479,370.62h-3.36 M512,372.3h-2.343 M512,373.26v-1.92 M509.659,373.26
	v-1.92 M514.52,373.38h-0.96 M514.52,371.22h-0.96 M514.46,337.62h-1.86 M514.46,336.9v1.38 M512.6,338.28v-1.38 M514.52,338.7
	h-0.96 M514.52,336.54h-0.96 M512.54,338.28v33.3 M514.52,338.28v33.3 M513.56,338.7v32.52 M514.46,302.94h-1.86 M514.46,303.6
	v-1.38 M512.6,303.6v-1.38 M512.479,301.2v3.42 M512.479,304.62h-3.36v-3.42 M512.479,301.2h-3.36 M512,302.94h-2.343 M512,303.9
	v-1.92 M509.659,303.9v-1.92 M514.52,304.02h-0.96 M514.52,301.86h-0.96 M514.46,268.26h-1.86 M514.46,267.54v1.38 M512.6,268.92
	v-1.38 M514.52,269.34h-0.96 M514.52,267.18h-0.96 M512.54,268.92v33.3 M514.52,268.92v33.3 M513.56,269.34v32.52 M513.56,304.02
	v32.52 M512.54,303.6v33.3 M514.52,303.6v33.3 M440.3,373.26v-1.92 M442.64,373.26v-1.92 M442.64,372.3h-2.34 M373.279,372.3h-2.34
	 M373.279,373.26v-1.92 M370.939,371.34v1.92 M440.3,303.9v-1.92 M442.64,303.9v-1.92 M442.64,302.94h-2.34 M373.279,302.94h-2.34
	 M373.279,301.98v1.92 M370.939,303.9v-1.92 M303.92,371.34v1.92 M301.581,373.26v-1.92 M301.581,372.3h2.34 M234.56,373.26v-1.92
	 M232.22,373.26v-1.92 M232.22,372.3h2.34 M303.92,303.9v-1.92 M301.581,301.98v1.92 M301.581,302.94h2.34 M234.56,303.9v-1.92
	 M232.22,303.9v-1.92 M232.22,302.94h2.34 M165.2,373.26v-1.92 M165.68,370.62v3.36 M160.34,371.22h0.96 M160.34,373.38h0.96
	 M162.86,373.26v-1.92 M162.32,370.62v3.36 M162.26,372.96v-1.38 M160.4,372.96v-1.38 M160.4,372.3h1.86 M160.34,336.54h0.96
	 M160.34,338.7h0.96 M162.26,338.28v-1.38 M160.4,336.9v1.38 M160.4,337.62h1.86 M161.3,338.7v32.52 M160.34,338.28v33.3
	 M162.26,338.28v33.3 M162.86,372.3h2.34 M162.32,370.62h3.36 M162.32,373.98h3.36 M165.2,303.9v-1.92 M165.68,301.2v3.42
	 M160.34,301.86h0.96 M160.34,304.02h0.96 M162.86,303.9v-1.92 M162.32,301.2v3.42 M162.26,303.6v-1.38 M160.4,303.6v-1.38
	 M160.4,302.94h1.86 M160.34,267.18h0.96 M160.34,269.34h0.96 M162.26,268.92v-1.38 M160.4,267.54v1.38 M160.4,268.26h1.86
	 M161.3,269.34v32.52 M160.34,268.92v33.3 M162.26,268.92v33.3 M162.86,302.94h2.34 M162.32,301.2h3.36 M162.32,304.62h3.36
	 M160.34,303.6v33.3 M162.26,303.6v33.3 M161.3,304.02v32.52 M160.34,372.96v33.3 M162.26,372.96v33.3 M161.3,373.38V405.9
	 M513.56,373.38V405.9 M512.54,372.96v33.3 M514.52,372.96v33.3 M514.46,233.58h-1.86 M512.479,235.26h-3.36 M512,233.58h-2.343
	 M514.52,234.66h-0.96 M512.479,231.84h-3.36 M514.52,232.44h-0.96 M514.46,234.24v-1.38 M512.6,234.24v-1.38 M512.479,231.84v3.42
	 M509.119,231.84v3.42 M512,234.54v-1.98 M509.659,234.54v-1.98 M514.52,199.98h-0.96 M514.52,197.76h-0.96 M514.46,198.9h-1.86
	 M512.6,199.56v-1.38 M514.46,198.18v1.38 M513.56,199.98v32.46 M514.52,199.56v33.3 M512.54,199.56v33.3 M442.64,233.58h-2.34
	 M440.3,234.54v-1.98 M442.64,234.54v-1.98 M513.56,234.66v32.52 M512.54,234.24v33.3 M514.52,234.24v33.3 M234.56,234.54v-1.98
	 M232.22,234.54v-1.98 M232.22,233.58h2.34 M165.2,234.54v-1.98 M165.68,231.84v3.42 M160.34,234.66h0.96 M160.4,233.58h1.86
	 M160.34,232.44h0.96 M162.86,234.54v-1.98 M162.32,231.84v3.42 M162.26,234.24v-1.38 M160.4,234.24v-1.38 M160.34,199.98h0.96
	 M160.4,198.9h1.86 M160.34,197.76h0.96 M160.4,198.18v1.38 M162.26,232.86v-34.68 M160.34,199.56v33.3 M161.3,199.98v32.46
	 M162.86,233.58h2.34 M162.32,231.84h3.36 M162.32,235.26h3.36 M160.34,234.24v33.3 M162.26,234.24v33.3 M161.3,234.66v32.52
	 M512.479,165.9h-3.36 M514.52,163.08h-0.96 M514.52,165.3h-0.96 M509.659,165.18v-1.98 M512,165.18v-1.98 M512,164.22h-2.343
	 M512.479,162.48h-3.36 M512.6,164.88v-1.38 M514.46,164.88v-1.38 M514.46,164.22h-1.86 M509.119,162.48v3.42 M512.479,162.48v3.42
	 M514.46,129.48h-1.86 M514.46,128.82v1.38 M512.6,130.2v-1.38 M514.52,130.62h-0.96 M514.52,128.4h-0.96 M512.54,130.2v33.3
	 M514.52,130.2v33.3 M513.56,130.62v32.46 M514.52,164.88v33.3 M512.54,164.88v33.3 M513.56,165.3v32.46 M442.64,164.22h-2.34
	 M442.64,165.18v-1.98 M440.3,165.18v-1.98 M373.279,165.18v-1.98 M373.279,164.22h-2.34 M514.46,94.8h-1.86 M514.46,95.52v-1.38
	 M512.6,95.52v-1.38 M512.479,93.12v3.42 M512.479,96.54h-3.36v-3.42 M512.479,93.12h-3.36 M510.8,91.2v1.86 M510.14,91.2h1.38
	 M510.14,93.06h1.38 M512,94.8h-2.343 M512,95.82v-1.98 M509.659,95.82v-1.98 M509.72,91.14v0.96 M514.52,95.94h-0.96 M476.119,91.2
	v1.86 M475.46,91.2h1.38 M475.46,93.06h1.38 M475.04,91.14v0.96 M509.72,92.1h-32.521v-0.96 M510.14,91.14h-33.3 M510.14,93.06
	h-33.42 M442.64,94.8h-2.34 M442.64,95.82v-1.98 M440.3,95.82v-1.98 M441.439,93.06V91.2 M440.779,93.06h1.38 M440.779,91.2h1.38
	 M440.359,91.14v0.96 M442.52,91.14v0.96 M439.76,93.12v4.26 M439.76,97.38h3.357v-4.26 M443.119,93.12h-3.357 M406.76,93.06V91.2
	 M406.1,93.06h1.38 M406.1,91.2h1.38 M405.68,91.14v0.96 M440.359,92.1h-32.52v-0.96 M407.479,91.14h33.3 M407.479,93.06h33.3
	 M373.76,93.12h-3.36 M372.08,91.2v1.86 M371.42,91.2h1.38 M371.42,93.06h1.38 M373.279,94.8h-2.34 M373.279,95.82v-1.98
	 M370.939,95.82v-1.98 M373.76,93.12v3.42 M373.76,96.54h-3.36v-3.42 M371,91.14v0.96 M373.159,91.14v0.96 M336.319,91.14v0.96
	 M338.119,91.2h-1.38 M338.119,93.06h-1.38 M337.399,93.06V91.2 M338.479,91.14v0.96 M371.42,91.14h-33.301 M371,92.1h-32.521
	 M371.42,93.06h-33.301 M405.68,92.1h-32.521 M406.1,91.14h-33.3 M406.1,93.06h-33.3 M475.46,91.14h-33.301 M475.46,93.06h-33.301
	 M475.04,92.1H442.52 M513.56,95.94v32.46 M512.54,95.52v33.3 M514.52,95.52v33.3 M301.581,164.22h2.34 M301.581,165.18v-1.98
	 M303.92,163.2v1.98 M234.56,165.18v-1.98 M232.22,165.18v-1.98 M232.22,164.22h2.34 M165.2,165.18v-1.98 M165.68,162.48v3.42
	 M160.4,164.22h1.86 M160.4,164.88v-1.38 M162.26,164.88v-1.38 M162.86,165.18v-1.98 M160.34,165.3h0.96 M160.34,163.08h0.96
	 M162.32,162.48v3.42 M160.34,128.4h0.96 M160.34,130.62h0.96 M162.26,130.2v-1.38 M160.4,128.82v1.38 M160.4,129.48h1.86
	 M161.3,130.62v32.46 M160.34,130.2v33.3 M162.26,130.2v33.3 M162.32,165.9h3.36 M162.32,162.48h3.36 M162.86,164.22h2.34
	 M161.3,165.3v32.46 M162.26,164.88v33.3 M160.34,164.88v33.3 M301.64,91.14v0.96 M303.8,91.14v0.96 M304.4,93.12v3.42h-3.357
	 M301.041,93.12v3.42 M303.92,95.82v-1.98 M301.581,95.82v-1.98 M301.581,94.8h2.34 M303.44,93.06h-1.38 M303.44,91.2h-1.38
	 M302.72,91.2v1.86 M301.041,93.12h3.357 M266.96,91.14v0.96 M269.12,91.14v0.96 M268.76,91.2h-1.38 M268.76,93.06h-1.38
	 M268.04,93.06V91.2 M235.04,93.12v4.26 M234.44,91.14v0.96 M234.56,95.82v-1.98 M231.68,93.12v4.26 M232.28,91.14v0.96
	 M234.08,91.2h-1.38 M234.08,93.06h-1.38 M233.36,93.06V91.2 M232.22,95.82v-1.98 M231.68,93.12h3.36 M231.68,97.38h3.36
	 M232.22,94.8h2.34 M267.38,93.06h-33.3 M267.38,91.14h-33.3 M234.44,92.1h32.52 M268.76,93.06h33.3 M268.76,91.14h33.3
	 M269.12,92.1h32.52 M197.6,91.14v0.96 M199.76,91.14v0.96 M199.4,93.06h-1.38 M199.4,91.2h-1.38 M198.68,91.2v1.86 M165.08,91.14
	v0.96 M165.2,95.82v-1.98 M164,91.2v1.86 M165.68,93.12v3.42 M164.72,93.06h33.42 M164.72,91.14h33.3 M165.08,92.1h32.52
	 M160.34,95.94h0.96 M162.86,95.82v-1.98 M162.32,93.12v3.42 M162.26,95.52v-1.38 M160.4,95.52v-1.38 M160.4,94.8h1.86 M162.86,94.8
	h2.34 M164.72,93.06h-1.38 M164.72,91.2h-1.38 M162.32,93.12h3.36 M162.32,96.54h3.36 M199.76,92.1h32.52 M199.4,93.06h33.3
	 M199.4,91.14h33.3 M160.34,95.52v33.3 M162.26,95.52v33.3 M161.3,95.94v32.46 M303.8,92.1h32.519 M303.44,93.06h33.299
	 M303.44,91.14h33.299 M232.22,301.5v-38.58 M232.22,232.08v-66.42 M232.22,165.18v-1.98 M232.22,303.9v-1.92 M232.22,373.26v-1.92
	 M232.22,511.98v-1.923 M232.22,497.28v-14.7 M370.939,161.04v1.2 M370.939,163.2v1.98 M442.64,579.42v1.92 M442.64,648.78v1.92
	 M232.22,650.7v-1.92 M232.22,581.34v-1.92 M442.64,442.62v-1.92"/>
<path fill="none" stroke="#000000" stroke-width="0.72" stroke-linecap="round" stroke-linejoin="round" stroke-miterlimit="10" d="
	M443.6,246.3v56.16h32.04 M478.1,268.74v-0.96 M488.899,268.74v-0.96 M478.1,267.78h0.48v0.96 M478.1,268.74h0.48 M488.899,268.74
	h-0.479v-0.96 M488.42,267.78h0.479 M478.58,268.74v9.84 M478.58,268.74h0.479v9.84 M478.58,278.58
	c5.503-0.072,9.768-4.337,9.84-9.84 M478.1,268.74h-1.5 M478.1,267.78h-2.46 M478.1,233.1v0.96 M488.899,233.1v0.96 M478.1,234.06
	h0.48v-0.96 M478.1,233.1h0.48 M488.899,233.1h-0.479v0.96 M488.42,234.06h0.479 M478.58,233.1v-9.9 M478.58,233.1h0.479v-9.9
	 M488.42,233.1c-0.039-5.526-4.314-9.828-9.84-9.9 M474.08,233.1v0.96 M463.22,233.1v0.96 M474.08,234.06h-0.48v-0.96 M474.08,233.1
	h-0.48 M463.22,233.1h0.479v0.96 M463.699,234.06h-0.479 M473.6,233.1v-9.9 M473.6,233.1h-0.48v-9.9 M473.6,223.2
	c-5.549,0.039-9.861,4.351-9.9,9.9 M475.64,233.1h-1.56 M478.1,234.06h-4.02 M478.1,233.1h-1.5 M463.22,233.1H443.6 M463.22,234.06
	H443.6 M475.64,267.78v34.68 M476.6,268.74v33.72 M475.64,200.58H443.6 M476.6,200.58v32.52 M475.64,199.62H443.6 M475.64,200.58
	v32.52 M443.6,199.62v-37.38 M509.119,372.78H443.6 M509.119,371.82H443.6 M439.52,247.26h3.12 M443.6,235.5v-1.44 M443.6,246.3
	h-5.04v8.94 M439.52,247.26v7.98 M443.6,233.1v-32.52 M438.56,235.5h5.04 M439.52,234.54h3.12 M478.1,164.7v-1.02 M488.899,164.7
	v-1.02 M478.1,163.68h0.48v1.02 M478.1,164.7h0.48 M488.899,164.7h-0.479v-1.02 M488.42,163.68h0.479 M478.58,164.7v9.84
	 M478.58,164.7h0.479v9.84 M478.58,174.54c5.503-0.072,9.768-4.337,9.84-9.84 M478.1,164.7h-1.5 M489.859,160.8h-0.96 M489.859,150
	h-0.96 M488.899,160.8v-0.48h0.96 M489.859,160.8v-0.48 M489.859,150v0.48h-0.96 M488.899,150.48V150 M489.859,160.32h9.9
	 M489.859,160.32v-0.48h9.9 M499.76,160.32c0.015-5.39-4.497-9.896-9.9-9.84 M488.899,160.8v3.9 M489.859,160.8v2.88
	 M489.859,131.64V150 M488.899,131.64V150 M478.1,130.68v0.96 M488.899,130.68v0.96 M478.1,131.64h0.48v-0.96 M478.1,130.68h0.48
	 M488.899,130.68h-0.479v0.96 M488.42,131.64h0.479 M478.58,130.68v-9.9 M478.58,130.68h0.479v-9.9 M488.42,130.68
	c-0.039-5.526-4.314-9.828-9.84-9.9 M478.1,131.64h-22.44 M478.1,130.68h-1.5 M475.64,130.68h-19.98 M444.859,130.68v0.96
	 M455.659,130.68v0.96 M444.859,131.64h0.48v-0.96 M444.859,130.68h0.48 M455.659,130.68h-0.479v0.96 M455.18,131.64h0.479
	 M445.34,130.68v-9.9 M445.34,130.68h0.479v-9.9 M455.18,130.68c-0.039-5.526-4.314-9.828-9.84-9.9 M444.859,131.64h-2.938
	 M444.859,130.68h-2.938 M476.6,164.7v34.92 M475.64,163.68v35.94 M440.96,145.14h0.96 M440.96,134.34h0.96 M441.92,145.14v-0.48
	h-0.96 M440.96,145.14v-0.48 M440.96,134.34v0.48h0.96 M441.92,134.82v-0.48 M440.96,144.66h-9.843 M440.96,144.66v-0.48h-9.843
	 M440.96,134.82c-5.503,0.072-9.771,4.337-9.843,9.84 M440.96,145.14v2.94 M441.92,145.14v3.9 M441.92,131.64v2.7 M427.76,212.58
	h-18.061 M438.56,212.1v0.96 M427.76,212.1v0.96 M438.56,213.06h-0.479v-0.96 M438.56,212.1h-0.479 M427.76,212.1h0.479v0.96
	 M428.239,213.06h-0.479 M438.08,212.1v-9.84 M438.08,212.1h-0.48v-9.84 M438.08,202.26c-5.508-0.006-9.793,4.398-9.843,9.84
	 M438.56,213.06v22.44 M372.56,96.54v23.34 M371.6,96.54v24.3 M408.739,163.2v48.9 M427.76,213.06h-18.061v-50.82 M427.76,212.1
	h-18.061 M512.54,199.62H476.6 M512.54,200.58H476.6 M509.119,234.06h-19.26 M509.119,233.1h-20.22 M440.96,148.08h-33.721
	 M406.279,93.06v26.82 M407.239,93.06v55.02 M441.92,149.04h-35.641 M392.119,163.2h-17.88 M408.739,163.2h-5.817 M392.119,162.24
	h-19.56 M409.699,162.24h-6.777 M509.119,164.7h-20.22 M509.119,163.68h-19.26 M443.6,162.24h-5.04 M439.52,165.18v-1.98h3.12
	 M438.56,162.24v50.82 M512.6,267.78h-22.74 M512.6,268.74h-23.7 M509.119,303.42H443.6 M509.119,302.46H476.6 M512.54,131.64
	h-22.681 M512.54,130.68h-23.641 M476.6,93.06v37.62 M475.64,93.06v37.62 M441.92,97.38v33.3 M440.96,97.38v36.96 M442.64,301.5
	v-38.58 M442.64,232.08v-66.42 M442.64,497.28v-14.7 M306.38,162.24V183 M304.16,166.14h-3.54v-2.94 M304.16,165.18h-2.577
	 M306.38,162.24h62.397V183 M303.2,136.98h-0.96 M303.2,147.84h-0.96 M302.24,136.98v0.48h0.96 M303.2,136.98v0.48 M303.2,147.84
	v-0.48h-0.96 M302.24,147.36v0.48 M303.2,137.46h9.9 M303.2,137.46v0.48h9.9 M303.2,147.36c5.475-0.093,9.896-4.356,9.9-9.9
	 M302.24,147.84v14.4 M303.2,147.84v12.24 M303.2,134.1v2.88 M303.2,131.7h-0.96 M303.2,120.84h-0.96 M302.24,131.7v-0.48h0.96
	 M303.2,131.7v-0.48 M303.2,120.84v0.48h-0.96 M302.24,121.32v-0.48 M303.2,131.22h9.9 M303.2,131.22v-0.479h9.9 M313.1,131.22
	c-0.039-5.549-4.351-9.861-9.9-9.9 M302.24,131.7v5.28 M303.2,131.7v1.44 M268.52,120.84v28.2 M271.46,120.84h20.52 M271.16,119.88
	h20.76 M303.2,160.08h33.24 M303.2,134.1h33.24 M303.2,133.14h33.24 M268.52,119.88h2.94 M268.52,120.84h2.94 M336.439,93.06v40.08
	 M337.399,93.06v40.08 M235.28,509.1h1.02 M235.28,498.24h1.02 M236.3,509.1v-0.479h-1.02 M235.28,509.1v-0.479 M235.28,498.24
	v0.479h1.02 M236.3,498.72v-0.479 M235.28,508.62h-9.84 M235.28,508.62v-0.48h-9.84 M235.28,498.72
	c-5.526,0.072-9.801,4.374-9.84,9.9 M231.26,441.18v-56.16 M235.28,497.28h-3.06 M231.26,498.24V442.14 M236.3,509.1v58.5
	 M236.3,498.24h-5.04 M235.28,374.22h1.02 M235.28,385.02h1.02 M236.3,374.22v0.48h-1.02 M235.28,374.22v0.48 M235.28,385.02v-0.48
	h1.02 M236.3,384.54v0.48 M235.28,374.7h-9.84 M235.28,374.7v0.48h-9.84 M225.44,374.7c0.03,5.517,4.355,9.762,9.84,9.84
	 M235.28,304.86h1.02 M235.28,315.66h1.02 M236.3,304.86v0.48h-1.02 M235.28,304.86v0.48 M235.28,315.66v-0.48h1.02 M236.3,315.18
	v0.48 M235.28,305.34h-9.84 M235.28,305.34v0.48h-9.84 M225.44,305.34c0.038,5.481,4.365,9.781,9.84,9.84 M231.26,510.54v-1.44
	 M235.28,512.94v53.697 M235.28,510.06v1.923 M235.28,512.94h-3.06 M236.3,509.1h-5.04 M235.28,511.98h-3.06 M235.28,510.06h-3.06
	 M165.68,511.5h32.34 M165.68,510.54h65.58 M231.26,371.82v-56.16 M232.22,385.98h3.06 M231.26,374.22v-1.44 M231.26,385.02h5.04
	v76.38 M165.68,442.14h65.58 M165.68,441.18h65.58 M235.28,316.62h-3.06 M231.26,304.86v-1.44 M231.26,315.66h5.04v58.56
	 M232.22,370.86v-54.24 M235.28,385.98v54.24 M235.28,371.34v1.92 M232.22,370.86h3.06 M231.26,374.22h5.04 M232.22,373.26h3.06
	 M232.22,371.34h3.06 M232.22,301.5v-38.58 M235.28,316.62v54.24 M235.28,301.98v1.92 M236.3,301.5h-5.04 M236.3,304.86h-5.04
	 M235.28,303.9h-3.06 M235.28,301.98h-3.06 M232.22,165.66h3.06v66.42 M235.28,165.18h-3.06 M235.28,232.56v1.98 M235.28,232.08
	h-3.06 M235.28,232.56h-3.06 M235.28,235.5h1.02 M235.28,246.3h1.02 M236.3,235.5v0.48h-1.02 M235.28,235.5v0.48 M235.28,246.3
	v-0.48h1.02 M236.3,245.82v0.48 M235.28,235.98h-9.84 M235.28,235.98v0.48h-9.84 M225.44,235.98c0.038,5.481,4.365,9.781,9.84,9.84
	 M231.26,268.74v33.72h-32.1 M196.76,268.74v-0.96 M185.96,268.74v-0.96 M196.76,267.78h-0.48v0.96 M196.76,268.74h-0.48
	 M185.96,268.74h0.48v-0.96 M186.44,267.78h-0.48 M196.28,268.74v9.84 M196.28,268.74h-0.48v9.84 M186.44,268.74
	c0.049,5.464,4.378,9.819,9.84,9.84 M200.78,268.74v-0.96 M211.64,268.74v-0.96 M200.78,267.78h0.48v0.96 M200.78,268.74h0.48
	 M211.64,268.74h-0.48v-0.96 M211.16,267.78h0.48 M201.26,268.74v9.84 M201.26,268.74h0.48v9.84 M201.26,278.58
	c5.443,0.035,9.873-4.421,9.9-9.84 M211.64,268.74h19.62 M211.64,267.78h19.62 M199.16,268.74h1.62 M196.76,268.74h1.44
	 M196.76,267.78h4.02 M196.76,233.1v0.96 M185.96,233.1v0.96 M196.76,234.06h-0.48v-0.96 M196.76,233.1h-0.48 M185.96,233.1h0.48
	v0.96 M186.44,234.06h-0.48 M196.28,233.1v-9.9 M196.28,233.1h-0.48v-9.9 M196.28,223.2c-5.486,0.021-9.824,4.413-9.84,9.9
	 M200.78,233.1v0.96 M211.64,233.1v0.96 M200.78,234.06h0.48v-0.96 M200.78,233.1h0.48 M211.64,233.1h-0.48v0.96 M211.16,234.06
	h0.48 M201.26,233.1v-9.9 M201.26,233.1h0.48v-9.9 M211.16,233.1c0.007-5.442-4.434-9.935-9.9-9.9 M199.16,233.1h1.62
	 M196.76,234.06h4.02 M196.76,233.1h1.44 M211.64,233.1h19.62 M211.64,234.06h19.62 M199.16,268.74v33.72 M198.2,268.74v33.72
	 M199.16,200.58h32.1 M198.2,200.58v32.52 M199.16,199.62h32.1 M199.16,200.58v32.52 M231.26,199.62V164.7 M165.68,372.78h65.58
	 M165.68,371.82h65.58 M235.28,247.26h-3.06 M231.26,235.5v-1.44 M231.26,246.3h5.04v8.94 M235.28,247.26v7.98 M231.26,233.1v-32.52
	 M236.3,235.5h-5.04 M235.28,234.54h-3.06 M230,164.7v-1.02 M219.2,164.7v-1.02 M230,163.68h-0.48v1.02 M230,164.7h-0.48
	 M219.2,164.7h0.48v-1.02 M219.68,163.68h-0.48 M229.52,164.7v9.84 M229.52,164.7h-0.48v9.84 M219.68,164.7
	c0.08,5.463,4.309,9.833,9.84,9.84 M230,164.7h1.26 M230,163.68h1.26 M199.16,164.7h20.04 M196.76,164.7v-1.02 M185.96,164.7v-1.02
	 M196.76,163.68h-0.48v1.02 M196.76,164.7h-0.48 M185.96,164.7h0.48v-1.02 M186.44,163.68h-0.48 M196.28,164.7v9.84 M196.28,164.7
	h-0.48v9.84 M186.44,164.7c0.049,5.464,4.378,9.819,9.84,9.84 M196.76,164.7h1.44 M185,160.8h0.96 M185,150h0.96 M185.96,160.8
	v-0.48H185 M185,160.8v-0.48 M185,150v0.48h0.96 M185.96,150.48V150 M185,160.32h-9.9 M185,160.32v-0.48h-9.9 M185,150.48
	c-5.498,0.026-9.862,4.335-9.9,9.84 M185.96,160.8v3.9 M185,160.8v2.88 M196.76,163.68h22.44 M185,131.64V150 M185.96,131.64V150
	 M196.76,130.68v0.96 M185.96,130.68v0.96 M196.76,131.64h-0.48v-0.96 M196.76,130.68h-0.48 M185.96,130.68h0.48v0.96
	 M186.44,131.64h-0.48 M196.28,130.68v-9.9 M196.28,130.68h-0.48v-9.9 M196.28,120.78c-5.486,0.021-9.824,4.413-9.84,9.9
	 M196.76,131.64h22.44 M196.76,130.68h1.44 M199.16,130.68h20.04 M230,130.68v0.96 M219.2,130.68v0.96 M230,131.64h-0.48v-0.96
	 M230,130.68h-0.48 M219.2,130.68h0.48v0.96 M219.68,131.64h-0.48 M229.52,130.68v-9.9 M229.52,130.68h-0.48v-9.9 M229.52,120.78
	c-5.554,0.006-9.793,4.414-9.84,9.9 M230,131.64h2.88 M230,130.68h2.88 M198.2,164.7v34.92 M199.16,164.7v34.92 M233.84,145.14
	h-0.96 M233.84,134.34h-0.96 M232.88,145.14v-0.48h0.96 M233.84,145.14v-0.48 M233.84,134.34v0.48h-0.96 M232.88,134.82v-0.48
	 M233.84,144.66h9.9 M233.84,144.66v-0.48h9.9 M243.74,144.66c-0.072-5.526-4.374-9.801-9.9-9.84 M233.84,145.14v2.94
	 M232.88,145.14v3.9 M232.88,131.64v2.7 M247.1,212.58h18.06 M266.12,212.1H269 M265.16,213.06H269 M236.3,212.1v0.96 M247.1,212.1
	v0.96 M236.3,213.06h0.48v-0.96 M236.3,212.1h0.48 M247.1,212.1h-0.48v0.96 M246.62,213.06h0.48 M236.78,212.1v-9.84"/>
<path fill="none" stroke="#000000" stroke-width="0.72" stroke-linecap="round" stroke-linejoin="round" stroke-miterlimit="10" d="
	M455.18,682.56h0.479 M445.34,683.52v9.843 M445.34,683.52h0.479v9.843 M445.34,693.36c5.463-0.08,9.833-4.312,9.84-9.843
	 M440.96,669.72h0.96 M440.96,680.58h0.96 M441.92,669.72v0.48h-0.96 M440.96,669.72v0.48 M440.96,680.58v-0.48h0.96 M441.92,680.1
	v0.48 M440.96,670.2h-9.843 M440.96,670.2v0.479h-9.843 M431.119,670.2c-0.033,5.437,4.454,9.876,9.843,9.897 M476.6,614.34v34.92
	h1.5 M475.64,649.26v-34.92 M488.899,651.66v-2.4 M489.859,651.66v-1.44 M478.1,650.22h-3.9 M489.859,682.56v-20.04 M488.899,683.52
	v-21 M478.1,683.52h-1.5 M478.1,682.56h-22.44 M444.859,682.56h-2.938 M444.859,683.52h-2.938 M475.64,683.52h-19.98 M512.54,613.38
	h-35.7 M512.54,614.34H476.6 M476.6,720.84v-37.32 M475.64,720.84v-37.32 M512.54,682.56h-22.681 M512.54,683.52h-23.641
	 M441.92,669.72v-3.84 M440.96,669.72v-2.88 M402.439,700.38v-0.96 M391.64,700.38v-0.96 M402.439,699.42h-0.479v0.96
	 M402.439,700.38h-0.479 M391.64,700.38h0.479v-0.96 M392.119,699.42h-0.479 M401.96,700.38v9.84 M401.96,700.38h-0.48v9.84
	 M392.119,700.38c-0.034,5.461,4.398,9.854,9.843,9.84 M402.439,700.38h2.88 M405.319,665.88v33.54h-2.88 M372.56,700.38h19.08
	 M372.56,699.42h19.08 M371.6,688.56h0.96 M371.6,699.42h0.96 M372.56,688.56v0.48h-0.96 M371.6,688.56v0.48 M371.6,699.42v-0.479
	h0.96 M372.56,698.94v0.479 M371.6,689.04h-9.84 M371.6,689.04v0.479h-9.84 M361.76,689.04c-0.036,5.437,4.454,9.876,9.84,9.9
	 M371.6,684.72h0.96 M371.6,673.86h0.96 M372.56,684.72v-0.479h-0.96 M371.6,684.72v-0.479 M371.6,673.86v0.479h0.96 M372.56,674.34
	v-0.479 M371.6,684.24h-9.84 M371.6,684.24v-0.48h-9.84 M371.6,674.34c-5.419,0.027-9.875,4.457-9.84,9.9 M371.6,686.16v-1.44
	 M371.6,688.56v-1.438 M372.56,688.56v-3.84 M371.6,673.86v-16.62 M372.56,673.86v-22.2 M337.819,686.16h33.78 M337.819,687.12
	h33.78 M369.979,647.82h4.26 M373.279,650.7h-2.34 M369.979,650.7h-32.16 M406.279,720.84v-54 M405.319,720.84v-20.46
	 M374.239,650.7v-2.88 M369.979,647.82v2.88 M370.939,648.78h2.34 M409.699,651.66h-37.14 M408.739,650.7h-34.5 M509.119,650.22
	h-19.26 M509.119,649.26h-20.22 M441.92,717.42v-33.9 M440.96,717.42v-36.84 M440.96,666.84h-34.681 M441.92,665.88h-2.4
	 M408.739,602.52V650.7 M409.699,601.56v50.103 M372.56,717.42v-17.04 M371.6,717.42v-18 M185,651.66h0.96 M185,662.52h0.96
	 M185.96,651.66v0.479H185 M185,651.66v0.479 M185,662.52v-0.479h0.96 M185.96,662.04v0.479 M185,652.14h-9.9 M185,652.14v0.48h-9.9
	 M175.1,652.14c0.004,5.544,4.428,9.81,9.9,9.9 M196.76,649.26v0.96 M185.96,649.26v0.96 M196.76,650.22h-0.48v-0.96 M196.76,649.26
	h-0.48 M185.96,649.26h0.48v0.96 M186.44,650.22h-0.48 M196.28,649.26v-9.897 M196.28,649.26h-0.48v-9.897 M196.28,639.36
	c-5.379-0.029-9.903,4.509-9.84,9.897 M196.76,683.52v-0.96 M185.96,683.52v-0.96 M196.76,682.56h-0.48v0.96 M196.76,683.52h-0.48
	 M185.96,683.52h0.48v-0.96 M186.44,682.56h-0.48 M196.28,683.52v9.843 M196.28,683.52h-0.48v9.843 M186.44,683.52
	c-0.015,5.493,4.417,9.812,9.84,9.843 M230,683.52v-0.96 M219.2,683.52v-0.96 M230,682.56h-0.48v0.96 M230,683.52h-0.48
	 M219.2,683.52h0.48v-0.96 M219.68,682.56h-0.48 M229.52,683.52v9.843 M229.52,683.52h-0.48v9.843 M219.68,683.52
	c0.004,5.479,4.363,9.839,9.84,9.843 M233.84,669.72h-0.96 M233.84,680.58h-0.96 M232.88,669.72v0.48h0.96 M233.84,669.72v0.48
	 M233.84,680.58v-0.48h-0.96 M232.88,680.1v0.48 M233.84,670.2h9.9 M233.84,670.2v0.479h9.9 M233.84,680.1
	c5.41,0.013,9.936-4.438,9.9-9.897 M198.2,614.34v34.92h-1.44 M199.16,650.22v-35.88 M185.96,651.66v-2.4 M185,651.66v-1.44
	 M196.76,650.22h2.4 M185,682.56v-20.04 M185.96,683.52v-21 M196.76,683.52h1.44 M196.76,682.56h22.44 M230,682.56h2.88 M230,683.52
	h2.88 M199.16,683.52h20.04 M231.26,613.38v-32.52 M162.26,613.38h35.76 M162.26,614.34h35.94 M198.2,720.84v-37.32 M199.16,720.84
	v-37.32 M162.26,682.56H185 M162.26,683.52h23.7 M232.88,669.72v-3.84 M233.84,669.72v-2.88 M272.42,700.38v-0.96 M283.22,700.38
	v-0.96 M272.42,699.42h0.48v0.96 M272.42,700.38h0.48 M283.22,700.38h-0.48v-0.96 M282.74,699.42h0.48 M272.9,700.38v9.84
	 M272.9,700.38h0.48v9.84 M272.9,710.22c5.463-0.044,9.822-4.349,9.84-9.84 M272.42,700.38h-2.94 M269.48,665.88v33.54h2.94
	 M302.24,700.38h-19.02 M302.24,699.42h-19.02 M303.2,688.56h-0.96 M303.2,699.42h-0.96 M302.24,688.56v0.48h0.96 M303.2,688.56
	v0.48 M303.2,699.42v-0.479h-0.96 M302.24,698.94v0.479 M303.2,689.04h9.9 M303.2,689.04v0.479h9.9 M303.2,698.94
	c5.41,0.01,9.938-4.441,9.9-9.9 M303.2,684.72h-0.96 M303.2,673.86h-0.96 M302.24,684.72v-0.479h0.96 M303.2,684.72v-0.479
	 M303.2,673.86v0.479h-0.96 M302.24,674.34v-0.479 M303.2,684.24h9.9 M303.2,684.24v-0.48h9.9 M313.1,684.24
	c0.035-5.466-4.458-9.907-9.9-9.9 M303.2,686.16v-1.44 M303.2,688.56v-1.438 M302.24,688.56v-3.84 M303.2,673.86v-16.62
	 M302.24,673.86v-22.2 M336.859,686.16H303.2 M336.859,687.12H303.2 M303.2,651.66h68.4 M304.88,647.82h-4.263 M301.581,650.7h2.34
	 M304.88,650.7h31.978 M268.52,720.84v-54 M269.48,720.84v-20.46 M336.859,720.84v-33.72 M337.819,720.84v-33.72 M300.62,650.7
	v-2.88 M304.88,647.82v2.88 M303.92,648.78h-2.34 M266.12,651.66h36.12 M266.12,650.7h34.5 M265.16,651.66h0.96 M165.68,650.22H185
	 M165.68,649.26h20.28 M232.88,717.42v-33.9 M233.84,717.42v-36.84 M233.84,666.84h34.68 M232.88,665.88h36.6 M266.12,602.52V650.7
	 M265.16,601.56v50.103 M231.26,579.9v-1.44 M165.68,580.86h20.04 M165.68,579.9h19.08 M235.28,648.78v1.92 M236.3,651.66h-5.04
	 M232.22,648.3h3.06 M232.22,648.78h3.06 M439.52,648.78v1.92 M438.56,651.66h5.04v-1.44 M442.64,648.3h-3.12 M442.64,650.7h-3.12
	 M442.64,648.78h-3.12 M235.28,650.7h-3.06 M247.1,602.52h18.06 M247.1,601.56h18.06 M302.24,717.42v-17.04 M303.2,717.42v-18
	 M442.64,566.64h-3.12 M438.56,578.46v73.2 M443.6,578.46v1.44 M443.6,567.6h-5.04 M439.52,579.42v1.92 M439.52,581.82V648.3
	 M439.52,581.82h3.12V648.3 M443.6,578.46h-5.04 M442.64,581.34h-3.12 M442.64,579.42h-3.12 M442.64,566.64v-54.18h-3.12v54.18
	 M443.6,511.5v56.1 M266.12,440.7v56.1 M409.64,439.74H265.16v57.06 M408.68,440.7h-34.92 M349.819,232.32h59.82 M349.819,233.34
	h58.86 M266.42,361.62h-1.26 M266.12,306.3h-0.96 M266.12,317.1h-0.96 M265.16,306.3v0.48h0.96 M266.12,306.3v0.48 M266.12,317.1
	v-0.48h-0.96 M265.16,316.62v0.48 M266.12,306.78h9.9 M266.12,306.78v0.479h9.9 M266.12,316.62c5.437,0.006,9.92-4.378,9.9-9.84
	 M408.68,306.3h0.96 M408.68,320.64h0.96 M408.68,317.1h0.96 M409.64,306.3v0.48h-0.96 M408.68,306.3v0.48 M408.68,317.1v-0.48h0.96
	 M409.64,316.62v0.48 M408.68,306.78h-9.9 M408.68,306.78v0.479h-9.9 M398.779,306.78c-0.042,5.418,4.508,9.868,9.9,9.84
	 M409.64,331.44v31.2 M409.64,317.1v3.54 M374.96,303.42v13.68 M374,303.42v14.64 M408.68,318.06v2.58 M265.16,317.1v28.2
	 M266.42,317.1v19.92 M266.42,303.42v2.88 M408.68,303.42v2.88 M408.68,302.46h-34.92 M408.68,303.42h-34.92 M489.859,236.94h-0.96
	 M489.859,247.74h-0.96 M488.899,236.94v0.48h0.96 M489.859,236.94v0.48 M489.859,247.74v-0.48h-0.96 M488.899,247.26v0.48
	 M489.859,237.42h9.9 M489.859,237.42v0.48h9.9 M489.859,247.26c5.479-0.006,9.882-4.374,9.9-9.84 M488.899,247.74v20.04
	 M489.859,247.74v20.04 M489.859,234.06v2.88 M488.899,234.06v2.88 M185,236.94h0.96 M185,247.74h0.96 M185.96,236.94v0.48H185
	 M185,236.94v0.48 M185,247.74v-0.48h0.96 M185.96,247.26v0.48 M185,237.42h-9.9 M185,237.42v0.48h-9.9 M175.1,237.42
	c0.03,5.54,4.392,9.796,9.9,9.84 M185.96,247.74v20.04 M185,247.74v20.04 M185,234.06v2.88 M185.96,234.06v2.88 M405.8,212.1v0.96
	 M395,212.1v0.96 M405.8,213.06h-0.48v-0.96 M405.8,212.1h-0.48 M395,212.1h0.479v0.96 M395.479,213.06H395 M405.319,212.1v-9.84
	 M405.319,212.1h-0.479v-9.84 M405.319,202.26c-5.454,0.025-9.812,4.386-9.84,9.84 M405.8,213.06h3.897 M405.8,212.1h2.938
	 M269,212.1v0.96 M279.86,212.1v0.96 M269,213.06h0.48v-0.96 M269,212.1h0.48 M279.86,212.1h-0.48v0.96 M279.38,213.06h0.48
	 M269.48,212.1v-9.84 M269.48,212.1h0.48v-9.84 M279.38,212.1c-0.038-5.505-4.402-9.814-9.9-9.84 M279.86,213.06h25.32
	 M279.86,212.1h24.3 M231.26,267.78V246.3 M478.1,163.68h-2.46 M337.399,134.1v25.98 M336.439,134.1v25.98 M337.399,134.1v25.98
	 M371.6,136.98h0.96 M371.6,147.84h0.96 M372.56,136.98v0.48h-0.96 M371.6,136.98v0.48 M371.6,147.84v-0.48h0.96 M372.56,147.36
	v0.48 M371.6,137.46h-9.84 M371.6,137.46v0.48h-9.84 M361.76,137.46c0.005,5.523,4.389,9.772,9.84,9.9 M372.56,147.84v14.4
	 M371.6,147.84v12.24 M371.6,134.1v2.88 M371.6,131.7h0.96 M371.6,120.84h0.96 M372.56,131.7v-0.48h-0.96 M371.6,131.7v-0.48
	 M371.6,120.84v0.48h0.96 M372.56,121.32v-0.48 M371.6,131.22h-9.84 M371.6,131.22v-0.479h-9.84 M371.6,121.32
	c-5.526,0.072-9.801,4.374-9.84,9.9 M372.56,131.7v5.28 M371.6,131.7v1.44 M406.279,120.84v28.2 M375.5,119.88v0.96 M386.3,119.88
	v0.96 M375.5,120.84h0.479v-0.96 M375.5,119.88h0.479 M386.3,119.88h-0.48v0.96 M385.819,120.84h0.48 M375.979,119.88v-9.9
	 M375.979,119.88h0.48v-9.9 M385.819,119.88c0.036-5.437-4.454-9.876-9.84-9.9 M375.5,120.84h-3.9 M406.279,120.84H386.3
	 M375.5,119.88h-2.94 M406.279,119.88H386.3 M371.6,134.1h-34.2 M337.399,93.06v40.08h34.2 M439.52,509.1h-0.96 M439.52,498.24
	h-0.96 M438.56,509.1v-0.479h0.96 M439.52,509.1v-0.479 M439.52,498.24v0.479h-0.96 M438.56,498.72v-0.479 M439.52,508.62h9.9
	 M439.52,508.62v-0.48h9.9 M449.42,508.62c0.007-5.442-4.437-9.938-9.9-9.9 M443.6,441.18v-56.16 M439.52,497.28h3.12 M443.6,498.24
	V442.14 M438.56,509.1v58.5 M438.56,498.24h5.04 M439.52,374.22h-0.96 M439.52,385.02h-0.96 M438.56,374.22v0.48h0.96
	 M439.52,374.22v0.48 M439.52,385.02v-0.48h-0.96 M438.56,384.54v0.48 M439.52,374.7h9.9 M439.52,374.7v0.48h9.9 M439.52,384.54
	c5.479-0.006,9.882-4.374,9.9-9.84 M439.52,315.66h-0.96 M438.56,304.86v0.48h0.96 M439.52,304.86v0.48 M439.52,315.66v-0.48h-0.96
	 M438.56,315.18v0.48 M439.52,305.34h9.9 M439.52,305.34v0.48h9.9 M439.52,315.18c5.403,0.056,9.915-4.45,9.9-9.84 M443.6,510.54
	v-1.44 M439.52,510.06v1.923 M438.56,509.1h5.04 M439.52,511.98h3.12 M439.52,510.06h3.12 M509.119,511.5H476.84 M509.119,510.54
	H443.6 M443.6,371.82v-56.16 M442.64,385.98h-3.12 M443.6,374.22v-1.44 M443.6,385.02h-5.04v76.38 M509.119,442.14H443.6
	 M509.119,441.18H443.6 M439.52,316.62h3.12 M443.6,304.86v-1.44 M443.6,315.66h-5.04v58.56 M442.64,370.86v-54.24 M439.52,385.98
	v54.24 M439.52,371.34v1.92 M442.64,370.86h-3.12 M443.6,374.22h-5.04 M442.64,373.26h-3.12 M442.64,371.34h-3.12 M442.64,301.5
	v-38.58 M439.52,316.62v54.24 M439.52,301.98v1.92 M439.52,301.5h3.12 M438.56,304.86h5.04 M439.52,303.9h3.12 M439.52,301.98h3.12
	 M442.64,165.66h-3.12v66.42 M439.52,165.18h3.12 M439.52,232.56v1.98 M439.52,232.08h3.12 M439.52,232.56h3.12 M439.52,235.5h-0.96
	 M439.52,246.3h-0.96 M438.56,235.5v0.48h0.96 M439.52,235.5v0.48 M439.52,246.3v-0.48h-0.96 M438.56,245.82v0.48 M439.52,235.98
	h9.9 M439.52,235.98v0.48h9.9 M439.52,245.82c5.403,0.056,9.915-4.45,9.9-9.84"/>
<path fill="none" stroke="#000000" stroke-width="0.72" stroke-linecap="round" stroke-linejoin="round" stroke-miterlimit="10" d="
	M325.279,580.86v-0.48h-0.96 M324.319,580.86v-0.48 M324.319,570v0.48h0.96 M325.279,570.48V570 M324.319,580.38h-9.897
	 M324.319,580.38V579.9h-9.897 M324.319,570.48c-5.358-0.066-9.966,4.536-9.897,9.897 M350.779,580.86h-0.96 M350.779,570h-0.96
	 M349.819,580.86v-0.48h0.96 M350.779,580.86v-0.48 M350.779,570v0.48h-0.96 M349.819,570.48V570 M350.779,580.38h9.9
	 M350.779,580.38V579.9h9.9 M360.68,580.38c0.035-5.466-4.458-9.907-9.9-9.897 M349.819,562.32H337.58 M349.819,563.28H337.58
	 M325.279,580.86h3.603 M349.819,580.86h-3.6 M325.279,581.82h3.603 M349.819,581.82h-3.6 M324.319,511.5V570 M350.779,511.5V570
	 M325.279,511.5v50.82 M349.819,511.5v50.82 M349.819,581.82h59.82 M349.819,580.86h20.643 M408.68,510.54v-2.88 M408.68,511.5
	h-34.92 M408.68,510.54h-34.92 M266.12,580.86h34.98 M265.16,581.82h60.119 M408.68,580.86V511.5 M409.64,581.82v-74.16
	 M337.88,510.54v-39.9 M336.92,510.54V440.7 M265.16,581.82v-74.16 M373.279,511.02h-2.34 M373.279,511.98v-1.923 M370.939,510.06
	v1.923 M303.92,510.06v1.923 M301.581,511.98v-1.923 M301.581,511.02h2.34 M301.1,303.42h-34.68 M301.1,302.46h-34.68 M304.4,301.5
	h-3.3v2.88h3.3V301.5z M301.581,303.9h2.34 M303.92,301.98h-2.34 M349.819,302.46h-24.54 M336.92,303.42H304.4 M324.319,302.46
	H304.4 M370.46,301.5h3.3v2.88h-3.3V301.5z M370.46,303.42h-32.58 M370.46,302.46h-19.681 M373.279,303.9h-2.34 M373.279,301.98
	h-2.34 M345.739,232.02h8.7c-1.056-10.62-15.854-10.653-16.857,0 M345.739,231.6h8.7 M345.739,232.32v1.02 M346.22,232.32h-0.48
	v-0.72 M346.22,233.34v-1.02V233.34h-0.48 M349.819,250.68v-6.54 M337.58,232.02c-1.059-10.62-15.854-10.653-16.86,0
	 M329.359,232.02h-8.64 M329.359,231.6h-8.64 M329.359,232.32v1.02 M328.88,232.32h0.479v-0.72 M328.88,232.32v1.02h0.479
	 M337.58,250.68v0.96 M326.72,250.68v0.96 M337.58,251.64h-0.48v-0.96 M337.58,250.68h-0.48 M326.72,250.68h0.479v0.96
	 M327.199,251.64h-0.479 M337.1,250.68v-9.9 M337.1,250.68h-0.48v-9.9 M337.1,240.78c-5.549,0.039-9.861,4.351-9.9,9.9
	 M325.279,250.68v-6.54 M326.72,251.64h-1.44 M326.72,250.68h-1.44 M328.88,233.34v-1.02 M324.319,233.34h0.96 M324.319,244.14h0.96
	 M325.279,233.34v0.48h-0.96 M324.319,233.34v0.48 M324.319,244.14v-0.48h0.96 M325.279,243.66v0.48 M324.319,233.82h-9.897
	 M324.319,233.82v0.48h-9.897 M314.42,233.82c0.021,5.386,4.463,9.876,9.897,9.84 M350.779,233.34h-0.96 M350.779,244.14h-0.96
	 M349.819,233.34v0.48h0.96 M350.779,233.34v0.48 M350.779,244.14v-0.48h-0.96 M349.819,243.66v0.48 M350.779,233.82h9.9
	 M350.779,233.82v0.48h9.9 M350.779,243.66c5.526-0.039,9.828-4.314,9.9-9.84 M349.819,251.64H337.58 M349.819,250.68H337.58
	 M325.279,233.34h3.603 M349.819,233.34h-3.6 M325.279,232.32h3.603 M349.819,232.32h-3.6 M324.319,302.46v-58.32 M350.779,302.46
	v-58.32 M325.279,302.46v-50.82 M349.819,302.46v-50.82 M369.979,213.06H395 M371.6,162.24h-0.66 M370.939,163.2v1.98 M371.6,161.04
	v1.2 M373.279,162.24h-0.72 M370.939,161.04h0.66 M304.16,161.04v1.2h-0.96v-1.2 M301.581,162.24h0.657 M303.2,161.04h0.96
	 M301.581,163.2h2.577 M304.16,166.14v45.96 M370.939,166.14v45.96 M373.279,163.2h-2.34 M370.939,166.14h3.3v-2.94 M373.279,165.18
	h-2.34 M316.699,213.06h41.7 M317.659,212.1h39.78 M370.939,212.1H395 M357.439,203.7h0.96 M317.659,212.1v-8.4h-0.96
	 M357.439,203.7v8.4 M316.699,203.7v9.36 M358.399,203.7v9.36 M369.979,185.16v27.9 M305.18,185.16v27.9 M306.38,183h62.397
	 M305.18,185.16h64.799 M438.56,665.88h-33.24 M439.52,662.52v3.36 M439.52,651.66h-0.96 M439.52,662.52h-0.96 M438.56,651.66v0.479
	h0.96 M439.52,651.66v0.479 M439.52,662.52v-0.479h-0.96 M438.56,662.04v0.479 M439.52,652.14h9.9 M439.52,652.14v0.48h9.9
	 M439.52,662.04c5.444-0.054,9.908-4.43,9.9-9.9 M438.56,665.88v-3.36 M474.199,649.26v0.96 M463.399,649.26v0.96 M474.199,650.22
	h-0.479v-0.96 M474.199,649.26h-0.479 M463.399,649.26h0.48v0.96 M463.88,650.22h-0.48 M473.72,649.26v-9.897 M473.72,649.26h-0.48
	v-9.897 M473.72,639.36c-5.39-0.018-9.896,4.497-9.84,9.897 M463.399,650.22h-19.8 M463.399,649.26h-19.8 M475.64,649.26h-1.44
	 M475.88,511.5H443.6 M490.1,578.46h-0.96 M490.1,567.6h-0.96 M489.14,578.46v-0.479h0.96 M490.1,578.46v-0.479 M490.1,567.6v0.48
	h-0.96 M489.14,568.08v-0.48 M490.1,577.98h9.84 M490.1,577.98v-0.48h9.84 M499.939,577.98c-0.047-5.486-4.286-9.896-9.84-9.9
	 M489.14,578.46v2.4 M490.1,578.46v1.44 M478.279,580.86v-0.96 M489.14,580.86v-0.96 M478.279,579.9h0.48v0.96 M478.279,580.86h0.48
	 M489.14,580.86h-0.48v-0.96 M488.659,579.9h0.48 M478.76,580.86v9.84 M478.76,580.86h0.479v9.84 M478.76,590.7
	c5.437,0.006,9.92-4.378,9.897-9.84 M474.439,580.86v-0.96 M463.58,580.86v-0.96 M474.439,579.9h-0.479v0.96 M474.439,580.86h-0.479
	 M463.58,580.86h0.479v-0.96 M464.06,579.9h-0.479 M473.96,580.86v9.84 M473.96,580.86h-0.48v9.84 M464.06,580.86
	c-0.042,5.418,4.506,9.865,9.9,9.84 M478.279,545.22v0.96 M489.14,545.22v0.96 M478.279,546.18h0.48v-0.96 M478.279,545.22h0.48
	 M489.14,545.22h-0.48v0.96 M488.659,546.18h0.48 M478.76,545.22v-9.897 M478.76,545.22h0.479v-9.897 M488.659,545.22
	c0.014-5.444-4.45-9.911-9.897-9.897 M490.1,546.18v21.42 M475.88,580.86h-1.44 M478.279,579.9h-3.84 M478.279,580.86h-1.438
	 M478.279,545.22h-1.438 M478.279,546.18h-2.397 M463.58,580.86H443.6 M463.58,579.9H443.6 M489.14,545.22v22.38 M439.52,578.46
	h-0.96 M439.52,567.6h-0.96 M438.56,578.46v-0.479h0.96 M439.52,578.46v-0.479 M439.52,567.6v0.48h-0.96 M438.56,568.08v-0.48
	 M439.52,577.98h9.9 M439.52,577.98v-0.48h9.9 M449.42,577.98c0.007-5.442-4.437-9.938-9.9-9.9 M475.88,580.86v32.52 M476.84,580.86
	v32.52 M476.84,511.5v33.72 M475.88,511.5v34.68 M512.6,546.18h-22.5 M512.6,545.22h-23.46 M509.119,580.86H489.14 M509.119,579.9
	H490.1 M184.76,578.46h0.96 M184.76,567.6h0.96 M185.72,578.46v-0.479h-0.96 M184.76,578.46v-0.479 M184.76,567.6v0.48h0.96
	 M185.72,568.08v-0.48 M184.76,577.98h-9.9 M184.76,577.98v-0.48h-9.9 M184.76,568.08c-5.459-0.036-9.91,4.49-9.9,9.9
	 M185.72,578.46v2.4 M184.76,578.46v1.44 M196.58,580.86v-0.96 M185.72,580.86v-0.96 M196.58,579.9h-0.48v0.96 M196.58,580.86h-0.48
	 M185.72,580.86h0.48v-0.96 M186.2,579.9h-0.48 M196.1,580.86v9.84 M196.1,580.86h-0.48v9.84 M186.2,580.86
	c0.006,5.554,4.414,9.793,9.9,9.84 M200.42,580.86v-0.96 M211.22,580.86v-0.96 M200.42,579.9h0.48v0.96 M200.42,580.86h0.48
	 M211.22,580.86h-0.48v-0.96 M210.74,579.9h0.48 M200.9,580.86v9.84 M200.9,580.86h0.48v9.84 M200.9,590.7
	c5.372,0.053,9.947-4.436,9.84-9.84 M196.58,545.22v0.96 M185.72,545.22v0.96 M196.58,546.18h-0.48v-0.96 M196.58,545.22h-0.48
	 M185.72,545.22h0.48v0.96 M186.2,546.18h-0.48 M196.1,545.22v-9.897 M196.1,545.22h-0.48v-9.897 M196.1,535.32
	c-5.442-0.008-9.935,4.434-9.9,9.897 M200.42,545.22v0.96 M211.22,545.22v0.96 M200.42,546.18h0.48v-0.96 M200.42,545.22h0.48
	 M211.22,545.22h-0.48v0.96 M210.74,546.18h0.48 M200.9,545.22v-9.897 M200.9,545.22h0.48v-9.897 M210.74,545.22
	c0.111-5.375-4.474-9.972-9.84-9.897 M184.76,546.18v21.42 M198.98,580.86h1.44 M198.98,545.22h1.44 M196.58,579.9h3.84
	 M196.58,580.86h1.44 M196.58,545.22h1.44 M196.58,546.18h3.84 M211.22,580.86h20.04 M211.22,579.9h20.04 M211.22,546.18h20.04
	 M211.22,545.22h20.04 M185.72,545.22v22.38 M235.28,578.46h1.02 M235.28,567.6h1.02 M236.3,578.46v-0.479h-1.02 M235.28,578.46
	v-0.479 M235.28,567.6v0.48h1.02 M236.3,568.08v-0.48 M235.28,577.98h-9.84 M235.28,577.98v-0.48h-9.84 M235.28,568.08
	c-5.526,0.072-9.801,4.374-9.84,9.9 M232.22,566.64h3.06 M236.3,578.46v73.2 M231.26,567.6v-21.42 M232.22,566.64V512.94
	 M235.28,581.82V648.3 M235.28,579.42v1.92 M231.26,567.6h5.04 M231.26,578.46h5.04 M232.22,581.82h3.06 M232.22,579.42h3.06
	 M232.22,581.34h3.06 M198.98,580.86v32.52 M198.02,580.86v32.52 M198.02,511.5v33.72 M198.98,511.5v33.72 M162.26,546.18h22.5
	 M162.26,545.22h23.46 M303.2,656.28v-4.62 M337.819,657.24h33.78 M303.2,656.28h68.4v-4.62 M303.2,657.24h33.66 M405.8,602.52
	v-0.96 M395,602.52v-0.96 M405.8,601.56h-0.48v0.96 M405.8,602.52h-0.48 M395,602.52h0.479v-0.96 M395.479,601.56H395
	 M405.319,602.52v9.9 M405.319,602.52h-0.479v9.9 M395.479,602.52c-0.048,5.41,4.478,9.91,9.84,9.9 M405.8,602.52h2.938
	 M405.8,601.56h3.897 M438.56,602.52v-0.96 M427.76,602.52v-0.96 M438.56,601.56h-0.479v0.96 M438.56,602.52h-0.479 M427.76,602.52
	h0.479v-0.96 M428.239,601.56h-0.479 M438.08,602.52v9.9 M438.08,602.52h-0.48v9.9 M428.239,602.52
	c-0.025,5.396,4.425,9.942,9.843,9.9 M409.699,602.04h18.062 M409.699,601.56h18.062 M409.699,602.52h18.062 M269,602.52v-0.96
	 M279.86,602.52v-0.96 M269,601.56h0.48v0.96 M269,602.52h0.48 M279.86,602.52h-0.48v-0.96 M279.38,601.56h0.48 M269.48,602.52v9.9
	 M269.48,602.52h0.48v9.9 M269.48,612.42c5.41,0.01,9.936-4.441,9.9-9.9 M279.86,601.56H395 M279.86,602.52h57 M337.819,602.52H395
	 M336.859,650.7V602.52 M337.819,650.7V602.52 M236.3,602.52v-0.96 M247.1,602.52v-0.96 M236.3,601.56h0.48v0.96 M236.3,602.52h0.48
	 M247.1,602.52h-0.48v-0.96 M246.62,601.56h0.48 M236.78,602.52v9.9 M236.78,602.52h0.48v9.9 M236.78,612.42
	c5.386-0.023,9.876-4.463,9.84-9.9 M247.1,602.04h18.06 M266.12,602.52H269 M265.16,601.56H269 M489.859,651.66h-0.96
	 M489.859,662.52h-0.96 M488.899,651.66v0.479h0.96 M489.859,651.66v0.479 M489.859,662.52v-0.479h-0.96 M488.899,662.04v0.479
	 M489.859,652.14h9.9 M489.859,652.14v0.48h9.9 M489.859,662.04c5.444-0.054,9.908-4.43,9.9-9.9 M478.1,649.26v0.96 M488.899,649.26
	v0.96 M478.1,650.22h0.48v-0.96 M478.1,649.26h0.48 M488.899,649.26h-0.479v0.96 M488.42,650.22h0.479 M478.58,649.26v-9.897
	 M478.58,649.26h0.479v-9.897 M488.42,649.26c0.035-5.44-4.421-9.873-9.84-9.897 M478.1,683.52v-0.96 M488.899,683.52v-0.96
	 M478.1,682.56h0.48v0.96 M478.1,683.52h0.48 M488.899,683.52h-0.479v-0.96 M488.42,682.56h0.479 M478.58,683.52v9.843
	 M478.58,683.52h0.479v9.843 M478.58,693.36c5.463-0.08,9.832-4.312,9.84-9.843 M444.859,683.52v-0.96 M455.659,683.52v-0.96
	 M444.859,682.56h0.48v0.96 M444.859,683.52h0.48 M455.659,683.52h-0.479v-0.96"/>
<path fill="none" stroke="#000000" stroke-width="0.72" stroke-linecap="round" stroke-linejoin="round" stroke-miterlimit="10" d="
	M301.76,119.88h0.479 M291.44,120.84v-0.96 M302.24,119.88v0.96 M291.44,119.88v0.96 M302.24,120.84h-0.479v-0.96 M302.24,119.88
	h-0.479 M291.44,119.88h0.48v0.96 M291.92,120.84h-0.48 M301.76,119.88v-9.9 M301.76,119.88h-0.48v-9.9 M301.76,109.98
	c-5.365-0.01-9.889,4.49-9.84,9.9 M372.92,469.68h-0.48 M372.439,470.64h-0.96 M383.3,470.64v-0.96 M372.439,469.68v0.96
	 M383.3,469.68v0.96 M372.439,470.64h0.48v-0.96 M372.439,469.68h0.48 M383.3,469.68h-0.48v0.96 M382.819,470.64h0.48
	 M372.92,469.68v-9.84 M372.92,469.68h0.479v-9.84 M382.819,469.68c-0.038-5.505-4.399-9.812-9.897-9.84 M360.68,469.68v0.96h-22.8
	 M371.479,469.68v0.96 M360.68,469.68v0.96 M371.479,470.64H371v-0.96 M371.479,469.68H371 M360.68,469.68h0.479v0.96
	 M361.159,470.64h-0.479 M371,469.68v-9.84 M371,469.68h-0.48v-9.84 M371,459.84c-5.454,0.025-9.815,4.386-9.843,9.84
	 M361.159,469.68H337.88 M371.479,443.1h-1.02 M372.439,470.64V443.1 M371.479,470.64V443.1 M337.88,469.68V440.7 M382.819,469.68
	h25.86V440.7 M408.68,470.64h-25.92 M324.739,233.34H350.3v17.76h-25.561V233.34z M476.119,131.1h13.263v33.12h-13.263V131.1z
	 M266.12,163.2h-0.48 M300.62,163.2h3.54 M337.88,337.02h70.8 M408.68,339.18v23.46 M370.88,427.2v0.96 M360.02,427.2v0.96
	 M370.88,428.16h-0.48v-0.96 M370.88,427.2h-0.48 M360.02,427.2h0.48v0.96 M360.5,428.16h-0.48 M370.399,427.2v-9.9 M370.399,427.2
	h-0.479v-9.9 M370.399,417.3c-5.447-0.011-9.911,4.453-9.897,9.9 M303.98,427.2v0.96 M314.84,427.2v0.96 M303.98,428.16h0.48v-0.96
	 M303.98,427.2h0.48 M314.84,427.2h-0.48v0.96 M314.359,428.16h0.48 M304.46,427.2v-9.9 M304.46,427.2h0.479v-9.9 M314.359,427.2
	c-0.055-5.444-4.429-9.908-9.897-9.9 M303.98,428.16h-2.88 M303.98,427.2h-2.88 M360.02,428.16h-45.18 M360.02,427.2h-45.18
	 M266.12,580.86V511.5 M442.64,440.22v-54.24 M439.52,443.1V461.4 M439.52,440.7v1.92 M442.64,443.1h-3.12 M442.64,440.22h-3.12
	 M442.64,440.7h-3.12 M442.64,442.62h-3.12 M443.6,580.86v32.52 M443.6,614.34v34.92 M336.859,686.16v-28.92 M337.819,686.16v-28.92
	 M232.88,682.56v-1.979 M198.98,613.38h32.28 M199.16,614.34h32.1 M231.26,545.22V511.5h-32.28 M232.22,440.22v-54.24 M235.28,443.1
	V461.4 M235.28,440.7v1.92 M235.28,443.1h-3.06 M235.28,440.22h-3.06 M235.28,442.62h-3.06 M235.28,440.7h-3.06 M337.399,160.08
	h34.2 M441.92,682.56v-1.979 M475.64,614.34H443.6 M475.88,613.38H443.6 M442.64,481.62V443.1 M232.22,261.96v-14.7V261.96z
	 M232.22,481.62V443.1 M236.3,489.3v8.94 M235.28,489.3v7.98 M235.28,482.58v1.92 M236.3,481.62v2.88 M235.28,260.04v1.92
	 M236.3,260.04v2.88 M236.3,283.14v21.72 M235.28,283.14v18.36 M235.28,482.58h-3.06 M235.28,471.72h-3.06 M235.28,471.24h-3.06
	 M235.28,481.62h-3.06 M236.3,471.72v-0.479 M235.28,471.72v-0.479 M236.3,481.62h-1.02 M240.92,472.98l-1.5-0.66l-1.56-0.42
	l-1.56-0.183 M235.28,471.72h1.02v-0.479l1.56-0.12l1.62-0.42l1.44-0.66 M236.3,471.24h-1.02 M240.56,470.22l-4.68-8.16l0.42-0.18
	 M236.3,461.88l4.62,8.16 M235.28,461.4v0.479 M240.56,472.74l-4.68,8.22l0.42,0.18 M240.92,472.98l-4.62,8.157v0.48 M235.28,481.14
	v0.48 M235.28,471.24v0.479 M238.22,485.52l-0.96-0.42l-0.96-0.117 M236.3,488.82h0.06 M235.28,488.82v0.479 M235.28,484.5v0.48
	 M237.98,485.4l-1.92,3.3l0.24,0.12 M236.3,489.3v-0.479l1.92-3.303 M236.3,461.88h-1.02 M236.3,481.14h-1.02 M236.3,484.98h-1.02
	 M236.3,488.82h-1.02 M236.3,484.5v0.48 M235.28,484.5h-1.68v4.8h1.68 M236.3,489.3h-1.02 M236.3,484.5h-1.02 M235.28,461.4h1.02
	v0.479 M235.28,261.96h-3.06 M235.28,272.82h-3.06 M235.28,273.3h-3.06 M235.28,262.92h-3.06 M236.3,272.82v0.48 M235.28,272.82
	v0.48 M236.3,262.92h-1.02 M236.3,272.82l1.56-0.12l1.56-0.42l1.5-0.72 M240.92,274.5l-1.44-0.66l-1.62-0.42l-1.56-0.12
	 M235.28,272.82h1.02v0.48 M236.3,273.3h-1.02 M240.56,274.32l-4.68,8.16l0.42,0.18 M236.3,282.66l4.62-8.16 M235.28,283.14v-0.48
	 M240.56,271.8l-4.68-8.16l0.42-0.24 M240.92,271.56l-4.62-8.16v-0.48 M235.28,263.4v-0.48 M235.28,273.3v-0.48 M236.3,259.56
	l0.96-0.12l0.96-0.42 M236.3,255.72h0.06 M235.28,255.72v-0.479 M235.28,260.04v-0.48 M237.98,259.14l-1.92-3.3l0.24-0.12
	 M236.3,255.24v0.479l1.92,3.3 M236.3,282.66h-1.02 M236.3,263.4h-1.02 M236.3,259.56h-1.02 M236.3,255.72h-1.02 M236.3,260.04
	v-0.48 M235.28,260.04h-1.68v-4.8h1.68 M236.3,255.24h-1.02 M236.3,260.04h-1.02 M235.28,283.14h1.02v-0.48 M438.56,489.3v8.94
	 M439.52,489.3v7.98 M438.56,481.62v2.88 M442.64,482.58h-3.12v1.92 M439.52,471.72h3.12 M439.52,471.24h3.12 M439.52,481.62h3.12
	 M438.56,471.72v-0.479 M439.52,471.72v-0.479 M438.56,481.62h0.96 M438.56,471.72l-1.62,0.183l-1.56,0.42l-1.44,0.66
	 M433.939,470.04l1.44,0.66l1.56,0.42l1.62,0.12 M439.52,471.72h-0.96v-0.479 M438.56,471.24h0.96 M434.3,470.22l4.62-8.16
	l-0.36-0.18 M438.56,461.88l-4.62,8.16 M439.52,461.4v0.479 M434.3,472.74l4.62,8.22l-0.36,0.18 M433.939,472.98l4.62,8.157v0.48
	 M439.52,481.14v0.48 M439.52,471.24v0.479 M438.56,484.98l-0.96,0.119l-0.96,0.42 M438.56,488.82h0.06 M439.52,488.82v0.479
	 M439.52,484.5v0.48 M436.88,485.4l1.92,3.3l-0.24,0.12 M438.56,489.3v-0.479l-1.92-3.303 M438.56,461.88h0.96 M438.56,481.14h0.96
	 M438.56,484.98h0.96 M438.56,488.82h0.96 M438.56,484.5v0.48 M439.52,484.5h1.74v4.8h-1.74 M438.56,489.3h0.96 M438.56,484.5h0.96
	 M439.52,461.4h-0.96v0.479 M439.52,261.96h3.12v-14.7v14.7 M439.52,272.82h3.12 M439.52,273.3h3.12 M439.52,262.92h3.12
	 M438.56,283.14v21.72 M439.52,283.14v18.36 M438.56,272.82v0.48 M439.52,272.82v0.48 M438.56,260.04v2.88h0.96 M439.52,260.04v1.92
	 M433.939,271.56l1.44,0.72l1.56,0.42l1.62,0.12 M439.52,272.82h-0.96v0.48l-1.62,0.12l-1.56,0.42l-1.44,0.66 M438.56,273.3h0.96
	 M434.3,274.32l4.62,8.16l-0.36,0.18 M438.56,282.66l-4.62-8.16 M439.52,283.14v-0.48 M434.3,271.8l4.62-8.16l-0.36-0.24
	 M433.939,271.56l4.62-8.16v-0.48 M439.52,263.4v-0.48 M439.52,273.3v-0.48 M436.64,259.02l0.96,0.42l0.96,0.12 M438.56,255.72h0.06
	 M439.52,255.72v-0.479 M439.52,260.04v-0.48 M436.88,259.14l1.92-3.3l-0.24-0.12 M438.56,255.24v0.479l-1.92,3.3 M438.56,282.66
	h0.96 M438.56,263.4h0.96 M438.56,259.56h0.96 M438.56,255.72h0.96 M438.56,260.04v-0.48 M439.52,260.04h1.74v-4.8h-1.74
	 M438.56,255.24h0.96 M438.56,260.04h0.96 M439.52,283.14h-0.96v-0.48 M371.6,656.28l-68.4-4.62 M371.6,651.66l-68.4,4.62
	 M368.779,183l-62.397-20.76 M368.779,162.24L306.38,183 M408.68,507.66h0.96 M408.68,496.8h0.96 M409.64,507.66v-0.48h-0.96
	 M408.68,507.66v-0.48 M408.68,496.8v0.48h0.96 M409.64,497.28v-0.48 M408.68,507.18h-9.9 M408.68,507.18V506.7h-9.9 M408.68,497.28
	c-5.459-0.036-9.91,4.487-9.9,9.897 M408.68,496.8v-26.16 M409.64,496.8v-57.06 M266.12,507.66h-0.96 M266.12,496.8h-0.96
	 M265.16,507.66v-0.48h0.96 M266.12,507.66v-0.48 M266.12,496.8v0.48h-0.96 M265.16,497.28v-0.48 M266.12,507.18h9.9 M266.12,507.18
	V506.7h9.9 M276.02,507.18c0.007-5.439-4.434-9.935-9.9-9.897 M266.12,507.66v2.88 M370.46,440.7h-32.58 M373.279,440.7h-2.34
	 M301.1,440.7h-34.98 M303.92,440.7h-2.34 M304.4,443.1h-3.3 M303.92,442.62h-2.34 M304.4,440.7v2.397 M301.1,443.1V440.7
	 M370.46,440.7v2.397 M373.76,440.7v2.397h-1.32 M373.279,442.62h-2.34 M336.92,440.7H304.4 M304.4,580.86h20.879 M301.1,581.82
	v-2.88 M301.1,578.94h3.3v2.88 M303.92,581.34h-2.34 M303.92,579.42h-2.34 M373.76,580.86h34.92 M373.76,578.94h-3.3
	 M373.279,581.34h-2.34 M373.279,579.42h-2.34 M370.46,578.94v2.88 M373.76,581.82v-2.88 M301.1,510.54h-34.98 M301.1,511.5h-34.98
	 M304.4,512.46h-3.3v-2.88h3.3V512.46z M301.581,510.06h2.34 M303.92,511.98h-2.34 M349.819,511.5h-24.54 M336.92,510.54H304.4
	 M324.319,511.5H304.4 M370.46,512.46h3.3v-2.88h-3.3V512.46z M370.46,510.54h-32.58 M370.46,511.5h-19.681 M373.279,510.06h-2.34
	 M373.279,511.98h-2.34 M337.58,582.12c0.977,10.678,15.834,10.644,16.857,0 M345.739,582.12h8.7 M345.739,582.54h8.7
	 M345.739,581.82v-0.96 M346.22,581.82h-0.48v0.72 M346.22,580.86v0.96V580.86h-0.48 M349.819,563.28V570 M329.359,582.12h-8.64
	c0.977,10.678,15.834,10.644,16.86,0 M329.359,582.54h-8.64 M329.359,581.82v-0.96 M328.88,581.82h0.479v0.72 M328.88,581.82v-0.96
	h0.479 M337.1,563.28v-0.96 M326.239,563.28v-0.96 M337.1,562.32h-0.48v0.96 M337.1,563.28h-0.48 M326.239,563.28h0.48v-0.96
	 M326.72,562.32h-0.48 M336.619,563.28v9.84 M336.14,563.28v9.84 M326.72,563.28c0.03,5.54,4.392,9.796,9.897,9.84 M325.279,563.28
	V570 M326.72,562.32h-1.44 M326.72,563.28h-1.44 M328.88,580.86v0.96 M324.319,580.86h0.96 M324.319,570h0.96"/>
<path fill="none" stroke="#000000" stroke-width="0.72" stroke-linecap="round" stroke-linejoin="round" stroke-miterlimit="10" d="
	M474.439,544.5v0.96 M463.58,544.5v0.96 M474.439,545.46h-0.479v-0.96 M474.439,544.5h-0.479 M463.58,544.5h0.479v0.96
	 M464.06,545.46h-0.479 M473.96,544.5v-9.9 M473.96,544.5h-0.48v-9.9 M473.96,534.6c-5.361-0.063-9.969,4.539-9.9,9.9
	 M474.439,545.46h1.44 M443.6,545.46h19.98 M474.439,544.5h1.44 M443.6,544.5h19.98"/>
<path fill="none" stroke="#000000" stroke-width="0.72" stroke-linecap="round" stroke-linejoin="round" stroke-miterlimit="10" d="
	M374,318.06h34.68 M374.96,317.1h33.72 M337.1,562.32h-10.38 M409.64,331.44h-0.96v5.58 M409.64,320.64v0.48h-0.96 M408.68,320.64
	v0.48 M408.68,331.44v-0.48h0.96 M409.64,330.96v0.48 M408.68,321.12h-9.9 M408.68,321.12v0.48h-9.9 M398.779,321.12
	c-0.01,5.365,4.49,9.888,9.9,9.84 M300.62,163.2v-0.96 M289.76,163.2v-0.96 M300.62,162.24h-0.479v0.96 M300.62,163.2h-0.479
	 M289.76,163.2h0.48v-0.96 M290.24,162.24h-0.48 M300.14,163.2v9.9 M300.14,163.2h-0.48v9.9 M290.24,163.2
	c-0.01,5.41,4.441,9.936,9.9,9.9 M402.92,163.2v-0.96 M392.119,163.2v-0.96 M402.92,162.24h-0.48v0.96 M402.92,163.2h-0.48
	 M392.119,163.2h0.48v-0.96 M392.6,162.24h-0.48 M402.439,163.2v9.9 M402.439,163.2h-0.479v9.9 M392.6,163.2
	c0.047,5.486,4.286,9.894,9.84,9.9"/>
</svg>
