<?xml version="1.0" encoding="utf-8"?>
<!-- Generator: Adobe Illustrator 16.0.0, SVG Export Plug-In . SVG Version: 6.00 Build 0)  -->
<!DOCTYPE svg PUBLIC "-//W3C//DTD SVG 1.1//EN" "http://www.w3.org/Graphics/SVG/1.1/DTD/svg11.dtd">
<svg version="1.1" id="Layer_1" xmlns="http://www.w3.org/2000/svg" xmlns:xlink="http://www.w3.org/1999/xlink" x="0px" y="0px"
	 width="612px" height="792px" viewBox="0 0 612 792" enable-background="new 0 0 612 792" xml:space="preserve">
<path fill="none" stroke="#000000" stroke-width="0.72" stroke-linecap="round" stroke-linejoin="round" stroke-miterlimit="10" d="
	M451.168,616.137h9.363v0.504 M451.168,616.641h10.371 M460.529,606.345h1.008v0.429h-1.008V606.345z M460.529,606.776
	c-5.258,0.253-9.535,4.537-9.363,9.867 M435.33,602.456v-24.48 M460.529,602.456v-25.415 M460.529,606.345v-2.881 M461.537,606.345
	v-29.808 M435.33,603.464h25.199 M435.33,602.456h8.637 M435.33,577.041v-12.024 M435.33,627.944v-24.48 M435.33,650.479v-21.6
	 M443.969,582.297v2.877h-8.637 M449.73,577.976v-0.935 M458.369,666.537v1.008h-0.43 M458.369,666.537h0.504v1.008
	 M458.369,667.545h0.504 M457.938,676.904v-9.359 M458.369,676.904v-9.359 M438.713,667.545h-0.504 M438.209,667.545v-1.008h0.504
	 M438.713,667.545v-1.008 M438.713,676.904v-9.359h0.504 M439.217,676.904v-9.359 M438.713,676.904
	c5.328,0.175,9.611-4.104,9.863-9.359 M448.576,667.545c0.043,5.227,4.57,9.536,9.793,9.359 M458.873,667.545h51.84
	 M458.873,666.537h1.658 M458.369,563.36h0.504 M458.873,563.36v0.937h-0.504 M458.369,563.36v0.937 M458.369,553.928v9.433h-0.43
	 M457.938,553.928v9.433 M458.369,553.928c-5.219-0.081-9.779,4.217-9.793,9.433 M438.713,564.297v-0.937h0.504 M438.713,564.297
	h-0.504v-0.937 M438.713,563.36h-0.504 M448.576,563.36c-0.211-5.249-4.574-9.521-9.863-9.433 M439.217,553.928v9.433
	 M438.713,553.928v9.433 M458.873,564.297h1.658 M458.873,563.36h51.84 M435.33,627.944h25.199 M435.33,628.88h25.199
	 M449.73,650.479v0.937 M461.537,662.72v0.504h-1.008 M461.537,663.224v0.433h-1.008 M460.529,663.224v0.433 M470.896,663.224
	h-9.359 M470.896,662.72h-9.359 M461.537,653.36h-1.008v-0.504h1.008 M470.896,663.224c0.17-5.329-4.051-9.676-9.359-9.863v-0.504
	 M461.537,576.537h-1.008v-0.508h1.008V576.537z M460.529,566.241h1.008v0.429 M460.529,566.241v-0.504h1.008 M461.537,566.241
	v-0.504 M470.896,566.672h-9.359 M461.537,576.032c5.193-0.025,9.58-4.585,9.359-9.789h-9.359 M460.529,577.041v-0.504
	 M461.537,565.737v-1.44 M460.529,565.737v-1.44 M460.529,652.856V628.88 M461.537,652.856v-18.72 M435.33,577.976h3.381
	 M444.977,577.976h4.756 M443.969,650.479h5.764 M438.713,650.479h-3.381 M438.713,651.416h-3.381 M443.969,651.416h5.764
	 M435.33,563.36v-49.248 M461.537,564.297h49.176 M443.969,577.041h5.764 M435.33,564.297h2.877 M435.33,577.041h3.381
	 M435.33,666.537v-15.121 M461.537,666.537h49.176 M461.537,633.2v-16.056 M435.33,565.017v-0.72 M461.537,666.537v-2.881
	 M369.594,581.36H305.73 M369.594,582.297H305.73 M302.634,513.176v24.48 M303.569,513.176v23.544 M371.754,513.176v23.544
	 M372.689,513.176v63.865 M374.85,374.937v50.976 M375.354,425.408v-32.976h0.576 M264.401,374.937h21.312 M402.209,395.528h8.928
	 M408.041,392.864h3.096 M411.785,391.208v34.2 M411.137,391.568v33.264 M374.85,426.776h37.008 M375.354,425.408h36.432
	 M375.93,424.832h35.207 M374.85,425.912h37.008 M375.93,392.433v32.399 M390.33,411.944h6.408 M390.977,411.368h5.184
	 M396.738,411.944v-13.968 M396.16,411.368v-13.176 M396.738,411.368h14.398 M396.738,408.704h14.398 M396.738,406.112h14.398
	 M396.738,403.448h14.398 M396.738,400.784h14.398 M390.33,392.433h0.645 M396.738,398.192h14.398 M390.33,411.944v-19.512
	 M390.977,411.368v-18.936 M411.857,391.208l-19.584,8.712 M375.93,411.368h14.4 M375.93,408.704h14.4 M375.93,406.112h14.4
	 M375.93,403.448h14.4 M375.93,400.784h14.4 M375.93,398.192h14.4 M375.93,395.528h14.4 M375.93,392.864h14.4 M377.297,507.92
	h-2.447 M415.889,507.92h-37.654 M416.32,508.856h-3.527 M415.889,508.856v-0.937h0.43 M416.32,508.856v-0.937 M416.32,515.983
	v-7.125h0.363 M416.682,515.983v-7.125 M416.32,515.983c4.09-0.02,7.262-2.986,7.275-7.125 M430.865,508.856v-0.937 M430.865,507.92
	h0.432v0.937 M430.506,515.983v-7.125h0.791 M423.594,508.856c0.012,4.138,3.18,7.107,7.271,7.125v-7.125 M411.857,508.856H374.85
	 M411.857,479.12v-38.664 M412.793,480.057v-39.601 M285.569,508.856v-0.937 M285.569,507.92h-0.429v0.937 M285.569,508.856h-0.429
	 M300.474,508.856h-0.789 M300.474,508.856v-0.937h-0.43 M300.042,508.856v-0.937 M299.683,515.983v-7.125 M300.042,515.983v-7.125
	 M285.569,515.983v-7.125h0.363 M285.931,515.983v-7.125 M285.569,515.983c4.15-0.104,7.156-2.912,7.2-7.125
	c0.081,4.075,3.172,7.13,7.274,7.125 M232.289,642.345v0.429h-0.936 M232.289,642.776v0.504h-0.936 M231.354,642.776v0.504
	 M241.722,642.776h-9.432 M241.722,642.345h-9.432 M232.289,632.983h-0.936v-0.504h0.936 M241.722,642.776
	c0.126-5.201-4.249-9.796-9.432-9.793v-0.504 M240.498,649.545h16.415 M231.354,643.28v2.88 M232.289,643.28v2.88 M267.714,649.545
	h-0.504 M257.85,649.545h-0.937 M267.714,648.537h-0.504 M257.418,648.537h-0.505 M267.714,649.545v-1.008 M267.21,649.545v-1.008
	 M256.913,649.545v-1.008 M257.418,658.904v-10.367 M257.85,658.904v-9.359 M257.418,658.904c5.201,0.223,9.766-4.168,9.792-9.359
	 M256.913,683.816h27.22 M256.913,682.88h27.22 M267.714,649.545h16.419 M267.714,648.537h16.419 M212.418,649.545v-1.008
	 M223.218,649.545h-0.504 M213.354,649.545h-0.936 M223.218,648.537h-0.504 M212.85,648.537h-0.432 M223.218,649.545v-1.008
	 M222.714,649.545v-1.008 M212.85,658.904v-10.367 M213.354,658.904v-9.359 M212.85,658.904c5.304,0.182,9.683-4.095,9.864-9.359
	 M223.218,649.545h8.136 M223.218,648.537h8.136 M181.17,649.545h-0.433 M171.378,649.545h-1.008 M181.17,648.537h-0.433
	 M170.874,648.537h-0.504 M181.17,649.545v-1.008 M180.737,649.545v-1.008 M170.37,649.545v-1.008 M170.874,658.904v-10.367
	 M171.378,658.904v-9.359 M170.874,658.904c5.326,0.175,9.61-4.104,9.863-9.359 M204.21,649.545h8.208 M181.17,649.545h22.104
	 M181.17,648.537h31.248 M170.874,582.297v-0.937h0.504 M170.874,582.297h-0.504v-0.937 M170.874,581.36h-0.504 M180.737,581.36
	h0.433v0.937h-0.433V581.36z M180.737,581.36c-0.212-5.249-4.574-9.521-9.863-9.433 M171.378,571.928v9.433 M170.874,571.928v9.433
	 M201.618,581.36H181.17 M170.37,582.297h-2.881 M170.37,581.36h-2.881 M236.609,585.176h-0.936v0.504h0.936V585.176z
	 M226.242,595.472h9.432 M236.609,595.472h-0.936v-0.431 M226.242,595.041h9.432 M235.674,595.472v0.504h0.936 M236.609,595.472
	v0.504 M235.674,585.68c-5.376,0.232-9.379,4.424-9.432,9.792 M232.289,599.36v33.119 M231.354,598.353v34.127 M235.674,595.976
	v2.377 M236.609,595.976v2.377 M236.609,526.856v-0.504 M226.242,516.561h9.432 M236.609,516.561h-0.936v0.433 M226.242,516.993
	h9.432 M235.674,516.561v-0.504h0.936 M236.609,516.561v-0.504 M235.674,526.856h0.936 M235.674,526.353h0.936 M226.242,516.561
	c0.035,5.279,4.087,9.704,9.432,9.792v0.504 M263.609,537.656v0.937 M250.074,537.656v0.937 M249.138,538.593v59.76 M248.13,537.656
	v60.696 M236.609,526.856v50.185 M235.674,526.856v50.185 M245.178,508.856h-0.432 M244.746,508.856v-0.937h0.432 M245.178,508.856
	v-0.937 M262.53,508.856v-0.937 M262.53,507.92h0.429v0.937 M262.53,508.856h0.429 M244.746,508.856h-8.137 M244.746,507.92h-2.881
	 M240.857,507.92h-4.248 M240.498,649.545v33.335h16.415 M239.489,683.816v-34.271 M239.562,683.816h17.352 M236.609,648.537h20.304
	 M236.609,649.545h2.88 M284.13,599.36h-51.841 M235.674,598.353h-4.32 M248.13,598.353h-11.521 M284.13,598.353h-34.992
	 M285.138,508.856v72.504 M204.21,718.16v-68.615 M203.273,718.16v-68.615 M264.401,479.049v0.071 M264.401,235.688v24.983
	 M443.969,513.176h66.744 M435.33,513.176v-43.2 M434.393,507.92v-37.944 M411.857,479.12H374.85 M263.466,236.624v68.185
	 M377.297,480.057h-28.873 M412.793,480.057h-34.559 M411.857,548.456v-39.6 M412.793,548.456v-39.6 M438.713,95.505H374.85
	 M435.33,513.176h3.381 M435.33,514.112h75.383 M435.33,563.36h2.877 M460.529,666.537v-2.881 M461.537,633.2h49.176
	 M461.537,634.137h49.176 M435.33,666.537h2.877 M435.33,718.16v-50.615h2.877 M434.393,718.16V508.856 M443.969,718.16h63.865
	 M514.168,92.049h0.076 M510.713,162.249V98.385 M510.713,507.92v-63.863 M514.168,721.616V234.968 M513.09,715.28h-5.256v5.257
	h5.256V715.28z M513.09,646.16h-5.256v5.256h5.256V646.16z M513.09,577.041h-5.256v5.256h5.256V577.041z M510.713,646.16v-63.863
	 M513.09,507.92h-5.256v5.256h5.256V507.92z M510.713,577.041v-63.865 M510.713,715.28v-63.864 M513.09,438.728h-5.256v5.329h5.256
	V438.728z M513.09,369.608h-5.256v5.328h5.256V369.608z M513.09,300.488h-5.256v5.328h5.256V300.488z M510.713,369.608v-63.792
	 M513.09,231.368h-5.256v5.256h5.256V231.368z M513.09,162.249h-5.256v5.256h5.256V162.249z M510.713,299.769v-37.656
	 M510.713,438.728v-26.279 M513.09,93.129h-5.256v5.256h5.256V93.129z M285.138,507.92h-22.176 M369.594,508.856h-2.881
	 M347.057,507.92H305.73 M369.594,507.92h-11.736 M231.354,508.856h-63.864 M231.354,507.92h-63.864 M264.978,536.72v0.937
	 M264.978,508.856v17.063 M265.913,536.72v0.937 M265.913,508.856v17.063 M284.13,538.593v59.76 M284.13,508.856v28.8
	 M235.674,582.297v2.877 M236.609,582.297v2.877 M201.618,547.952h-37.009 M202.554,547.017h-37.944 M201.618,547.952v33.408
	 M231.354,581.36h-28.8v-34.344 M434.393,508.856h-3.096 M434.393,507.92h-3.096 M231.354,582.297H181.17 M167.489,648.537h2.881
	 M167.489,649.545h2.881 M235.674,513.176v2.881 M236.609,513.176v2.881 M177.138,474.728l-0.432,0.145 M176.706,475.448v-0.576
	h0.936 M177.642,475.448v-0.576 M174.258,475.448h10.44 M176.706,438.728v1.152h7.992 M185.562,439.88v2.088 M176.706,451.688h0.936
	 M173.754,451.328l1.512,0.288l1.44,0.075v0.504h0.936 M177.642,452.192v-0.504 M177.138,452.265l-0.432-0.072 M174.186,451.4
	l2.952-10.944 M173.754,451.328l2.952-10.944 M186.065,443.624h37.44 M186.642,444.272h36.504 M216.018,444.272v11.808
	 M218.682,444.272v7.419 M186.642,474.368h37.801v0.576 M186.065,474.944h38.377 M174.258,476.528h66.6 M241.865,475.448v11.375
	 M185.562,475.448h55.296 M185.562,439.88h45.792 M185.562,441.968h45.792 M236.609,439.88h4.248 M176.706,438.728h54.647
	 M236.609,441.968h4.248 M185.562,443.192h45.792 M240.857,443.192v18.574 M241.865,438.656v23.112 M224.442,459.968v0.577
	 M213.426,460.545v13.823 M216.018,460.545v13.823 M218.682,460.545v13.823 M221.346,460.545v13.823 M223.938,460.545v13.823
	 M197.586,458.528v1.439 M196.938,457.88v2.667 M197.586,460.545v13.823 M200.178,460.545v13.823 M202.842,460.545v13.823
	 M205.506,460.545v13.823 M208.098,460.545v13.823 M210.762,460.545v13.823 M224.442,459.968h-26.856 M214.578,458.528h-16.992
	 M224.442,460.545h-27.505 M214.938,457.88h-18 M200.178,444.272v13.607 M202.842,444.272v13.607 M205.506,444.272v13.607
	 M208.098,444.272v13.607 M210.762,444.272v13.607 M213.426,444.272v13.607 M214.434,458.816l9.072-15.192 M177.642,451.688h7.057
	 M184.698,475.448v-23.256h-7.057 M185.562,443.192v32.256 M184.698,439.88v11.812 M186.642,444.272v30.096 M186.065,443.624v31.323
	 M173.754,463.137l1.512,0.285l1.44,0.075 M176.706,463.497l-1.44,0.144l-1.512,0.285 M173.754,463.137l2.952-10.944
	 M174.186,463.208l2.952-10.943 M174.186,463.784l2.952,10.943 M173.754,463.928l2.952,10.944 M374.85,718.16h63.863 M305.73,718.16
	h63.863 M236.609,718.16h63.864 M231.354,95.505h-63.864 M300.474,95.505h-63.864 M369.594,95.505H305.73 M164.609,300.488v-38.376
	 M164.609,369.608v-30.96 M164.609,438.728v-33.335 M164.609,507.92v-63.863 M164.609,577.041v-63.865 M164.609,646.16v-63.863
	 M445.049,92.049h0.072 M445.049,721.616h0.072 M161.153,264.272v457.344 M164.609,715.28v-63.864 M510.93,92.049H161.153
	 M507.834,95.505h-63.865 M161.153,721.616h353.015 M167.489,718.16h63.864 M443.969,715.28h-5.256v5.257h5.256V715.28z
	 M374.85,715.28h-5.256v5.257h5.256V715.28z M305.73,715.28h-5.257v5.257h5.259L305.73,715.28L305.73,715.28z M236.609,715.28
	h-5.256v5.257h5.256V715.28z M167.489,715.28h-5.256v5.257h5.256V715.28z M443.969,646.16h-5.256v5.256h5.256V646.16z
	 M374.85,646.16h-5.256v5.256h5.256V646.16z M305.73,646.16h-5.257v5.256h5.259L305.73,646.16L305.73,646.16z M236.609,646.16
	h-5.256v5.256h5.256V646.16z M167.489,646.16h-5.256v5.256h5.256V646.16z M443.969,577.041h-5.256v5.256h5.256V577.041z
	 M374.85,577.041h-5.256v5.256h5.256V577.041z M305.73,577.041h-5.257v5.256h5.259L305.73,577.041L305.73,577.041z M236.609,577.041
	h-5.256v5.256h5.256V577.041z M167.489,577.041h-5.256v5.256h5.256V577.041z M443.969,507.92h-5.256v5.256h5.256V507.92z
	 M374.85,507.92h-5.256v5.256h5.256V507.92z M305.73,507.92h-5.257v5.256h5.259L305.73,507.92L305.73,507.92z M236.609,507.92
	h-5.256v5.256h5.256V507.92z M167.489,507.92h-5.256v5.256h5.256V507.92z M443.969,438.728h-5.256v5.329h5.256V438.728z
	 M374.85,438.728h-5.256v5.329h5.256V438.728z M305.73,438.728h-5.257v5.329h5.259L305.73,438.728L305.73,438.728z M236.609,438.728
	h-5.256v5.329h5.256V438.728z M167.489,438.728h-5.256v5.329h5.256V438.728z M443.969,369.608h-5.256v5.328h5.256V369.608z
	 M374.85,369.608h-5.256v5.328h5.256V369.608z M305.73,369.608h-5.257v5.328h5.259L305.73,369.608L305.73,369.608z M236.609,369.608
	h-5.256v5.328h5.256V369.608z M167.489,369.608h-5.256v5.328h5.256V369.608z M443.969,300.488h-5.256v5.328h5.256V300.488z
	 M374.85,300.488h-5.256v5.328h5.256V300.488z M305.73,300.488h-5.257v5.328h5.259L305.73,300.488L305.73,300.488z M236.609,300.488
	h-5.256v5.328h5.256V300.488z M167.489,300.488h-5.256v5.328h5.256V300.488z M374.85,231.368h-5.256v5.256h5.256V231.368z
	 M305.73,231.368h-5.257v5.256h5.259L305.73,231.368L305.73,231.368z M236.609,231.368h-5.256v5.256h5.256V231.368z
	 M167.489,231.368h-5.256v5.256h5.256V231.368z M443.969,162.249h-5.256v5.256h5.256V162.249z M374.85,162.249h-5.256v5.256h5.256
	V162.249z M305.73,162.249h-5.257v5.256h5.259L305.73,162.249L305.73,162.249z M236.609,162.249h-5.256v5.256h5.256V162.249z
	 M167.489,162.249h-5.256v5.256h5.256V162.249z M443.969,93.129h-5.256v5.256h5.256V93.129z M374.85,93.129h-5.256v5.256h5.256
	V93.129z M305.73,93.129h-5.257v5.256h5.259L305.73,93.129L305.73,93.129z M236.609,93.129h-5.256v5.256h5.256V93.129z
	 M167.489,93.129h-5.256v5.256h5.256V93.129z"/>
<path fill="none" stroke="#000000" stroke-width="0.72" stroke-linecap="round" stroke-linejoin="round" stroke-miterlimit="10" d="
	M368.369,286.664h0.504 M368.873,286.664v1.008h-0.504 M367.938,286.664h0.43v1.008 M358.072,286.664h0.504v1.008h-0.504V286.664z
	 M368.369,277.305v9.359 M367.938,277.305v9.359 M368.369,277.305c-5.104-0.196-9.812,4.201-9.793,9.359 M412.793,323.096v-30.023
	 M411.857,323.096v-17.279 M304.794,262.112h-40.393 M338.273,262.112H305.73 M371.754,262.112h-32.545 M308.609,286.664h-2.877
	 M308.609,287.672h-2.877 M358.072,286.664h-18.863 M358.072,287.672h-38.664 M371.754,286.664h0.07 M338.273,286.664h-18.865
	 M305.73,286.664v-24.552 M304.794,287.672v-25.56 M372.689,287.601v-25.488 M371.754,286.664v-24.552 M263.466,333.896v11.736
	 M264.401,333.896v2.88 M264.401,374.937v26.855 M264.401,372.92v0.648 M264.401,341.601v4.032 M264.401,337.712v2.952
	 M280.746,341.601h-16.345 M263.466,355.712v7.632 M264.401,355.712v6.192 M280.673,361.904h0.075v-0.072 M267.498,361.832v0.072
	 M280.673,361.904h-16.271 M346.842,337.712v2.952 M374.85,374.937h37.008 M347.777,373.568h21.816 M374.85,373.568h37.008
	 M347.777,371.84v-30.239v31.968 M374.633,360.824v8.784 M389.105,340.664h-41.328 M389.105,345.92v-4.319h-14.041 M389.105,361.544
	h1.871 M389.105,345.92v15.624V345.92z M390.977,337.712v23.832V337.712z M388.098,345.2l0.287-0.144l0.145-0.36v-1.656
	 M388.529,343.04l-0.145-0.359l-0.287-0.145 M373.697,360.824v8.784V360.824h0.936H373.697z M373.697,350.816h1.367 M375.064,345.92
	v4.896V345.92z M375.568,343.04v1.656l0.145,0.36l0.359,0.144 M375.568,344.696l0.145,0.36l0.359,0.144 M373.697,341.601v9.216
	 M375.064,345.92v-4.319 M373.697,341.601v9.216 M375.064,345.92v-4.319 M375.568,344.696v-1.656 M378.953,343.04l-0.145-0.359
	l-0.359-0.145 M383.777,343.04l-0.141-0.359l-0.363-0.145 M383.273,342.536h-2.375l-0.359,0.145l-0.145,0.359 M385.648,342.536
	l-0.287,0.145l-0.145,0.359 M388.098,342.536h-2.449H388.098z M385.648,342.536l-0.287,0.145l-0.145,0.359 M383.273,342.536h-2.375
	 M380.896,342.536l-0.359,0.145l-0.145,0.359 M383.777,343.04l-0.141-0.359l-0.363-0.145 M378.953,343.04l-0.145-0.359l-0.359-0.145
	 M378.449,342.536h-2.377H378.449z M384.498,345.92h-4.826 M389.105,345.92h-4.607H389.105z M378.449,345.2l0.359-0.144l0.145-0.36
	 M378.953,344.696v-1.656 M383.273,345.2l0.363-0.144l0.141-0.36 M380.393,343.04v1.656l0.145,0.36l0.359,0.144 M383.273,345.2
	h-2.375 M383.777,344.696v-1.656 M385.217,343.04v1.656l0.145,0.36l0.287,0.144 M388.098,345.2h-2.449H388.098z M385.217,344.696
	v-1.656 M385.217,344.696l0.145,0.36l0.287,0.144 M383.777,344.696v-1.656 M383.273,345.2h-2.375 M380.393,344.696v-1.656
	 M380.393,344.696l0.145,0.36l0.359,0.144 M383.273,345.2l0.363-0.144l0.141-0.36 M378.449,345.2l0.359-0.144l0.145-0.36v-1.656
	 M379.672,345.92v-4.319V345.92z M384.498,345.92v-4.319V345.92v-4.319V345.92z M375.064,345.92h4.607v-4.319v4.319 M378.449,345.2
	h-2.377H378.449z M384.498,345.92h-9.434 M349.217,371.769v1.439 M349.217,373.208h4.322v-1.439 M349.217,371.769h4.322
	 M361.098,373.208h-4.324v-1.439 M356.777,371.769h4.322 M361.098,371.769h-4.324v1.439 M364.121,371.769v1.439 M364.121,373.208
	h4.322v-1.439 M364.121,371.769h4.322 M361.098,371.769v1.439 M368.441,371.769v1.439 M364.121,371.769v1.439 M361.098,371.769
	v1.439 M364.121,371.769h4.322 M367.648,371.769l0.145-1.368l-0.074-1.296 M364.912,371.769c-0.984-2.187,1.277-7.262,2.809-2.664
	 M360.305,371.769l0.217-1.368l-0.145-1.296 M357.568,371.769c-0.982-2.187,1.277-7.262,2.809-2.664 M367.648,371.769l0.145-1.368
	l-0.074-1.296 M364.912,371.769c-0.984-2.187,1.277-7.262,2.809-2.664 M360.305,371.769l0.217-1.368l-0.145-1.296 M357.568,371.769
	c-0.982-2.187,1.277-7.262,2.809-2.664 M352.746,371.769l0.143-1.368l-0.143-1.296 M350.01,371.769l-0.072-0.216l-0.145-1.225
	l0.145-1.224l0.285-0.937l0.576-0.72l0.574-0.216l0.508,0.216l0.574,0.72l0.287,0.937 M373.697,360.824h-4.537 M373.697,361.328
	h-4.537 M362.25,361.328h-0.721 M354.904,361.328h-0.646 M355.842,361.328h-0.434 M355.842,360.824h-1.584 M363.4,361.328h-0.646
	 M363.4,360.824h-1.799H363.4z M363.4,361.328h-0.646 M355.842,360.824h-1.584 M355.842,361.328h-0.434 M354.904,361.328h-0.646
	 M362.25,361.328h-0.721 M373.697,361.328h-4.537 M373.697,360.824h-4.537 M348.498,361.328h-0.725 M348.498,360.824h-0.725
	 M347.777,337.712v2.952 M362.754,373.568v-12.24 M355.408,373.568v-12.24 M354.904,373.568v-12.24 M362.25,373.568v-12.24
	 M348.498,360.824v5.76 M348.498,366.584c3.09-0.016,5.812-2.628,5.76-5.76 M355.842,360.824v5.76
	c3.092-0.016,5.812-2.628,5.76-5.76 M363.4,366.584c3.062,0.076,5.836-2.698,5.76-5.76 M363.4,360.824v5.76V360.824z M363.4,366.584
	c3.062,0.076,5.836-2.698,5.76-5.76 M355.842,360.824v5.76 M355.842,366.584c3.092-0.016,5.812-2.628,5.76-5.76 M362.25,373.208
	v-11.88 M362.754,373.208v-11.88 M354.904,373.208v-11.88 M355.408,373.208v-11.88 M348.498,360.824v5.76
	c3.09-0.016,5.812-2.628,5.76-5.76 M347.777,337.712v2.952 M286.722,374.937v17.279 M285.714,374.937v26.855 M264.401,401.792h7.633
	 M264.401,402.729h7.633 M286.722,392.216h1.439 M286.722,393.152h1.439 M330.209,340.664v32.904 M329.273,374.937v31.176
	 M330.209,337.712v35.856 M301.409,406.112h1.801 M301.409,407.049h1.801 M475.145,339.368h-0.504v-0.936h0.504V339.368z
	 M464.777,339.368h-0.43 M464.346,339.368v-0.936h0.428 M464.777,339.368v-0.936 M464.777,348.801v-9.433h0.506 M465.281,348.801
	v-9.433 M464.777,348.801c5.275,0.101,9.738-4.152,9.867-9.433 M460.025,338.433v0.936h-0.504 M460.025,338.433h0.432v0.936
	 M460.025,339.368h0.432 M459.521,348.801v-9.433 M460.025,348.801v-9.433 M450.16,339.368h-0.504v-0.936h0.504V339.368z
	 M450.16,339.368c0.266,5.313,4.49,9.488,9.865,9.433 M477.09,314.456v-0.504 M477.09,313.952h-0.938v0.504 M477.09,314.456h-0.938
	 M486.521,304.592h-9.43v-0.936 M486.521,304.088h-9.43 M477.09,303.656h-0.938v0.432 M477.09,304.088h-0.938 M477.09,313.952
	c5.219-0.106,9.561-4.639,9.428-9.864 M486.521,296.456h-9.43 M477.09,296.889v-0.937h9.428 M477.09,296.456h-0.938v0.433
	 M477.09,296.889h-0.938 M477.09,286.088v0.504 M477.09,286.088h-0.938v0.504 M486.521,296.456c0.1-5.672-4.721-10.216-10.369-9.864
	 M444.762,335.049h-9.43 M435.33,335.553v-0.937h9.428 M435.33,335.049h-0.938v0.504 M435.33,335.553h-0.938 M435.33,324.753v0.504
	 M435.33,324.753h-0.938v0.504 M444.762,335.049c0.041-5.646-4.703-10.21-10.369-9.792 M435.33,324.753v-62.641 M434.393,324.753
	v-64.081 M435.33,338.433v-2.88 M435.33,371.769v-32.4 M463.338,371.769h-19.369 M477.09,299.769v-2.88 M449.656,338.433H435.33
	 M449.656,339.368H435.33 M463.338,339.368h-2.881 M464.346,338.433h-3.889 M476.152,303.656v-6.768 M477.09,303.656v-2.88
	 M477.09,286.088v-23.976 M476.152,286.088v-23.976 M264.401,337.712h64.872 M264.401,336.776h68.688 M310.553,373.208h-4.318
	 M306.234,373.208v-1.439h4.318 M310.553,371.769v1.439 M318.473,373.208h-4.32 M317.682,371.769l0.141-1.368l-0.141-1.296
	 M314.945,371.769l-0.074-0.216l-0.141-1.225l0.141-1.224l0.287-0.937l0.576-0.72l0.574-0.216l0.504,0.216l0.578,0.72l0.287,0.937
	 M314.152,373.208v-1.439h4.32 M318.473,371.769v1.439 M322.865,371.769v1.439h4.322 M322.865,371.769h4.322v1.439 M326.393,371.769
	l0.217-1.368l-0.145-1.296 M323.656,371.769c-0.891-2.879,1.48-6.986,2.809-2.664 M329.273,360.824h-1.439 M329.273,361.328h-1.512
	 M320.85,373.208v-11.88h1.223 M320.346,361.328v11.88 M322.072,360.824v5.76c3.021,0,5.863-2.682,5.764-5.76 M311.705,361.328
	h-1.152 M320.346,361.328h-1.227 M313.434,361.328h-1.227 M313.434,360.824h-2.881 M322.072,360.824h-2.879 M304.794,361.328h-1.226
	 M303.569,359.24v1.584h1.226 M312.209,361.328v11.88 M311.705,361.328v11.88 M303.138,369.608V359.24 M303.569,369.608v-8.28
	 M313.434,360.824v5.76 M313.434,366.584c3.059,0.02,5.824-2.644,5.76-5.76 M304.794,360.824v5.76
	c3.06,0.076,5.835-2.698,5.759-5.76 M264.401,355.712h-0.936 M279.09,360.896h-13.536 M282.187,363.344h-18.721 M264.401,345.633
	h-0.936 M279.09,360.896l-13.536-18.647v18.647 M286.577,344.696l0.145,0.36l0.363,0.144 M287.082,342.536l-0.363,0.145
	l-0.144,0.359 M285.857,345.92v-4.319 M286.577,344.696v-1.656 M279.09,342.249h-13.536 M280.746,341.601v20.231 M279.09,342.249
	v18.647 M282.187,341.601v21.743 M265.554,360.896l13.536-18.647 M303.138,349.305h0.43 M295.146,345.2l0.36-0.144l0.144-0.36
	 M295.649,343.04l-0.144-0.359l-0.36-0.145 M296.369,345.92h-4.823 M296.369,341.601h-4.823 M292.266,344.696l0.144,0.36l0.36,0.144
	 M292.77,342.536l-0.36,0.145l-0.144,0.359 M291.546,345.92v-4.319 M292.266,344.696v-1.656 M295.146,345.2h-2.376 M295.146,342.536
	h-2.376 M296.369,345.92v-4.319 M295.649,344.696v-1.656 M301.338,344.696v-1.656 M302.058,345.92v-4.319 M300.905,342.536h-2.447
	 M300.905,345.2h-2.447 M298.025,344.696v-1.656 M297.306,345.92v-4.319 M298.458,342.536l-0.289,0.145l-0.144,0.359
	 M298.025,344.696l0.144,0.36l0.289,0.144 M302.058,341.601h-4.752 M302.058,345.92h-4.752 M301.338,343.04l-0.144-0.359
	l-0.289-0.145 M300.905,345.2l0.289-0.144l0.144-0.36 M285.857,345.92h4.826 M285.857,341.601h4.826 M289.458,345.2l0.359-0.144
	l0.145-0.36 M289.962,343.04l-0.145-0.359l-0.359-0.145 M290.683,345.92v-4.319 M289.962,344.696v-1.656 M287.082,345.2h2.374
	 M287.082,342.536h2.374 M303.138,349.305v-7.704 M303.569,349.305v-7.704 M309.689,341.601v1.439 M306.45,344.12l0.144,0.576
	l0.428,0.36l0.508,0.144l0.574-0.144l0.359-0.36l0.145-0.576 M318.473,341.601h-4.32 M318.473,341.601v1.439h-4.32 M314.152,341.601
	v1.439 M309.689,341.601h-4.322 M305.369,343.04h4.322 M327.186,341.601h-4.322 M327.186,341.601v1.439h-4.322 M322.865,341.601
	v1.439 M309.689,343.04l-0.504,0.145l-0.432,0.432l-0.145,0.504 M318.473,343.04l-0.574,0.145l-0.359,0.432l-0.145,0.504
	 M315.234,344.12l-0.145-0.504l-0.434-0.432l-0.504-0.145 M315.234,344.12l0.141,0.576l0.363,0.36l0.574,0.144l0.504-0.144
	l0.432-0.36l0.145-0.576 M327.186,343.04l-0.504,0.145l-0.432,0.432l-0.145,0.504 M323.945,344.12l-0.145-0.504l-0.359-0.432
	l-0.576-0.145 M323.945,344.12l0.145,0.576l0.428,0.36l0.504,0.144l0.578-0.144l0.359-0.36l0.145-0.576 M329.273,337.712v2.952
	 M330.209,337.929v35.64 M264.401,373.568h36.072 M261.018,304.809h2.448 M338.273,286.664v-24.552 M339.209,286.664v-24.552
	 M371.754,287.672h-2.881 M371.754,286.664h-2.881 M304.794,300.488v-1.439 M305.73,300.488v-1.439 M374.85,304.809h37.008
	 M371.754,300.488v-1.439 M372.689,300.488v-1.439 M374.85,305.816h37.008 M261.018,305.816h2.448 M476.152,338.433v-23.977
	 M477.09,338.433v-23.977 M464.346,371.769v-33.336 M463.338,371.769v-32.4 M241.865,260.672v44.137 M510.713,262.112H477.09
	 M510.713,299.769H477.09 M507.834,300.776H477.09 M510.713,338.433H477.09 M510.713,339.368h-35.568 M438.713,372.776h-3.381
	 M438.713,371.769h-3.381 M507.834,372.776h-41.258 M507.834,371.769h-43.488 M315.594,407.049v33.911 M314.656,407.049v34.848
	 M374.85,444.057v35.063 M373.912,444.057v35.063 M373.912,374.937v31.176 M369.594,441.896h-2.881 M369.594,440.96h-2.881
	 M300.474,430.809h-36.072 M301.409,374.937v31.176 M301.409,444.057v35.063 M300.474,444.057v35.063 M300.474,374.937v17.279
	 M300.474,431.816h-36.072 M371.969,651.416v63.864 M371.969,582.297v63.863 M372.258,651.416v63.864 M372.258,582.297v63.863
	 M302.634,528.297h-17.496 M302.634,525.416h-17.496 M287.298,582.297v-0.937h0.433 M287.298,582.297h-0.504v-0.937 M287.298,581.36
	h-0.504 M297.09,581.36h0.504v0.937h-0.504V581.36z M297.09,581.36c0.021-5.12-4.682-9.607-9.792-9.433 M287.73,571.928v9.433
	 M287.298,571.928v9.433 M300.474,582.297h-2.88 M286.794,582.297h-1.656 M286.794,581.36h-1.656 M300.474,581.36h-2.88
	 M310.77,537.656v-0.937h0.504 M310.77,537.656h-0.43v-0.937 M310.77,536.72h-0.43 M320.633,536.72h0.504v0.937h-0.504V536.72z
	 M320.633,536.72c-0.109-5.218-4.639-9.56-9.867-9.429 M311.273,527.289v9.429 M310.77,527.289v9.429 M371.754,537.656v39.385
	 M366.713,536.72h5.041 M334.961,536.72h24.049 M321.137,536.72h12.885 M366.713,537.656h5.041 M321.137,537.656h37.873
	 M334.025,508.856h-23.688 M347.057,508.856h-12.096 M347.49,508.856h0.07 M359.01,508.856h-1.152 M365.777,508.856h-5.76
	 M366.713,537.656h-7.703 M365.777,536.72h-5.76 M359.01,508.856v27.863 M366.713,508.856v27.863 M365.777,508.856v27.863
	 M365.777,536.72l-5.76-27.863v27.863 M365.777,508.856l-5.76,27.863 M309.33,508.856l-5.763,27.863 M303.569,513.176l5.763,23.544
	 M309.33,508.856h-3.6 M309.33,536.72h-5.763 M310.338,508.856v28.8 M309.33,508.856v27.863 M310.338,537.656h-7.704
	 M411.857,548.456h0.936 M444.977,598.641v0.504 M444.977,599.145h-1.008v-0.504 M436.625,598.28h7.344v0.363 M436.625,598.641
	h8.352 M443.969,590.505h1.008v0.432h-1.008V590.505z M443.969,590.937c-4.246,0.368-7.227,3.396-7.344,7.704 M443.969,599.145
	v3.312 M444.977,599.145v3.312h15.555 M444.977,589.497h4.756v1.008 M435.33,586.112h8.637v4.393h5.764 M444.977,577.976v11.523
	 M461.537,616.641v0.504 M461.537,617.145h-1.008v-0.504"/>
<path fill="none" stroke="#000000" stroke-width="0.72" stroke-linecap="round" stroke-linejoin="round" stroke-miterlimit="10" d="
	M418.266,356.216h-0.504v-1.008 M428.057,345.849c-5.203-0.224-9.766,4.167-9.791,9.359h-0.504 M412.793,292.137v-30.024
	 M412.793,293.072h10.801v-0.936 M412.793,336.776v-2.88 M412.793,337.712h9 M412.793,336.776h9 M434.393,356.216h-5.832
	 M434.393,355.064h-5.832 M417.762,355.064h-4.969 M417.762,356.216h-4.969 M421.793,336.776v0.936 M412.793,292.137h10.801
	 M425.754,261.824h8.639 M425.754,260.672v23.544h-1.225 M424.529,262.112v22.104 M425.754,264.272h8.639 M425.754,266.648h8.639
	 M425.754,269.024h8.639 M425.754,271.472h8.639 M425.754,273.849h8.639 M425.754,276.224h8.639 M425.754,278.672h8.639
	 M425.754,281.049h8.639 M425.754,283.496h8.639 M425.754,260.672H264.401 M240.857,336.776v0.432h1.008 M240.857,337.208v0.504
	h1.008 M241.865,337.208v0.504 M231.498,337.208h9.359 M231.498,336.776h9.359 M241.865,326.912h-1.008v0.504h1.008V326.912z
	 M240.857,327.416c-5.229,0.042-9.539,4.566-9.359,9.792 M231.498,364.712h9.359 M231.498,365.216h9.359 M241.865,365.216v0.504
	 M241.865,365.72h-1.008v-0.504 M241.865,365.216h-1.008v-0.504 M240.857,354.92h1.008v0.433h-1.008V354.92z M240.857,355.353
	c-5.255,0.253-9.535,4.537-9.359,9.863 M240.857,434.912v0.504h1.008 M240.857,435.416v0.433h1.008 M241.865,435.416v0.433
	 M231.498,435.416h9.359 M231.498,434.912h9.359 M241.865,425.049h-1.008v0.504h1.008V425.049z M240.857,425.553
	c-5.31,0.299-9.509,4.46-9.359,9.863 M240.857,435.849v2.877 M241.865,435.849v25.92 M240.857,365.72v38.736 M241.865,365.72v59.329
	 M241.865,337.712v0.937 M240.857,338.648v16.271 M444.762,459.68h-9.43 M435.33,459.176v0.937h9.428 M435.33,459.68h-0.938v-0.504
	 M435.33,459.176h-0.938 M435.33,469.976v-0.504 M435.33,469.976h-0.938v-0.504 M435.33,469.472h-0.938 M435.33,469.472
	c5.119,0.023,9.607-4.678,9.428-9.792 M435.33,411.513h-0.938 M434.393,411.513v-0.504h0.938 M444.762,410.505h-9.43v1.008
	 M444.762,411.009h-9.43 M435.33,401.145h-0.938 M434.393,401.145v-0.433h0.938 M444.762,411.009c0.09-5.29-4.184-9.652-9.43-9.864
	v-0.433 M435.33,458.241v-45.793 M434.393,459.176v-47.663 M434.393,400.712v-65.159 M435.33,400.712v-27.936 M476.152,338.433
	h-1.008 M424.529,262.112h-11.736 M476.152,262.112H435.33 M460.529,627.944v-10.8 M285.138,582.297V718.16 M284.13,599.36v49.177
	 M284.13,649.545v33.335 M284.13,683.816v34.344 M250.074,538.593h-0.937 M284.13,538.593h-20.521 M265.913,536.72h-0.936
	 M250.074,537.656h-1.944 M264.978,537.656h-1.368 M284.13,537.656h-18.217 M284.13,508.856h-21.168 M174.258,475.448h-0.432
	 M173.826,475.448v1.077h0.432 M174.258,476.528v-1.077 M165.042,475.448h-0.433v1.077 M165.042,475.448v1.077h-0.433
	 M165.042,484.664v-8.136h0.432 M165.474,484.664v-8.136 M165.042,484.664c4.664,0.139,8.54-3.465,8.784-8.136 M241.865,497.624
	h-1.008 M241.865,486.824h-1.008 M240.857,486.824v0.433h1.008 M241.865,487.761v-0.937 M240.857,497.624v-0.504h1.008
	 M241.865,497.624v-0.504 M241.865,497.12c5.31-0.184,9.53-4.528,9.36-9.863 M251.226,487.761h-9.36 M251.226,487.257h-9.36
	 M240.857,497.624v10.296 M241.865,497.624v10.296 M240.857,462.272c-5.192,0.026-9.583,4.588-9.359,9.792 M240.857,461.769h1.008
	v0.504h-1.008V461.769z M241.865,472.064v0.504 M241.865,472.568h-1.008v-0.504 M231.498,471.632h9.359v0.433 M231.498,472.064
	h10.367 M241.865,472.568v7.488 M240.857,472.568v2.88 M240.857,476.528v10.296 M177.138,440.456l-0.432-0.074 M236.609,443.192
	h4.248 M236.609,438.728h4.248 M240.857,443.192v18.574 M240.857,439.88v2.088 M202.266,275.792h0.937 M202.266,264.992v0.432
	h-9.432 M202.266,264.992h0.937v0.432h-0.937v0.505 M192.834,265.929h9.432 M192.834,265.424c0.048,5.782,4.581,10.125,10.368,9.864
	 M203.202,275.792v-0.504 M202.266,275.792v-0.504 M216.45,305.816c-0.157-5.247-4.608-9.525-9.864-9.432 M206.586,296.385v9.432
	 M207.09,296.385v9.432 M206.586,305.816h-0.504 M206.082,305.816v0.937h0.504 M207.09,305.816h-0.504v0.937 M216.882,305.816
	h-0.432v0.937h0.432V305.816z M203.202,264.992v-2.88h37.655 M202.266,264.992v-2.88 M216.882,306.753h23.976 M216.882,305.816
	h14.472 M202.266,262.112h-37.656 M203.202,305.816h2.88 M202.266,305.816v-30.024 M203.202,305.816v-30.024 M236.609,305.816h4.248
	 M164.609,306.753h41.473 M167.489,305.816h34.776 M510.713,260.672h-76.32 M313.506,406.112c-0.203-5.39-4.508-9.409-9.864-9.432
	 M303.642,396.681v9.432 M304.146,396.681v9.432 M303.642,406.112h-0.432 M303.21,406.112v0.937h0.432 M304.146,406.112h-0.504
	v0.937 M314.01,406.112h-0.504v0.937h0.504V406.112z M298.458,392.216c-0.088-5.19-4.666-9.587-9.864-9.432 M288.594,382.784v9.432
	 M289.098,382.784v9.432 M288.594,392.216h-0.433 M288.161,392.216v0.937h0.433 M289.098,392.216h-0.504v0.937 M298.962,392.216
	h-0.504v0.937h0.504V392.216z M288.161,401.792v0.937 M300.474,402.729h-1.512v-0.937 M298.962,401.792h1.512 M298.962,393.152
	h1.512 M298.962,392.216h1.512 M305.73,374.937h23.543 M300.474,393.152v8.64 M272.538,402.729h-0.504v-0.937h0.504V402.729z
	 M282.401,401.792v0.937h-0.504 M282.401,401.792h0.433v0.937 M282.401,402.729h0.433 M272.538,402.729
	c0.081,5.25,4.635,9.543,9.863,9.432 M281.897,412.16v-9.432 M282.401,412.16v-9.432 M263.466,406.112v-0.504 M264.401,416.408
	h-0.936v-0.433 M264.401,405.608h-0.936 M264.401,406.112h-0.936 M264.401,406.616v-1.008 M264.401,416.408v-0.433h-0.936
	 M264.401,415.976c5.401-0.324,9.361-4.44,9.433-9.863 M273.834,406.616h-9.433 M273.834,406.112h-9.433 M264.401,402.729v2.88
	 M286.722,393.152v8.64h1.439 M286.722,374.937h13.752 M263.466,416.408v18.288 M264.401,416.408v14.4 M282.834,402.729h5.325
	 M282.834,401.792h2.877 M301.409,407.049v31.677 M300.474,402.729v28.08 M300.474,431.816v6.911 M368.152,407.049h5.76
	 M315.594,407.049h41.76 M368.152,406.112h5.76 M330.209,406.112h27.145 M314.01,407.049h0.646 M314.01,406.112h15.264
	 M366.209,440.96h0.504 M366.713,440.96v0.937h-0.504 M365.777,440.96h0.432v0.937 M355.912,440.96h0.504v0.937h-0.504V440.96z
	 M366.209,431.528v9.432 M365.777,431.528v9.432 M366.209,431.528c-5.061-0.219-9.902,4.315-9.793,9.432 M355.912,440.96h-40.318
	 M355.912,441.896h-41.256 M264.401,444.993h-0.936 M263.466,444.993v0.504h0.936 M264.401,445.497v-0.504 M264.401,434.696h-0.936
	 M263.466,434.696v0.43h0.936 M273.834,435.632h-9.433v-0.933 M264.401,444.993c5.39-0.203,9.409-4.511,9.433-9.867h-9.433
	 M264.401,431.816v2.88 M300.474,479.12h-36.072 M264.401,445.497v33.552 M327.834,480.057h-64.368v-34.56 M327.834,479.12h-26.425
	 M348.424,479.12v0.937 M348.424,480.057h-0.43v-0.937h-0.504 M347.994,479.12h0.428 M328.266,479.12h-0.432 M327.834,479.12v0.937
	h0.428 M328.266,479.12v0.937 M328.266,469.688v9.43h0.504 M328.77,469.688v9.43 M347.994,469.688
	c-5.277-0.077-9.764,4.116-9.865,9.43c-0.16-5.247-4.611-9.525-9.867-9.43 M347.49,469.688v9.43 M347.994,469.688v9.43
	 M412.793,440.456h-0.936v-0.432h0.936V440.456z M411.857,429.656v0.504h-9.434 M411.857,429.656h0.936v0.504h-0.936v0.504
	 M402.424,430.664h9.434 M402.424,430.16c-0.064,5.298,4.146,9.663,9.434,9.864 M412.793,429.656v-41.04 M411.857,429.656v-2.88
	 M411.857,388.616v37.296 M412.793,388.616h-0.936v-0.504h0.936V388.616z M411.857,377.816v0.433h-9.434 M411.857,377.816h0.936
	v0.433h-0.936v0.504 M402.424,378.753h9.434 M402.424,378.249c-0.031,5.332,4.055,9.705,9.434,9.863 M411.857,377.816v-2.88
	 M412.793,370.185v7.632 M412.793,370.688h-0.936v-0.504 M402.424,369.681h9.434v0.504 M402.424,370.185h10.371 M411.857,359.816
	h0.936v0.504h-0.936V359.816z M411.857,360.32c-5.289,0.2-9.498,4.566-9.434,9.864 M280.746,363.776v-0.433h0.937 M281.683,363.776
	v-0.433 M280.746,363.776h0.937v0.432 M280.746,372.92v-0.432 M280.746,372.92h0.937v-0.432 M281.683,372.488h-0.937
	 M281.683,372.488c4.776-0.109,8.186-4.04,8.276-8.712 M289.962,363.776h-8.277 M289.962,364.208h-8.277 M263.466,372.92v-0.432
	h0.936 M264.401,372.92v-0.432 M264.401,363.344h-0.936 M263.466,363.344v0.433h0.936 M272.683,364.208h-8.281v-0.864
	 M264.401,372.488c4.678-0.021,8.318-4.134,8.281-8.712h-8.281 M411.857,304.809v-42.696 M343.889,374.937h-0.504v-1.368h0.504
	V374.937z M333.594,374.937h-0.504 M333.09,374.937v-1.368h0.504 M334.025,374.937h-0.432v-1.368 M333.594,374.937v9
	c5.271,0.146,9.475-3.713,9.791-9 M334.025,383.937v-9 M343.889,337.712h-0.504v-0.936h0.504V337.712z M333.594,337.712h-0.504
	 M333.09,337.712v-0.936h0.504 M334.025,337.712h-0.432v-0.936 M333.594,337.712v9.433c5.371-0.053,9.561-4.057,9.791-9.433
	 M334.025,347.145v-9.433 M263.466,405.608V372.92h0.936 M280.746,372.92v0.648 M281.683,372.92v0.648 M303.569,359.24h-0.429
	 M305.73,373.568h23.543 M306.45,344.12l-0.145-0.504l-0.359-0.432l-0.577-0.145v-1.439 M344.824,337.712v2.952 M390.977,337.712
	h20.881 M373.697,341.601h-25.92 M389.105,340.664v-2.952 M346.842,341.601h-2.953 M346.842,340.664h-2.02 M346.842,341.601v31.896
	 M347.777,337.712h41.328 M330.209,406.112v-31.176h2.881 M330.209,373.568h2.881 M330.209,374.937v31.176V374.937z
	 M329.273,341.601v31.968 M330.209,337.712h2.881 M343.889,374.937h25.705 M343.889,373.568h2.953 M343.889,336.776v4.824
	 M344.824,337.712h2.02 M343.889,336.776h67.969 M329.273,341.601h-47.087 M329.273,340.664h-64.872 M412.793,359.816v-3.601
	 M411.857,359.816v-22.104 M411.857,373.568v-2.88 M411.857,336.776v-2.88 M264.401,305.816v17.279 M264.401,333.393h-0.936
	 M263.466,333.393v0.504h0.936 M264.401,332.889v0.504 M273.834,333.393h-9.433v0.504 M273.834,332.889h-9.433 M264.401,323.096
	h-0.936 M263.466,323.096v0.433h0.936 M273.834,333.393c-0.073-5.423-4.031-9.536-9.433-9.864v-0.433 M412.793,333.393v0.504
	 M412.793,333.896h-0.936v-0.504 M402.424,332.889h9.434v0.504 M402.424,333.393h10.371 M411.857,323.096h0.936v0.433h-0.936
	V323.096z M411.857,323.528c-5.289,0.2-9.498,4.564-9.434,9.864 M305.73,287.672v0.577 M304.794,287.672v0.577 M305.73,298.616
	v0.433 M305.73,299.049h-0.937v-0.433 M295.361,298.112h9.433v0.504 M295.361,298.616h10.371 M304.794,288.249h0.937v0.504h-0.937
	V288.249z M304.794,288.753c-5.39,0.202-9.409,4.507-9.433,9.863 M371.754,288.249v-0.577 M372.689,287.601v0.648 M382.121,298.616
	h-9.43 M372.689,299.049v-0.937h9.43 M372.689,298.616h-0.936v0.433 M372.689,299.049h-0.936 M372.689,288.249v0.504
	 M372.689,288.249h-0.936v0.504 M382.121,298.616c0.1-5.673-4.721-10.215-10.367-9.863 M318.977,286.664h0.432 M319.408,286.664
	v1.008h-0.432 M318.473,286.664h0.504v1.008 M308.609,286.664h0.504v1.008h-0.504V286.664z M318.977,277.305v9.359 M318.473,277.305
	v9.359 M318.977,277.305c-5.172-0.221-9.781,4.182-9.863,9.359"/>
<rect fill="none" width="612" height="792"/>
<path fill="none" stroke="#000000" stroke-width="0.72" stroke-linecap="round" stroke-linejoin="round" stroke-miterlimit="10" d="
	M357.857,507.92h-0.504H357.857z M357.354,508.856h-0.504H357.354z M357.857,508.856h-0.504H357.857z M347.49,508.856h-0.434H347.49
	z M347.49,507.92h-0.434H347.49z"/>
<path fill="none" stroke="#000000" stroke-width="0.72" stroke-linecap="round" stroke-linejoin="round" stroke-miterlimit="10" d="
	M357.354,406.112v0.937 M367.648,407.049h0.504v-0.937 M367.217,407.049h0.432v-0.937h0.504 M357.354,407.049h0.504v-0.937h-0.504
	V407.049z M367.648,416.479v-9.429 M367.217,416.479v-9.429 M357.857,407.049c-0.037,5.23,4.604,9.513,9.791,9.429 M378.234,500.72
	h-0.938 M378.234,487.257h-0.938 M377.297,500.72v7.2 M378.234,500.72v7.2 M377.297,480.057v7.2 M378.234,480.057v7.2"/>
<path fill="none" stroke="#000000" stroke-width="0.72" stroke-linecap="round" stroke-linejoin="round" stroke-miterlimit="10" d="
	M347.49,508.856v-0.937 M347.057,508.856v-0.937 M357.354,508.784v-0.864 M357.857,508.856v-0.937 M347.49,508.856
	c0.25,5.318,4.525,9.412,9.863,9.359 M356.85,518.216v-9.359 M357.354,518.216v-9.432 M334.025,508.856v27.863 M334.961,508.856
	v27.863 M262.89,529.231v8.426h0.43 M263.321,529.16v8.496 M263.321,529.16c-3.977,0.452-7.092,4.542-6.477,8.496 M250.794,529.231
	v8.426h-0.433 M256.842,537.656c0.448-4.195-2.359-7.862-6.48-8.496v8.496 M265.913,526.353v-0.433 M250.361,537.656h-0.287
	 M250.074,537.656v0.937h0.287 M250.361,537.656v0.937 M263.321,537.656v0.937 M263.321,538.593h0.288v-0.937 M263.321,537.656
	h0.288 M264.978,525.92h0.936 M264.978,525.92v0.433h0.936 M255.546,536.216h9.429 M265.913,536.216h-0.936v-0.504 M255.546,535.712
	h9.429 M264.978,536.216v0.504h0.936 M265.913,536.216v0.504 M264.978,526.353c-5.246,0.157-9.525,4.607-9.43,9.863
	 M264.401,304.809h36.072 M264.401,305.816h36.072 M263.466,305.816v17.279 M241.865,304.809h0.937v1.008h-0.937v21.096
	 M242.802,304.809h0.863 M242.802,304.809v1.008h0.432 M243.233,304.809v1.008 M243.665,296.312v8.496 M251.946,304.809
	c0.008-4.82-3.896-8.646-8.713-8.496v8.496 M260.586,305.816v-1.008h-0.433 M260.586,305.816h0.432v-1.008 M260.586,304.809h0.432
	 M260.153,296.312v8.496 M260.586,296.312v8.496 M260.586,296.312c-4.624-0.25-8.815,3.878-8.64,8.496 M476.369,459.176v-46.728
	 M476.369,513.176v-43.704 M434.393,458.672h31.176 M475.938,459.176h0.934 M465.137,459.176v-0.935 M475.434,459.176h0.504
	 M475.434,448.809v9.433 M475.938,458.241h-1.008v-9.433 M475.434,458.241v0.933h0.504 M475.938,458.241v0.933 M465.137,458.241
	h0.43 M475.434,448.809c-5.486-0.265-10.311,4.935-9.867,10.367h-0.43 M476.873,459.176v-46.728 M475.938,459.68v-0.504
	 M475.938,469.976h0.934 M486.305,459.68h-9.432 M476.873,459.176v0.937h9.432 M476.873,459.68h-0.934v-0.504 M476.873,459.176
	h-0.934 M476.873,469.976v-0.504 M476.873,469.976h-0.934v-0.504 M476.873,469.472h-0.934 M476.873,469.472
	c5.201-0.03,9.504-4.624,9.432-9.792 M475.938,459.176v-46.728 M475.938,513.176v-43.704 M476.873,513.176v-43.704 M435.33,458.241
	h30.236 M434.393,459.176h31.176 M302.634,537.656v39.385 M164.609,404.456v-29.52 M240.857,405.393v19.656 M164.609,404.456h76.248
	 M164.609,405.393h76.248 M164.609,337.712h0.072 M164.609,337.712v0.937 M241.865,338.216h-1.008 M241.865,338.648v16.271
	 M240.857,338.648h-76.248 M164.609,306.753v30.959h77.256 M164.609,339.152v0.936 M465.568,400.712v-27.936h-21.6 M465.568,401.216
	v-0.071 M466.576,400.712v-27.936 M466.576,411.513h-1.008 M465.568,411.513v-0.504h1.008 M475.938,410.505h-9.363v1.008
	 M475.938,411.009h-9.363 M466.576,401.145h-1.008 M465.568,401.145v-0.433h1.008 M475.938,411.009
	c0.174-5.327-4.105-9.611-9.363-9.864v-0.433 M510.713,411.513v-36.576 M510.713,412.448h-76.32 M510.713,411.513h-76.32
	 M119.609,71.889h391.32 M514.168,163.904v-95.76 M162.233,110.48h-0.936 M162.233,101.265h-0.936 M161.298,101.265v0.432h0.936
	 M170.514,102.129h-8.28v-0.864 M162.233,110.48c4.881-0.353,8.164-3.928,8.28-8.784h-8.28 M162.233,170.385v-2.88 M170.514,171.249
	h-8.28v-0.433 M162.233,179.601c4.929-0.409,8.145-3.85,8.28-8.784h-8.28 M161.298,170.385v0.432h0.936 M162.233,170.385v0.432
	 M162.233,188.744h-0.936 M161.298,188.744v-0.432h0.936 M170.514,187.881h-8.28v0.863 M170.514,188.312h-8.28 M170.514,188.312
	c-0.091-4.673-3.501-8.603-8.28-8.712 M162.233,170.385h-0.936 M170.514,158.505h-8.28v0.432 M170.514,158.937h-8.28
	 M170.514,158.937c-0.121-4.864-3.393-8.426-8.28-8.784 M162.233,231.368v-42.624 M162.233,162.249v-2.881 M162.233,141.009V110.48
	 M162.233,101.265v-2.88 M161.298,159.368v-0.432h0.936 M162.233,159.368v-0.432 M162.233,141.009h-0.936 M161.298,141.009v0.432
	h0.936 M170.514,141.872h-8.28v-0.863 M162.233,150.152c4.847-0.143,8.195-3.964,8.28-8.712h-8.28 M162.233,159.368h-0.936
	 M161.298,170.385v-3.24 M161.298,141.009V110.48 M161.298,101.265v-5.76 M161.298,233.744h-43.704 M162.233,236.624h-47.52
	 M241.865,279.824h21.601 M241.865,277.448h21.601 M241.865,275.072h21.601 M241.865,272.624h21.601 M241.865,270.249h21.601
	 M241.865,267.872h21.601 M241.865,265.424h21.601 M241.865,263.049h21.601 M241.865,260.672h21.601 M259.146,236.624h4.32
	 M246.618,235.688h-0.433v0.936 M246.618,235.688v0.936h-0.433 M247.122,242.601v-5.977h-0.504v6.048 M246.618,242.672
	c3.342,0.098,6.056-2.817,6.047-6.048 M252.665,236.624c-0.082,3.248,2.707,6.121,5.977,6.048 M258.642,242.672v-6.048h-0.504v5.977
	 M259.146,236.624h-0.504v-0.936 M259.146,236.624v-0.936h-0.504 M240.857,262.112v43.704 M259.146,235.688h5.256 M264.401,262.112
	v42.696 M236.609,235.688h9.576 M167.489,235.688h63.864 M236.609,236.624h9.576 M167.489,236.624h63.864 M510.713,260.672v-24.048
	 M98.874,162.249h-5.256v5.256h5.256V162.249z M98.874,93.129h-5.256v5.256h5.256V93.129z M161.298,233.744v-45 M161.298,165.704
	v-6.336 M161.153,92.049H92.25 M36.882,95.001V68.145h37.296 M39.762,71.889v20.16 M117.594,167.145h43.704 M513.09,232.592h31.607
	 M514.168,234.968h33.408 M513.09,166.353h31.607 M547.576,234.968v-71.063h-33.408 M544.697,166.353v66.239 M122.489,40.784v27.36
	 M119.609,43.664v28.225 M74.178,40.784h48.312 M77.85,43.664h41.76 M122.489,68.145h391.679 M74.178,95.001v91.728 M77.85,92.049
	v90.936 M39.762,71.889H77.85 M74.178,40.784v27.36 M74.178,186.729h23.04 M77.85,182.984h22.464 M95.13,98.385v63.864
	 M77.85,43.664v28.225 M92.25,92.049v76.535 M98.874,165.704h62.424 M117.594,167.145v66.6 M97.218,186.729v77.544 M100.313,182.984
	v77.688 M92.25,168.584h22.464v68.04 M97.218,264.272h63.936 M100.313,260.672h60.84 M98.874,95.505h62.424 M36.882,95.001h37.296
	 M39.762,92.049H77.85 M510.93,71.889v20.16 M240.857,306.753v20.159 M373.912,479.12h-25.488 M373.912,407.049v31.677
	 M374.85,426.776v11.951 M412.793,355.064v-17.353 M411.857,262.112h-39.168 M241.865,260.672h-80.712 M433.889,292.137h0.504
	 M423.594,292.137h0.504 M434.393,293.072h-0.936 M423.594,293.072h0.504 M433.889,293.072v-0.936 M434.393,293.072v-0.936
	 M423.594,292.137v0.936 M424.098,293.072v-0.936 M433.889,302.505v-9.433 M433.457,302.505v-9.433 M424.098,293.072
	c0.086,5.345,4.512,9.396,9.791,9.433 M428.561,355.208v1.008 M428.561,356.216h-0.504v-1.008 M427.625,345.849v9.359h0.936
	 M428.057,345.849v9.359 M418.266,355.208v1.008"/>
</svg>
